G04 #@! TF.GenerationSoftware,KiCad,Pcbnew,5.0.0-fee4fd1~66~ubuntu18.04.1*
G04 #@! TF.CreationDate,2018-10-18T09:36:57+01:00*
G04 #@! TF.ProjectId,DDS-hat,4444532D6861742E6B696361645F7063,rev?*
G04 #@! TF.SameCoordinates,Original*
G04 #@! TF.FileFunction,Soldermask,Bot*
G04 #@! TF.FilePolarity,Negative*
%FSLAX46Y46*%
G04 Gerber Fmt 4.6, Leading zero omitted, Abs format (unit mm)*
G04 Created by KiCad (PCBNEW 5.0.0-fee4fd1~66~ubuntu18.04.1) date Thu Oct 18 09:36:57 2018*
%MOMM*%
%LPD*%
G01*
G04 APERTURE LIST*
%ADD10C,0.100000*%
%ADD11R,1.900000X1.900000*%
%ADD12O,1.900000X1.900000*%
%ADD13R,1.700000X4.200000*%
%ADD14R,1.700000X1.700000*%
%ADD15O,1.700000X1.700000*%
%ADD16C,3.200000*%
G04 APERTURE END LIST*
D10*
X114830000Y-116820000D02*
X140546356Y-116817611D01*
X107400000Y-115110000D02*
X107400000Y-116817611D01*
X114830000Y-115110000D02*
X114830000Y-116817611D01*
X107400000Y-115110000D02*
X114830000Y-115110000D01*
X78546356Y-63817611D02*
X78546356Y-113817611D01*
X78546356Y-63817611D02*
G75*
G02X81546356Y-60817611I3000000J0D01*
G01*
X140546356Y-60817611D02*
X81546356Y-60817611D01*
X140546356Y-60817611D02*
G75*
G02X143546356Y-63817611I0J-3000000D01*
G01*
X143546356Y-113817611D02*
X143546356Y-63817611D01*
X81546356Y-116817611D02*
G75*
G02X78546356Y-113817611I0J3000000D01*
G01*
X81546356Y-116817611D02*
X107400000Y-116820000D01*
X143546351Y-113822847D02*
G75*
G02X140546356Y-116817611I-2999995J5236D01*
G01*
D11*
G04 #@! TO.C,J5*
X97290000Y-91230000D03*
D12*
X97290000Y-93770000D03*
G04 #@! TD*
D11*
G04 #@! TO.C,J6*
X125510000Y-112080000D03*
D12*
X125510000Y-114620000D03*
G04 #@! TD*
D11*
G04 #@! TO.C,J4*
X103160000Y-71270000D03*
D12*
X103160000Y-73810000D03*
X103160000Y-76350000D03*
G04 #@! TD*
D13*
G04 #@! TO.C,J3*
X108110000Y-113040000D03*
X114110000Y-113040000D03*
G04 #@! TD*
D11*
G04 #@! TO.C,J2*
X115830000Y-107470000D03*
D12*
X115830000Y-104930000D03*
G04 #@! TD*
D11*
G04 #@! TO.C,J1*
X86890000Y-65610000D03*
D12*
X86890000Y-63070000D03*
X89430000Y-65610000D03*
X89430000Y-63070000D03*
X91970000Y-65610000D03*
X91970000Y-63070000D03*
X94510000Y-65610000D03*
X94510000Y-63070000D03*
X97050000Y-65610000D03*
X97050000Y-63070000D03*
X99590000Y-65610000D03*
X99590000Y-63070000D03*
X102130000Y-65610000D03*
X102130000Y-63070000D03*
X104670000Y-65610000D03*
X104670000Y-63070000D03*
X107210000Y-65610000D03*
X107210000Y-63070000D03*
X109750000Y-65610000D03*
X109750000Y-63070000D03*
X112290000Y-65610000D03*
X112290000Y-63070000D03*
X114830000Y-65610000D03*
X114830000Y-63070000D03*
X117370000Y-65610000D03*
X117370000Y-63070000D03*
X119910000Y-65610000D03*
X119910000Y-63070000D03*
X122450000Y-65610000D03*
X122450000Y-63070000D03*
X124990000Y-65610000D03*
X124990000Y-63070000D03*
X127530000Y-65610000D03*
X127530000Y-63070000D03*
X130070000Y-65610000D03*
X130070000Y-63070000D03*
X132610000Y-65610000D03*
X132610000Y-63070000D03*
X135150000Y-65610000D03*
X135150000Y-63070000D03*
G04 #@! TD*
D14*
G04 #@! TO.C,U4*
X81690000Y-76390000D03*
D15*
X84230000Y-76390000D03*
X89310000Y-76390000D03*
X91850000Y-76390000D03*
X94390000Y-76390000D03*
G04 #@! TD*
D16*
G04 #@! TO.C,H1*
X82040000Y-64310000D03*
G04 #@! TD*
G04 #@! TO.C,H2*
X140040000Y-64330000D03*
G04 #@! TD*
G04 #@! TO.C,H3*
X82040000Y-113320000D03*
G04 #@! TD*
G04 #@! TO.C,H4*
X140030000Y-113310000D03*
G04 #@! TD*
M02*
