M48
;DRILL file {KiCad 5.0.0-fee4fd1~66~ubuntu18.04.1} date Thu Oct 18 09:36:54 2018
;FORMAT={-:-/ absolute / inch / decimal}
FMAT,2
INCH,TZ
T1C0.0118
T2C0.0276
T3C0.0394
%
G90
G05
M72
T1
X3.2173Y-2.7146
X3.3083Y-2.7689
X3.3799Y-4.1189
X3.38Y-3.85
X3.3808Y-3.7208
X3.381Y-3.981
X3.5138Y-2.711
X3.5299Y-4.2831
X3.5551Y-3.3839
X3.611Y-2.7669
X3.6441Y-4.2827
X3.6539Y-2.7228
X3.7277Y-2.6957
X3.8071Y-2.765
X3.8697Y-2.6917
X3.8815Y-3.5118
X3.976Y-3.7157
X3.976Y-4.0748
X4.0161Y-3.8646
X4.0232Y-4.0756
X4.061Y-4.0752
X4.0614Y-3.502
X4.1035Y-4.0201
X4.152Y-4.4232
X4.1776Y-2.6921
X4.178Y-2.9732
X4.1902Y-3.8665
X4.1929Y-3.9697
X4.1937Y-4.0752
X4.1941Y-3.3437
X4.1957Y-3.826
X4.2138Y-3.9539
X4.2138Y-3.9028
X4.2295Y-3.1677
X4.2339Y-2.8402
X4.2409Y-3.1378
X4.2443Y-3.1902
X4.2457Y-3.1185
X4.2563Y-4.3496
X4.3098Y-3.4728
X4.3098Y-3.524
X4.3421Y-2.6917
X4.3421Y-3.7165
X4.3744Y-3.0772
X4.4004Y-3.4472
X4.4154Y-3.5752
X4.4512Y-3.4472
X4.4594Y-3.0287
X4.4629Y-3.2769
X4.4925Y-4.3492
X4.5083Y-2.8008
X4.5083Y-3.1189
X4.5161Y-2.8402
X4.5307Y-3.8772
X4.5308Y-3.8272
X4.5311Y-3.8524
X4.5319Y-4.0752
X4.537Y-3.9134
X4.5398Y-2.8606
X4.5567Y-3.1776
X4.6193Y-3.1776
X4.6567Y-3.8524
X4.6638Y-2.8874
X4.6744Y-3.6343
X4.7055Y-4.0823
X4.7063Y-3.7028
X4.713Y-3.3799
X4.7614Y-3.6339
X4.7622Y-2.6917
X4.7654Y-4.1988
X4.8024Y-3.7626
X4.8024Y-4.0209
X4.8169Y-4.2362
X4.8465Y-2.7228
X4.8803Y-2.6602
X5.0181Y-4.2673
X4.3224Y-3.7972
X4.3224Y-3.8553
X4.3224Y-3.9134
X4.3224Y-3.9715
X4.3224Y-4.0295
X4.3736Y-3.7972
X4.3736Y-3.8553
X4.3736Y-3.9134
X4.3736Y-3.9715
X4.3736Y-4.0295
X4.4248Y-3.7972
X4.4248Y-3.8553
X4.4248Y-3.9134
X4.4248Y-3.9715
X4.4248Y-4.0295
T2
X3.2161Y-3.0075
X3.3161Y-3.0075
X3.5161Y-3.0075
X3.6161Y-3.0075
X3.7161Y-3.0075
T3
X4.5602Y-4.1311
X4.5602Y-4.2311
X3.4209Y-2.4831
X3.4209Y-2.5831
X3.5209Y-2.4831
X3.5209Y-2.5831
X3.6209Y-2.4831
X3.6209Y-2.5831
X3.7209Y-2.4831
X3.7209Y-2.5831
X3.8209Y-2.4831
X3.8209Y-2.5831
X3.9209Y-2.4831
X3.9209Y-2.5831
X4.0209Y-2.4831
X4.0209Y-2.5831
X4.1209Y-2.4831
X4.1209Y-2.5831
X4.2209Y-2.4831
X4.2209Y-2.5831
X4.3209Y-2.4831
X4.3209Y-2.5831
X4.4209Y-2.4831
X4.4209Y-2.5831
X4.5209Y-2.4831
X4.5209Y-2.5831
X4.6209Y-2.4831
X4.6209Y-2.5831
X4.7209Y-2.4831
X4.7209Y-2.5831
X4.8209Y-2.4831
X4.8209Y-2.5831
X4.9209Y-2.4831
X4.9209Y-2.5831
X5.0209Y-2.4831
X5.0209Y-2.5831
X5.1209Y-2.4831
X5.1209Y-2.5831
X5.2209Y-2.4831
X5.2209Y-2.5831
X5.3209Y-2.4831
X5.3209Y-2.5831
X3.8303Y-3.5917
X3.8303Y-3.6917
X4.0614Y-2.8059
X4.0614Y-2.9059
X4.0614Y-3.0059
X4.9413Y-4.4126
X4.9413Y-4.5126
T0
M30
