G04 #@! TF.GenerationSoftware,KiCad,Pcbnew,5.0.0-fee4fd1~66~ubuntu18.04.1*
G04 #@! TF.CreationDate,2018-10-18T09:36:57+01:00*
G04 #@! TF.ProjectId,DDS-hat,4444532D6861742E6B696361645F7063,rev?*
G04 #@! TF.SameCoordinates,Original*
G04 #@! TF.FileFunction,Legend,Top*
G04 #@! TF.FilePolarity,Positive*
%FSLAX46Y46*%
G04 Gerber Fmt 4.6, Leading zero omitted, Abs format (unit mm)*
G04 Created by KiCad (PCBNEW 5.0.0-fee4fd1~66~ubuntu18.04.1) date Thu Oct 18 09:36:57 2018*
%MOMM*%
%LPD*%
G01*
G04 APERTURE LIST*
%ADD10C,0.100000*%
%ADD11C,0.120000*%
%ADD12C,0.150000*%
G04 APERTURE END LIST*
D10*
X91044285Y-90182857D02*
X90910952Y-90182857D01*
X90910952Y-90601904D02*
X90910952Y-89801904D01*
X91101428Y-89801904D01*
X91253809Y-90601904D02*
X91253809Y-89801904D01*
X91634761Y-90601904D02*
X91444285Y-90601904D01*
X91444285Y-89801904D01*
X91710952Y-89801904D02*
X91939523Y-89801904D01*
X91825238Y-90601904D02*
X91825238Y-89801904D01*
X92072857Y-90182857D02*
X92206190Y-90182857D01*
X92263333Y-90601904D02*
X92072857Y-90601904D01*
X92072857Y-89801904D01*
X92263333Y-89801904D01*
X92663333Y-90601904D02*
X92530000Y-90220952D01*
X92434761Y-90601904D02*
X92434761Y-89801904D01*
X92587142Y-89801904D01*
X92625238Y-89840000D01*
X92644285Y-89878095D01*
X92663333Y-89954285D01*
X92663333Y-90068571D01*
X92644285Y-90144761D01*
X92625238Y-90182857D01*
X92587142Y-90220952D01*
X92434761Y-90220952D01*
X93139523Y-90601904D02*
X93139523Y-89801904D01*
X93234761Y-89801904D01*
X93291904Y-89840000D01*
X93330000Y-89916190D01*
X93349047Y-89992380D01*
X93368095Y-90144761D01*
X93368095Y-90259047D01*
X93349047Y-90411428D01*
X93330000Y-90487619D01*
X93291904Y-90563809D01*
X93234761Y-90601904D01*
X93139523Y-90601904D01*
X93539523Y-90601904D02*
X93539523Y-89801904D01*
X93710952Y-90563809D02*
X93768095Y-90601904D01*
X93863333Y-90601904D01*
X93901428Y-90563809D01*
X93920476Y-90525714D01*
X93939523Y-90449523D01*
X93939523Y-90373333D01*
X93920476Y-90297142D01*
X93901428Y-90259047D01*
X93863333Y-90220952D01*
X93787142Y-90182857D01*
X93749047Y-90144761D01*
X93730000Y-90106666D01*
X93710952Y-90030476D01*
X93710952Y-89954285D01*
X93730000Y-89878095D01*
X93749047Y-89840000D01*
X93787142Y-89801904D01*
X93882380Y-89801904D01*
X93939523Y-89840000D01*
X94091904Y-90373333D02*
X94282380Y-90373333D01*
X94053809Y-90601904D02*
X94187142Y-89801904D01*
X94320476Y-90601904D01*
X94587142Y-90182857D02*
X94644285Y-90220952D01*
X94663333Y-90259047D01*
X94682380Y-90335238D01*
X94682380Y-90449523D01*
X94663333Y-90525714D01*
X94644285Y-90563809D01*
X94606190Y-90601904D01*
X94453809Y-90601904D01*
X94453809Y-89801904D01*
X94587142Y-89801904D01*
X94625238Y-89840000D01*
X94644285Y-89878095D01*
X94663333Y-89954285D01*
X94663333Y-90030476D01*
X94644285Y-90106666D01*
X94625238Y-90144761D01*
X94587142Y-90182857D01*
X94453809Y-90182857D01*
X95044285Y-90601904D02*
X94853809Y-90601904D01*
X94853809Y-89801904D01*
X95177619Y-90182857D02*
X95310952Y-90182857D01*
X95368095Y-90601904D02*
X95177619Y-90601904D01*
X95177619Y-89801904D01*
X95368095Y-89801904D01*
X101682857Y-79065714D02*
X101663809Y-79103809D01*
X101606666Y-79141904D01*
X101568571Y-79141904D01*
X101511428Y-79103809D01*
X101473333Y-79027619D01*
X101454285Y-78951428D01*
X101435238Y-78799047D01*
X101435238Y-78684761D01*
X101454285Y-78532380D01*
X101473333Y-78456190D01*
X101511428Y-78380000D01*
X101568571Y-78341904D01*
X101606666Y-78341904D01*
X101663809Y-78380000D01*
X101682857Y-78418095D01*
X102044761Y-79141904D02*
X101854285Y-79141904D01*
X101854285Y-78341904D01*
X102178095Y-79141904D02*
X102178095Y-78341904D01*
X102406666Y-79141904D02*
X102235238Y-78684761D01*
X102406666Y-78341904D02*
X102178095Y-78799047D01*
X102863809Y-79103809D02*
X102920952Y-79141904D01*
X103016190Y-79141904D01*
X103054285Y-79103809D01*
X103073333Y-79065714D01*
X103092380Y-78989523D01*
X103092380Y-78913333D01*
X103073333Y-78837142D01*
X103054285Y-78799047D01*
X103016190Y-78760952D01*
X102940000Y-78722857D01*
X102901904Y-78684761D01*
X102882857Y-78646666D01*
X102863809Y-78570476D01*
X102863809Y-78494285D01*
X102882857Y-78418095D01*
X102901904Y-78380000D01*
X102940000Y-78341904D01*
X103035238Y-78341904D01*
X103092380Y-78380000D01*
X103263809Y-78722857D02*
X103397142Y-78722857D01*
X103454285Y-79141904D02*
X103263809Y-79141904D01*
X103263809Y-78341904D01*
X103454285Y-78341904D01*
X103816190Y-79141904D02*
X103625714Y-79141904D01*
X103625714Y-78341904D01*
X103949523Y-78722857D02*
X104082857Y-78722857D01*
X104140000Y-79141904D02*
X103949523Y-79141904D01*
X103949523Y-78341904D01*
X104140000Y-78341904D01*
X104540000Y-79065714D02*
X104520952Y-79103809D01*
X104463809Y-79141904D01*
X104425714Y-79141904D01*
X104368571Y-79103809D01*
X104330476Y-79027619D01*
X104311428Y-78951428D01*
X104292380Y-78799047D01*
X104292380Y-78684761D01*
X104311428Y-78532380D01*
X104330476Y-78456190D01*
X104368571Y-78380000D01*
X104425714Y-78341904D01*
X104463809Y-78341904D01*
X104520952Y-78380000D01*
X104540000Y-78418095D01*
X104654285Y-78341904D02*
X104882857Y-78341904D01*
X104768571Y-79141904D02*
X104768571Y-78341904D01*
X115711904Y-109481904D02*
X115521428Y-109481904D01*
X115502380Y-109862857D01*
X115521428Y-109824761D01*
X115559523Y-109786666D01*
X115654761Y-109786666D01*
X115692857Y-109824761D01*
X115711904Y-109862857D01*
X115730952Y-109939047D01*
X115730952Y-110129523D01*
X115711904Y-110205714D01*
X115692857Y-110243809D01*
X115654761Y-110281904D01*
X115559523Y-110281904D01*
X115521428Y-110243809D01*
X115502380Y-110205714D01*
X115978571Y-109481904D02*
X116016666Y-109481904D01*
X116054761Y-109520000D01*
X116073809Y-109558095D01*
X116092857Y-109634285D01*
X116111904Y-109786666D01*
X116111904Y-109977142D01*
X116092857Y-110129523D01*
X116073809Y-110205714D01*
X116054761Y-110243809D01*
X116016666Y-110281904D01*
X115978571Y-110281904D01*
X115940476Y-110243809D01*
X115921428Y-110205714D01*
X115902380Y-110129523D01*
X115883333Y-109977142D01*
X115883333Y-109786666D01*
X115902380Y-109634285D01*
X115921428Y-109558095D01*
X115940476Y-109520000D01*
X115978571Y-109481904D01*
X116664285Y-109481904D02*
X116740476Y-109481904D01*
X116778571Y-109520000D01*
X116816666Y-109596190D01*
X116835714Y-109748571D01*
X116835714Y-110015238D01*
X116816666Y-110167619D01*
X116778571Y-110243809D01*
X116740476Y-110281904D01*
X116664285Y-110281904D01*
X116626190Y-110243809D01*
X116588095Y-110167619D01*
X116569047Y-110015238D01*
X116569047Y-109748571D01*
X116588095Y-109596190D01*
X116626190Y-109520000D01*
X116664285Y-109481904D01*
X117007142Y-110281904D02*
X117007142Y-109481904D01*
X117007142Y-109862857D02*
X117235714Y-109862857D01*
X117235714Y-110281904D02*
X117235714Y-109481904D01*
X117426190Y-110281904D02*
X117426190Y-109481904D01*
X117559523Y-110053333D01*
X117692857Y-109481904D01*
X117692857Y-110281904D01*
X118169047Y-110243809D02*
X118226190Y-110281904D01*
X118321428Y-110281904D01*
X118359523Y-110243809D01*
X118378571Y-110205714D01*
X118397619Y-110129523D01*
X118397619Y-110053333D01*
X118378571Y-109977142D01*
X118359523Y-109939047D01*
X118321428Y-109900952D01*
X118245238Y-109862857D01*
X118207142Y-109824761D01*
X118188095Y-109786666D01*
X118169047Y-109710476D01*
X118169047Y-109634285D01*
X118188095Y-109558095D01*
X118207142Y-109520000D01*
X118245238Y-109481904D01*
X118340476Y-109481904D01*
X118397619Y-109520000D01*
X118645238Y-109481904D02*
X118721428Y-109481904D01*
X118759523Y-109520000D01*
X118797619Y-109596190D01*
X118816666Y-109748571D01*
X118816666Y-110015238D01*
X118797619Y-110167619D01*
X118759523Y-110243809D01*
X118721428Y-110281904D01*
X118645238Y-110281904D01*
X118607142Y-110243809D01*
X118569047Y-110167619D01*
X118550000Y-110015238D01*
X118550000Y-109748571D01*
X118569047Y-109596190D01*
X118607142Y-109520000D01*
X118645238Y-109481904D01*
X118988095Y-109481904D02*
X118988095Y-110129523D01*
X119007142Y-110205714D01*
X119026190Y-110243809D01*
X119064285Y-110281904D01*
X119140476Y-110281904D01*
X119178571Y-110243809D01*
X119197619Y-110205714D01*
X119216666Y-110129523D01*
X119216666Y-109481904D01*
X119635714Y-110281904D02*
X119502380Y-109900952D01*
X119407142Y-110281904D02*
X119407142Y-109481904D01*
X119559523Y-109481904D01*
X119597619Y-109520000D01*
X119616666Y-109558095D01*
X119635714Y-109634285D01*
X119635714Y-109748571D01*
X119616666Y-109824761D01*
X119597619Y-109862857D01*
X119559523Y-109900952D01*
X119407142Y-109900952D01*
X120035714Y-110205714D02*
X120016666Y-110243809D01*
X119959523Y-110281904D01*
X119921428Y-110281904D01*
X119864285Y-110243809D01*
X119826190Y-110167619D01*
X119807142Y-110091428D01*
X119788095Y-109939047D01*
X119788095Y-109824761D01*
X119807142Y-109672380D01*
X119826190Y-109596190D01*
X119864285Y-109520000D01*
X119921428Y-109481904D01*
X119959523Y-109481904D01*
X120016666Y-109520000D01*
X120035714Y-109558095D01*
X120207142Y-109862857D02*
X120340476Y-109862857D01*
X120397619Y-110281904D02*
X120207142Y-110281904D01*
X120207142Y-109481904D01*
X120397619Y-109481904D01*
X127427619Y-110371904D02*
X127656190Y-110371904D01*
X127541904Y-111171904D02*
X127541904Y-110371904D01*
X127732380Y-110371904D02*
X127960952Y-110371904D01*
X127846666Y-111171904D02*
X127846666Y-110371904D01*
X128284761Y-111171904D02*
X128094285Y-111171904D01*
X128094285Y-110371904D01*
X128703809Y-111133809D02*
X128760952Y-111171904D01*
X128856190Y-111171904D01*
X128894285Y-111133809D01*
X128913333Y-111095714D01*
X128932380Y-111019523D01*
X128932380Y-110943333D01*
X128913333Y-110867142D01*
X128894285Y-110829047D01*
X128856190Y-110790952D01*
X128780000Y-110752857D01*
X128741904Y-110714761D01*
X128722857Y-110676666D01*
X128703809Y-110600476D01*
X128703809Y-110524285D01*
X128722857Y-110448095D01*
X128741904Y-110410000D01*
X128780000Y-110371904D01*
X128875238Y-110371904D01*
X128932380Y-110410000D01*
X129180000Y-110790952D02*
X129180000Y-111171904D01*
X129046666Y-110371904D02*
X129180000Y-110790952D01*
X129313333Y-110371904D01*
X129446666Y-111171904D02*
X129446666Y-110371904D01*
X129675238Y-111171904D01*
X129675238Y-110371904D01*
X130094285Y-111095714D02*
X130075238Y-111133809D01*
X130018095Y-111171904D01*
X129980000Y-111171904D01*
X129922857Y-111133809D01*
X129884761Y-111057619D01*
X129865714Y-110981428D01*
X129846666Y-110829047D01*
X129846666Y-110714761D01*
X129865714Y-110562380D01*
X129884761Y-110486190D01*
X129922857Y-110410000D01*
X129980000Y-110371904D01*
X130018095Y-110371904D01*
X130075238Y-110410000D01*
X130094285Y-110448095D01*
X97765714Y-113465714D02*
X97746666Y-113503809D01*
X97689523Y-113541904D01*
X97651428Y-113541904D01*
X97594285Y-113503809D01*
X97556190Y-113427619D01*
X97537142Y-113351428D01*
X97518095Y-113199047D01*
X97518095Y-113084761D01*
X97537142Y-112932380D01*
X97556190Y-112856190D01*
X97594285Y-112780000D01*
X97651428Y-112741904D01*
X97689523Y-112741904D01*
X97746666Y-112780000D01*
X97765714Y-112818095D01*
X97937142Y-112741904D02*
X97937142Y-113389523D01*
X97956190Y-113465714D01*
X97975238Y-113503809D01*
X98013333Y-113541904D01*
X98089523Y-113541904D01*
X98127619Y-113503809D01*
X98146666Y-113465714D01*
X98165714Y-113389523D01*
X98165714Y-112741904D01*
X98584761Y-113541904D02*
X98451428Y-113160952D01*
X98356190Y-113541904D02*
X98356190Y-112741904D01*
X98508571Y-112741904D01*
X98546666Y-112780000D01*
X98565714Y-112818095D01*
X98584761Y-112894285D01*
X98584761Y-113008571D01*
X98565714Y-113084761D01*
X98546666Y-113122857D01*
X98508571Y-113160952D01*
X98356190Y-113160952D01*
X98984761Y-113541904D02*
X98851428Y-113160952D01*
X98756190Y-113541904D02*
X98756190Y-112741904D01*
X98908571Y-112741904D01*
X98946666Y-112780000D01*
X98965714Y-112818095D01*
X98984761Y-112894285D01*
X98984761Y-113008571D01*
X98965714Y-113084761D01*
X98946666Y-113122857D01*
X98908571Y-113160952D01*
X98756190Y-113160952D01*
X99156190Y-113122857D02*
X99289523Y-113122857D01*
X99346666Y-113541904D02*
X99156190Y-113541904D01*
X99156190Y-112741904D01*
X99346666Y-112741904D01*
X99518095Y-113541904D02*
X99518095Y-112741904D01*
X99746666Y-113541904D01*
X99746666Y-112741904D01*
X99880000Y-112741904D02*
X100108571Y-112741904D01*
X99994285Y-113541904D02*
X99994285Y-112741904D01*
X100737142Y-113541904D02*
X100546666Y-113541904D01*
X100546666Y-112741904D01*
X100870476Y-113541904D02*
X100870476Y-112741904D01*
X101060952Y-113541904D02*
X101060952Y-112741904D01*
X101194285Y-113313333D01*
X101327619Y-112741904D01*
X101327619Y-113541904D01*
X101518095Y-113541904D02*
X101518095Y-112741904D01*
X101651428Y-112741904D02*
X101880000Y-112741904D01*
X101765714Y-113541904D02*
X101765714Y-112741904D01*
X98422857Y-114041904D02*
X98518095Y-114841904D01*
X98594285Y-114270476D01*
X98670476Y-114841904D01*
X98765714Y-114041904D01*
X98899047Y-114613333D02*
X99089523Y-114613333D01*
X98860952Y-114841904D02*
X98994285Y-114041904D01*
X99127619Y-114841904D01*
X99489523Y-114841904D02*
X99356190Y-114460952D01*
X99260952Y-114841904D02*
X99260952Y-114041904D01*
X99413333Y-114041904D01*
X99451428Y-114080000D01*
X99470476Y-114118095D01*
X99489523Y-114194285D01*
X99489523Y-114308571D01*
X99470476Y-114384761D01*
X99451428Y-114422857D01*
X99413333Y-114460952D01*
X99260952Y-114460952D01*
X99660952Y-114841904D02*
X99660952Y-114041904D01*
X99889523Y-114841904D01*
X99889523Y-114041904D01*
X100080000Y-114841904D02*
X100080000Y-114041904D01*
X100270476Y-114841904D02*
X100270476Y-114041904D01*
X100499047Y-114841904D01*
X100499047Y-114041904D01*
X100899047Y-114080000D02*
X100860952Y-114041904D01*
X100803809Y-114041904D01*
X100746666Y-114080000D01*
X100708571Y-114156190D01*
X100689523Y-114232380D01*
X100670476Y-114384761D01*
X100670476Y-114499047D01*
X100689523Y-114651428D01*
X100708571Y-114727619D01*
X100746666Y-114803809D01*
X100803809Y-114841904D01*
X100841904Y-114841904D01*
X100899047Y-114803809D01*
X100918095Y-114765714D01*
X100918095Y-114499047D01*
X100841904Y-114499047D01*
X138430000Y-78151904D02*
X138296666Y-77770952D01*
X138201428Y-78151904D02*
X138201428Y-77351904D01*
X138353809Y-77351904D01*
X138391904Y-77390000D01*
X138410952Y-77428095D01*
X138430000Y-77504285D01*
X138430000Y-77618571D01*
X138410952Y-77694761D01*
X138391904Y-77732857D01*
X138353809Y-77770952D01*
X138201428Y-77770952D01*
X138601428Y-77732857D02*
X138734761Y-77732857D01*
X138791904Y-78151904D02*
X138601428Y-78151904D01*
X138601428Y-77351904D01*
X138791904Y-77351904D01*
X138906190Y-77351904D02*
X139039523Y-78151904D01*
X139172857Y-77351904D01*
X139287142Y-77923333D02*
X139477619Y-77923333D01*
X139249047Y-78151904D02*
X139382380Y-77351904D01*
X139515714Y-78151904D01*
X98788571Y-101100000D02*
X98750476Y-101061904D01*
X98693333Y-101061904D01*
X98636190Y-101100000D01*
X98598095Y-101176190D01*
X98579047Y-101252380D01*
X98560000Y-101404761D01*
X98560000Y-101519047D01*
X98579047Y-101671428D01*
X98598095Y-101747619D01*
X98636190Y-101823809D01*
X98693333Y-101861904D01*
X98731428Y-101861904D01*
X98788571Y-101823809D01*
X98807619Y-101785714D01*
X98807619Y-101519047D01*
X98731428Y-101519047D01*
X98960000Y-101633333D02*
X99150476Y-101633333D01*
X98921904Y-101861904D02*
X99055238Y-101061904D01*
X99188571Y-101861904D01*
X99321904Y-101861904D02*
X99321904Y-101061904D01*
X99512380Y-101861904D02*
X99512380Y-101061904D01*
X99740952Y-101861904D01*
X99740952Y-101061904D01*
X120435238Y-84231904D02*
X120511428Y-84231904D01*
X120549523Y-84270000D01*
X120587619Y-84346190D01*
X120606666Y-84498571D01*
X120606666Y-84765238D01*
X120587619Y-84917619D01*
X120549523Y-84993809D01*
X120511428Y-85031904D01*
X120435238Y-85031904D01*
X120397142Y-84993809D01*
X120359047Y-84917619D01*
X120340000Y-84765238D01*
X120340000Y-84498571D01*
X120359047Y-84346190D01*
X120397142Y-84270000D01*
X120435238Y-84231904D01*
X120911428Y-84612857D02*
X120778095Y-84612857D01*
X120778095Y-85031904D02*
X120778095Y-84231904D01*
X120968571Y-84231904D01*
X121254285Y-84612857D02*
X121120952Y-84612857D01*
X121120952Y-85031904D02*
X121120952Y-84231904D01*
X121311428Y-84231904D01*
X121444761Y-84993809D02*
X121501904Y-85031904D01*
X121597142Y-85031904D01*
X121635238Y-84993809D01*
X121654285Y-84955714D01*
X121673333Y-84879523D01*
X121673333Y-84803333D01*
X121654285Y-84727142D01*
X121635238Y-84689047D01*
X121597142Y-84650952D01*
X121520952Y-84612857D01*
X121482857Y-84574761D01*
X121463809Y-84536666D01*
X121444761Y-84460476D01*
X121444761Y-84384285D01*
X121463809Y-84308095D01*
X121482857Y-84270000D01*
X121520952Y-84231904D01*
X121616190Y-84231904D01*
X121673333Y-84270000D01*
X121844761Y-84612857D02*
X121978095Y-84612857D01*
X122035238Y-85031904D02*
X121844761Y-85031904D01*
X121844761Y-84231904D01*
X122035238Y-84231904D01*
X122149523Y-84231904D02*
X122378095Y-84231904D01*
X122263809Y-85031904D02*
X122263809Y-84231904D01*
X114830000Y-116820000D02*
X140546356Y-116817611D01*
X107400000Y-115110000D02*
X107400000Y-116817611D01*
X114830000Y-115110000D02*
X114830000Y-116817611D01*
X107400000Y-115110000D02*
X114830000Y-115110000D01*
X137155952Y-69336904D02*
X136927380Y-69336904D01*
X137041666Y-69336904D02*
X137041666Y-68536904D01*
X137003571Y-68651190D01*
X136965476Y-68727380D01*
X136927380Y-68765476D01*
X137403571Y-68536904D02*
X137441666Y-68536904D01*
X137479761Y-68575000D01*
X137498809Y-68613095D01*
X137517857Y-68689285D01*
X137536904Y-68841666D01*
X137536904Y-69032142D01*
X137517857Y-69184523D01*
X137498809Y-69260714D01*
X137479761Y-69298809D01*
X137441666Y-69336904D01*
X137403571Y-69336904D01*
X137365476Y-69298809D01*
X137346428Y-69260714D01*
X137327380Y-69184523D01*
X137308333Y-69032142D01*
X137308333Y-68841666D01*
X137327380Y-68689285D01*
X137346428Y-68613095D01*
X137365476Y-68575000D01*
X137403571Y-68536904D01*
X137708333Y-69336904D02*
X137708333Y-68536904D01*
X137841666Y-69108333D01*
X137975000Y-68536904D01*
X137975000Y-69336904D01*
X138165476Y-69336904D02*
X138165476Y-68536904D01*
X138165476Y-68917857D02*
X138394047Y-68917857D01*
X138394047Y-69336904D02*
X138394047Y-68536904D01*
X138546428Y-68803571D02*
X138755952Y-68803571D01*
X138546428Y-69336904D01*
X138755952Y-69336904D01*
X139213095Y-69336904D02*
X139213095Y-68536904D01*
X139308333Y-68536904D01*
X139365476Y-68575000D01*
X139403571Y-68651190D01*
X139422619Y-68727380D01*
X139441666Y-68879761D01*
X139441666Y-68994047D01*
X139422619Y-69146428D01*
X139403571Y-69222619D01*
X139365476Y-69298809D01*
X139308333Y-69336904D01*
X139213095Y-69336904D01*
X139613095Y-69336904D02*
X139613095Y-68536904D01*
X139708333Y-68536904D01*
X139765476Y-68575000D01*
X139803571Y-68651190D01*
X139822619Y-68727380D01*
X139841666Y-68879761D01*
X139841666Y-68994047D01*
X139822619Y-69146428D01*
X139803571Y-69222619D01*
X139765476Y-69298809D01*
X139708333Y-69336904D01*
X139613095Y-69336904D01*
X139994047Y-69298809D02*
X140051190Y-69336904D01*
X140146428Y-69336904D01*
X140184523Y-69298809D01*
X140203571Y-69260714D01*
X140222619Y-69184523D01*
X140222619Y-69108333D01*
X140203571Y-69032142D01*
X140184523Y-68994047D01*
X140146428Y-68955952D01*
X140070238Y-68917857D01*
X140032142Y-68879761D01*
X140013095Y-68841666D01*
X139994047Y-68765476D01*
X139994047Y-68689285D01*
X140013095Y-68613095D01*
X140032142Y-68575000D01*
X140070238Y-68536904D01*
X140165476Y-68536904D01*
X140222619Y-68575000D01*
X135641666Y-70217857D02*
X135508333Y-70217857D01*
X135508333Y-70636904D02*
X135508333Y-69836904D01*
X135698809Y-69836904D01*
X135851190Y-69836904D02*
X135851190Y-70484523D01*
X135870238Y-70560714D01*
X135889285Y-70598809D01*
X135927380Y-70636904D01*
X136003571Y-70636904D01*
X136041666Y-70598809D01*
X136060714Y-70560714D01*
X136079761Y-70484523D01*
X136079761Y-69836904D01*
X136270238Y-70636904D02*
X136270238Y-69836904D01*
X136498809Y-70636904D01*
X136498809Y-69836904D01*
X136917857Y-70560714D02*
X136898809Y-70598809D01*
X136841666Y-70636904D01*
X136803571Y-70636904D01*
X136746428Y-70598809D01*
X136708333Y-70522619D01*
X136689285Y-70446428D01*
X136670238Y-70294047D01*
X136670238Y-70179761D01*
X136689285Y-70027380D01*
X136708333Y-69951190D01*
X136746428Y-69875000D01*
X136803571Y-69836904D01*
X136841666Y-69836904D01*
X136898809Y-69875000D01*
X136917857Y-69913095D01*
X137032142Y-69836904D02*
X137260714Y-69836904D01*
X137146428Y-70636904D02*
X137146428Y-69836904D01*
X137394047Y-70636904D02*
X137394047Y-69836904D01*
X137660714Y-69836904D02*
X137736904Y-69836904D01*
X137775000Y-69875000D01*
X137813095Y-69951190D01*
X137832142Y-70103571D01*
X137832142Y-70370238D01*
X137813095Y-70522619D01*
X137775000Y-70598809D01*
X137736904Y-70636904D01*
X137660714Y-70636904D01*
X137622619Y-70598809D01*
X137584523Y-70522619D01*
X137565476Y-70370238D01*
X137565476Y-70103571D01*
X137584523Y-69951190D01*
X137622619Y-69875000D01*
X137660714Y-69836904D01*
X138003571Y-70636904D02*
X138003571Y-69836904D01*
X138232142Y-70636904D01*
X138232142Y-69836904D01*
X138936904Y-69875000D02*
X138898809Y-69836904D01*
X138841666Y-69836904D01*
X138784523Y-69875000D01*
X138746428Y-69951190D01*
X138727380Y-70027380D01*
X138708333Y-70179761D01*
X138708333Y-70294047D01*
X138727380Y-70446428D01*
X138746428Y-70522619D01*
X138784523Y-70598809D01*
X138841666Y-70636904D01*
X138879761Y-70636904D01*
X138936904Y-70598809D01*
X138955952Y-70560714D01*
X138955952Y-70294047D01*
X138879761Y-70294047D01*
X139127380Y-70217857D02*
X139260714Y-70217857D01*
X139317857Y-70636904D02*
X139127380Y-70636904D01*
X139127380Y-69836904D01*
X139317857Y-69836904D01*
X139489285Y-70636904D02*
X139489285Y-69836904D01*
X139717857Y-70636904D01*
X139717857Y-69836904D01*
X139908333Y-70217857D02*
X140041666Y-70217857D01*
X140098809Y-70636904D02*
X139908333Y-70636904D01*
X139908333Y-69836904D01*
X140098809Y-69836904D01*
X140498809Y-70636904D02*
X140365476Y-70255952D01*
X140270238Y-70636904D02*
X140270238Y-69836904D01*
X140422619Y-69836904D01*
X140460714Y-69875000D01*
X140479761Y-69913095D01*
X140498809Y-69989285D01*
X140498809Y-70103571D01*
X140479761Y-70179761D01*
X140460714Y-70217857D01*
X140422619Y-70255952D01*
X140270238Y-70255952D01*
X140651190Y-70408333D02*
X140841666Y-70408333D01*
X140613095Y-70636904D02*
X140746428Y-69836904D01*
X140879761Y-70636904D01*
X140955952Y-69836904D02*
X141184523Y-69836904D01*
X141070238Y-70636904D02*
X141070238Y-69836904D01*
X141394047Y-69836904D02*
X141470238Y-69836904D01*
X141508333Y-69875000D01*
X141546428Y-69951190D01*
X141565476Y-70103571D01*
X141565476Y-70370238D01*
X141546428Y-70522619D01*
X141508333Y-70598809D01*
X141470238Y-70636904D01*
X141394047Y-70636904D01*
X141355952Y-70598809D01*
X141317857Y-70522619D01*
X141298809Y-70370238D01*
X141298809Y-70103571D01*
X141317857Y-69951190D01*
X141355952Y-69875000D01*
X141394047Y-69836904D01*
X141965476Y-70636904D02*
X141832142Y-70255952D01*
X141736904Y-70636904D02*
X141736904Y-69836904D01*
X141889285Y-69836904D01*
X141927380Y-69875000D01*
X141946428Y-69913095D01*
X141965476Y-69989285D01*
X141965476Y-70103571D01*
X141946428Y-70179761D01*
X141927380Y-70217857D01*
X141889285Y-70255952D01*
X141736904Y-70255952D01*
X78546356Y-63817611D02*
X78546356Y-113817611D01*
X78546356Y-63817611D02*
G75*
G02X81546356Y-60817611I3000000J0D01*
G01*
X140546356Y-60817611D02*
X81546356Y-60817611D01*
X140546356Y-60817611D02*
G75*
G02X143546356Y-63817611I0J-3000000D01*
G01*
X143546356Y-113817611D02*
X143546356Y-63817611D01*
X81546356Y-116817611D02*
G75*
G02X78546356Y-113817611I0J3000000D01*
G01*
X81546356Y-116817611D02*
X107400000Y-116820000D01*
X143546351Y-113822847D02*
G75*
G02X140546356Y-116817611I-2999995J5236D01*
G01*
D11*
G04 #@! TO.C,C30*
X112790000Y-75957221D02*
X112790000Y-76282779D01*
X111770000Y-75957221D02*
X111770000Y-76282779D01*
G04 #@! TO.C,J5*
X95960000Y-95100000D02*
X98620000Y-95100000D01*
X95960000Y-92500000D02*
X95960000Y-95100000D01*
X98620000Y-92500000D02*
X98620000Y-95100000D01*
X95960000Y-92500000D02*
X98620000Y-92500000D01*
X95960000Y-91230000D02*
X95960000Y-89900000D01*
X95960000Y-89900000D02*
X97290000Y-89900000D01*
G04 #@! TO.C,R16*
X120430000Y-90892779D02*
X120430000Y-90567221D01*
X121450000Y-90892779D02*
X121450000Y-90567221D01*
G04 #@! TO.C,U6*
X123530000Y-108260000D02*
X125130000Y-108260000D01*
X125130000Y-105060000D02*
X122830000Y-105060000D01*
G04 #@! TO.C,C29*
X127970000Y-106597221D02*
X127970000Y-106922779D01*
X126950000Y-106597221D02*
X126950000Y-106922779D01*
G04 #@! TO.C,J6*
X124180000Y-115950000D02*
X126840000Y-115950000D01*
X124180000Y-113350000D02*
X124180000Y-115950000D01*
X126840000Y-113350000D02*
X126840000Y-115950000D01*
X124180000Y-113350000D02*
X126840000Y-113350000D01*
X124180000Y-112080000D02*
X124180000Y-110750000D01*
X124180000Y-110750000D02*
X125510000Y-110750000D01*
G04 #@! TO.C,D1*
X102210000Y-112720000D02*
X102210000Y-115605000D01*
X102210000Y-115605000D02*
X104030000Y-115605000D01*
X104030000Y-115605000D02*
X104030000Y-112720000D01*
G04 #@! TO.C,Q1*
X101560000Y-106480000D02*
X102490000Y-106480000D01*
X104720000Y-106480000D02*
X103790000Y-106480000D01*
X104720000Y-106480000D02*
X104720000Y-104320000D01*
X101560000Y-106480000D02*
X101560000Y-105020000D01*
G04 #@! TO.C,R15*
X104950000Y-114172779D02*
X104950000Y-113847221D01*
X105970000Y-114172779D02*
X105970000Y-113847221D01*
G04 #@! TO.C,C28*
X90172000Y-107050721D02*
X90172000Y-107376279D01*
X89152000Y-107050721D02*
X89152000Y-107376279D01*
G04 #@! TO.C,C27*
X93070000Y-103902779D02*
X93070000Y-103577221D01*
X92050000Y-103902779D02*
X92050000Y-103577221D01*
G04 #@! TO.C,C26*
X87230000Y-103667221D02*
X87230000Y-103992779D01*
X86210000Y-103667221D02*
X86210000Y-103992779D01*
G04 #@! TO.C,C25*
X93030000Y-100512779D02*
X93030000Y-100187221D01*
X92010000Y-100512779D02*
X92010000Y-100187221D01*
G04 #@! TO.C,C24*
X87260000Y-100167221D02*
X87260000Y-100492779D01*
X86240000Y-100167221D02*
X86240000Y-100492779D01*
G04 #@! TO.C,C23*
X93010000Y-97150279D02*
X93010000Y-96824721D01*
X91990000Y-97150279D02*
X91990000Y-96824721D01*
G04 #@! TO.C,C22*
X87240000Y-96890721D02*
X87240000Y-97216279D01*
X86220000Y-96890721D02*
X86220000Y-97216279D01*
G04 #@! TO.C,C21*
X92990000Y-93840279D02*
X92990000Y-93514721D01*
X91970000Y-93840279D02*
X91970000Y-93514721D01*
G04 #@! TO.C,C20*
X87280000Y-93557221D02*
X87280000Y-93882779D01*
X86260000Y-93557221D02*
X86260000Y-93882779D01*
G04 #@! TO.C,L3*
X89140000Y-100137221D02*
X89140000Y-100462779D01*
X90160000Y-100137221D02*
X90160000Y-100462779D01*
G04 #@! TO.C,L1*
X90150000Y-93544721D02*
X90150000Y-93870279D01*
X89130000Y-93544721D02*
X89130000Y-93870279D01*
G04 #@! TO.C,L4*
X89150000Y-103644721D02*
X89150000Y-103970279D01*
X90170000Y-103644721D02*
X90170000Y-103970279D01*
G04 #@! TO.C,L2*
X90140000Y-96854721D02*
X90140000Y-97180279D01*
X89120000Y-96854721D02*
X89120000Y-97180279D01*
G04 #@! TO.C,R5*
X90172000Y-90332779D02*
X90172000Y-90007221D01*
X89152000Y-90332779D02*
X89152000Y-90007221D01*
G04 #@! TO.C,R14*
X92050000Y-107320279D02*
X92050000Y-106994721D01*
X93070000Y-107320279D02*
X93070000Y-106994721D01*
G04 #@! TO.C,C14*
X118605000Y-94850000D02*
X118605000Y-98760000D01*
X118605000Y-98760000D02*
X120475000Y-98760000D01*
X120475000Y-98760000D02*
X120475000Y-94850000D01*
G04 #@! TO.C,C17*
X82655000Y-73670000D02*
X82655000Y-69760000D01*
X80785000Y-73670000D02*
X82655000Y-73670000D01*
X80785000Y-69760000D02*
X80785000Y-73670000D01*
G04 #@! TO.C,C15*
X90155000Y-72900000D02*
X90155000Y-68990000D01*
X90155000Y-68990000D02*
X88285000Y-68990000D01*
X88285000Y-68990000D02*
X88285000Y-72900000D01*
G04 #@! TO.C,C13*
X120455000Y-103590000D02*
X120455000Y-99680000D01*
X118585000Y-103590000D02*
X120455000Y-103590000D01*
X118585000Y-99680000D02*
X118585000Y-103590000D01*
G04 #@! TO.C,C12*
X93415000Y-69670000D02*
X93415000Y-73580000D01*
X93415000Y-73580000D02*
X95285000Y-73580000D01*
X95285000Y-73580000D02*
X95285000Y-69670000D01*
G04 #@! TO.C,TP6*
X117530000Y-70660000D02*
G75*
G03X117530000Y-70660000I-700000J0D01*
G01*
G04 #@! TO.C,RV2*
X99240000Y-96460000D02*
X99620000Y-96460000D01*
X94580000Y-96460000D02*
X94960000Y-96460000D01*
X96740000Y-96460000D02*
X97460000Y-96460000D01*
X94580000Y-100200000D02*
X95860000Y-100200000D01*
X98340000Y-100200000D02*
X99620000Y-100200000D01*
X94580000Y-96460000D02*
X94580000Y-100200000D01*
X99620000Y-96460000D02*
X99620000Y-100200000D01*
G04 #@! TO.C,U5*
X108860000Y-102850000D02*
X113320000Y-102850000D01*
X107340000Y-95950000D02*
X113320000Y-95950000D01*
G04 #@! TO.C,C19*
X90810000Y-83974721D02*
X90810000Y-84300279D01*
X89790000Y-83974721D02*
X89790000Y-84300279D01*
G04 #@! TO.C,J4*
X101830000Y-77680000D02*
X104490000Y-77680000D01*
X101830000Y-72540000D02*
X101830000Y-77680000D01*
X104490000Y-72540000D02*
X104490000Y-77680000D01*
X101830000Y-72540000D02*
X104490000Y-72540000D01*
X101830000Y-71270000D02*
X101830000Y-69940000D01*
X101830000Y-69940000D02*
X103160000Y-69940000D01*
G04 #@! TO.C,RV1*
X121860000Y-79650000D02*
X122240000Y-79650000D01*
X117200000Y-79650000D02*
X117580000Y-79650000D01*
X119360000Y-79650000D02*
X120080000Y-79650000D01*
X117200000Y-83390000D02*
X118480000Y-83390000D01*
X120960000Y-83390000D02*
X122240000Y-83390000D01*
X117200000Y-79650000D02*
X117200000Y-83390000D01*
X122240000Y-79650000D02*
X122240000Y-83390000D01*
D10*
G04 #@! TO.C,J3*
X108610000Y-125040000D02*
X108110000Y-124540000D01*
X113610000Y-125040000D02*
X108610000Y-125040000D01*
X114110000Y-124540000D02*
X113610000Y-125040000D01*
X114610000Y-115290000D02*
X113860000Y-115290000D01*
X114610000Y-110790000D02*
X114610000Y-115290000D01*
X107610000Y-110790000D02*
X114610000Y-110790000D01*
X107610000Y-115290000D02*
X107610000Y-110790000D01*
X114610000Y-115290000D02*
X107610000Y-115290000D01*
X108360000Y-116290000D02*
X107610000Y-116290000D01*
X107610000Y-116290000D02*
X107610000Y-115290000D01*
X108360000Y-116290000D02*
X113860000Y-116290000D01*
X113860000Y-116290000D02*
X114610000Y-116290000D01*
X114610000Y-116290000D02*
X114610000Y-115290000D01*
X108110000Y-124540000D02*
X108110000Y-119040000D01*
X108110000Y-119040000D02*
X108610000Y-118540000D01*
X108610000Y-118540000D02*
X108610000Y-116290000D01*
X114110000Y-124540000D02*
X114110000Y-119040000D01*
X114110000Y-119040000D02*
X113610000Y-118540000D01*
X113610000Y-118540000D02*
X113610000Y-116290000D01*
D11*
G04 #@! TO.C,J2*
X117160000Y-103600000D02*
X114500000Y-103600000D01*
X117160000Y-106200000D02*
X117160000Y-103600000D01*
X114500000Y-106200000D02*
X114500000Y-103600000D01*
X117160000Y-106200000D02*
X114500000Y-106200000D01*
X117160000Y-107470000D02*
X117160000Y-108800000D01*
X117160000Y-108800000D02*
X115830000Y-108800000D01*
G04 #@! TO.C,C10*
X96180000Y-72030279D02*
X96180000Y-71704721D01*
X97200000Y-72030279D02*
X97200000Y-71704721D01*
G04 #@! TO.C,C4*
X122490000Y-97440279D02*
X122490000Y-97114721D01*
X121470000Y-97440279D02*
X121470000Y-97114721D01*
G04 #@! TO.C,C5*
X121470000Y-100670279D02*
X121470000Y-100344721D01*
X122490000Y-100670279D02*
X122490000Y-100344721D01*
G04 #@! TO.C,C7*
X118210000Y-86479721D02*
X118210000Y-86805279D01*
X119230000Y-86479721D02*
X119230000Y-86805279D01*
G04 #@! TO.C,C8*
X111770000Y-84182779D02*
X111770000Y-83857221D01*
X112790000Y-84182779D02*
X112790000Y-83857221D01*
G04 #@! TO.C,C9*
X105860000Y-97560279D02*
X105860000Y-97234721D01*
X104840000Y-97560279D02*
X104840000Y-97234721D01*
G04 #@! TO.C,C11*
X92200000Y-71739721D02*
X92200000Y-72065279D01*
X91180000Y-71739721D02*
X91180000Y-72065279D01*
G04 #@! TO.C,C16*
X100480000Y-101354721D02*
X100480000Y-101680279D01*
X101500000Y-101354721D02*
X101500000Y-101680279D01*
G04 #@! TO.C,C18*
X83530000Y-72080279D02*
X83530000Y-71754721D01*
X84550000Y-72080279D02*
X84550000Y-71754721D01*
D12*
G04 #@! TO.C,U3*
X109435000Y-78035000D02*
X109435000Y-78260000D01*
X112785000Y-78035000D02*
X112785000Y-78335000D01*
X112785000Y-81385000D02*
X112785000Y-81085000D01*
X109435000Y-81385000D02*
X109435000Y-81085000D01*
X109435000Y-78035000D02*
X112785000Y-78035000D01*
X109435000Y-81385000D02*
X112785000Y-81385000D01*
X109435000Y-78260000D02*
X108210000Y-78260000D01*
G04 #@! TO.C,U2*
X108795000Y-86235000D02*
X108795000Y-86360000D01*
X113445000Y-86235000D02*
X113445000Y-86460000D01*
X113445000Y-91485000D02*
X113445000Y-91260000D01*
X108795000Y-91485000D02*
X108795000Y-91260000D01*
X108795000Y-86235000D02*
X113445000Y-86235000D01*
X108795000Y-91485000D02*
X113445000Y-91485000D01*
X108795000Y-86360000D02*
X107445000Y-86360000D01*
D11*
G04 #@! TO.C,R10*
X105850000Y-101672779D02*
X105850000Y-101347221D01*
X104830000Y-101672779D02*
X104830000Y-101347221D01*
G04 #@! TO.C,R11*
X102640000Y-101700279D02*
X102640000Y-101374721D01*
X103660000Y-101700279D02*
X103660000Y-101374721D01*
G04 #@! TO.C,R12*
X113480000Y-106802064D02*
X113480000Y-105597936D01*
X111660000Y-106802064D02*
X111660000Y-105597936D01*
G04 #@! TO.C,R13*
X108710000Y-106802064D02*
X108710000Y-105597936D01*
X110530000Y-106802064D02*
X110530000Y-105597936D01*
D10*
G04 #@! TO.C,U4*
X79160000Y-74660000D02*
X79160000Y-75890000D01*
X79160000Y-74660000D02*
X81190000Y-74660000D01*
D11*
X79540000Y-81280000D02*
X99280000Y-81280000D01*
X99280000Y-81280000D02*
X99280000Y-75060000D01*
X99280000Y-75040000D02*
X79540000Y-75040000D01*
X79540000Y-75040000D02*
X79540000Y-81280000D01*
G04 #@! TO.C,TP5*
X120600000Y-107890000D02*
G75*
G03X120600000Y-107890000I-700000J0D01*
G01*
G04 #@! TO.C,TP4*
X108800000Y-92820000D02*
G75*
G03X108800000Y-92820000I-700000J0D01*
G01*
G04 #@! TO.C,TP3*
X108900000Y-84940000D02*
G75*
G03X108900000Y-84940000I-700000J0D01*
G01*
G04 #@! TO.C,TP1*
X114820000Y-92820000D02*
G75*
G03X114820000Y-92820000I-700000J0D01*
G01*
G04 #@! TO.C,TP2*
X114820000Y-84940000D02*
G75*
G03X114820000Y-84940000I-700000J0D01*
G01*
G04 #@! TO.C,C6*
X101500000Y-97209721D02*
X101500000Y-97535279D01*
X100480000Y-97209721D02*
X100480000Y-97535279D01*
G04 #@! TO.C,R7*
X103670000Y-90940279D02*
X103670000Y-90614721D01*
X102650000Y-90940279D02*
X102650000Y-90614721D01*
G04 #@! TO.C,R6*
X100290000Y-90942779D02*
X100290000Y-90617221D01*
X101310000Y-90942779D02*
X101310000Y-90617221D01*
G04 #@! TO.C,R8*
X106010000Y-90925279D02*
X106010000Y-90599721D01*
X104990000Y-90925279D02*
X104990000Y-90599721D01*
G04 #@! TO.C,R9*
X102660000Y-97560279D02*
X102660000Y-97234721D01*
X103680000Y-97560279D02*
X103680000Y-97234721D01*
G04 #@! TO.C,R2*
X117160000Y-90822779D02*
X117160000Y-90497221D01*
X116140000Y-90822779D02*
X116140000Y-90497221D01*
G04 #@! TO.C,R3*
X120450000Y-75422779D02*
X120450000Y-75097221D01*
X121470000Y-75422779D02*
X121470000Y-75097221D01*
G04 #@! TO.C,R4*
X117950000Y-75187221D02*
X117950000Y-75512779D01*
X118970000Y-75187221D02*
X118970000Y-75512779D01*
G04 #@! TO.C,C3*
X106040000Y-86849721D02*
X106040000Y-87175279D01*
X105020000Y-86849721D02*
X105020000Y-87175279D01*
G04 #@! TO.C,R1*
X118220000Y-90830279D02*
X118220000Y-90504721D01*
X119240000Y-90830279D02*
X119240000Y-90504721D01*
G04 #@! TO.C,C2*
X105600000Y-70009721D02*
X105600000Y-70335279D01*
X106620000Y-70009721D02*
X106620000Y-70335279D01*
G04 #@! TO.C,C1*
X106630000Y-73659721D02*
X106630000Y-73985279D01*
X105610000Y-73659721D02*
X105610000Y-73985279D01*
D12*
G04 #@! TO.C,U1*
X109425000Y-69965000D02*
X109425000Y-70190000D01*
X112775000Y-69965000D02*
X112775000Y-70265000D01*
X112775000Y-73315000D02*
X112775000Y-73015000D01*
X109425000Y-73315000D02*
X109425000Y-73015000D01*
X109425000Y-69965000D02*
X112775000Y-69965000D01*
X109425000Y-73315000D02*
X112775000Y-73315000D01*
X109425000Y-70190000D02*
X108200000Y-70190000D01*
G04 #@! TO.C,(c) SDL Ltd 2018*
X137326000Y-75518000D02*
X135802000Y-75518000D01*
X138342000Y-73486000D02*
X137326000Y-75518000D01*
X139358000Y-71454000D02*
X140882000Y-71454000D01*
X138342000Y-73486000D02*
X139358000Y-71454000D01*
X141390000Y-74502000D02*
X142914000Y-74502000D01*
X140882000Y-73486000D02*
X141390000Y-74502000D01*
X141390000Y-72470000D02*
X142914000Y-72470000D01*
X140882000Y-73486000D02*
X141390000Y-72470000D01*
X135294000Y-74502000D02*
X133770000Y-74502000D01*
X135802000Y-73486000D02*
X135294000Y-74502000D01*
X135294000Y-72470000D02*
X133770000Y-72470000D01*
X135802000Y-73486000D02*
X135294000Y-72470000D01*
X135802000Y-73486000D02*
X136310000Y-72470000D01*
X136310000Y-74502000D02*
X135802000Y-73486000D01*
X140374000Y-74502000D02*
X136310000Y-74502000D01*
X140882000Y-73486000D02*
X140374000Y-74502000D01*
X140374000Y-72470000D02*
X140882000Y-73486000D01*
X136310000Y-72470000D02*
X140374000Y-72470000D01*
G04 #@! TD*
G04 #@! TO.C,C30*
D10*
X112102857Y-74425714D02*
X112083809Y-74463809D01*
X112026666Y-74501904D01*
X111988571Y-74501904D01*
X111931428Y-74463809D01*
X111893333Y-74387619D01*
X111874285Y-74311428D01*
X111855238Y-74159047D01*
X111855238Y-74044761D01*
X111874285Y-73892380D01*
X111893333Y-73816190D01*
X111931428Y-73740000D01*
X111988571Y-73701904D01*
X112026666Y-73701904D01*
X112083809Y-73740000D01*
X112102857Y-73778095D01*
X112236190Y-73701904D02*
X112483809Y-73701904D01*
X112350476Y-74006666D01*
X112407619Y-74006666D01*
X112445714Y-74044761D01*
X112464761Y-74082857D01*
X112483809Y-74159047D01*
X112483809Y-74349523D01*
X112464761Y-74425714D01*
X112445714Y-74463809D01*
X112407619Y-74501904D01*
X112293333Y-74501904D01*
X112255238Y-74463809D01*
X112236190Y-74425714D01*
X112731428Y-73701904D02*
X112769523Y-73701904D01*
X112807619Y-73740000D01*
X112826666Y-73778095D01*
X112845714Y-73854285D01*
X112864761Y-74006666D01*
X112864761Y-74197142D01*
X112845714Y-74349523D01*
X112826666Y-74425714D01*
X112807619Y-74463809D01*
X112769523Y-74501904D01*
X112731428Y-74501904D01*
X112693333Y-74463809D01*
X112674285Y-74425714D01*
X112655238Y-74349523D01*
X112636190Y-74197142D01*
X112636190Y-74006666D01*
X112655238Y-73854285D01*
X112674285Y-73778095D01*
X112693333Y-73740000D01*
X112731428Y-73701904D01*
G04 #@! TO.C,J5*
X94956666Y-93341904D02*
X94956666Y-93913333D01*
X94937619Y-94027619D01*
X94899523Y-94103809D01*
X94842380Y-94141904D01*
X94804285Y-94141904D01*
X95337619Y-93341904D02*
X95147142Y-93341904D01*
X95128095Y-93722857D01*
X95147142Y-93684761D01*
X95185238Y-93646666D01*
X95280476Y-93646666D01*
X95318571Y-93684761D01*
X95337619Y-93722857D01*
X95356666Y-93799047D01*
X95356666Y-93989523D01*
X95337619Y-94065714D01*
X95318571Y-94103809D01*
X95280476Y-94141904D01*
X95185238Y-94141904D01*
X95147142Y-94103809D01*
X95128095Y-94065714D01*
G04 #@! TO.C,R16*
X120682857Y-89061904D02*
X120549523Y-88680952D01*
X120454285Y-89061904D02*
X120454285Y-88261904D01*
X120606666Y-88261904D01*
X120644761Y-88300000D01*
X120663809Y-88338095D01*
X120682857Y-88414285D01*
X120682857Y-88528571D01*
X120663809Y-88604761D01*
X120644761Y-88642857D01*
X120606666Y-88680952D01*
X120454285Y-88680952D01*
X121063809Y-89061904D02*
X120835238Y-89061904D01*
X120949523Y-89061904D02*
X120949523Y-88261904D01*
X120911428Y-88376190D01*
X120873333Y-88452380D01*
X120835238Y-88490476D01*
X121406666Y-88261904D02*
X121330476Y-88261904D01*
X121292380Y-88300000D01*
X121273333Y-88338095D01*
X121235238Y-88452380D01*
X121216190Y-88604761D01*
X121216190Y-88909523D01*
X121235238Y-88985714D01*
X121254285Y-89023809D01*
X121292380Y-89061904D01*
X121368571Y-89061904D01*
X121406666Y-89023809D01*
X121425714Y-88985714D01*
X121444761Y-88909523D01*
X121444761Y-88719047D01*
X121425714Y-88642857D01*
X121406666Y-88604761D01*
X121368571Y-88566666D01*
X121292380Y-88566666D01*
X121254285Y-88604761D01*
X121235238Y-88642857D01*
X121216190Y-88719047D01*
G04 #@! TO.C,U6*
X124025238Y-103771904D02*
X124025238Y-104419523D01*
X124044285Y-104495714D01*
X124063333Y-104533809D01*
X124101428Y-104571904D01*
X124177619Y-104571904D01*
X124215714Y-104533809D01*
X124234761Y-104495714D01*
X124253809Y-104419523D01*
X124253809Y-103771904D01*
X124615714Y-103771904D02*
X124539523Y-103771904D01*
X124501428Y-103810000D01*
X124482380Y-103848095D01*
X124444285Y-103962380D01*
X124425238Y-104114761D01*
X124425238Y-104419523D01*
X124444285Y-104495714D01*
X124463333Y-104533809D01*
X124501428Y-104571904D01*
X124577619Y-104571904D01*
X124615714Y-104533809D01*
X124634761Y-104495714D01*
X124653809Y-104419523D01*
X124653809Y-104229047D01*
X124634761Y-104152857D01*
X124615714Y-104114761D01*
X124577619Y-104076666D01*
X124501428Y-104076666D01*
X124463333Y-104114761D01*
X124444285Y-104152857D01*
X124425238Y-104229047D01*
G04 #@! TO.C,C29*
X127252857Y-105005714D02*
X127233809Y-105043809D01*
X127176666Y-105081904D01*
X127138571Y-105081904D01*
X127081428Y-105043809D01*
X127043333Y-104967619D01*
X127024285Y-104891428D01*
X127005238Y-104739047D01*
X127005238Y-104624761D01*
X127024285Y-104472380D01*
X127043333Y-104396190D01*
X127081428Y-104320000D01*
X127138571Y-104281904D01*
X127176666Y-104281904D01*
X127233809Y-104320000D01*
X127252857Y-104358095D01*
X127405238Y-104358095D02*
X127424285Y-104320000D01*
X127462380Y-104281904D01*
X127557619Y-104281904D01*
X127595714Y-104320000D01*
X127614761Y-104358095D01*
X127633809Y-104434285D01*
X127633809Y-104510476D01*
X127614761Y-104624761D01*
X127386190Y-105081904D01*
X127633809Y-105081904D01*
X127824285Y-105081904D02*
X127900476Y-105081904D01*
X127938571Y-105043809D01*
X127957619Y-105005714D01*
X127995714Y-104891428D01*
X128014761Y-104739047D01*
X128014761Y-104434285D01*
X127995714Y-104358095D01*
X127976666Y-104320000D01*
X127938571Y-104281904D01*
X127862380Y-104281904D01*
X127824285Y-104320000D01*
X127805238Y-104358095D01*
X127786190Y-104434285D01*
X127786190Y-104624761D01*
X127805238Y-104700952D01*
X127824285Y-104739047D01*
X127862380Y-104777142D01*
X127938571Y-104777142D01*
X127976666Y-104739047D01*
X127995714Y-104700952D01*
X128014761Y-104624761D01*
G04 #@! TO.C,J6*
X125376666Y-109311904D02*
X125376666Y-109883333D01*
X125357619Y-109997619D01*
X125319523Y-110073809D01*
X125262380Y-110111904D01*
X125224285Y-110111904D01*
X125738571Y-109311904D02*
X125662380Y-109311904D01*
X125624285Y-109350000D01*
X125605238Y-109388095D01*
X125567142Y-109502380D01*
X125548095Y-109654761D01*
X125548095Y-109959523D01*
X125567142Y-110035714D01*
X125586190Y-110073809D01*
X125624285Y-110111904D01*
X125700476Y-110111904D01*
X125738571Y-110073809D01*
X125757619Y-110035714D01*
X125776666Y-109959523D01*
X125776666Y-109769047D01*
X125757619Y-109692857D01*
X125738571Y-109654761D01*
X125700476Y-109616666D01*
X125624285Y-109616666D01*
X125586190Y-109654761D01*
X125567142Y-109692857D01*
X125548095Y-109769047D01*
G04 #@! TO.C,D1*
X102814761Y-111634404D02*
X102814761Y-110834404D01*
X102910000Y-110834404D01*
X102967142Y-110872500D01*
X103005238Y-110948690D01*
X103024285Y-111024880D01*
X103043333Y-111177261D01*
X103043333Y-111291547D01*
X103024285Y-111443928D01*
X103005238Y-111520119D01*
X102967142Y-111596309D01*
X102910000Y-111634404D01*
X102814761Y-111634404D01*
X103424285Y-111634404D02*
X103195714Y-111634404D01*
X103310000Y-111634404D02*
X103310000Y-110834404D01*
X103271904Y-110948690D01*
X103233809Y-111024880D01*
X103195714Y-111062976D01*
G04 #@! TO.C,Q1*
X103331904Y-108438095D02*
X103293809Y-108400000D01*
X103255714Y-108323809D01*
X103198571Y-108209523D01*
X103160476Y-108171428D01*
X103122380Y-108171428D01*
X103141428Y-108361904D02*
X103103333Y-108323809D01*
X103065238Y-108247619D01*
X103046190Y-108095238D01*
X103046190Y-107828571D01*
X103065238Y-107676190D01*
X103103333Y-107600000D01*
X103141428Y-107561904D01*
X103217619Y-107561904D01*
X103255714Y-107600000D01*
X103293809Y-107676190D01*
X103312857Y-107828571D01*
X103312857Y-108095238D01*
X103293809Y-108247619D01*
X103255714Y-108323809D01*
X103217619Y-108361904D01*
X103141428Y-108361904D01*
X103693809Y-108361904D02*
X103465238Y-108361904D01*
X103579523Y-108361904D02*
X103579523Y-107561904D01*
X103541428Y-107676190D01*
X103503333Y-107752380D01*
X103465238Y-107790476D01*
G04 #@! TO.C,R15*
X105242857Y-111611904D02*
X105109523Y-111230952D01*
X105014285Y-111611904D02*
X105014285Y-110811904D01*
X105166666Y-110811904D01*
X105204761Y-110850000D01*
X105223809Y-110888095D01*
X105242857Y-110964285D01*
X105242857Y-111078571D01*
X105223809Y-111154761D01*
X105204761Y-111192857D01*
X105166666Y-111230952D01*
X105014285Y-111230952D01*
X105623809Y-111611904D02*
X105395238Y-111611904D01*
X105509523Y-111611904D02*
X105509523Y-110811904D01*
X105471428Y-110926190D01*
X105433333Y-111002380D01*
X105395238Y-111040476D01*
X105985714Y-110811904D02*
X105795238Y-110811904D01*
X105776190Y-111192857D01*
X105795238Y-111154761D01*
X105833333Y-111116666D01*
X105928571Y-111116666D01*
X105966666Y-111154761D01*
X105985714Y-111192857D01*
X106004761Y-111269047D01*
X106004761Y-111459523D01*
X105985714Y-111535714D01*
X105966666Y-111573809D01*
X105928571Y-111611904D01*
X105833333Y-111611904D01*
X105795238Y-111573809D01*
X105776190Y-111535714D01*
G04 #@! TO.C,C28*
X90814857Y-106439214D02*
X90795809Y-106477309D01*
X90738666Y-106515404D01*
X90700571Y-106515404D01*
X90643428Y-106477309D01*
X90605333Y-106401119D01*
X90586285Y-106324928D01*
X90567238Y-106172547D01*
X90567238Y-106058261D01*
X90586285Y-105905880D01*
X90605333Y-105829690D01*
X90643428Y-105753500D01*
X90700571Y-105715404D01*
X90738666Y-105715404D01*
X90795809Y-105753500D01*
X90814857Y-105791595D01*
X90967238Y-105791595D02*
X90986285Y-105753500D01*
X91024380Y-105715404D01*
X91119619Y-105715404D01*
X91157714Y-105753500D01*
X91176761Y-105791595D01*
X91195809Y-105867785D01*
X91195809Y-105943976D01*
X91176761Y-106058261D01*
X90948190Y-106515404D01*
X91195809Y-106515404D01*
X91424380Y-106058261D02*
X91386285Y-106020166D01*
X91367238Y-105982071D01*
X91348190Y-105905880D01*
X91348190Y-105867785D01*
X91367238Y-105791595D01*
X91386285Y-105753500D01*
X91424380Y-105715404D01*
X91500571Y-105715404D01*
X91538666Y-105753500D01*
X91557714Y-105791595D01*
X91576761Y-105867785D01*
X91576761Y-105905880D01*
X91557714Y-105982071D01*
X91538666Y-106020166D01*
X91500571Y-106058261D01*
X91424380Y-106058261D01*
X91386285Y-106096357D01*
X91367238Y-106134452D01*
X91348190Y-106210642D01*
X91348190Y-106363023D01*
X91367238Y-106439214D01*
X91386285Y-106477309D01*
X91424380Y-106515404D01*
X91500571Y-106515404D01*
X91538666Y-106477309D01*
X91557714Y-106439214D01*
X91576761Y-106363023D01*
X91576761Y-106210642D01*
X91557714Y-106134452D01*
X91538666Y-106096357D01*
X91500571Y-106058261D01*
G04 #@! TO.C,C27*
X93612857Y-103005714D02*
X93593809Y-103043809D01*
X93536666Y-103081904D01*
X93498571Y-103081904D01*
X93441428Y-103043809D01*
X93403333Y-102967619D01*
X93384285Y-102891428D01*
X93365238Y-102739047D01*
X93365238Y-102624761D01*
X93384285Y-102472380D01*
X93403333Y-102396190D01*
X93441428Y-102320000D01*
X93498571Y-102281904D01*
X93536666Y-102281904D01*
X93593809Y-102320000D01*
X93612857Y-102358095D01*
X93765238Y-102358095D02*
X93784285Y-102320000D01*
X93822380Y-102281904D01*
X93917619Y-102281904D01*
X93955714Y-102320000D01*
X93974761Y-102358095D01*
X93993809Y-102434285D01*
X93993809Y-102510476D01*
X93974761Y-102624761D01*
X93746190Y-103081904D01*
X93993809Y-103081904D01*
X94127142Y-102281904D02*
X94393809Y-102281904D01*
X94222380Y-103081904D01*
G04 #@! TO.C,C26*
X87852857Y-103145714D02*
X87833809Y-103183809D01*
X87776666Y-103221904D01*
X87738571Y-103221904D01*
X87681428Y-103183809D01*
X87643333Y-103107619D01*
X87624285Y-103031428D01*
X87605238Y-102879047D01*
X87605238Y-102764761D01*
X87624285Y-102612380D01*
X87643333Y-102536190D01*
X87681428Y-102460000D01*
X87738571Y-102421904D01*
X87776666Y-102421904D01*
X87833809Y-102460000D01*
X87852857Y-102498095D01*
X88005238Y-102498095D02*
X88024285Y-102460000D01*
X88062380Y-102421904D01*
X88157619Y-102421904D01*
X88195714Y-102460000D01*
X88214761Y-102498095D01*
X88233809Y-102574285D01*
X88233809Y-102650476D01*
X88214761Y-102764761D01*
X87986190Y-103221904D01*
X88233809Y-103221904D01*
X88576666Y-102421904D02*
X88500476Y-102421904D01*
X88462380Y-102460000D01*
X88443333Y-102498095D01*
X88405238Y-102612380D01*
X88386190Y-102764761D01*
X88386190Y-103069523D01*
X88405238Y-103145714D01*
X88424285Y-103183809D01*
X88462380Y-103221904D01*
X88538571Y-103221904D01*
X88576666Y-103183809D01*
X88595714Y-103145714D01*
X88614761Y-103069523D01*
X88614761Y-102879047D01*
X88595714Y-102802857D01*
X88576666Y-102764761D01*
X88538571Y-102726666D01*
X88462380Y-102726666D01*
X88424285Y-102764761D01*
X88405238Y-102802857D01*
X88386190Y-102879047D01*
G04 #@! TO.C,C25*
X93592857Y-99615714D02*
X93573809Y-99653809D01*
X93516666Y-99691904D01*
X93478571Y-99691904D01*
X93421428Y-99653809D01*
X93383333Y-99577619D01*
X93364285Y-99501428D01*
X93345238Y-99349047D01*
X93345238Y-99234761D01*
X93364285Y-99082380D01*
X93383333Y-99006190D01*
X93421428Y-98930000D01*
X93478571Y-98891904D01*
X93516666Y-98891904D01*
X93573809Y-98930000D01*
X93592857Y-98968095D01*
X93745238Y-98968095D02*
X93764285Y-98930000D01*
X93802380Y-98891904D01*
X93897619Y-98891904D01*
X93935714Y-98930000D01*
X93954761Y-98968095D01*
X93973809Y-99044285D01*
X93973809Y-99120476D01*
X93954761Y-99234761D01*
X93726190Y-99691904D01*
X93973809Y-99691904D01*
X94335714Y-98891904D02*
X94145238Y-98891904D01*
X94126190Y-99272857D01*
X94145238Y-99234761D01*
X94183333Y-99196666D01*
X94278571Y-99196666D01*
X94316666Y-99234761D01*
X94335714Y-99272857D01*
X94354761Y-99349047D01*
X94354761Y-99539523D01*
X94335714Y-99615714D01*
X94316666Y-99653809D01*
X94278571Y-99691904D01*
X94183333Y-99691904D01*
X94145238Y-99653809D01*
X94126190Y-99615714D01*
G04 #@! TO.C,C24*
X87852857Y-99628214D02*
X87833809Y-99666309D01*
X87776666Y-99704404D01*
X87738571Y-99704404D01*
X87681428Y-99666309D01*
X87643333Y-99590119D01*
X87624285Y-99513928D01*
X87605238Y-99361547D01*
X87605238Y-99247261D01*
X87624285Y-99094880D01*
X87643333Y-99018690D01*
X87681428Y-98942500D01*
X87738571Y-98904404D01*
X87776666Y-98904404D01*
X87833809Y-98942500D01*
X87852857Y-98980595D01*
X88005238Y-98980595D02*
X88024285Y-98942500D01*
X88062380Y-98904404D01*
X88157619Y-98904404D01*
X88195714Y-98942500D01*
X88214761Y-98980595D01*
X88233809Y-99056785D01*
X88233809Y-99132976D01*
X88214761Y-99247261D01*
X87986190Y-99704404D01*
X88233809Y-99704404D01*
X88576666Y-99171071D02*
X88576666Y-99704404D01*
X88481428Y-98866309D02*
X88386190Y-99437738D01*
X88633809Y-99437738D01*
G04 #@! TO.C,C23*
X93532857Y-96185714D02*
X93513809Y-96223809D01*
X93456666Y-96261904D01*
X93418571Y-96261904D01*
X93361428Y-96223809D01*
X93323333Y-96147619D01*
X93304285Y-96071428D01*
X93285238Y-95919047D01*
X93285238Y-95804761D01*
X93304285Y-95652380D01*
X93323333Y-95576190D01*
X93361428Y-95500000D01*
X93418571Y-95461904D01*
X93456666Y-95461904D01*
X93513809Y-95500000D01*
X93532857Y-95538095D01*
X93685238Y-95538095D02*
X93704285Y-95500000D01*
X93742380Y-95461904D01*
X93837619Y-95461904D01*
X93875714Y-95500000D01*
X93894761Y-95538095D01*
X93913809Y-95614285D01*
X93913809Y-95690476D01*
X93894761Y-95804761D01*
X93666190Y-96261904D01*
X93913809Y-96261904D01*
X94047142Y-95461904D02*
X94294761Y-95461904D01*
X94161428Y-95766666D01*
X94218571Y-95766666D01*
X94256666Y-95804761D01*
X94275714Y-95842857D01*
X94294761Y-95919047D01*
X94294761Y-96109523D01*
X94275714Y-96185714D01*
X94256666Y-96223809D01*
X94218571Y-96261904D01*
X94104285Y-96261904D01*
X94066190Y-96223809D01*
X94047142Y-96185714D01*
G04 #@! TO.C,C22*
X87822857Y-96299214D02*
X87803809Y-96337309D01*
X87746666Y-96375404D01*
X87708571Y-96375404D01*
X87651428Y-96337309D01*
X87613333Y-96261119D01*
X87594285Y-96184928D01*
X87575238Y-96032547D01*
X87575238Y-95918261D01*
X87594285Y-95765880D01*
X87613333Y-95689690D01*
X87651428Y-95613500D01*
X87708571Y-95575404D01*
X87746666Y-95575404D01*
X87803809Y-95613500D01*
X87822857Y-95651595D01*
X87975238Y-95651595D02*
X87994285Y-95613500D01*
X88032380Y-95575404D01*
X88127619Y-95575404D01*
X88165714Y-95613500D01*
X88184761Y-95651595D01*
X88203809Y-95727785D01*
X88203809Y-95803976D01*
X88184761Y-95918261D01*
X87956190Y-96375404D01*
X88203809Y-96375404D01*
X88356190Y-95651595D02*
X88375238Y-95613500D01*
X88413333Y-95575404D01*
X88508571Y-95575404D01*
X88546666Y-95613500D01*
X88565714Y-95651595D01*
X88584761Y-95727785D01*
X88584761Y-95803976D01*
X88565714Y-95918261D01*
X88337142Y-96375404D01*
X88584761Y-96375404D01*
G04 #@! TO.C,C21*
X93572857Y-93013214D02*
X93553809Y-93051309D01*
X93496666Y-93089404D01*
X93458571Y-93089404D01*
X93401428Y-93051309D01*
X93363333Y-92975119D01*
X93344285Y-92898928D01*
X93325238Y-92746547D01*
X93325238Y-92632261D01*
X93344285Y-92479880D01*
X93363333Y-92403690D01*
X93401428Y-92327500D01*
X93458571Y-92289404D01*
X93496666Y-92289404D01*
X93553809Y-92327500D01*
X93572857Y-92365595D01*
X93725238Y-92365595D02*
X93744285Y-92327500D01*
X93782380Y-92289404D01*
X93877619Y-92289404D01*
X93915714Y-92327500D01*
X93934761Y-92365595D01*
X93953809Y-92441785D01*
X93953809Y-92517976D01*
X93934761Y-92632261D01*
X93706190Y-93089404D01*
X93953809Y-93089404D01*
X94334761Y-93089404D02*
X94106190Y-93089404D01*
X94220476Y-93089404D02*
X94220476Y-92289404D01*
X94182380Y-92403690D01*
X94144285Y-92479880D01*
X94106190Y-92517976D01*
G04 #@! TO.C,C20*
X87862857Y-93005714D02*
X87843809Y-93043809D01*
X87786666Y-93081904D01*
X87748571Y-93081904D01*
X87691428Y-93043809D01*
X87653333Y-92967619D01*
X87634285Y-92891428D01*
X87615238Y-92739047D01*
X87615238Y-92624761D01*
X87634285Y-92472380D01*
X87653333Y-92396190D01*
X87691428Y-92320000D01*
X87748571Y-92281904D01*
X87786666Y-92281904D01*
X87843809Y-92320000D01*
X87862857Y-92358095D01*
X88015238Y-92358095D02*
X88034285Y-92320000D01*
X88072380Y-92281904D01*
X88167619Y-92281904D01*
X88205714Y-92320000D01*
X88224761Y-92358095D01*
X88243809Y-92434285D01*
X88243809Y-92510476D01*
X88224761Y-92624761D01*
X87996190Y-93081904D01*
X88243809Y-93081904D01*
X88491428Y-92281904D02*
X88529523Y-92281904D01*
X88567619Y-92320000D01*
X88586666Y-92358095D01*
X88605714Y-92434285D01*
X88624761Y-92586666D01*
X88624761Y-92777142D01*
X88605714Y-92929523D01*
X88586666Y-93005714D01*
X88567619Y-93043809D01*
X88529523Y-93081904D01*
X88491428Y-93081904D01*
X88453333Y-93043809D01*
X88434285Y-93005714D01*
X88415238Y-92929523D01*
X88396190Y-92777142D01*
X88396190Y-92586666D01*
X88415238Y-92434285D01*
X88434285Y-92358095D01*
X88453333Y-92320000D01*
X88491428Y-92281904D01*
G04 #@! TO.C,L3*
X90783333Y-99631904D02*
X90592857Y-99631904D01*
X90592857Y-98831904D01*
X90878571Y-98831904D02*
X91126190Y-98831904D01*
X90992857Y-99136666D01*
X91050000Y-99136666D01*
X91088095Y-99174761D01*
X91107142Y-99212857D01*
X91126190Y-99289047D01*
X91126190Y-99479523D01*
X91107142Y-99555714D01*
X91088095Y-99593809D01*
X91050000Y-99631904D01*
X90935714Y-99631904D01*
X90897619Y-99593809D01*
X90878571Y-99555714D01*
G04 #@! TO.C,L1*
X90793333Y-93101904D02*
X90602857Y-93101904D01*
X90602857Y-92301904D01*
X91136190Y-93101904D02*
X90907619Y-93101904D01*
X91021904Y-93101904D02*
X91021904Y-92301904D01*
X90983809Y-92416190D01*
X90945714Y-92492380D01*
X90907619Y-92530476D01*
G04 #@! TO.C,L4*
X90743333Y-103179404D02*
X90552857Y-103179404D01*
X90552857Y-102379404D01*
X91048095Y-102646071D02*
X91048095Y-103179404D01*
X90952857Y-102341309D02*
X90857619Y-102912738D01*
X91105238Y-102912738D01*
G04 #@! TO.C,L2*
X90703333Y-96331904D02*
X90512857Y-96331904D01*
X90512857Y-95531904D01*
X90817619Y-95608095D02*
X90836666Y-95570000D01*
X90874761Y-95531904D01*
X90970000Y-95531904D01*
X91008095Y-95570000D01*
X91027142Y-95608095D01*
X91046190Y-95684285D01*
X91046190Y-95760476D01*
X91027142Y-95874761D01*
X90798571Y-96331904D01*
X91046190Y-96331904D01*
G04 #@! TO.C,R5*
X89595333Y-88753904D02*
X89462000Y-88372952D01*
X89366761Y-88753904D02*
X89366761Y-87953904D01*
X89519142Y-87953904D01*
X89557238Y-87992000D01*
X89576285Y-88030095D01*
X89595333Y-88106285D01*
X89595333Y-88220571D01*
X89576285Y-88296761D01*
X89557238Y-88334857D01*
X89519142Y-88372952D01*
X89366761Y-88372952D01*
X89957238Y-87953904D02*
X89766761Y-87953904D01*
X89747714Y-88334857D01*
X89766761Y-88296761D01*
X89804857Y-88258666D01*
X89900095Y-88258666D01*
X89938190Y-88296761D01*
X89957238Y-88334857D01*
X89976285Y-88411047D01*
X89976285Y-88601523D01*
X89957238Y-88677714D01*
X89938190Y-88715809D01*
X89900095Y-88753904D01*
X89804857Y-88753904D01*
X89766761Y-88715809D01*
X89747714Y-88677714D01*
G04 #@! TO.C,R14*
X93732857Y-106549404D02*
X93599523Y-106168452D01*
X93504285Y-106549404D02*
X93504285Y-105749404D01*
X93656666Y-105749404D01*
X93694761Y-105787500D01*
X93713809Y-105825595D01*
X93732857Y-105901785D01*
X93732857Y-106016071D01*
X93713809Y-106092261D01*
X93694761Y-106130357D01*
X93656666Y-106168452D01*
X93504285Y-106168452D01*
X94113809Y-106549404D02*
X93885238Y-106549404D01*
X93999523Y-106549404D02*
X93999523Y-105749404D01*
X93961428Y-105863690D01*
X93923333Y-105939880D01*
X93885238Y-105977976D01*
X94456666Y-106016071D02*
X94456666Y-106549404D01*
X94361428Y-105711309D02*
X94266190Y-106282738D01*
X94513809Y-106282738D01*
G04 #@! TO.C,C14*
X119322857Y-93605714D02*
X119303809Y-93643809D01*
X119246666Y-93681904D01*
X119208571Y-93681904D01*
X119151428Y-93643809D01*
X119113333Y-93567619D01*
X119094285Y-93491428D01*
X119075238Y-93339047D01*
X119075238Y-93224761D01*
X119094285Y-93072380D01*
X119113333Y-92996190D01*
X119151428Y-92920000D01*
X119208571Y-92881904D01*
X119246666Y-92881904D01*
X119303809Y-92920000D01*
X119322857Y-92958095D01*
X119703809Y-93681904D02*
X119475238Y-93681904D01*
X119589523Y-93681904D02*
X119589523Y-92881904D01*
X119551428Y-92996190D01*
X119513333Y-93072380D01*
X119475238Y-93110476D01*
X120046666Y-93148571D02*
X120046666Y-93681904D01*
X119951428Y-92843809D02*
X119856190Y-93415238D01*
X120103809Y-93415238D01*
G04 #@! TO.C,C17*
X81542857Y-74585714D02*
X81523809Y-74623809D01*
X81466666Y-74661904D01*
X81428571Y-74661904D01*
X81371428Y-74623809D01*
X81333333Y-74547619D01*
X81314285Y-74471428D01*
X81295238Y-74319047D01*
X81295238Y-74204761D01*
X81314285Y-74052380D01*
X81333333Y-73976190D01*
X81371428Y-73900000D01*
X81428571Y-73861904D01*
X81466666Y-73861904D01*
X81523809Y-73900000D01*
X81542857Y-73938095D01*
X81923809Y-74661904D02*
X81695238Y-74661904D01*
X81809523Y-74661904D02*
X81809523Y-73861904D01*
X81771428Y-73976190D01*
X81733333Y-74052380D01*
X81695238Y-74090476D01*
X82057142Y-73861904D02*
X82323809Y-73861904D01*
X82152380Y-74661904D01*
G04 #@! TO.C,C15*
X89012857Y-74435714D02*
X88993809Y-74473809D01*
X88936666Y-74511904D01*
X88898571Y-74511904D01*
X88841428Y-74473809D01*
X88803333Y-74397619D01*
X88784285Y-74321428D01*
X88765238Y-74169047D01*
X88765238Y-74054761D01*
X88784285Y-73902380D01*
X88803333Y-73826190D01*
X88841428Y-73750000D01*
X88898571Y-73711904D01*
X88936666Y-73711904D01*
X88993809Y-73750000D01*
X89012857Y-73788095D01*
X89393809Y-74511904D02*
X89165238Y-74511904D01*
X89279523Y-74511904D02*
X89279523Y-73711904D01*
X89241428Y-73826190D01*
X89203333Y-73902380D01*
X89165238Y-73940476D01*
X89755714Y-73711904D02*
X89565238Y-73711904D01*
X89546190Y-74092857D01*
X89565238Y-74054761D01*
X89603333Y-74016666D01*
X89698571Y-74016666D01*
X89736666Y-74054761D01*
X89755714Y-74092857D01*
X89774761Y-74169047D01*
X89774761Y-74359523D01*
X89755714Y-74435714D01*
X89736666Y-74473809D01*
X89698571Y-74511904D01*
X89603333Y-74511904D01*
X89565238Y-74473809D01*
X89546190Y-74435714D01*
G04 #@! TO.C,C13*
X119202857Y-104795714D02*
X119183809Y-104833809D01*
X119126666Y-104871904D01*
X119088571Y-104871904D01*
X119031428Y-104833809D01*
X118993333Y-104757619D01*
X118974285Y-104681428D01*
X118955238Y-104529047D01*
X118955238Y-104414761D01*
X118974285Y-104262380D01*
X118993333Y-104186190D01*
X119031428Y-104110000D01*
X119088571Y-104071904D01*
X119126666Y-104071904D01*
X119183809Y-104110000D01*
X119202857Y-104148095D01*
X119583809Y-104871904D02*
X119355238Y-104871904D01*
X119469523Y-104871904D02*
X119469523Y-104071904D01*
X119431428Y-104186190D01*
X119393333Y-104262380D01*
X119355238Y-104300476D01*
X119717142Y-104071904D02*
X119964761Y-104071904D01*
X119831428Y-104376666D01*
X119888571Y-104376666D01*
X119926666Y-104414761D01*
X119945714Y-104452857D01*
X119964761Y-104529047D01*
X119964761Y-104719523D01*
X119945714Y-104795714D01*
X119926666Y-104833809D01*
X119888571Y-104871904D01*
X119774285Y-104871904D01*
X119736190Y-104833809D01*
X119717142Y-104795714D01*
G04 #@! TO.C,C12*
X94152857Y-74495714D02*
X94133809Y-74533809D01*
X94076666Y-74571904D01*
X94038571Y-74571904D01*
X93981428Y-74533809D01*
X93943333Y-74457619D01*
X93924285Y-74381428D01*
X93905238Y-74229047D01*
X93905238Y-74114761D01*
X93924285Y-73962380D01*
X93943333Y-73886190D01*
X93981428Y-73810000D01*
X94038571Y-73771904D01*
X94076666Y-73771904D01*
X94133809Y-73810000D01*
X94152857Y-73848095D01*
X94533809Y-74571904D02*
X94305238Y-74571904D01*
X94419523Y-74571904D02*
X94419523Y-73771904D01*
X94381428Y-73886190D01*
X94343333Y-73962380D01*
X94305238Y-74000476D01*
X94686190Y-73848095D02*
X94705238Y-73810000D01*
X94743333Y-73771904D01*
X94838571Y-73771904D01*
X94876666Y-73810000D01*
X94895714Y-73848095D01*
X94914761Y-73924285D01*
X94914761Y-74000476D01*
X94895714Y-74114761D01*
X94667142Y-74571904D01*
X94914761Y-74571904D01*
G04 #@! TO.C,TP6*
X116325238Y-68773904D02*
X116553809Y-68773904D01*
X116439523Y-69573904D02*
X116439523Y-68773904D01*
X116687142Y-69573904D02*
X116687142Y-68773904D01*
X116839523Y-68773904D01*
X116877619Y-68812000D01*
X116896666Y-68850095D01*
X116915714Y-68926285D01*
X116915714Y-69040571D01*
X116896666Y-69116761D01*
X116877619Y-69154857D01*
X116839523Y-69192952D01*
X116687142Y-69192952D01*
X117258571Y-68773904D02*
X117182380Y-68773904D01*
X117144285Y-68812000D01*
X117125238Y-68850095D01*
X117087142Y-68964380D01*
X117068095Y-69116761D01*
X117068095Y-69421523D01*
X117087142Y-69497714D01*
X117106190Y-69535809D01*
X117144285Y-69573904D01*
X117220476Y-69573904D01*
X117258571Y-69535809D01*
X117277619Y-69497714D01*
X117296666Y-69421523D01*
X117296666Y-69231047D01*
X117277619Y-69154857D01*
X117258571Y-69116761D01*
X117220476Y-69078666D01*
X117144285Y-69078666D01*
X117106190Y-69116761D01*
X117087142Y-69154857D01*
X117068095Y-69231047D01*
G04 #@! TO.C,RV2*
X94731904Y-101801904D02*
X94598571Y-101420952D01*
X94503333Y-101801904D02*
X94503333Y-101001904D01*
X94655714Y-101001904D01*
X94693809Y-101040000D01*
X94712857Y-101078095D01*
X94731904Y-101154285D01*
X94731904Y-101268571D01*
X94712857Y-101344761D01*
X94693809Y-101382857D01*
X94655714Y-101420952D01*
X94503333Y-101420952D01*
X94846190Y-101001904D02*
X94979523Y-101801904D01*
X95112857Y-101001904D01*
X95227142Y-101078095D02*
X95246190Y-101040000D01*
X95284285Y-101001904D01*
X95379523Y-101001904D01*
X95417619Y-101040000D01*
X95436666Y-101078095D01*
X95455714Y-101154285D01*
X95455714Y-101230476D01*
X95436666Y-101344761D01*
X95208095Y-101801904D01*
X95455714Y-101801904D01*
G04 #@! TO.C,U5*
X110775238Y-94991904D02*
X110775238Y-95639523D01*
X110794285Y-95715714D01*
X110813333Y-95753809D01*
X110851428Y-95791904D01*
X110927619Y-95791904D01*
X110965714Y-95753809D01*
X110984761Y-95715714D01*
X111003809Y-95639523D01*
X111003809Y-94991904D01*
X111384761Y-94991904D02*
X111194285Y-94991904D01*
X111175238Y-95372857D01*
X111194285Y-95334761D01*
X111232380Y-95296666D01*
X111327619Y-95296666D01*
X111365714Y-95334761D01*
X111384761Y-95372857D01*
X111403809Y-95449047D01*
X111403809Y-95639523D01*
X111384761Y-95715714D01*
X111365714Y-95753809D01*
X111327619Y-95791904D01*
X111232380Y-95791904D01*
X111194285Y-95753809D01*
X111175238Y-95715714D01*
G04 #@! TO.C,C19*
X89992857Y-82355714D02*
X89973809Y-82393809D01*
X89916666Y-82431904D01*
X89878571Y-82431904D01*
X89821428Y-82393809D01*
X89783333Y-82317619D01*
X89764285Y-82241428D01*
X89745238Y-82089047D01*
X89745238Y-81974761D01*
X89764285Y-81822380D01*
X89783333Y-81746190D01*
X89821428Y-81670000D01*
X89878571Y-81631904D01*
X89916666Y-81631904D01*
X89973809Y-81670000D01*
X89992857Y-81708095D01*
X90373809Y-82431904D02*
X90145238Y-82431904D01*
X90259523Y-82431904D02*
X90259523Y-81631904D01*
X90221428Y-81746190D01*
X90183333Y-81822380D01*
X90145238Y-81860476D01*
X90564285Y-82431904D02*
X90640476Y-82431904D01*
X90678571Y-82393809D01*
X90697619Y-82355714D01*
X90735714Y-82241428D01*
X90754761Y-82089047D01*
X90754761Y-81784285D01*
X90735714Y-81708095D01*
X90716666Y-81670000D01*
X90678571Y-81631904D01*
X90602380Y-81631904D01*
X90564285Y-81670000D01*
X90545238Y-81708095D01*
X90526190Y-81784285D01*
X90526190Y-81974761D01*
X90545238Y-82050952D01*
X90564285Y-82089047D01*
X90602380Y-82127142D01*
X90678571Y-82127142D01*
X90716666Y-82089047D01*
X90735714Y-82050952D01*
X90754761Y-81974761D01*
G04 #@! TO.C,J4*
X103026666Y-68501904D02*
X103026666Y-69073333D01*
X103007619Y-69187619D01*
X102969523Y-69263809D01*
X102912380Y-69301904D01*
X102874285Y-69301904D01*
X103388571Y-68768571D02*
X103388571Y-69301904D01*
X103293333Y-68463809D02*
X103198095Y-69035238D01*
X103445714Y-69035238D01*
G04 #@! TO.C,X1*
X100056190Y-82111904D02*
X100322857Y-82911904D01*
X100322857Y-82111904D02*
X100056190Y-82911904D01*
X100684761Y-82911904D02*
X100456190Y-82911904D01*
X100570476Y-82911904D02*
X100570476Y-82111904D01*
X100532380Y-82226190D01*
X100494285Y-82302380D01*
X100456190Y-82340476D01*
G04 #@! TO.C,RV1*
X117371904Y-85031904D02*
X117238571Y-84650952D01*
X117143333Y-85031904D02*
X117143333Y-84231904D01*
X117295714Y-84231904D01*
X117333809Y-84270000D01*
X117352857Y-84308095D01*
X117371904Y-84384285D01*
X117371904Y-84498571D01*
X117352857Y-84574761D01*
X117333809Y-84612857D01*
X117295714Y-84650952D01*
X117143333Y-84650952D01*
X117486190Y-84231904D02*
X117619523Y-85031904D01*
X117752857Y-84231904D01*
X118095714Y-85031904D02*
X117867142Y-85031904D01*
X117981428Y-85031904D02*
X117981428Y-84231904D01*
X117943333Y-84346190D01*
X117905238Y-84422380D01*
X117867142Y-84460476D01*
G04 #@! TO.C,J3*
X109516666Y-109751904D02*
X109516666Y-110323333D01*
X109497619Y-110437619D01*
X109459523Y-110513809D01*
X109402380Y-110551904D01*
X109364285Y-110551904D01*
X109669047Y-109751904D02*
X109916666Y-109751904D01*
X109783333Y-110056666D01*
X109840476Y-110056666D01*
X109878571Y-110094761D01*
X109897619Y-110132857D01*
X109916666Y-110209047D01*
X109916666Y-110399523D01*
X109897619Y-110475714D01*
X109878571Y-110513809D01*
X109840476Y-110551904D01*
X109726190Y-110551904D01*
X109688095Y-110513809D01*
X109669047Y-110475714D01*
G04 #@! TO.C,J2*
X117016666Y-101971904D02*
X117016666Y-102543333D01*
X116997619Y-102657619D01*
X116959523Y-102733809D01*
X116902380Y-102771904D01*
X116864285Y-102771904D01*
X117188095Y-102048095D02*
X117207142Y-102010000D01*
X117245238Y-101971904D01*
X117340476Y-101971904D01*
X117378571Y-102010000D01*
X117397619Y-102048095D01*
X117416666Y-102124285D01*
X117416666Y-102200476D01*
X117397619Y-102314761D01*
X117169047Y-102771904D01*
X117416666Y-102771904D01*
G04 #@! TO.C,C10*
X96362857Y-74405714D02*
X96343809Y-74443809D01*
X96286666Y-74481904D01*
X96248571Y-74481904D01*
X96191428Y-74443809D01*
X96153333Y-74367619D01*
X96134285Y-74291428D01*
X96115238Y-74139047D01*
X96115238Y-74024761D01*
X96134285Y-73872380D01*
X96153333Y-73796190D01*
X96191428Y-73720000D01*
X96248571Y-73681904D01*
X96286666Y-73681904D01*
X96343809Y-73720000D01*
X96362857Y-73758095D01*
X96743809Y-74481904D02*
X96515238Y-74481904D01*
X96629523Y-74481904D02*
X96629523Y-73681904D01*
X96591428Y-73796190D01*
X96553333Y-73872380D01*
X96515238Y-73910476D01*
X96991428Y-73681904D02*
X97029523Y-73681904D01*
X97067619Y-73720000D01*
X97086666Y-73758095D01*
X97105714Y-73834285D01*
X97124761Y-73986666D01*
X97124761Y-74177142D01*
X97105714Y-74329523D01*
X97086666Y-74405714D01*
X97067619Y-74443809D01*
X97029523Y-74481904D01*
X96991428Y-74481904D01*
X96953333Y-74443809D01*
X96934285Y-74405714D01*
X96915238Y-74329523D01*
X96896190Y-74177142D01*
X96896190Y-73986666D01*
X96915238Y-73834285D01*
X96934285Y-73758095D01*
X96953333Y-73720000D01*
X96991428Y-73681904D01*
G04 #@! TO.C,C4*
X121873333Y-95325714D02*
X121854285Y-95363809D01*
X121797142Y-95401904D01*
X121759047Y-95401904D01*
X121701904Y-95363809D01*
X121663809Y-95287619D01*
X121644761Y-95211428D01*
X121625714Y-95059047D01*
X121625714Y-94944761D01*
X121644761Y-94792380D01*
X121663809Y-94716190D01*
X121701904Y-94640000D01*
X121759047Y-94601904D01*
X121797142Y-94601904D01*
X121854285Y-94640000D01*
X121873333Y-94678095D01*
X122216190Y-94868571D02*
X122216190Y-95401904D01*
X122120952Y-94563809D02*
X122025714Y-95135238D01*
X122273333Y-95135238D01*
G04 #@! TO.C,C5*
X121893333Y-103215714D02*
X121874285Y-103253809D01*
X121817142Y-103291904D01*
X121779047Y-103291904D01*
X121721904Y-103253809D01*
X121683809Y-103177619D01*
X121664761Y-103101428D01*
X121645714Y-102949047D01*
X121645714Y-102834761D01*
X121664761Y-102682380D01*
X121683809Y-102606190D01*
X121721904Y-102530000D01*
X121779047Y-102491904D01*
X121817142Y-102491904D01*
X121874285Y-102530000D01*
X121893333Y-102568095D01*
X122255238Y-102491904D02*
X122064761Y-102491904D01*
X122045714Y-102872857D01*
X122064761Y-102834761D01*
X122102857Y-102796666D01*
X122198095Y-102796666D01*
X122236190Y-102834761D01*
X122255238Y-102872857D01*
X122274285Y-102949047D01*
X122274285Y-103139523D01*
X122255238Y-103215714D01*
X122236190Y-103253809D01*
X122198095Y-103291904D01*
X122102857Y-103291904D01*
X122064761Y-103253809D01*
X122045714Y-103215714D01*
G04 #@! TO.C,C7*
X119933333Y-87905714D02*
X119914285Y-87943809D01*
X119857142Y-87981904D01*
X119819047Y-87981904D01*
X119761904Y-87943809D01*
X119723809Y-87867619D01*
X119704761Y-87791428D01*
X119685714Y-87639047D01*
X119685714Y-87524761D01*
X119704761Y-87372380D01*
X119723809Y-87296190D01*
X119761904Y-87220000D01*
X119819047Y-87181904D01*
X119857142Y-87181904D01*
X119914285Y-87220000D01*
X119933333Y-87258095D01*
X120066666Y-87181904D02*
X120333333Y-87181904D01*
X120161904Y-87981904D01*
G04 #@! TO.C,C8*
X112203333Y-82465714D02*
X112184285Y-82503809D01*
X112127142Y-82541904D01*
X112089047Y-82541904D01*
X112031904Y-82503809D01*
X111993809Y-82427619D01*
X111974761Y-82351428D01*
X111955714Y-82199047D01*
X111955714Y-82084761D01*
X111974761Y-81932380D01*
X111993809Y-81856190D01*
X112031904Y-81780000D01*
X112089047Y-81741904D01*
X112127142Y-81741904D01*
X112184285Y-81780000D01*
X112203333Y-81818095D01*
X112431904Y-82084761D02*
X112393809Y-82046666D01*
X112374761Y-82008571D01*
X112355714Y-81932380D01*
X112355714Y-81894285D01*
X112374761Y-81818095D01*
X112393809Y-81780000D01*
X112431904Y-81741904D01*
X112508095Y-81741904D01*
X112546190Y-81780000D01*
X112565238Y-81818095D01*
X112584285Y-81894285D01*
X112584285Y-81932380D01*
X112565238Y-82008571D01*
X112546190Y-82046666D01*
X112508095Y-82084761D01*
X112431904Y-82084761D01*
X112393809Y-82122857D01*
X112374761Y-82160952D01*
X112355714Y-82237142D01*
X112355714Y-82389523D01*
X112374761Y-82465714D01*
X112393809Y-82503809D01*
X112431904Y-82541904D01*
X112508095Y-82541904D01*
X112546190Y-82503809D01*
X112565238Y-82465714D01*
X112584285Y-82389523D01*
X112584285Y-82237142D01*
X112565238Y-82160952D01*
X112546190Y-82122857D01*
X112508095Y-82084761D01*
G04 #@! TO.C,C9*
X105313333Y-95695714D02*
X105294285Y-95733809D01*
X105237142Y-95771904D01*
X105199047Y-95771904D01*
X105141904Y-95733809D01*
X105103809Y-95657619D01*
X105084761Y-95581428D01*
X105065714Y-95429047D01*
X105065714Y-95314761D01*
X105084761Y-95162380D01*
X105103809Y-95086190D01*
X105141904Y-95010000D01*
X105199047Y-94971904D01*
X105237142Y-94971904D01*
X105294285Y-95010000D01*
X105313333Y-95048095D01*
X105503809Y-95771904D02*
X105580000Y-95771904D01*
X105618095Y-95733809D01*
X105637142Y-95695714D01*
X105675238Y-95581428D01*
X105694285Y-95429047D01*
X105694285Y-95124285D01*
X105675238Y-95048095D01*
X105656190Y-95010000D01*
X105618095Y-94971904D01*
X105541904Y-94971904D01*
X105503809Y-95010000D01*
X105484761Y-95048095D01*
X105465714Y-95124285D01*
X105465714Y-95314761D01*
X105484761Y-95390952D01*
X105503809Y-95429047D01*
X105541904Y-95467142D01*
X105618095Y-95467142D01*
X105656190Y-95429047D01*
X105675238Y-95390952D01*
X105694285Y-95314761D01*
G04 #@! TO.C,C11*
X91452857Y-74385714D02*
X91433809Y-74423809D01*
X91376666Y-74461904D01*
X91338571Y-74461904D01*
X91281428Y-74423809D01*
X91243333Y-74347619D01*
X91224285Y-74271428D01*
X91205238Y-74119047D01*
X91205238Y-74004761D01*
X91224285Y-73852380D01*
X91243333Y-73776190D01*
X91281428Y-73700000D01*
X91338571Y-73661904D01*
X91376666Y-73661904D01*
X91433809Y-73700000D01*
X91452857Y-73738095D01*
X91833809Y-74461904D02*
X91605238Y-74461904D01*
X91719523Y-74461904D02*
X91719523Y-73661904D01*
X91681428Y-73776190D01*
X91643333Y-73852380D01*
X91605238Y-73890476D01*
X92214761Y-74461904D02*
X91986190Y-74461904D01*
X92100476Y-74461904D02*
X92100476Y-73661904D01*
X92062380Y-73776190D01*
X92024285Y-73852380D01*
X91986190Y-73890476D01*
G04 #@! TO.C,C16*
X100702857Y-99823214D02*
X100683809Y-99861309D01*
X100626666Y-99899404D01*
X100588571Y-99899404D01*
X100531428Y-99861309D01*
X100493333Y-99785119D01*
X100474285Y-99708928D01*
X100455238Y-99556547D01*
X100455238Y-99442261D01*
X100474285Y-99289880D01*
X100493333Y-99213690D01*
X100531428Y-99137500D01*
X100588571Y-99099404D01*
X100626666Y-99099404D01*
X100683809Y-99137500D01*
X100702857Y-99175595D01*
X101083809Y-99899404D02*
X100855238Y-99899404D01*
X100969523Y-99899404D02*
X100969523Y-99099404D01*
X100931428Y-99213690D01*
X100893333Y-99289880D01*
X100855238Y-99327976D01*
X101426666Y-99099404D02*
X101350476Y-99099404D01*
X101312380Y-99137500D01*
X101293333Y-99175595D01*
X101255238Y-99289880D01*
X101236190Y-99442261D01*
X101236190Y-99747023D01*
X101255238Y-99823214D01*
X101274285Y-99861309D01*
X101312380Y-99899404D01*
X101388571Y-99899404D01*
X101426666Y-99861309D01*
X101445714Y-99823214D01*
X101464761Y-99747023D01*
X101464761Y-99556547D01*
X101445714Y-99480357D01*
X101426666Y-99442261D01*
X101388571Y-99404166D01*
X101312380Y-99404166D01*
X101274285Y-99442261D01*
X101255238Y-99480357D01*
X101236190Y-99556547D01*
G04 #@! TO.C,C18*
X83712857Y-74525714D02*
X83693809Y-74563809D01*
X83636666Y-74601904D01*
X83598571Y-74601904D01*
X83541428Y-74563809D01*
X83503333Y-74487619D01*
X83484285Y-74411428D01*
X83465238Y-74259047D01*
X83465238Y-74144761D01*
X83484285Y-73992380D01*
X83503333Y-73916190D01*
X83541428Y-73840000D01*
X83598571Y-73801904D01*
X83636666Y-73801904D01*
X83693809Y-73840000D01*
X83712857Y-73878095D01*
X84093809Y-74601904D02*
X83865238Y-74601904D01*
X83979523Y-74601904D02*
X83979523Y-73801904D01*
X83941428Y-73916190D01*
X83903333Y-73992380D01*
X83865238Y-74030476D01*
X84322380Y-74144761D02*
X84284285Y-74106666D01*
X84265238Y-74068571D01*
X84246190Y-73992380D01*
X84246190Y-73954285D01*
X84265238Y-73878095D01*
X84284285Y-73840000D01*
X84322380Y-73801904D01*
X84398571Y-73801904D01*
X84436666Y-73840000D01*
X84455714Y-73878095D01*
X84474761Y-73954285D01*
X84474761Y-73992380D01*
X84455714Y-74068571D01*
X84436666Y-74106666D01*
X84398571Y-74144761D01*
X84322380Y-74144761D01*
X84284285Y-74182857D01*
X84265238Y-74220952D01*
X84246190Y-74297142D01*
X84246190Y-74449523D01*
X84265238Y-74525714D01*
X84284285Y-74563809D01*
X84322380Y-74601904D01*
X84398571Y-74601904D01*
X84436666Y-74563809D01*
X84455714Y-74525714D01*
X84474761Y-74449523D01*
X84474761Y-74297142D01*
X84455714Y-74220952D01*
X84436666Y-74182857D01*
X84398571Y-74144761D01*
G04 #@! TO.C,J1*
X86796666Y-66901904D02*
X86796666Y-67473333D01*
X86777619Y-67587619D01*
X86739523Y-67663809D01*
X86682380Y-67701904D01*
X86644285Y-67701904D01*
X87196666Y-67701904D02*
X86968095Y-67701904D01*
X87082380Y-67701904D02*
X87082380Y-66901904D01*
X87044285Y-67016190D01*
X87006190Y-67092380D01*
X86968095Y-67130476D01*
G04 #@! TO.C,U3*
X110775238Y-76941904D02*
X110775238Y-77589523D01*
X110794285Y-77665714D01*
X110813333Y-77703809D01*
X110851428Y-77741904D01*
X110927619Y-77741904D01*
X110965714Y-77703809D01*
X110984761Y-77665714D01*
X111003809Y-77589523D01*
X111003809Y-76941904D01*
X111156190Y-76941904D02*
X111403809Y-76941904D01*
X111270476Y-77246666D01*
X111327619Y-77246666D01*
X111365714Y-77284761D01*
X111384761Y-77322857D01*
X111403809Y-77399047D01*
X111403809Y-77589523D01*
X111384761Y-77665714D01*
X111365714Y-77703809D01*
X111327619Y-77741904D01*
X111213333Y-77741904D01*
X111175238Y-77703809D01*
X111156190Y-77665714D01*
G04 #@! TO.C,U2*
X110805238Y-85171904D02*
X110805238Y-85819523D01*
X110824285Y-85895714D01*
X110843333Y-85933809D01*
X110881428Y-85971904D01*
X110957619Y-85971904D01*
X110995714Y-85933809D01*
X111014761Y-85895714D01*
X111033809Y-85819523D01*
X111033809Y-85171904D01*
X111205238Y-85248095D02*
X111224285Y-85210000D01*
X111262380Y-85171904D01*
X111357619Y-85171904D01*
X111395714Y-85210000D01*
X111414761Y-85248095D01*
X111433809Y-85324285D01*
X111433809Y-85400476D01*
X111414761Y-85514761D01*
X111186190Y-85971904D01*
X111433809Y-85971904D01*
G04 #@! TO.C,R10*
X105122857Y-99894404D02*
X104989523Y-99513452D01*
X104894285Y-99894404D02*
X104894285Y-99094404D01*
X105046666Y-99094404D01*
X105084761Y-99132500D01*
X105103809Y-99170595D01*
X105122857Y-99246785D01*
X105122857Y-99361071D01*
X105103809Y-99437261D01*
X105084761Y-99475357D01*
X105046666Y-99513452D01*
X104894285Y-99513452D01*
X105503809Y-99894404D02*
X105275238Y-99894404D01*
X105389523Y-99894404D02*
X105389523Y-99094404D01*
X105351428Y-99208690D01*
X105313333Y-99284880D01*
X105275238Y-99322976D01*
X105751428Y-99094404D02*
X105789523Y-99094404D01*
X105827619Y-99132500D01*
X105846666Y-99170595D01*
X105865714Y-99246785D01*
X105884761Y-99399166D01*
X105884761Y-99589642D01*
X105865714Y-99742023D01*
X105846666Y-99818214D01*
X105827619Y-99856309D01*
X105789523Y-99894404D01*
X105751428Y-99894404D01*
X105713333Y-99856309D01*
X105694285Y-99818214D01*
X105675238Y-99742023D01*
X105656190Y-99589642D01*
X105656190Y-99399166D01*
X105675238Y-99246785D01*
X105694285Y-99170595D01*
X105713333Y-99132500D01*
X105751428Y-99094404D01*
G04 #@! TO.C,R11*
X102942857Y-99861904D02*
X102809523Y-99480952D01*
X102714285Y-99861904D02*
X102714285Y-99061904D01*
X102866666Y-99061904D01*
X102904761Y-99100000D01*
X102923809Y-99138095D01*
X102942857Y-99214285D01*
X102942857Y-99328571D01*
X102923809Y-99404761D01*
X102904761Y-99442857D01*
X102866666Y-99480952D01*
X102714285Y-99480952D01*
X103323809Y-99861904D02*
X103095238Y-99861904D01*
X103209523Y-99861904D02*
X103209523Y-99061904D01*
X103171428Y-99176190D01*
X103133333Y-99252380D01*
X103095238Y-99290476D01*
X103704761Y-99861904D02*
X103476190Y-99861904D01*
X103590476Y-99861904D02*
X103590476Y-99061904D01*
X103552380Y-99176190D01*
X103514285Y-99252380D01*
X103476190Y-99290476D01*
G04 #@! TO.C,R12*
X112442857Y-103841904D02*
X112309523Y-103460952D01*
X112214285Y-103841904D02*
X112214285Y-103041904D01*
X112366666Y-103041904D01*
X112404761Y-103080000D01*
X112423809Y-103118095D01*
X112442857Y-103194285D01*
X112442857Y-103308571D01*
X112423809Y-103384761D01*
X112404761Y-103422857D01*
X112366666Y-103460952D01*
X112214285Y-103460952D01*
X112823809Y-103841904D02*
X112595238Y-103841904D01*
X112709523Y-103841904D02*
X112709523Y-103041904D01*
X112671428Y-103156190D01*
X112633333Y-103232380D01*
X112595238Y-103270476D01*
X112976190Y-103118095D02*
X112995238Y-103080000D01*
X113033333Y-103041904D01*
X113128571Y-103041904D01*
X113166666Y-103080000D01*
X113185714Y-103118095D01*
X113204761Y-103194285D01*
X113204761Y-103270476D01*
X113185714Y-103384761D01*
X112957142Y-103841904D01*
X113204761Y-103841904D01*
G04 #@! TO.C,R13*
X109332857Y-103871904D02*
X109199523Y-103490952D01*
X109104285Y-103871904D02*
X109104285Y-103071904D01*
X109256666Y-103071904D01*
X109294761Y-103110000D01*
X109313809Y-103148095D01*
X109332857Y-103224285D01*
X109332857Y-103338571D01*
X109313809Y-103414761D01*
X109294761Y-103452857D01*
X109256666Y-103490952D01*
X109104285Y-103490952D01*
X109713809Y-103871904D02*
X109485238Y-103871904D01*
X109599523Y-103871904D02*
X109599523Y-103071904D01*
X109561428Y-103186190D01*
X109523333Y-103262380D01*
X109485238Y-103300476D01*
X109847142Y-103071904D02*
X110094761Y-103071904D01*
X109961428Y-103376666D01*
X110018571Y-103376666D01*
X110056666Y-103414761D01*
X110075714Y-103452857D01*
X110094761Y-103529047D01*
X110094761Y-103719523D01*
X110075714Y-103795714D01*
X110056666Y-103833809D01*
X110018571Y-103871904D01*
X109904285Y-103871904D01*
X109866190Y-103833809D01*
X109847142Y-103795714D01*
G04 #@! TO.C,U4*
X79505238Y-81541904D02*
X79505238Y-82189523D01*
X79524285Y-82265714D01*
X79543333Y-82303809D01*
X79581428Y-82341904D01*
X79657619Y-82341904D01*
X79695714Y-82303809D01*
X79714761Y-82265714D01*
X79733809Y-82189523D01*
X79733809Y-81541904D01*
X80095714Y-81808571D02*
X80095714Y-82341904D01*
X80000476Y-81503809D02*
X79905238Y-82075238D01*
X80152857Y-82075238D01*
G04 #@! TO.C,TP5*
X119395238Y-106003904D02*
X119623809Y-106003904D01*
X119509523Y-106803904D02*
X119509523Y-106003904D01*
X119757142Y-106803904D02*
X119757142Y-106003904D01*
X119909523Y-106003904D01*
X119947619Y-106042000D01*
X119966666Y-106080095D01*
X119985714Y-106156285D01*
X119985714Y-106270571D01*
X119966666Y-106346761D01*
X119947619Y-106384857D01*
X119909523Y-106422952D01*
X119757142Y-106422952D01*
X120347619Y-106003904D02*
X120157142Y-106003904D01*
X120138095Y-106384857D01*
X120157142Y-106346761D01*
X120195238Y-106308666D01*
X120290476Y-106308666D01*
X120328571Y-106346761D01*
X120347619Y-106384857D01*
X120366666Y-106461047D01*
X120366666Y-106651523D01*
X120347619Y-106727714D01*
X120328571Y-106765809D01*
X120290476Y-106803904D01*
X120195238Y-106803904D01*
X120157142Y-106765809D01*
X120138095Y-106727714D01*
G04 #@! TO.C,TP4*
X107595238Y-93751904D02*
X107823809Y-93751904D01*
X107709523Y-94551904D02*
X107709523Y-93751904D01*
X107957142Y-94551904D02*
X107957142Y-93751904D01*
X108109523Y-93751904D01*
X108147619Y-93790000D01*
X108166666Y-93828095D01*
X108185714Y-93904285D01*
X108185714Y-94018571D01*
X108166666Y-94094761D01*
X108147619Y-94132857D01*
X108109523Y-94170952D01*
X107957142Y-94170952D01*
X108528571Y-94018571D02*
X108528571Y-94551904D01*
X108433333Y-93713809D02*
X108338095Y-94285238D01*
X108585714Y-94285238D01*
G04 #@! TO.C,TP3*
X107575238Y-83291904D02*
X107803809Y-83291904D01*
X107689523Y-84091904D02*
X107689523Y-83291904D01*
X107937142Y-84091904D02*
X107937142Y-83291904D01*
X108089523Y-83291904D01*
X108127619Y-83330000D01*
X108146666Y-83368095D01*
X108165714Y-83444285D01*
X108165714Y-83558571D01*
X108146666Y-83634761D01*
X108127619Y-83672857D01*
X108089523Y-83710952D01*
X107937142Y-83710952D01*
X108299047Y-83291904D02*
X108546666Y-83291904D01*
X108413333Y-83596666D01*
X108470476Y-83596666D01*
X108508571Y-83634761D01*
X108527619Y-83672857D01*
X108546666Y-83749047D01*
X108546666Y-83939523D01*
X108527619Y-84015714D01*
X108508571Y-84053809D01*
X108470476Y-84091904D01*
X108356190Y-84091904D01*
X108318095Y-84053809D01*
X108299047Y-84015714D01*
G04 #@! TO.C,TP1*
X113665238Y-93751904D02*
X113893809Y-93751904D01*
X113779523Y-94551904D02*
X113779523Y-93751904D01*
X114027142Y-94551904D02*
X114027142Y-93751904D01*
X114179523Y-93751904D01*
X114217619Y-93790000D01*
X114236666Y-93828095D01*
X114255714Y-93904285D01*
X114255714Y-94018571D01*
X114236666Y-94094761D01*
X114217619Y-94132857D01*
X114179523Y-94170952D01*
X114027142Y-94170952D01*
X114636666Y-94551904D02*
X114408095Y-94551904D01*
X114522380Y-94551904D02*
X114522380Y-93751904D01*
X114484285Y-93866190D01*
X114446190Y-93942380D01*
X114408095Y-93980476D01*
G04 #@! TO.C,TP2*
X113665238Y-83161904D02*
X113893809Y-83161904D01*
X113779523Y-83961904D02*
X113779523Y-83161904D01*
X114027142Y-83961904D02*
X114027142Y-83161904D01*
X114179523Y-83161904D01*
X114217619Y-83200000D01*
X114236666Y-83238095D01*
X114255714Y-83314285D01*
X114255714Y-83428571D01*
X114236666Y-83504761D01*
X114217619Y-83542857D01*
X114179523Y-83580952D01*
X114027142Y-83580952D01*
X114408095Y-83238095D02*
X114427142Y-83200000D01*
X114465238Y-83161904D01*
X114560476Y-83161904D01*
X114598571Y-83200000D01*
X114617619Y-83238095D01*
X114636666Y-83314285D01*
X114636666Y-83390476D01*
X114617619Y-83504761D01*
X114389047Y-83961904D01*
X114636666Y-83961904D01*
G04 #@! TO.C,C6*
X100903333Y-95638214D02*
X100884285Y-95676309D01*
X100827142Y-95714404D01*
X100789047Y-95714404D01*
X100731904Y-95676309D01*
X100693809Y-95600119D01*
X100674761Y-95523928D01*
X100655714Y-95371547D01*
X100655714Y-95257261D01*
X100674761Y-95104880D01*
X100693809Y-95028690D01*
X100731904Y-94952500D01*
X100789047Y-94914404D01*
X100827142Y-94914404D01*
X100884285Y-94952500D01*
X100903333Y-94990595D01*
X101246190Y-94914404D02*
X101170000Y-94914404D01*
X101131904Y-94952500D01*
X101112857Y-94990595D01*
X101074761Y-95104880D01*
X101055714Y-95257261D01*
X101055714Y-95562023D01*
X101074761Y-95638214D01*
X101093809Y-95676309D01*
X101131904Y-95714404D01*
X101208095Y-95714404D01*
X101246190Y-95676309D01*
X101265238Y-95638214D01*
X101284285Y-95562023D01*
X101284285Y-95371547D01*
X101265238Y-95295357D01*
X101246190Y-95257261D01*
X101208095Y-95219166D01*
X101131904Y-95219166D01*
X101093809Y-95257261D01*
X101074761Y-95295357D01*
X101055714Y-95371547D01*
G04 #@! TO.C,R7*
X103193333Y-93321904D02*
X103060000Y-92940952D01*
X102964761Y-93321904D02*
X102964761Y-92521904D01*
X103117142Y-92521904D01*
X103155238Y-92560000D01*
X103174285Y-92598095D01*
X103193333Y-92674285D01*
X103193333Y-92788571D01*
X103174285Y-92864761D01*
X103155238Y-92902857D01*
X103117142Y-92940952D01*
X102964761Y-92940952D01*
X103326666Y-92521904D02*
X103593333Y-92521904D01*
X103421904Y-93321904D01*
G04 #@! TO.C,R6*
X100723333Y-89001904D02*
X100590000Y-88620952D01*
X100494761Y-89001904D02*
X100494761Y-88201904D01*
X100647142Y-88201904D01*
X100685238Y-88240000D01*
X100704285Y-88278095D01*
X100723333Y-88354285D01*
X100723333Y-88468571D01*
X100704285Y-88544761D01*
X100685238Y-88582857D01*
X100647142Y-88620952D01*
X100494761Y-88620952D01*
X101066190Y-88201904D02*
X100990000Y-88201904D01*
X100951904Y-88240000D01*
X100932857Y-88278095D01*
X100894761Y-88392380D01*
X100875714Y-88544761D01*
X100875714Y-88849523D01*
X100894761Y-88925714D01*
X100913809Y-88963809D01*
X100951904Y-89001904D01*
X101028095Y-89001904D01*
X101066190Y-88963809D01*
X101085238Y-88925714D01*
X101104285Y-88849523D01*
X101104285Y-88659047D01*
X101085238Y-88582857D01*
X101066190Y-88544761D01*
X101028095Y-88506666D01*
X100951904Y-88506666D01*
X100913809Y-88544761D01*
X100894761Y-88582857D01*
X100875714Y-88659047D01*
G04 #@! TO.C,R8*
X105473333Y-93251904D02*
X105340000Y-92870952D01*
X105244761Y-93251904D02*
X105244761Y-92451904D01*
X105397142Y-92451904D01*
X105435238Y-92490000D01*
X105454285Y-92528095D01*
X105473333Y-92604285D01*
X105473333Y-92718571D01*
X105454285Y-92794761D01*
X105435238Y-92832857D01*
X105397142Y-92870952D01*
X105244761Y-92870952D01*
X105701904Y-92794761D02*
X105663809Y-92756666D01*
X105644761Y-92718571D01*
X105625714Y-92642380D01*
X105625714Y-92604285D01*
X105644761Y-92528095D01*
X105663809Y-92490000D01*
X105701904Y-92451904D01*
X105778095Y-92451904D01*
X105816190Y-92490000D01*
X105835238Y-92528095D01*
X105854285Y-92604285D01*
X105854285Y-92642380D01*
X105835238Y-92718571D01*
X105816190Y-92756666D01*
X105778095Y-92794761D01*
X105701904Y-92794761D01*
X105663809Y-92832857D01*
X105644761Y-92870952D01*
X105625714Y-92947142D01*
X105625714Y-93099523D01*
X105644761Y-93175714D01*
X105663809Y-93213809D01*
X105701904Y-93251904D01*
X105778095Y-93251904D01*
X105816190Y-93213809D01*
X105835238Y-93175714D01*
X105854285Y-93099523D01*
X105854285Y-92947142D01*
X105835238Y-92870952D01*
X105816190Y-92832857D01*
X105778095Y-92794761D01*
G04 #@! TO.C,R9*
X103243333Y-95746904D02*
X103110000Y-95365952D01*
X103014761Y-95746904D02*
X103014761Y-94946904D01*
X103167142Y-94946904D01*
X103205238Y-94985000D01*
X103224285Y-95023095D01*
X103243333Y-95099285D01*
X103243333Y-95213571D01*
X103224285Y-95289761D01*
X103205238Y-95327857D01*
X103167142Y-95365952D01*
X103014761Y-95365952D01*
X103433809Y-95746904D02*
X103510000Y-95746904D01*
X103548095Y-95708809D01*
X103567142Y-95670714D01*
X103605238Y-95556428D01*
X103624285Y-95404047D01*
X103624285Y-95099285D01*
X103605238Y-95023095D01*
X103586190Y-94985000D01*
X103548095Y-94946904D01*
X103471904Y-94946904D01*
X103433809Y-94985000D01*
X103414761Y-95023095D01*
X103395714Y-95099285D01*
X103395714Y-95289761D01*
X103414761Y-95365952D01*
X103433809Y-95404047D01*
X103471904Y-95442142D01*
X103548095Y-95442142D01*
X103586190Y-95404047D01*
X103605238Y-95365952D01*
X103624285Y-95289761D01*
G04 #@! TO.C,R2*
X116573333Y-88921904D02*
X116440000Y-88540952D01*
X116344761Y-88921904D02*
X116344761Y-88121904D01*
X116497142Y-88121904D01*
X116535238Y-88160000D01*
X116554285Y-88198095D01*
X116573333Y-88274285D01*
X116573333Y-88388571D01*
X116554285Y-88464761D01*
X116535238Y-88502857D01*
X116497142Y-88540952D01*
X116344761Y-88540952D01*
X116725714Y-88198095D02*
X116744761Y-88160000D01*
X116782857Y-88121904D01*
X116878095Y-88121904D01*
X116916190Y-88160000D01*
X116935238Y-88198095D01*
X116954285Y-88274285D01*
X116954285Y-88350476D01*
X116935238Y-88464761D01*
X116706666Y-88921904D01*
X116954285Y-88921904D01*
G04 #@! TO.C,R3*
X120883333Y-77709404D02*
X120750000Y-77328452D01*
X120654761Y-77709404D02*
X120654761Y-76909404D01*
X120807142Y-76909404D01*
X120845238Y-76947500D01*
X120864285Y-76985595D01*
X120883333Y-77061785D01*
X120883333Y-77176071D01*
X120864285Y-77252261D01*
X120845238Y-77290357D01*
X120807142Y-77328452D01*
X120654761Y-77328452D01*
X121016666Y-76909404D02*
X121264285Y-76909404D01*
X121130952Y-77214166D01*
X121188095Y-77214166D01*
X121226190Y-77252261D01*
X121245238Y-77290357D01*
X121264285Y-77366547D01*
X121264285Y-77557023D01*
X121245238Y-77633214D01*
X121226190Y-77671309D01*
X121188095Y-77709404D01*
X121073809Y-77709404D01*
X121035714Y-77671309D01*
X121016666Y-77633214D01*
G04 #@! TO.C,R4*
X118413333Y-77829404D02*
X118280000Y-77448452D01*
X118184761Y-77829404D02*
X118184761Y-77029404D01*
X118337142Y-77029404D01*
X118375238Y-77067500D01*
X118394285Y-77105595D01*
X118413333Y-77181785D01*
X118413333Y-77296071D01*
X118394285Y-77372261D01*
X118375238Y-77410357D01*
X118337142Y-77448452D01*
X118184761Y-77448452D01*
X118756190Y-77296071D02*
X118756190Y-77829404D01*
X118660952Y-76991309D02*
X118565714Y-77562738D01*
X118813333Y-77562738D01*
G04 #@! TO.C,C3*
X105533333Y-85305714D02*
X105514285Y-85343809D01*
X105457142Y-85381904D01*
X105419047Y-85381904D01*
X105361904Y-85343809D01*
X105323809Y-85267619D01*
X105304761Y-85191428D01*
X105285714Y-85039047D01*
X105285714Y-84924761D01*
X105304761Y-84772380D01*
X105323809Y-84696190D01*
X105361904Y-84620000D01*
X105419047Y-84581904D01*
X105457142Y-84581904D01*
X105514285Y-84620000D01*
X105533333Y-84658095D01*
X105666666Y-84581904D02*
X105914285Y-84581904D01*
X105780952Y-84886666D01*
X105838095Y-84886666D01*
X105876190Y-84924761D01*
X105895238Y-84962857D01*
X105914285Y-85039047D01*
X105914285Y-85229523D01*
X105895238Y-85305714D01*
X105876190Y-85343809D01*
X105838095Y-85381904D01*
X105723809Y-85381904D01*
X105685714Y-85343809D01*
X105666666Y-85305714D01*
G04 #@! TO.C,R1*
X118703333Y-88959404D02*
X118570000Y-88578452D01*
X118474761Y-88959404D02*
X118474761Y-88159404D01*
X118627142Y-88159404D01*
X118665238Y-88197500D01*
X118684285Y-88235595D01*
X118703333Y-88311785D01*
X118703333Y-88426071D01*
X118684285Y-88502261D01*
X118665238Y-88540357D01*
X118627142Y-88578452D01*
X118474761Y-88578452D01*
X119084285Y-88959404D02*
X118855714Y-88959404D01*
X118970000Y-88959404D02*
X118970000Y-88159404D01*
X118931904Y-88273690D01*
X118893809Y-88349880D01*
X118855714Y-88387976D01*
G04 #@! TO.C,C2*
X107243333Y-69415714D02*
X107224285Y-69453809D01*
X107167142Y-69491904D01*
X107129047Y-69491904D01*
X107071904Y-69453809D01*
X107033809Y-69377619D01*
X107014761Y-69301428D01*
X106995714Y-69149047D01*
X106995714Y-69034761D01*
X107014761Y-68882380D01*
X107033809Y-68806190D01*
X107071904Y-68730000D01*
X107129047Y-68691904D01*
X107167142Y-68691904D01*
X107224285Y-68730000D01*
X107243333Y-68768095D01*
X107395714Y-68768095D02*
X107414761Y-68730000D01*
X107452857Y-68691904D01*
X107548095Y-68691904D01*
X107586190Y-68730000D01*
X107605238Y-68768095D01*
X107624285Y-68844285D01*
X107624285Y-68920476D01*
X107605238Y-69034761D01*
X107376666Y-69491904D01*
X107624285Y-69491904D01*
G04 #@! TO.C,C1*
X107243333Y-75145714D02*
X107224285Y-75183809D01*
X107167142Y-75221904D01*
X107129047Y-75221904D01*
X107071904Y-75183809D01*
X107033809Y-75107619D01*
X107014761Y-75031428D01*
X106995714Y-74879047D01*
X106995714Y-74764761D01*
X107014761Y-74612380D01*
X107033809Y-74536190D01*
X107071904Y-74460000D01*
X107129047Y-74421904D01*
X107167142Y-74421904D01*
X107224285Y-74460000D01*
X107243333Y-74498095D01*
X107624285Y-75221904D02*
X107395714Y-75221904D01*
X107510000Y-75221904D02*
X107510000Y-74421904D01*
X107471904Y-74536190D01*
X107433809Y-74612380D01*
X107395714Y-74650476D01*
G04 #@! TO.C,U1*
X110795238Y-68601904D02*
X110795238Y-69249523D01*
X110814285Y-69325714D01*
X110833333Y-69363809D01*
X110871428Y-69401904D01*
X110947619Y-69401904D01*
X110985714Y-69363809D01*
X111004761Y-69325714D01*
X111023809Y-69249523D01*
X111023809Y-68601904D01*
X111423809Y-69401904D02*
X111195238Y-69401904D01*
X111309523Y-69401904D02*
X111309523Y-68601904D01*
X111271428Y-68716190D01*
X111233333Y-68792380D01*
X111195238Y-68830476D01*
G04 #@! TO.C,H1*
X81795238Y-64761904D02*
X81795238Y-63961904D01*
X81795238Y-64342857D02*
X82023809Y-64342857D01*
X82023809Y-64761904D02*
X82023809Y-63961904D01*
X82423809Y-64761904D02*
X82195238Y-64761904D01*
X82309523Y-64761904D02*
X82309523Y-63961904D01*
X82271428Y-64076190D01*
X82233333Y-64152380D01*
X82195238Y-64190476D01*
G04 #@! TO.C,H2*
X139795238Y-64781904D02*
X139795238Y-63981904D01*
X139795238Y-64362857D02*
X140023809Y-64362857D01*
X140023809Y-64781904D02*
X140023809Y-63981904D01*
X140195238Y-64058095D02*
X140214285Y-64020000D01*
X140252380Y-63981904D01*
X140347619Y-63981904D01*
X140385714Y-64020000D01*
X140404761Y-64058095D01*
X140423809Y-64134285D01*
X140423809Y-64210476D01*
X140404761Y-64324761D01*
X140176190Y-64781904D01*
X140423809Y-64781904D01*
G04 #@! TO.C,H3*
X81795238Y-113771904D02*
X81795238Y-112971904D01*
X81795238Y-113352857D02*
X82023809Y-113352857D01*
X82023809Y-113771904D02*
X82023809Y-112971904D01*
X82176190Y-112971904D02*
X82423809Y-112971904D01*
X82290476Y-113276666D01*
X82347619Y-113276666D01*
X82385714Y-113314761D01*
X82404761Y-113352857D01*
X82423809Y-113429047D01*
X82423809Y-113619523D01*
X82404761Y-113695714D01*
X82385714Y-113733809D01*
X82347619Y-113771904D01*
X82233333Y-113771904D01*
X82195238Y-113733809D01*
X82176190Y-113695714D01*
G04 #@! TO.C,H4*
X139785238Y-113761904D02*
X139785238Y-112961904D01*
X139785238Y-113342857D02*
X140013809Y-113342857D01*
X140013809Y-113761904D02*
X140013809Y-112961904D01*
X140375714Y-113228571D02*
X140375714Y-113761904D01*
X140280476Y-112923809D02*
X140185238Y-113495238D01*
X140432857Y-113495238D01*
G04 #@! TO.C,(c) SDL Ltd 2018*
X136092857Y-77116666D02*
X136073809Y-77078571D01*
X136035714Y-76964285D01*
X136016666Y-76888095D01*
X135997619Y-76773809D01*
X135978571Y-76583333D01*
X135978571Y-76430952D01*
X135997619Y-76240476D01*
X136016666Y-76126190D01*
X136035714Y-76050000D01*
X136073809Y-75935714D01*
X136092857Y-75897619D01*
X136416666Y-76773809D02*
X136378571Y-76811904D01*
X136302380Y-76811904D01*
X136264285Y-76773809D01*
X136245238Y-76735714D01*
X136226190Y-76659523D01*
X136226190Y-76430952D01*
X136245238Y-76354761D01*
X136264285Y-76316666D01*
X136302380Y-76278571D01*
X136378571Y-76278571D01*
X136416666Y-76316666D01*
X136550000Y-77116666D02*
X136569047Y-77078571D01*
X136607142Y-76964285D01*
X136626190Y-76888095D01*
X136645238Y-76773809D01*
X136664285Y-76583333D01*
X136664285Y-76430952D01*
X136645238Y-76240476D01*
X136626190Y-76126190D01*
X136607142Y-76050000D01*
X136569047Y-75935714D01*
X136550000Y-75897619D01*
X137140476Y-76773809D02*
X137197619Y-76811904D01*
X137292857Y-76811904D01*
X137330952Y-76773809D01*
X137350000Y-76735714D01*
X137369047Y-76659523D01*
X137369047Y-76583333D01*
X137350000Y-76507142D01*
X137330952Y-76469047D01*
X137292857Y-76430952D01*
X137216666Y-76392857D01*
X137178571Y-76354761D01*
X137159523Y-76316666D01*
X137140476Y-76240476D01*
X137140476Y-76164285D01*
X137159523Y-76088095D01*
X137178571Y-76050000D01*
X137216666Y-76011904D01*
X137311904Y-76011904D01*
X137369047Y-76050000D01*
X137540476Y-76811904D02*
X137540476Y-76011904D01*
X137635714Y-76011904D01*
X137692857Y-76050000D01*
X137730952Y-76126190D01*
X137750000Y-76202380D01*
X137769047Y-76354761D01*
X137769047Y-76469047D01*
X137750000Y-76621428D01*
X137730952Y-76697619D01*
X137692857Y-76773809D01*
X137635714Y-76811904D01*
X137540476Y-76811904D01*
X138130952Y-76811904D02*
X137940476Y-76811904D01*
X137940476Y-76011904D01*
X138759523Y-76811904D02*
X138569047Y-76811904D01*
X138569047Y-76011904D01*
X138835714Y-76278571D02*
X138988095Y-76278571D01*
X138892857Y-76011904D02*
X138892857Y-76697619D01*
X138911904Y-76773809D01*
X138950000Y-76811904D01*
X138988095Y-76811904D01*
X139292857Y-76811904D02*
X139292857Y-76011904D01*
X139292857Y-76773809D02*
X139254761Y-76811904D01*
X139178571Y-76811904D01*
X139140476Y-76773809D01*
X139121428Y-76735714D01*
X139102380Y-76659523D01*
X139102380Y-76430952D01*
X139121428Y-76354761D01*
X139140476Y-76316666D01*
X139178571Y-76278571D01*
X139254761Y-76278571D01*
X139292857Y-76316666D01*
X139769047Y-76088095D02*
X139788095Y-76050000D01*
X139826190Y-76011904D01*
X139921428Y-76011904D01*
X139959523Y-76050000D01*
X139978571Y-76088095D01*
X139997619Y-76164285D01*
X139997619Y-76240476D01*
X139978571Y-76354761D01*
X139750000Y-76811904D01*
X139997619Y-76811904D01*
X140245238Y-76011904D02*
X140283333Y-76011904D01*
X140321428Y-76050000D01*
X140340476Y-76088095D01*
X140359523Y-76164285D01*
X140378571Y-76316666D01*
X140378571Y-76507142D01*
X140359523Y-76659523D01*
X140340476Y-76735714D01*
X140321428Y-76773809D01*
X140283333Y-76811904D01*
X140245238Y-76811904D01*
X140207142Y-76773809D01*
X140188095Y-76735714D01*
X140169047Y-76659523D01*
X140150000Y-76507142D01*
X140150000Y-76316666D01*
X140169047Y-76164285D01*
X140188095Y-76088095D01*
X140207142Y-76050000D01*
X140245238Y-76011904D01*
X140759523Y-76811904D02*
X140530952Y-76811904D01*
X140645238Y-76811904D02*
X140645238Y-76011904D01*
X140607142Y-76126190D01*
X140569047Y-76202380D01*
X140530952Y-76240476D01*
X140988095Y-76354761D02*
X140950000Y-76316666D01*
X140930952Y-76278571D01*
X140911904Y-76202380D01*
X140911904Y-76164285D01*
X140930952Y-76088095D01*
X140950000Y-76050000D01*
X140988095Y-76011904D01*
X141064285Y-76011904D01*
X141102380Y-76050000D01*
X141121428Y-76088095D01*
X141140476Y-76164285D01*
X141140476Y-76202380D01*
X141121428Y-76278571D01*
X141102380Y-76316666D01*
X141064285Y-76354761D01*
X140988095Y-76354761D01*
X140950000Y-76392857D01*
X140930952Y-76430952D01*
X140911904Y-76507142D01*
X140911904Y-76659523D01*
X140930952Y-76735714D01*
X140950000Y-76773809D01*
X140988095Y-76811904D01*
X141064285Y-76811904D01*
X141102380Y-76773809D01*
X141121428Y-76735714D01*
X141140476Y-76659523D01*
X141140476Y-76507142D01*
X141121428Y-76430952D01*
X141102380Y-76392857D01*
X141064285Y-76354761D01*
G04 #@! TD*
M02*
