G04 #@! TF.GenerationSoftware,KiCad,Pcbnew,5.0.0-fee4fd1~66~ubuntu18.04.1*
G04 #@! TF.CreationDate,2018-10-18T09:36:57+01:00*
G04 #@! TF.ProjectId,DDS-hat,4444532D6861742E6B696361645F7063,rev?*
G04 #@! TF.SameCoordinates,Original*
G04 #@! TF.FileFunction,Soldermask,Top*
G04 #@! TF.FilePolarity,Negative*
%FSLAX46Y46*%
G04 Gerber Fmt 4.6, Leading zero omitted, Abs format (unit mm)*
G04 Created by KiCad (PCBNEW 5.0.0-fee4fd1~66~ubuntu18.04.1) date Thu Oct 18 09:36:57 2018*
%MOMM*%
%LPD*%
G01*
G04 APERTURE LIST*
%ADD10C,0.100000*%
%ADD11C,1.075000*%
%ADD12R,1.900000X1.900000*%
%ADD13O,1.900000X1.900000*%
%ADD14R,0.900000X0.710000*%
%ADD15C,1.400000*%
%ADD16R,1.000000X1.100000*%
%ADD17C,1.550000*%
%ADD18C,1.200000*%
%ADD19R,1.500000X1.800000*%
%ADD20R,2.200000X1.800000*%
%ADD21R,1.650000X0.640000*%
%ADD22R,3.600000X6.700000*%
%ADD23R,2.200000X2.200000*%
%ADD24R,1.700000X4.200000*%
%ADD25R,1.600000X0.500000*%
%ADD26R,1.650000X0.650000*%
%ADD27C,1.450000*%
%ADD28R,1.700000X1.700000*%
%ADD29O,1.700000X1.700000*%
%ADD30C,3.200000*%
G04 APERTURE END LIST*
D10*
X114830000Y-116820000D02*
X140546356Y-116817611D01*
X107400000Y-115110000D02*
X107400000Y-116817611D01*
X114830000Y-115110000D02*
X114830000Y-116817611D01*
X107400000Y-115110000D02*
X114830000Y-115110000D01*
X78546356Y-63817611D02*
X78546356Y-113817611D01*
X78546356Y-63817611D02*
G75*
G02X81546356Y-60817611I3000000J0D01*
G01*
X140546356Y-60817611D02*
X81546356Y-60817611D01*
X140546356Y-60817611D02*
G75*
G02X143546356Y-63817611I0J-3000000D01*
G01*
X143546356Y-113817611D02*
X143546356Y-63817611D01*
X81546356Y-116817611D02*
G75*
G02X78546356Y-113817611I0J3000000D01*
G01*
X81546356Y-116817611D02*
X107400000Y-116820000D01*
X143546351Y-113822847D02*
G75*
G02X140546356Y-116817611I-2999995J5236D01*
G01*
G04 #@! TO.C,C30*
G36*
X112612592Y-74796294D02*
X112638681Y-74800164D01*
X112664264Y-74806572D01*
X112689096Y-74815457D01*
X112712938Y-74826734D01*
X112735560Y-74840293D01*
X112756743Y-74856003D01*
X112776285Y-74873715D01*
X112793997Y-74893257D01*
X112809707Y-74914440D01*
X112823266Y-74937062D01*
X112834543Y-74960904D01*
X112843428Y-74985736D01*
X112849836Y-75011319D01*
X112853706Y-75037408D01*
X112855000Y-75063750D01*
X112855000Y-75601250D01*
X112853706Y-75627592D01*
X112849836Y-75653681D01*
X112843428Y-75679264D01*
X112834543Y-75704096D01*
X112823266Y-75727938D01*
X112809707Y-75750560D01*
X112793997Y-75771743D01*
X112776285Y-75791285D01*
X112756743Y-75808997D01*
X112735560Y-75824707D01*
X112712938Y-75838266D01*
X112689096Y-75849543D01*
X112664264Y-75858428D01*
X112638681Y-75864836D01*
X112612592Y-75868706D01*
X112586250Y-75870000D01*
X111973750Y-75870000D01*
X111947408Y-75868706D01*
X111921319Y-75864836D01*
X111895736Y-75858428D01*
X111870904Y-75849543D01*
X111847062Y-75838266D01*
X111824440Y-75824707D01*
X111803257Y-75808997D01*
X111783715Y-75791285D01*
X111766003Y-75771743D01*
X111750293Y-75750560D01*
X111736734Y-75727938D01*
X111725457Y-75704096D01*
X111716572Y-75679264D01*
X111710164Y-75653681D01*
X111706294Y-75627592D01*
X111705000Y-75601250D01*
X111705000Y-75063750D01*
X111706294Y-75037408D01*
X111710164Y-75011319D01*
X111716572Y-74985736D01*
X111725457Y-74960904D01*
X111736734Y-74937062D01*
X111750293Y-74914440D01*
X111766003Y-74893257D01*
X111783715Y-74873715D01*
X111803257Y-74856003D01*
X111824440Y-74840293D01*
X111847062Y-74826734D01*
X111870904Y-74815457D01*
X111895736Y-74806572D01*
X111921319Y-74800164D01*
X111947408Y-74796294D01*
X111973750Y-74795000D01*
X112586250Y-74795000D01*
X112612592Y-74796294D01*
X112612592Y-74796294D01*
G37*
D11*
X112280000Y-75332500D03*
D10*
G36*
X112612592Y-76371294D02*
X112638681Y-76375164D01*
X112664264Y-76381572D01*
X112689096Y-76390457D01*
X112712938Y-76401734D01*
X112735560Y-76415293D01*
X112756743Y-76431003D01*
X112776285Y-76448715D01*
X112793997Y-76468257D01*
X112809707Y-76489440D01*
X112823266Y-76512062D01*
X112834543Y-76535904D01*
X112843428Y-76560736D01*
X112849836Y-76586319D01*
X112853706Y-76612408D01*
X112855000Y-76638750D01*
X112855000Y-77176250D01*
X112853706Y-77202592D01*
X112849836Y-77228681D01*
X112843428Y-77254264D01*
X112834543Y-77279096D01*
X112823266Y-77302938D01*
X112809707Y-77325560D01*
X112793997Y-77346743D01*
X112776285Y-77366285D01*
X112756743Y-77383997D01*
X112735560Y-77399707D01*
X112712938Y-77413266D01*
X112689096Y-77424543D01*
X112664264Y-77433428D01*
X112638681Y-77439836D01*
X112612592Y-77443706D01*
X112586250Y-77445000D01*
X111973750Y-77445000D01*
X111947408Y-77443706D01*
X111921319Y-77439836D01*
X111895736Y-77433428D01*
X111870904Y-77424543D01*
X111847062Y-77413266D01*
X111824440Y-77399707D01*
X111803257Y-77383997D01*
X111783715Y-77366285D01*
X111766003Y-77346743D01*
X111750293Y-77325560D01*
X111736734Y-77302938D01*
X111725457Y-77279096D01*
X111716572Y-77254264D01*
X111710164Y-77228681D01*
X111706294Y-77202592D01*
X111705000Y-77176250D01*
X111705000Y-76638750D01*
X111706294Y-76612408D01*
X111710164Y-76586319D01*
X111716572Y-76560736D01*
X111725457Y-76535904D01*
X111736734Y-76512062D01*
X111750293Y-76489440D01*
X111766003Y-76468257D01*
X111783715Y-76448715D01*
X111803257Y-76431003D01*
X111824440Y-76415293D01*
X111847062Y-76401734D01*
X111870904Y-76390457D01*
X111895736Y-76381572D01*
X111921319Y-76375164D01*
X111947408Y-76371294D01*
X111973750Y-76370000D01*
X112586250Y-76370000D01*
X112612592Y-76371294D01*
X112612592Y-76371294D01*
G37*
D11*
X112280000Y-76907500D03*
G04 #@! TD*
D12*
G04 #@! TO.C,J5*
X97290000Y-91230000D03*
D13*
X97290000Y-93770000D03*
G04 #@! TD*
D10*
G04 #@! TO.C,R16*
G36*
X121272592Y-90981294D02*
X121298681Y-90985164D01*
X121324264Y-90991572D01*
X121349096Y-91000457D01*
X121372938Y-91011734D01*
X121395560Y-91025293D01*
X121416743Y-91041003D01*
X121436285Y-91058715D01*
X121453997Y-91078257D01*
X121469707Y-91099440D01*
X121483266Y-91122062D01*
X121494543Y-91145904D01*
X121503428Y-91170736D01*
X121509836Y-91196319D01*
X121513706Y-91222408D01*
X121515000Y-91248750D01*
X121515000Y-91786250D01*
X121513706Y-91812592D01*
X121509836Y-91838681D01*
X121503428Y-91864264D01*
X121494543Y-91889096D01*
X121483266Y-91912938D01*
X121469707Y-91935560D01*
X121453997Y-91956743D01*
X121436285Y-91976285D01*
X121416743Y-91993997D01*
X121395560Y-92009707D01*
X121372938Y-92023266D01*
X121349096Y-92034543D01*
X121324264Y-92043428D01*
X121298681Y-92049836D01*
X121272592Y-92053706D01*
X121246250Y-92055000D01*
X120633750Y-92055000D01*
X120607408Y-92053706D01*
X120581319Y-92049836D01*
X120555736Y-92043428D01*
X120530904Y-92034543D01*
X120507062Y-92023266D01*
X120484440Y-92009707D01*
X120463257Y-91993997D01*
X120443715Y-91976285D01*
X120426003Y-91956743D01*
X120410293Y-91935560D01*
X120396734Y-91912938D01*
X120385457Y-91889096D01*
X120376572Y-91864264D01*
X120370164Y-91838681D01*
X120366294Y-91812592D01*
X120365000Y-91786250D01*
X120365000Y-91248750D01*
X120366294Y-91222408D01*
X120370164Y-91196319D01*
X120376572Y-91170736D01*
X120385457Y-91145904D01*
X120396734Y-91122062D01*
X120410293Y-91099440D01*
X120426003Y-91078257D01*
X120443715Y-91058715D01*
X120463257Y-91041003D01*
X120484440Y-91025293D01*
X120507062Y-91011734D01*
X120530904Y-91000457D01*
X120555736Y-90991572D01*
X120581319Y-90985164D01*
X120607408Y-90981294D01*
X120633750Y-90980000D01*
X121246250Y-90980000D01*
X121272592Y-90981294D01*
X121272592Y-90981294D01*
G37*
D11*
X120940000Y-91517500D03*
D10*
G36*
X121272592Y-89406294D02*
X121298681Y-89410164D01*
X121324264Y-89416572D01*
X121349096Y-89425457D01*
X121372938Y-89436734D01*
X121395560Y-89450293D01*
X121416743Y-89466003D01*
X121436285Y-89483715D01*
X121453997Y-89503257D01*
X121469707Y-89524440D01*
X121483266Y-89547062D01*
X121494543Y-89570904D01*
X121503428Y-89595736D01*
X121509836Y-89621319D01*
X121513706Y-89647408D01*
X121515000Y-89673750D01*
X121515000Y-90211250D01*
X121513706Y-90237592D01*
X121509836Y-90263681D01*
X121503428Y-90289264D01*
X121494543Y-90314096D01*
X121483266Y-90337938D01*
X121469707Y-90360560D01*
X121453997Y-90381743D01*
X121436285Y-90401285D01*
X121416743Y-90418997D01*
X121395560Y-90434707D01*
X121372938Y-90448266D01*
X121349096Y-90459543D01*
X121324264Y-90468428D01*
X121298681Y-90474836D01*
X121272592Y-90478706D01*
X121246250Y-90480000D01*
X120633750Y-90480000D01*
X120607408Y-90478706D01*
X120581319Y-90474836D01*
X120555736Y-90468428D01*
X120530904Y-90459543D01*
X120507062Y-90448266D01*
X120484440Y-90434707D01*
X120463257Y-90418997D01*
X120443715Y-90401285D01*
X120426003Y-90381743D01*
X120410293Y-90360560D01*
X120396734Y-90337938D01*
X120385457Y-90314096D01*
X120376572Y-90289264D01*
X120370164Y-90263681D01*
X120366294Y-90237592D01*
X120365000Y-90211250D01*
X120365000Y-89673750D01*
X120366294Y-89647408D01*
X120370164Y-89621319D01*
X120376572Y-89595736D01*
X120385457Y-89570904D01*
X120396734Y-89547062D01*
X120410293Y-89524440D01*
X120426003Y-89503257D01*
X120443715Y-89483715D01*
X120463257Y-89466003D01*
X120484440Y-89450293D01*
X120507062Y-89436734D01*
X120530904Y-89425457D01*
X120555736Y-89416572D01*
X120581319Y-89410164D01*
X120607408Y-89406294D01*
X120633750Y-89405000D01*
X121246250Y-89405000D01*
X121272592Y-89406294D01*
X121272592Y-89406294D01*
G37*
D11*
X120940000Y-89942500D03*
G04 #@! TD*
D14*
G04 #@! TO.C,U6*
X123170000Y-105710000D03*
X123170000Y-106660000D03*
X123170000Y-107610000D03*
X125490000Y-107610000D03*
X125490000Y-105710000D03*
G04 #@! TD*
D10*
G04 #@! TO.C,C29*
G36*
X127792592Y-105436294D02*
X127818681Y-105440164D01*
X127844264Y-105446572D01*
X127869096Y-105455457D01*
X127892938Y-105466734D01*
X127915560Y-105480293D01*
X127936743Y-105496003D01*
X127956285Y-105513715D01*
X127973997Y-105533257D01*
X127989707Y-105554440D01*
X128003266Y-105577062D01*
X128014543Y-105600904D01*
X128023428Y-105625736D01*
X128029836Y-105651319D01*
X128033706Y-105677408D01*
X128035000Y-105703750D01*
X128035000Y-106241250D01*
X128033706Y-106267592D01*
X128029836Y-106293681D01*
X128023428Y-106319264D01*
X128014543Y-106344096D01*
X128003266Y-106367938D01*
X127989707Y-106390560D01*
X127973997Y-106411743D01*
X127956285Y-106431285D01*
X127936743Y-106448997D01*
X127915560Y-106464707D01*
X127892938Y-106478266D01*
X127869096Y-106489543D01*
X127844264Y-106498428D01*
X127818681Y-106504836D01*
X127792592Y-106508706D01*
X127766250Y-106510000D01*
X127153750Y-106510000D01*
X127127408Y-106508706D01*
X127101319Y-106504836D01*
X127075736Y-106498428D01*
X127050904Y-106489543D01*
X127027062Y-106478266D01*
X127004440Y-106464707D01*
X126983257Y-106448997D01*
X126963715Y-106431285D01*
X126946003Y-106411743D01*
X126930293Y-106390560D01*
X126916734Y-106367938D01*
X126905457Y-106344096D01*
X126896572Y-106319264D01*
X126890164Y-106293681D01*
X126886294Y-106267592D01*
X126885000Y-106241250D01*
X126885000Y-105703750D01*
X126886294Y-105677408D01*
X126890164Y-105651319D01*
X126896572Y-105625736D01*
X126905457Y-105600904D01*
X126916734Y-105577062D01*
X126930293Y-105554440D01*
X126946003Y-105533257D01*
X126963715Y-105513715D01*
X126983257Y-105496003D01*
X127004440Y-105480293D01*
X127027062Y-105466734D01*
X127050904Y-105455457D01*
X127075736Y-105446572D01*
X127101319Y-105440164D01*
X127127408Y-105436294D01*
X127153750Y-105435000D01*
X127766250Y-105435000D01*
X127792592Y-105436294D01*
X127792592Y-105436294D01*
G37*
D11*
X127460000Y-105972500D03*
D10*
G36*
X127792592Y-107011294D02*
X127818681Y-107015164D01*
X127844264Y-107021572D01*
X127869096Y-107030457D01*
X127892938Y-107041734D01*
X127915560Y-107055293D01*
X127936743Y-107071003D01*
X127956285Y-107088715D01*
X127973997Y-107108257D01*
X127989707Y-107129440D01*
X128003266Y-107152062D01*
X128014543Y-107175904D01*
X128023428Y-107200736D01*
X128029836Y-107226319D01*
X128033706Y-107252408D01*
X128035000Y-107278750D01*
X128035000Y-107816250D01*
X128033706Y-107842592D01*
X128029836Y-107868681D01*
X128023428Y-107894264D01*
X128014543Y-107919096D01*
X128003266Y-107942938D01*
X127989707Y-107965560D01*
X127973997Y-107986743D01*
X127956285Y-108006285D01*
X127936743Y-108023997D01*
X127915560Y-108039707D01*
X127892938Y-108053266D01*
X127869096Y-108064543D01*
X127844264Y-108073428D01*
X127818681Y-108079836D01*
X127792592Y-108083706D01*
X127766250Y-108085000D01*
X127153750Y-108085000D01*
X127127408Y-108083706D01*
X127101319Y-108079836D01*
X127075736Y-108073428D01*
X127050904Y-108064543D01*
X127027062Y-108053266D01*
X127004440Y-108039707D01*
X126983257Y-108023997D01*
X126963715Y-108006285D01*
X126946003Y-107986743D01*
X126930293Y-107965560D01*
X126916734Y-107942938D01*
X126905457Y-107919096D01*
X126896572Y-107894264D01*
X126890164Y-107868681D01*
X126886294Y-107842592D01*
X126885000Y-107816250D01*
X126885000Y-107278750D01*
X126886294Y-107252408D01*
X126890164Y-107226319D01*
X126896572Y-107200736D01*
X126905457Y-107175904D01*
X126916734Y-107152062D01*
X126930293Y-107129440D01*
X126946003Y-107108257D01*
X126963715Y-107088715D01*
X126983257Y-107071003D01*
X127004440Y-107055293D01*
X127027062Y-107041734D01*
X127050904Y-107030457D01*
X127075736Y-107021572D01*
X127101319Y-107015164D01*
X127127408Y-107011294D01*
X127153750Y-107010000D01*
X127766250Y-107010000D01*
X127792592Y-107011294D01*
X127792592Y-107011294D01*
G37*
D11*
X127460000Y-107547500D03*
G04 #@! TD*
D12*
G04 #@! TO.C,J6*
X125510000Y-112080000D03*
D13*
X125510000Y-114620000D03*
G04 #@! TD*
D10*
G04 #@! TO.C,D1*
G36*
X103577547Y-114083794D02*
X103603640Y-114087665D01*
X103629229Y-114094074D01*
X103654065Y-114102961D01*
X103677911Y-114114240D01*
X103700537Y-114127801D01*
X103721725Y-114143515D01*
X103741270Y-114161230D01*
X103758985Y-114180775D01*
X103774699Y-114201963D01*
X103788260Y-114224589D01*
X103799539Y-114248435D01*
X103808426Y-114273271D01*
X103814835Y-114298860D01*
X103818706Y-114324953D01*
X103820000Y-114351300D01*
X103820000Y-115213700D01*
X103818706Y-115240047D01*
X103814835Y-115266140D01*
X103808426Y-115291729D01*
X103799539Y-115316565D01*
X103788260Y-115340411D01*
X103774699Y-115363037D01*
X103758985Y-115384225D01*
X103741270Y-115403770D01*
X103721725Y-115421485D01*
X103700537Y-115437199D01*
X103677911Y-115450760D01*
X103654065Y-115462039D01*
X103629229Y-115470926D01*
X103603640Y-115477335D01*
X103577547Y-115481206D01*
X103551200Y-115482500D01*
X102688800Y-115482500D01*
X102662453Y-115481206D01*
X102636360Y-115477335D01*
X102610771Y-115470926D01*
X102585935Y-115462039D01*
X102562089Y-115450760D01*
X102539463Y-115437199D01*
X102518275Y-115421485D01*
X102498730Y-115403770D01*
X102481015Y-115384225D01*
X102465301Y-115363037D01*
X102451740Y-115340411D01*
X102440461Y-115316565D01*
X102431574Y-115291729D01*
X102425165Y-115266140D01*
X102421294Y-115240047D01*
X102420000Y-115213700D01*
X102420000Y-114351300D01*
X102421294Y-114324953D01*
X102425165Y-114298860D01*
X102431574Y-114273271D01*
X102440461Y-114248435D01*
X102451740Y-114224589D01*
X102465301Y-114201963D01*
X102481015Y-114180775D01*
X102498730Y-114161230D01*
X102518275Y-114143515D01*
X102539463Y-114127801D01*
X102562089Y-114114240D01*
X102585935Y-114102961D01*
X102610771Y-114094074D01*
X102636360Y-114087665D01*
X102662453Y-114083794D01*
X102688800Y-114082500D01*
X103551200Y-114082500D01*
X103577547Y-114083794D01*
X103577547Y-114083794D01*
G37*
D15*
X103120000Y-114782500D03*
D10*
G36*
X103577547Y-111958794D02*
X103603640Y-111962665D01*
X103629229Y-111969074D01*
X103654065Y-111977961D01*
X103677911Y-111989240D01*
X103700537Y-112002801D01*
X103721725Y-112018515D01*
X103741270Y-112036230D01*
X103758985Y-112055775D01*
X103774699Y-112076963D01*
X103788260Y-112099589D01*
X103799539Y-112123435D01*
X103808426Y-112148271D01*
X103814835Y-112173860D01*
X103818706Y-112199953D01*
X103820000Y-112226300D01*
X103820000Y-113088700D01*
X103818706Y-113115047D01*
X103814835Y-113141140D01*
X103808426Y-113166729D01*
X103799539Y-113191565D01*
X103788260Y-113215411D01*
X103774699Y-113238037D01*
X103758985Y-113259225D01*
X103741270Y-113278770D01*
X103721725Y-113296485D01*
X103700537Y-113312199D01*
X103677911Y-113325760D01*
X103654065Y-113337039D01*
X103629229Y-113345926D01*
X103603640Y-113352335D01*
X103577547Y-113356206D01*
X103551200Y-113357500D01*
X102688800Y-113357500D01*
X102662453Y-113356206D01*
X102636360Y-113352335D01*
X102610771Y-113345926D01*
X102585935Y-113337039D01*
X102562089Y-113325760D01*
X102539463Y-113312199D01*
X102518275Y-113296485D01*
X102498730Y-113278770D01*
X102481015Y-113259225D01*
X102465301Y-113238037D01*
X102451740Y-113215411D01*
X102440461Y-113191565D01*
X102431574Y-113166729D01*
X102425165Y-113141140D01*
X102421294Y-113115047D01*
X102420000Y-113088700D01*
X102420000Y-112226300D01*
X102421294Y-112199953D01*
X102425165Y-112173860D01*
X102431574Y-112148271D01*
X102440461Y-112123435D01*
X102451740Y-112099589D01*
X102465301Y-112076963D01*
X102481015Y-112055775D01*
X102498730Y-112036230D01*
X102518275Y-112018515D01*
X102539463Y-112002801D01*
X102562089Y-111989240D01*
X102585935Y-111977961D01*
X102610771Y-111969074D01*
X102636360Y-111962665D01*
X102662453Y-111958794D01*
X102688800Y-111957500D01*
X103551200Y-111957500D01*
X103577547Y-111958794D01*
X103577547Y-111958794D01*
G37*
D15*
X103120000Y-112657500D03*
G04 #@! TD*
D16*
G04 #@! TO.C,Q1*
X104090000Y-104720000D03*
X102190000Y-104720000D03*
X103140000Y-106720000D03*
G04 #@! TD*
D10*
G04 #@! TO.C,R15*
G36*
X105792592Y-114261294D02*
X105818681Y-114265164D01*
X105844264Y-114271572D01*
X105869096Y-114280457D01*
X105892938Y-114291734D01*
X105915560Y-114305293D01*
X105936743Y-114321003D01*
X105956285Y-114338715D01*
X105973997Y-114358257D01*
X105989707Y-114379440D01*
X106003266Y-114402062D01*
X106014543Y-114425904D01*
X106023428Y-114450736D01*
X106029836Y-114476319D01*
X106033706Y-114502408D01*
X106035000Y-114528750D01*
X106035000Y-115066250D01*
X106033706Y-115092592D01*
X106029836Y-115118681D01*
X106023428Y-115144264D01*
X106014543Y-115169096D01*
X106003266Y-115192938D01*
X105989707Y-115215560D01*
X105973997Y-115236743D01*
X105956285Y-115256285D01*
X105936743Y-115273997D01*
X105915560Y-115289707D01*
X105892938Y-115303266D01*
X105869096Y-115314543D01*
X105844264Y-115323428D01*
X105818681Y-115329836D01*
X105792592Y-115333706D01*
X105766250Y-115335000D01*
X105153750Y-115335000D01*
X105127408Y-115333706D01*
X105101319Y-115329836D01*
X105075736Y-115323428D01*
X105050904Y-115314543D01*
X105027062Y-115303266D01*
X105004440Y-115289707D01*
X104983257Y-115273997D01*
X104963715Y-115256285D01*
X104946003Y-115236743D01*
X104930293Y-115215560D01*
X104916734Y-115192938D01*
X104905457Y-115169096D01*
X104896572Y-115144264D01*
X104890164Y-115118681D01*
X104886294Y-115092592D01*
X104885000Y-115066250D01*
X104885000Y-114528750D01*
X104886294Y-114502408D01*
X104890164Y-114476319D01*
X104896572Y-114450736D01*
X104905457Y-114425904D01*
X104916734Y-114402062D01*
X104930293Y-114379440D01*
X104946003Y-114358257D01*
X104963715Y-114338715D01*
X104983257Y-114321003D01*
X105004440Y-114305293D01*
X105027062Y-114291734D01*
X105050904Y-114280457D01*
X105075736Y-114271572D01*
X105101319Y-114265164D01*
X105127408Y-114261294D01*
X105153750Y-114260000D01*
X105766250Y-114260000D01*
X105792592Y-114261294D01*
X105792592Y-114261294D01*
G37*
D11*
X105460000Y-114797500D03*
D10*
G36*
X105792592Y-112686294D02*
X105818681Y-112690164D01*
X105844264Y-112696572D01*
X105869096Y-112705457D01*
X105892938Y-112716734D01*
X105915560Y-112730293D01*
X105936743Y-112746003D01*
X105956285Y-112763715D01*
X105973997Y-112783257D01*
X105989707Y-112804440D01*
X106003266Y-112827062D01*
X106014543Y-112850904D01*
X106023428Y-112875736D01*
X106029836Y-112901319D01*
X106033706Y-112927408D01*
X106035000Y-112953750D01*
X106035000Y-113491250D01*
X106033706Y-113517592D01*
X106029836Y-113543681D01*
X106023428Y-113569264D01*
X106014543Y-113594096D01*
X106003266Y-113617938D01*
X105989707Y-113640560D01*
X105973997Y-113661743D01*
X105956285Y-113681285D01*
X105936743Y-113698997D01*
X105915560Y-113714707D01*
X105892938Y-113728266D01*
X105869096Y-113739543D01*
X105844264Y-113748428D01*
X105818681Y-113754836D01*
X105792592Y-113758706D01*
X105766250Y-113760000D01*
X105153750Y-113760000D01*
X105127408Y-113758706D01*
X105101319Y-113754836D01*
X105075736Y-113748428D01*
X105050904Y-113739543D01*
X105027062Y-113728266D01*
X105004440Y-113714707D01*
X104983257Y-113698997D01*
X104963715Y-113681285D01*
X104946003Y-113661743D01*
X104930293Y-113640560D01*
X104916734Y-113617938D01*
X104905457Y-113594096D01*
X104896572Y-113569264D01*
X104890164Y-113543681D01*
X104886294Y-113517592D01*
X104885000Y-113491250D01*
X104885000Y-112953750D01*
X104886294Y-112927408D01*
X104890164Y-112901319D01*
X104896572Y-112875736D01*
X104905457Y-112850904D01*
X104916734Y-112827062D01*
X104930293Y-112804440D01*
X104946003Y-112783257D01*
X104963715Y-112763715D01*
X104983257Y-112746003D01*
X105004440Y-112730293D01*
X105027062Y-112716734D01*
X105050904Y-112705457D01*
X105075736Y-112696572D01*
X105101319Y-112690164D01*
X105127408Y-112686294D01*
X105153750Y-112685000D01*
X105766250Y-112685000D01*
X105792592Y-112686294D01*
X105792592Y-112686294D01*
G37*
D11*
X105460000Y-113222500D03*
G04 #@! TD*
D10*
G04 #@! TO.C,C28*
G36*
X89994592Y-105889794D02*
X90020681Y-105893664D01*
X90046264Y-105900072D01*
X90071096Y-105908957D01*
X90094938Y-105920234D01*
X90117560Y-105933793D01*
X90138743Y-105949503D01*
X90158285Y-105967215D01*
X90175997Y-105986757D01*
X90191707Y-106007940D01*
X90205266Y-106030562D01*
X90216543Y-106054404D01*
X90225428Y-106079236D01*
X90231836Y-106104819D01*
X90235706Y-106130908D01*
X90237000Y-106157250D01*
X90237000Y-106694750D01*
X90235706Y-106721092D01*
X90231836Y-106747181D01*
X90225428Y-106772764D01*
X90216543Y-106797596D01*
X90205266Y-106821438D01*
X90191707Y-106844060D01*
X90175997Y-106865243D01*
X90158285Y-106884785D01*
X90138743Y-106902497D01*
X90117560Y-106918207D01*
X90094938Y-106931766D01*
X90071096Y-106943043D01*
X90046264Y-106951928D01*
X90020681Y-106958336D01*
X89994592Y-106962206D01*
X89968250Y-106963500D01*
X89355750Y-106963500D01*
X89329408Y-106962206D01*
X89303319Y-106958336D01*
X89277736Y-106951928D01*
X89252904Y-106943043D01*
X89229062Y-106931766D01*
X89206440Y-106918207D01*
X89185257Y-106902497D01*
X89165715Y-106884785D01*
X89148003Y-106865243D01*
X89132293Y-106844060D01*
X89118734Y-106821438D01*
X89107457Y-106797596D01*
X89098572Y-106772764D01*
X89092164Y-106747181D01*
X89088294Y-106721092D01*
X89087000Y-106694750D01*
X89087000Y-106157250D01*
X89088294Y-106130908D01*
X89092164Y-106104819D01*
X89098572Y-106079236D01*
X89107457Y-106054404D01*
X89118734Y-106030562D01*
X89132293Y-106007940D01*
X89148003Y-105986757D01*
X89165715Y-105967215D01*
X89185257Y-105949503D01*
X89206440Y-105933793D01*
X89229062Y-105920234D01*
X89252904Y-105908957D01*
X89277736Y-105900072D01*
X89303319Y-105893664D01*
X89329408Y-105889794D01*
X89355750Y-105888500D01*
X89968250Y-105888500D01*
X89994592Y-105889794D01*
X89994592Y-105889794D01*
G37*
D11*
X89662000Y-106426000D03*
D10*
G36*
X89994592Y-107464794D02*
X90020681Y-107468664D01*
X90046264Y-107475072D01*
X90071096Y-107483957D01*
X90094938Y-107495234D01*
X90117560Y-107508793D01*
X90138743Y-107524503D01*
X90158285Y-107542215D01*
X90175997Y-107561757D01*
X90191707Y-107582940D01*
X90205266Y-107605562D01*
X90216543Y-107629404D01*
X90225428Y-107654236D01*
X90231836Y-107679819D01*
X90235706Y-107705908D01*
X90237000Y-107732250D01*
X90237000Y-108269750D01*
X90235706Y-108296092D01*
X90231836Y-108322181D01*
X90225428Y-108347764D01*
X90216543Y-108372596D01*
X90205266Y-108396438D01*
X90191707Y-108419060D01*
X90175997Y-108440243D01*
X90158285Y-108459785D01*
X90138743Y-108477497D01*
X90117560Y-108493207D01*
X90094938Y-108506766D01*
X90071096Y-108518043D01*
X90046264Y-108526928D01*
X90020681Y-108533336D01*
X89994592Y-108537206D01*
X89968250Y-108538500D01*
X89355750Y-108538500D01*
X89329408Y-108537206D01*
X89303319Y-108533336D01*
X89277736Y-108526928D01*
X89252904Y-108518043D01*
X89229062Y-108506766D01*
X89206440Y-108493207D01*
X89185257Y-108477497D01*
X89165715Y-108459785D01*
X89148003Y-108440243D01*
X89132293Y-108419060D01*
X89118734Y-108396438D01*
X89107457Y-108372596D01*
X89098572Y-108347764D01*
X89092164Y-108322181D01*
X89088294Y-108296092D01*
X89087000Y-108269750D01*
X89087000Y-107732250D01*
X89088294Y-107705908D01*
X89092164Y-107679819D01*
X89098572Y-107654236D01*
X89107457Y-107629404D01*
X89118734Y-107605562D01*
X89132293Y-107582940D01*
X89148003Y-107561757D01*
X89165715Y-107542215D01*
X89185257Y-107524503D01*
X89206440Y-107508793D01*
X89229062Y-107495234D01*
X89252904Y-107483957D01*
X89277736Y-107475072D01*
X89303319Y-107468664D01*
X89329408Y-107464794D01*
X89355750Y-107463500D01*
X89968250Y-107463500D01*
X89994592Y-107464794D01*
X89994592Y-107464794D01*
G37*
D11*
X89662000Y-108001000D03*
G04 #@! TD*
D10*
G04 #@! TO.C,C27*
G36*
X92892592Y-102416294D02*
X92918681Y-102420164D01*
X92944264Y-102426572D01*
X92969096Y-102435457D01*
X92992938Y-102446734D01*
X93015560Y-102460293D01*
X93036743Y-102476003D01*
X93056285Y-102493715D01*
X93073997Y-102513257D01*
X93089707Y-102534440D01*
X93103266Y-102557062D01*
X93114543Y-102580904D01*
X93123428Y-102605736D01*
X93129836Y-102631319D01*
X93133706Y-102657408D01*
X93135000Y-102683750D01*
X93135000Y-103221250D01*
X93133706Y-103247592D01*
X93129836Y-103273681D01*
X93123428Y-103299264D01*
X93114543Y-103324096D01*
X93103266Y-103347938D01*
X93089707Y-103370560D01*
X93073997Y-103391743D01*
X93056285Y-103411285D01*
X93036743Y-103428997D01*
X93015560Y-103444707D01*
X92992938Y-103458266D01*
X92969096Y-103469543D01*
X92944264Y-103478428D01*
X92918681Y-103484836D01*
X92892592Y-103488706D01*
X92866250Y-103490000D01*
X92253750Y-103490000D01*
X92227408Y-103488706D01*
X92201319Y-103484836D01*
X92175736Y-103478428D01*
X92150904Y-103469543D01*
X92127062Y-103458266D01*
X92104440Y-103444707D01*
X92083257Y-103428997D01*
X92063715Y-103411285D01*
X92046003Y-103391743D01*
X92030293Y-103370560D01*
X92016734Y-103347938D01*
X92005457Y-103324096D01*
X91996572Y-103299264D01*
X91990164Y-103273681D01*
X91986294Y-103247592D01*
X91985000Y-103221250D01*
X91985000Y-102683750D01*
X91986294Y-102657408D01*
X91990164Y-102631319D01*
X91996572Y-102605736D01*
X92005457Y-102580904D01*
X92016734Y-102557062D01*
X92030293Y-102534440D01*
X92046003Y-102513257D01*
X92063715Y-102493715D01*
X92083257Y-102476003D01*
X92104440Y-102460293D01*
X92127062Y-102446734D01*
X92150904Y-102435457D01*
X92175736Y-102426572D01*
X92201319Y-102420164D01*
X92227408Y-102416294D01*
X92253750Y-102415000D01*
X92866250Y-102415000D01*
X92892592Y-102416294D01*
X92892592Y-102416294D01*
G37*
D11*
X92560000Y-102952500D03*
D10*
G36*
X92892592Y-103991294D02*
X92918681Y-103995164D01*
X92944264Y-104001572D01*
X92969096Y-104010457D01*
X92992938Y-104021734D01*
X93015560Y-104035293D01*
X93036743Y-104051003D01*
X93056285Y-104068715D01*
X93073997Y-104088257D01*
X93089707Y-104109440D01*
X93103266Y-104132062D01*
X93114543Y-104155904D01*
X93123428Y-104180736D01*
X93129836Y-104206319D01*
X93133706Y-104232408D01*
X93135000Y-104258750D01*
X93135000Y-104796250D01*
X93133706Y-104822592D01*
X93129836Y-104848681D01*
X93123428Y-104874264D01*
X93114543Y-104899096D01*
X93103266Y-104922938D01*
X93089707Y-104945560D01*
X93073997Y-104966743D01*
X93056285Y-104986285D01*
X93036743Y-105003997D01*
X93015560Y-105019707D01*
X92992938Y-105033266D01*
X92969096Y-105044543D01*
X92944264Y-105053428D01*
X92918681Y-105059836D01*
X92892592Y-105063706D01*
X92866250Y-105065000D01*
X92253750Y-105065000D01*
X92227408Y-105063706D01*
X92201319Y-105059836D01*
X92175736Y-105053428D01*
X92150904Y-105044543D01*
X92127062Y-105033266D01*
X92104440Y-105019707D01*
X92083257Y-105003997D01*
X92063715Y-104986285D01*
X92046003Y-104966743D01*
X92030293Y-104945560D01*
X92016734Y-104922938D01*
X92005457Y-104899096D01*
X91996572Y-104874264D01*
X91990164Y-104848681D01*
X91986294Y-104822592D01*
X91985000Y-104796250D01*
X91985000Y-104258750D01*
X91986294Y-104232408D01*
X91990164Y-104206319D01*
X91996572Y-104180736D01*
X92005457Y-104155904D01*
X92016734Y-104132062D01*
X92030293Y-104109440D01*
X92046003Y-104088257D01*
X92063715Y-104068715D01*
X92083257Y-104051003D01*
X92104440Y-104035293D01*
X92127062Y-104021734D01*
X92150904Y-104010457D01*
X92175736Y-104001572D01*
X92201319Y-103995164D01*
X92227408Y-103991294D01*
X92253750Y-103990000D01*
X92866250Y-103990000D01*
X92892592Y-103991294D01*
X92892592Y-103991294D01*
G37*
D11*
X92560000Y-104527500D03*
G04 #@! TD*
D10*
G04 #@! TO.C,C26*
G36*
X87052592Y-102506294D02*
X87078681Y-102510164D01*
X87104264Y-102516572D01*
X87129096Y-102525457D01*
X87152938Y-102536734D01*
X87175560Y-102550293D01*
X87196743Y-102566003D01*
X87216285Y-102583715D01*
X87233997Y-102603257D01*
X87249707Y-102624440D01*
X87263266Y-102647062D01*
X87274543Y-102670904D01*
X87283428Y-102695736D01*
X87289836Y-102721319D01*
X87293706Y-102747408D01*
X87295000Y-102773750D01*
X87295000Y-103311250D01*
X87293706Y-103337592D01*
X87289836Y-103363681D01*
X87283428Y-103389264D01*
X87274543Y-103414096D01*
X87263266Y-103437938D01*
X87249707Y-103460560D01*
X87233997Y-103481743D01*
X87216285Y-103501285D01*
X87196743Y-103518997D01*
X87175560Y-103534707D01*
X87152938Y-103548266D01*
X87129096Y-103559543D01*
X87104264Y-103568428D01*
X87078681Y-103574836D01*
X87052592Y-103578706D01*
X87026250Y-103580000D01*
X86413750Y-103580000D01*
X86387408Y-103578706D01*
X86361319Y-103574836D01*
X86335736Y-103568428D01*
X86310904Y-103559543D01*
X86287062Y-103548266D01*
X86264440Y-103534707D01*
X86243257Y-103518997D01*
X86223715Y-103501285D01*
X86206003Y-103481743D01*
X86190293Y-103460560D01*
X86176734Y-103437938D01*
X86165457Y-103414096D01*
X86156572Y-103389264D01*
X86150164Y-103363681D01*
X86146294Y-103337592D01*
X86145000Y-103311250D01*
X86145000Y-102773750D01*
X86146294Y-102747408D01*
X86150164Y-102721319D01*
X86156572Y-102695736D01*
X86165457Y-102670904D01*
X86176734Y-102647062D01*
X86190293Y-102624440D01*
X86206003Y-102603257D01*
X86223715Y-102583715D01*
X86243257Y-102566003D01*
X86264440Y-102550293D01*
X86287062Y-102536734D01*
X86310904Y-102525457D01*
X86335736Y-102516572D01*
X86361319Y-102510164D01*
X86387408Y-102506294D01*
X86413750Y-102505000D01*
X87026250Y-102505000D01*
X87052592Y-102506294D01*
X87052592Y-102506294D01*
G37*
D11*
X86720000Y-103042500D03*
D10*
G36*
X87052592Y-104081294D02*
X87078681Y-104085164D01*
X87104264Y-104091572D01*
X87129096Y-104100457D01*
X87152938Y-104111734D01*
X87175560Y-104125293D01*
X87196743Y-104141003D01*
X87216285Y-104158715D01*
X87233997Y-104178257D01*
X87249707Y-104199440D01*
X87263266Y-104222062D01*
X87274543Y-104245904D01*
X87283428Y-104270736D01*
X87289836Y-104296319D01*
X87293706Y-104322408D01*
X87295000Y-104348750D01*
X87295000Y-104886250D01*
X87293706Y-104912592D01*
X87289836Y-104938681D01*
X87283428Y-104964264D01*
X87274543Y-104989096D01*
X87263266Y-105012938D01*
X87249707Y-105035560D01*
X87233997Y-105056743D01*
X87216285Y-105076285D01*
X87196743Y-105093997D01*
X87175560Y-105109707D01*
X87152938Y-105123266D01*
X87129096Y-105134543D01*
X87104264Y-105143428D01*
X87078681Y-105149836D01*
X87052592Y-105153706D01*
X87026250Y-105155000D01*
X86413750Y-105155000D01*
X86387408Y-105153706D01*
X86361319Y-105149836D01*
X86335736Y-105143428D01*
X86310904Y-105134543D01*
X86287062Y-105123266D01*
X86264440Y-105109707D01*
X86243257Y-105093997D01*
X86223715Y-105076285D01*
X86206003Y-105056743D01*
X86190293Y-105035560D01*
X86176734Y-105012938D01*
X86165457Y-104989096D01*
X86156572Y-104964264D01*
X86150164Y-104938681D01*
X86146294Y-104912592D01*
X86145000Y-104886250D01*
X86145000Y-104348750D01*
X86146294Y-104322408D01*
X86150164Y-104296319D01*
X86156572Y-104270736D01*
X86165457Y-104245904D01*
X86176734Y-104222062D01*
X86190293Y-104199440D01*
X86206003Y-104178257D01*
X86223715Y-104158715D01*
X86243257Y-104141003D01*
X86264440Y-104125293D01*
X86287062Y-104111734D01*
X86310904Y-104100457D01*
X86335736Y-104091572D01*
X86361319Y-104085164D01*
X86387408Y-104081294D01*
X86413750Y-104080000D01*
X87026250Y-104080000D01*
X87052592Y-104081294D01*
X87052592Y-104081294D01*
G37*
D11*
X86720000Y-104617500D03*
G04 #@! TD*
D10*
G04 #@! TO.C,C25*
G36*
X92852592Y-99026294D02*
X92878681Y-99030164D01*
X92904264Y-99036572D01*
X92929096Y-99045457D01*
X92952938Y-99056734D01*
X92975560Y-99070293D01*
X92996743Y-99086003D01*
X93016285Y-99103715D01*
X93033997Y-99123257D01*
X93049707Y-99144440D01*
X93063266Y-99167062D01*
X93074543Y-99190904D01*
X93083428Y-99215736D01*
X93089836Y-99241319D01*
X93093706Y-99267408D01*
X93095000Y-99293750D01*
X93095000Y-99831250D01*
X93093706Y-99857592D01*
X93089836Y-99883681D01*
X93083428Y-99909264D01*
X93074543Y-99934096D01*
X93063266Y-99957938D01*
X93049707Y-99980560D01*
X93033997Y-100001743D01*
X93016285Y-100021285D01*
X92996743Y-100038997D01*
X92975560Y-100054707D01*
X92952938Y-100068266D01*
X92929096Y-100079543D01*
X92904264Y-100088428D01*
X92878681Y-100094836D01*
X92852592Y-100098706D01*
X92826250Y-100100000D01*
X92213750Y-100100000D01*
X92187408Y-100098706D01*
X92161319Y-100094836D01*
X92135736Y-100088428D01*
X92110904Y-100079543D01*
X92087062Y-100068266D01*
X92064440Y-100054707D01*
X92043257Y-100038997D01*
X92023715Y-100021285D01*
X92006003Y-100001743D01*
X91990293Y-99980560D01*
X91976734Y-99957938D01*
X91965457Y-99934096D01*
X91956572Y-99909264D01*
X91950164Y-99883681D01*
X91946294Y-99857592D01*
X91945000Y-99831250D01*
X91945000Y-99293750D01*
X91946294Y-99267408D01*
X91950164Y-99241319D01*
X91956572Y-99215736D01*
X91965457Y-99190904D01*
X91976734Y-99167062D01*
X91990293Y-99144440D01*
X92006003Y-99123257D01*
X92023715Y-99103715D01*
X92043257Y-99086003D01*
X92064440Y-99070293D01*
X92087062Y-99056734D01*
X92110904Y-99045457D01*
X92135736Y-99036572D01*
X92161319Y-99030164D01*
X92187408Y-99026294D01*
X92213750Y-99025000D01*
X92826250Y-99025000D01*
X92852592Y-99026294D01*
X92852592Y-99026294D01*
G37*
D11*
X92520000Y-99562500D03*
D10*
G36*
X92852592Y-100601294D02*
X92878681Y-100605164D01*
X92904264Y-100611572D01*
X92929096Y-100620457D01*
X92952938Y-100631734D01*
X92975560Y-100645293D01*
X92996743Y-100661003D01*
X93016285Y-100678715D01*
X93033997Y-100698257D01*
X93049707Y-100719440D01*
X93063266Y-100742062D01*
X93074543Y-100765904D01*
X93083428Y-100790736D01*
X93089836Y-100816319D01*
X93093706Y-100842408D01*
X93095000Y-100868750D01*
X93095000Y-101406250D01*
X93093706Y-101432592D01*
X93089836Y-101458681D01*
X93083428Y-101484264D01*
X93074543Y-101509096D01*
X93063266Y-101532938D01*
X93049707Y-101555560D01*
X93033997Y-101576743D01*
X93016285Y-101596285D01*
X92996743Y-101613997D01*
X92975560Y-101629707D01*
X92952938Y-101643266D01*
X92929096Y-101654543D01*
X92904264Y-101663428D01*
X92878681Y-101669836D01*
X92852592Y-101673706D01*
X92826250Y-101675000D01*
X92213750Y-101675000D01*
X92187408Y-101673706D01*
X92161319Y-101669836D01*
X92135736Y-101663428D01*
X92110904Y-101654543D01*
X92087062Y-101643266D01*
X92064440Y-101629707D01*
X92043257Y-101613997D01*
X92023715Y-101596285D01*
X92006003Y-101576743D01*
X91990293Y-101555560D01*
X91976734Y-101532938D01*
X91965457Y-101509096D01*
X91956572Y-101484264D01*
X91950164Y-101458681D01*
X91946294Y-101432592D01*
X91945000Y-101406250D01*
X91945000Y-100868750D01*
X91946294Y-100842408D01*
X91950164Y-100816319D01*
X91956572Y-100790736D01*
X91965457Y-100765904D01*
X91976734Y-100742062D01*
X91990293Y-100719440D01*
X92006003Y-100698257D01*
X92023715Y-100678715D01*
X92043257Y-100661003D01*
X92064440Y-100645293D01*
X92087062Y-100631734D01*
X92110904Y-100620457D01*
X92135736Y-100611572D01*
X92161319Y-100605164D01*
X92187408Y-100601294D01*
X92213750Y-100600000D01*
X92826250Y-100600000D01*
X92852592Y-100601294D01*
X92852592Y-100601294D01*
G37*
D11*
X92520000Y-101137500D03*
G04 #@! TD*
D10*
G04 #@! TO.C,C24*
G36*
X87082592Y-99006294D02*
X87108681Y-99010164D01*
X87134264Y-99016572D01*
X87159096Y-99025457D01*
X87182938Y-99036734D01*
X87205560Y-99050293D01*
X87226743Y-99066003D01*
X87246285Y-99083715D01*
X87263997Y-99103257D01*
X87279707Y-99124440D01*
X87293266Y-99147062D01*
X87304543Y-99170904D01*
X87313428Y-99195736D01*
X87319836Y-99221319D01*
X87323706Y-99247408D01*
X87325000Y-99273750D01*
X87325000Y-99811250D01*
X87323706Y-99837592D01*
X87319836Y-99863681D01*
X87313428Y-99889264D01*
X87304543Y-99914096D01*
X87293266Y-99937938D01*
X87279707Y-99960560D01*
X87263997Y-99981743D01*
X87246285Y-100001285D01*
X87226743Y-100018997D01*
X87205560Y-100034707D01*
X87182938Y-100048266D01*
X87159096Y-100059543D01*
X87134264Y-100068428D01*
X87108681Y-100074836D01*
X87082592Y-100078706D01*
X87056250Y-100080000D01*
X86443750Y-100080000D01*
X86417408Y-100078706D01*
X86391319Y-100074836D01*
X86365736Y-100068428D01*
X86340904Y-100059543D01*
X86317062Y-100048266D01*
X86294440Y-100034707D01*
X86273257Y-100018997D01*
X86253715Y-100001285D01*
X86236003Y-99981743D01*
X86220293Y-99960560D01*
X86206734Y-99937938D01*
X86195457Y-99914096D01*
X86186572Y-99889264D01*
X86180164Y-99863681D01*
X86176294Y-99837592D01*
X86175000Y-99811250D01*
X86175000Y-99273750D01*
X86176294Y-99247408D01*
X86180164Y-99221319D01*
X86186572Y-99195736D01*
X86195457Y-99170904D01*
X86206734Y-99147062D01*
X86220293Y-99124440D01*
X86236003Y-99103257D01*
X86253715Y-99083715D01*
X86273257Y-99066003D01*
X86294440Y-99050293D01*
X86317062Y-99036734D01*
X86340904Y-99025457D01*
X86365736Y-99016572D01*
X86391319Y-99010164D01*
X86417408Y-99006294D01*
X86443750Y-99005000D01*
X87056250Y-99005000D01*
X87082592Y-99006294D01*
X87082592Y-99006294D01*
G37*
D11*
X86750000Y-99542500D03*
D10*
G36*
X87082592Y-100581294D02*
X87108681Y-100585164D01*
X87134264Y-100591572D01*
X87159096Y-100600457D01*
X87182938Y-100611734D01*
X87205560Y-100625293D01*
X87226743Y-100641003D01*
X87246285Y-100658715D01*
X87263997Y-100678257D01*
X87279707Y-100699440D01*
X87293266Y-100722062D01*
X87304543Y-100745904D01*
X87313428Y-100770736D01*
X87319836Y-100796319D01*
X87323706Y-100822408D01*
X87325000Y-100848750D01*
X87325000Y-101386250D01*
X87323706Y-101412592D01*
X87319836Y-101438681D01*
X87313428Y-101464264D01*
X87304543Y-101489096D01*
X87293266Y-101512938D01*
X87279707Y-101535560D01*
X87263997Y-101556743D01*
X87246285Y-101576285D01*
X87226743Y-101593997D01*
X87205560Y-101609707D01*
X87182938Y-101623266D01*
X87159096Y-101634543D01*
X87134264Y-101643428D01*
X87108681Y-101649836D01*
X87082592Y-101653706D01*
X87056250Y-101655000D01*
X86443750Y-101655000D01*
X86417408Y-101653706D01*
X86391319Y-101649836D01*
X86365736Y-101643428D01*
X86340904Y-101634543D01*
X86317062Y-101623266D01*
X86294440Y-101609707D01*
X86273257Y-101593997D01*
X86253715Y-101576285D01*
X86236003Y-101556743D01*
X86220293Y-101535560D01*
X86206734Y-101512938D01*
X86195457Y-101489096D01*
X86186572Y-101464264D01*
X86180164Y-101438681D01*
X86176294Y-101412592D01*
X86175000Y-101386250D01*
X86175000Y-100848750D01*
X86176294Y-100822408D01*
X86180164Y-100796319D01*
X86186572Y-100770736D01*
X86195457Y-100745904D01*
X86206734Y-100722062D01*
X86220293Y-100699440D01*
X86236003Y-100678257D01*
X86253715Y-100658715D01*
X86273257Y-100641003D01*
X86294440Y-100625293D01*
X86317062Y-100611734D01*
X86340904Y-100600457D01*
X86365736Y-100591572D01*
X86391319Y-100585164D01*
X86417408Y-100581294D01*
X86443750Y-100580000D01*
X87056250Y-100580000D01*
X87082592Y-100581294D01*
X87082592Y-100581294D01*
G37*
D11*
X86750000Y-101117500D03*
G04 #@! TD*
D10*
G04 #@! TO.C,C23*
G36*
X92832592Y-95663794D02*
X92858681Y-95667664D01*
X92884264Y-95674072D01*
X92909096Y-95682957D01*
X92932938Y-95694234D01*
X92955560Y-95707793D01*
X92976743Y-95723503D01*
X92996285Y-95741215D01*
X93013997Y-95760757D01*
X93029707Y-95781940D01*
X93043266Y-95804562D01*
X93054543Y-95828404D01*
X93063428Y-95853236D01*
X93069836Y-95878819D01*
X93073706Y-95904908D01*
X93075000Y-95931250D01*
X93075000Y-96468750D01*
X93073706Y-96495092D01*
X93069836Y-96521181D01*
X93063428Y-96546764D01*
X93054543Y-96571596D01*
X93043266Y-96595438D01*
X93029707Y-96618060D01*
X93013997Y-96639243D01*
X92996285Y-96658785D01*
X92976743Y-96676497D01*
X92955560Y-96692207D01*
X92932938Y-96705766D01*
X92909096Y-96717043D01*
X92884264Y-96725928D01*
X92858681Y-96732336D01*
X92832592Y-96736206D01*
X92806250Y-96737500D01*
X92193750Y-96737500D01*
X92167408Y-96736206D01*
X92141319Y-96732336D01*
X92115736Y-96725928D01*
X92090904Y-96717043D01*
X92067062Y-96705766D01*
X92044440Y-96692207D01*
X92023257Y-96676497D01*
X92003715Y-96658785D01*
X91986003Y-96639243D01*
X91970293Y-96618060D01*
X91956734Y-96595438D01*
X91945457Y-96571596D01*
X91936572Y-96546764D01*
X91930164Y-96521181D01*
X91926294Y-96495092D01*
X91925000Y-96468750D01*
X91925000Y-95931250D01*
X91926294Y-95904908D01*
X91930164Y-95878819D01*
X91936572Y-95853236D01*
X91945457Y-95828404D01*
X91956734Y-95804562D01*
X91970293Y-95781940D01*
X91986003Y-95760757D01*
X92003715Y-95741215D01*
X92023257Y-95723503D01*
X92044440Y-95707793D01*
X92067062Y-95694234D01*
X92090904Y-95682957D01*
X92115736Y-95674072D01*
X92141319Y-95667664D01*
X92167408Y-95663794D01*
X92193750Y-95662500D01*
X92806250Y-95662500D01*
X92832592Y-95663794D01*
X92832592Y-95663794D01*
G37*
D11*
X92500000Y-96200000D03*
D10*
G36*
X92832592Y-97238794D02*
X92858681Y-97242664D01*
X92884264Y-97249072D01*
X92909096Y-97257957D01*
X92932938Y-97269234D01*
X92955560Y-97282793D01*
X92976743Y-97298503D01*
X92996285Y-97316215D01*
X93013997Y-97335757D01*
X93029707Y-97356940D01*
X93043266Y-97379562D01*
X93054543Y-97403404D01*
X93063428Y-97428236D01*
X93069836Y-97453819D01*
X93073706Y-97479908D01*
X93075000Y-97506250D01*
X93075000Y-98043750D01*
X93073706Y-98070092D01*
X93069836Y-98096181D01*
X93063428Y-98121764D01*
X93054543Y-98146596D01*
X93043266Y-98170438D01*
X93029707Y-98193060D01*
X93013997Y-98214243D01*
X92996285Y-98233785D01*
X92976743Y-98251497D01*
X92955560Y-98267207D01*
X92932938Y-98280766D01*
X92909096Y-98292043D01*
X92884264Y-98300928D01*
X92858681Y-98307336D01*
X92832592Y-98311206D01*
X92806250Y-98312500D01*
X92193750Y-98312500D01*
X92167408Y-98311206D01*
X92141319Y-98307336D01*
X92115736Y-98300928D01*
X92090904Y-98292043D01*
X92067062Y-98280766D01*
X92044440Y-98267207D01*
X92023257Y-98251497D01*
X92003715Y-98233785D01*
X91986003Y-98214243D01*
X91970293Y-98193060D01*
X91956734Y-98170438D01*
X91945457Y-98146596D01*
X91936572Y-98121764D01*
X91930164Y-98096181D01*
X91926294Y-98070092D01*
X91925000Y-98043750D01*
X91925000Y-97506250D01*
X91926294Y-97479908D01*
X91930164Y-97453819D01*
X91936572Y-97428236D01*
X91945457Y-97403404D01*
X91956734Y-97379562D01*
X91970293Y-97356940D01*
X91986003Y-97335757D01*
X92003715Y-97316215D01*
X92023257Y-97298503D01*
X92044440Y-97282793D01*
X92067062Y-97269234D01*
X92090904Y-97257957D01*
X92115736Y-97249072D01*
X92141319Y-97242664D01*
X92167408Y-97238794D01*
X92193750Y-97237500D01*
X92806250Y-97237500D01*
X92832592Y-97238794D01*
X92832592Y-97238794D01*
G37*
D11*
X92500000Y-97775000D03*
G04 #@! TD*
D10*
G04 #@! TO.C,C22*
G36*
X87062592Y-95729794D02*
X87088681Y-95733664D01*
X87114264Y-95740072D01*
X87139096Y-95748957D01*
X87162938Y-95760234D01*
X87185560Y-95773793D01*
X87206743Y-95789503D01*
X87226285Y-95807215D01*
X87243997Y-95826757D01*
X87259707Y-95847940D01*
X87273266Y-95870562D01*
X87284543Y-95894404D01*
X87293428Y-95919236D01*
X87299836Y-95944819D01*
X87303706Y-95970908D01*
X87305000Y-95997250D01*
X87305000Y-96534750D01*
X87303706Y-96561092D01*
X87299836Y-96587181D01*
X87293428Y-96612764D01*
X87284543Y-96637596D01*
X87273266Y-96661438D01*
X87259707Y-96684060D01*
X87243997Y-96705243D01*
X87226285Y-96724785D01*
X87206743Y-96742497D01*
X87185560Y-96758207D01*
X87162938Y-96771766D01*
X87139096Y-96783043D01*
X87114264Y-96791928D01*
X87088681Y-96798336D01*
X87062592Y-96802206D01*
X87036250Y-96803500D01*
X86423750Y-96803500D01*
X86397408Y-96802206D01*
X86371319Y-96798336D01*
X86345736Y-96791928D01*
X86320904Y-96783043D01*
X86297062Y-96771766D01*
X86274440Y-96758207D01*
X86253257Y-96742497D01*
X86233715Y-96724785D01*
X86216003Y-96705243D01*
X86200293Y-96684060D01*
X86186734Y-96661438D01*
X86175457Y-96637596D01*
X86166572Y-96612764D01*
X86160164Y-96587181D01*
X86156294Y-96561092D01*
X86155000Y-96534750D01*
X86155000Y-95997250D01*
X86156294Y-95970908D01*
X86160164Y-95944819D01*
X86166572Y-95919236D01*
X86175457Y-95894404D01*
X86186734Y-95870562D01*
X86200293Y-95847940D01*
X86216003Y-95826757D01*
X86233715Y-95807215D01*
X86253257Y-95789503D01*
X86274440Y-95773793D01*
X86297062Y-95760234D01*
X86320904Y-95748957D01*
X86345736Y-95740072D01*
X86371319Y-95733664D01*
X86397408Y-95729794D01*
X86423750Y-95728500D01*
X87036250Y-95728500D01*
X87062592Y-95729794D01*
X87062592Y-95729794D01*
G37*
D11*
X86730000Y-96266000D03*
D10*
G36*
X87062592Y-97304794D02*
X87088681Y-97308664D01*
X87114264Y-97315072D01*
X87139096Y-97323957D01*
X87162938Y-97335234D01*
X87185560Y-97348793D01*
X87206743Y-97364503D01*
X87226285Y-97382215D01*
X87243997Y-97401757D01*
X87259707Y-97422940D01*
X87273266Y-97445562D01*
X87284543Y-97469404D01*
X87293428Y-97494236D01*
X87299836Y-97519819D01*
X87303706Y-97545908D01*
X87305000Y-97572250D01*
X87305000Y-98109750D01*
X87303706Y-98136092D01*
X87299836Y-98162181D01*
X87293428Y-98187764D01*
X87284543Y-98212596D01*
X87273266Y-98236438D01*
X87259707Y-98259060D01*
X87243997Y-98280243D01*
X87226285Y-98299785D01*
X87206743Y-98317497D01*
X87185560Y-98333207D01*
X87162938Y-98346766D01*
X87139096Y-98358043D01*
X87114264Y-98366928D01*
X87088681Y-98373336D01*
X87062592Y-98377206D01*
X87036250Y-98378500D01*
X86423750Y-98378500D01*
X86397408Y-98377206D01*
X86371319Y-98373336D01*
X86345736Y-98366928D01*
X86320904Y-98358043D01*
X86297062Y-98346766D01*
X86274440Y-98333207D01*
X86253257Y-98317497D01*
X86233715Y-98299785D01*
X86216003Y-98280243D01*
X86200293Y-98259060D01*
X86186734Y-98236438D01*
X86175457Y-98212596D01*
X86166572Y-98187764D01*
X86160164Y-98162181D01*
X86156294Y-98136092D01*
X86155000Y-98109750D01*
X86155000Y-97572250D01*
X86156294Y-97545908D01*
X86160164Y-97519819D01*
X86166572Y-97494236D01*
X86175457Y-97469404D01*
X86186734Y-97445562D01*
X86200293Y-97422940D01*
X86216003Y-97401757D01*
X86233715Y-97382215D01*
X86253257Y-97364503D01*
X86274440Y-97348793D01*
X86297062Y-97335234D01*
X86320904Y-97323957D01*
X86345736Y-97315072D01*
X86371319Y-97308664D01*
X86397408Y-97304794D01*
X86423750Y-97303500D01*
X87036250Y-97303500D01*
X87062592Y-97304794D01*
X87062592Y-97304794D01*
G37*
D11*
X86730000Y-97841000D03*
G04 #@! TD*
D10*
G04 #@! TO.C,C21*
G36*
X92812592Y-92353794D02*
X92838681Y-92357664D01*
X92864264Y-92364072D01*
X92889096Y-92372957D01*
X92912938Y-92384234D01*
X92935560Y-92397793D01*
X92956743Y-92413503D01*
X92976285Y-92431215D01*
X92993997Y-92450757D01*
X93009707Y-92471940D01*
X93023266Y-92494562D01*
X93034543Y-92518404D01*
X93043428Y-92543236D01*
X93049836Y-92568819D01*
X93053706Y-92594908D01*
X93055000Y-92621250D01*
X93055000Y-93158750D01*
X93053706Y-93185092D01*
X93049836Y-93211181D01*
X93043428Y-93236764D01*
X93034543Y-93261596D01*
X93023266Y-93285438D01*
X93009707Y-93308060D01*
X92993997Y-93329243D01*
X92976285Y-93348785D01*
X92956743Y-93366497D01*
X92935560Y-93382207D01*
X92912938Y-93395766D01*
X92889096Y-93407043D01*
X92864264Y-93415928D01*
X92838681Y-93422336D01*
X92812592Y-93426206D01*
X92786250Y-93427500D01*
X92173750Y-93427500D01*
X92147408Y-93426206D01*
X92121319Y-93422336D01*
X92095736Y-93415928D01*
X92070904Y-93407043D01*
X92047062Y-93395766D01*
X92024440Y-93382207D01*
X92003257Y-93366497D01*
X91983715Y-93348785D01*
X91966003Y-93329243D01*
X91950293Y-93308060D01*
X91936734Y-93285438D01*
X91925457Y-93261596D01*
X91916572Y-93236764D01*
X91910164Y-93211181D01*
X91906294Y-93185092D01*
X91905000Y-93158750D01*
X91905000Y-92621250D01*
X91906294Y-92594908D01*
X91910164Y-92568819D01*
X91916572Y-92543236D01*
X91925457Y-92518404D01*
X91936734Y-92494562D01*
X91950293Y-92471940D01*
X91966003Y-92450757D01*
X91983715Y-92431215D01*
X92003257Y-92413503D01*
X92024440Y-92397793D01*
X92047062Y-92384234D01*
X92070904Y-92372957D01*
X92095736Y-92364072D01*
X92121319Y-92357664D01*
X92147408Y-92353794D01*
X92173750Y-92352500D01*
X92786250Y-92352500D01*
X92812592Y-92353794D01*
X92812592Y-92353794D01*
G37*
D11*
X92480000Y-92890000D03*
D10*
G36*
X92812592Y-93928794D02*
X92838681Y-93932664D01*
X92864264Y-93939072D01*
X92889096Y-93947957D01*
X92912938Y-93959234D01*
X92935560Y-93972793D01*
X92956743Y-93988503D01*
X92976285Y-94006215D01*
X92993997Y-94025757D01*
X93009707Y-94046940D01*
X93023266Y-94069562D01*
X93034543Y-94093404D01*
X93043428Y-94118236D01*
X93049836Y-94143819D01*
X93053706Y-94169908D01*
X93055000Y-94196250D01*
X93055000Y-94733750D01*
X93053706Y-94760092D01*
X93049836Y-94786181D01*
X93043428Y-94811764D01*
X93034543Y-94836596D01*
X93023266Y-94860438D01*
X93009707Y-94883060D01*
X92993997Y-94904243D01*
X92976285Y-94923785D01*
X92956743Y-94941497D01*
X92935560Y-94957207D01*
X92912938Y-94970766D01*
X92889096Y-94982043D01*
X92864264Y-94990928D01*
X92838681Y-94997336D01*
X92812592Y-95001206D01*
X92786250Y-95002500D01*
X92173750Y-95002500D01*
X92147408Y-95001206D01*
X92121319Y-94997336D01*
X92095736Y-94990928D01*
X92070904Y-94982043D01*
X92047062Y-94970766D01*
X92024440Y-94957207D01*
X92003257Y-94941497D01*
X91983715Y-94923785D01*
X91966003Y-94904243D01*
X91950293Y-94883060D01*
X91936734Y-94860438D01*
X91925457Y-94836596D01*
X91916572Y-94811764D01*
X91910164Y-94786181D01*
X91906294Y-94760092D01*
X91905000Y-94733750D01*
X91905000Y-94196250D01*
X91906294Y-94169908D01*
X91910164Y-94143819D01*
X91916572Y-94118236D01*
X91925457Y-94093404D01*
X91936734Y-94069562D01*
X91950293Y-94046940D01*
X91966003Y-94025757D01*
X91983715Y-94006215D01*
X92003257Y-93988503D01*
X92024440Y-93972793D01*
X92047062Y-93959234D01*
X92070904Y-93947957D01*
X92095736Y-93939072D01*
X92121319Y-93932664D01*
X92147408Y-93928794D01*
X92173750Y-93927500D01*
X92786250Y-93927500D01*
X92812592Y-93928794D01*
X92812592Y-93928794D01*
G37*
D11*
X92480000Y-94465000D03*
G04 #@! TD*
D10*
G04 #@! TO.C,C20*
G36*
X87102592Y-92396294D02*
X87128681Y-92400164D01*
X87154264Y-92406572D01*
X87179096Y-92415457D01*
X87202938Y-92426734D01*
X87225560Y-92440293D01*
X87246743Y-92456003D01*
X87266285Y-92473715D01*
X87283997Y-92493257D01*
X87299707Y-92514440D01*
X87313266Y-92537062D01*
X87324543Y-92560904D01*
X87333428Y-92585736D01*
X87339836Y-92611319D01*
X87343706Y-92637408D01*
X87345000Y-92663750D01*
X87345000Y-93201250D01*
X87343706Y-93227592D01*
X87339836Y-93253681D01*
X87333428Y-93279264D01*
X87324543Y-93304096D01*
X87313266Y-93327938D01*
X87299707Y-93350560D01*
X87283997Y-93371743D01*
X87266285Y-93391285D01*
X87246743Y-93408997D01*
X87225560Y-93424707D01*
X87202938Y-93438266D01*
X87179096Y-93449543D01*
X87154264Y-93458428D01*
X87128681Y-93464836D01*
X87102592Y-93468706D01*
X87076250Y-93470000D01*
X86463750Y-93470000D01*
X86437408Y-93468706D01*
X86411319Y-93464836D01*
X86385736Y-93458428D01*
X86360904Y-93449543D01*
X86337062Y-93438266D01*
X86314440Y-93424707D01*
X86293257Y-93408997D01*
X86273715Y-93391285D01*
X86256003Y-93371743D01*
X86240293Y-93350560D01*
X86226734Y-93327938D01*
X86215457Y-93304096D01*
X86206572Y-93279264D01*
X86200164Y-93253681D01*
X86196294Y-93227592D01*
X86195000Y-93201250D01*
X86195000Y-92663750D01*
X86196294Y-92637408D01*
X86200164Y-92611319D01*
X86206572Y-92585736D01*
X86215457Y-92560904D01*
X86226734Y-92537062D01*
X86240293Y-92514440D01*
X86256003Y-92493257D01*
X86273715Y-92473715D01*
X86293257Y-92456003D01*
X86314440Y-92440293D01*
X86337062Y-92426734D01*
X86360904Y-92415457D01*
X86385736Y-92406572D01*
X86411319Y-92400164D01*
X86437408Y-92396294D01*
X86463750Y-92395000D01*
X87076250Y-92395000D01*
X87102592Y-92396294D01*
X87102592Y-92396294D01*
G37*
D11*
X86770000Y-92932500D03*
D10*
G36*
X87102592Y-93971294D02*
X87128681Y-93975164D01*
X87154264Y-93981572D01*
X87179096Y-93990457D01*
X87202938Y-94001734D01*
X87225560Y-94015293D01*
X87246743Y-94031003D01*
X87266285Y-94048715D01*
X87283997Y-94068257D01*
X87299707Y-94089440D01*
X87313266Y-94112062D01*
X87324543Y-94135904D01*
X87333428Y-94160736D01*
X87339836Y-94186319D01*
X87343706Y-94212408D01*
X87345000Y-94238750D01*
X87345000Y-94776250D01*
X87343706Y-94802592D01*
X87339836Y-94828681D01*
X87333428Y-94854264D01*
X87324543Y-94879096D01*
X87313266Y-94902938D01*
X87299707Y-94925560D01*
X87283997Y-94946743D01*
X87266285Y-94966285D01*
X87246743Y-94983997D01*
X87225560Y-94999707D01*
X87202938Y-95013266D01*
X87179096Y-95024543D01*
X87154264Y-95033428D01*
X87128681Y-95039836D01*
X87102592Y-95043706D01*
X87076250Y-95045000D01*
X86463750Y-95045000D01*
X86437408Y-95043706D01*
X86411319Y-95039836D01*
X86385736Y-95033428D01*
X86360904Y-95024543D01*
X86337062Y-95013266D01*
X86314440Y-94999707D01*
X86293257Y-94983997D01*
X86273715Y-94966285D01*
X86256003Y-94946743D01*
X86240293Y-94925560D01*
X86226734Y-94902938D01*
X86215457Y-94879096D01*
X86206572Y-94854264D01*
X86200164Y-94828681D01*
X86196294Y-94802592D01*
X86195000Y-94776250D01*
X86195000Y-94238750D01*
X86196294Y-94212408D01*
X86200164Y-94186319D01*
X86206572Y-94160736D01*
X86215457Y-94135904D01*
X86226734Y-94112062D01*
X86240293Y-94089440D01*
X86256003Y-94068257D01*
X86273715Y-94048715D01*
X86293257Y-94031003D01*
X86314440Y-94015293D01*
X86337062Y-94001734D01*
X86360904Y-93990457D01*
X86385736Y-93981572D01*
X86411319Y-93975164D01*
X86437408Y-93971294D01*
X86463750Y-93970000D01*
X87076250Y-93970000D01*
X87102592Y-93971294D01*
X87102592Y-93971294D01*
G37*
D11*
X86770000Y-94507500D03*
G04 #@! TD*
D10*
G04 #@! TO.C,L3*
G36*
X89982592Y-100551294D02*
X90008681Y-100555164D01*
X90034264Y-100561572D01*
X90059096Y-100570457D01*
X90082938Y-100581734D01*
X90105560Y-100595293D01*
X90126743Y-100611003D01*
X90146285Y-100628715D01*
X90163997Y-100648257D01*
X90179707Y-100669440D01*
X90193266Y-100692062D01*
X90204543Y-100715904D01*
X90213428Y-100740736D01*
X90219836Y-100766319D01*
X90223706Y-100792408D01*
X90225000Y-100818750D01*
X90225000Y-101356250D01*
X90223706Y-101382592D01*
X90219836Y-101408681D01*
X90213428Y-101434264D01*
X90204543Y-101459096D01*
X90193266Y-101482938D01*
X90179707Y-101505560D01*
X90163997Y-101526743D01*
X90146285Y-101546285D01*
X90126743Y-101563997D01*
X90105560Y-101579707D01*
X90082938Y-101593266D01*
X90059096Y-101604543D01*
X90034264Y-101613428D01*
X90008681Y-101619836D01*
X89982592Y-101623706D01*
X89956250Y-101625000D01*
X89343750Y-101625000D01*
X89317408Y-101623706D01*
X89291319Y-101619836D01*
X89265736Y-101613428D01*
X89240904Y-101604543D01*
X89217062Y-101593266D01*
X89194440Y-101579707D01*
X89173257Y-101563997D01*
X89153715Y-101546285D01*
X89136003Y-101526743D01*
X89120293Y-101505560D01*
X89106734Y-101482938D01*
X89095457Y-101459096D01*
X89086572Y-101434264D01*
X89080164Y-101408681D01*
X89076294Y-101382592D01*
X89075000Y-101356250D01*
X89075000Y-100818750D01*
X89076294Y-100792408D01*
X89080164Y-100766319D01*
X89086572Y-100740736D01*
X89095457Y-100715904D01*
X89106734Y-100692062D01*
X89120293Y-100669440D01*
X89136003Y-100648257D01*
X89153715Y-100628715D01*
X89173257Y-100611003D01*
X89194440Y-100595293D01*
X89217062Y-100581734D01*
X89240904Y-100570457D01*
X89265736Y-100561572D01*
X89291319Y-100555164D01*
X89317408Y-100551294D01*
X89343750Y-100550000D01*
X89956250Y-100550000D01*
X89982592Y-100551294D01*
X89982592Y-100551294D01*
G37*
D11*
X89650000Y-101087500D03*
D10*
G36*
X89982592Y-98976294D02*
X90008681Y-98980164D01*
X90034264Y-98986572D01*
X90059096Y-98995457D01*
X90082938Y-99006734D01*
X90105560Y-99020293D01*
X90126743Y-99036003D01*
X90146285Y-99053715D01*
X90163997Y-99073257D01*
X90179707Y-99094440D01*
X90193266Y-99117062D01*
X90204543Y-99140904D01*
X90213428Y-99165736D01*
X90219836Y-99191319D01*
X90223706Y-99217408D01*
X90225000Y-99243750D01*
X90225000Y-99781250D01*
X90223706Y-99807592D01*
X90219836Y-99833681D01*
X90213428Y-99859264D01*
X90204543Y-99884096D01*
X90193266Y-99907938D01*
X90179707Y-99930560D01*
X90163997Y-99951743D01*
X90146285Y-99971285D01*
X90126743Y-99988997D01*
X90105560Y-100004707D01*
X90082938Y-100018266D01*
X90059096Y-100029543D01*
X90034264Y-100038428D01*
X90008681Y-100044836D01*
X89982592Y-100048706D01*
X89956250Y-100050000D01*
X89343750Y-100050000D01*
X89317408Y-100048706D01*
X89291319Y-100044836D01*
X89265736Y-100038428D01*
X89240904Y-100029543D01*
X89217062Y-100018266D01*
X89194440Y-100004707D01*
X89173257Y-99988997D01*
X89153715Y-99971285D01*
X89136003Y-99951743D01*
X89120293Y-99930560D01*
X89106734Y-99907938D01*
X89095457Y-99884096D01*
X89086572Y-99859264D01*
X89080164Y-99833681D01*
X89076294Y-99807592D01*
X89075000Y-99781250D01*
X89075000Y-99243750D01*
X89076294Y-99217408D01*
X89080164Y-99191319D01*
X89086572Y-99165736D01*
X89095457Y-99140904D01*
X89106734Y-99117062D01*
X89120293Y-99094440D01*
X89136003Y-99073257D01*
X89153715Y-99053715D01*
X89173257Y-99036003D01*
X89194440Y-99020293D01*
X89217062Y-99006734D01*
X89240904Y-98995457D01*
X89265736Y-98986572D01*
X89291319Y-98980164D01*
X89317408Y-98976294D01*
X89343750Y-98975000D01*
X89956250Y-98975000D01*
X89982592Y-98976294D01*
X89982592Y-98976294D01*
G37*
D11*
X89650000Y-99512500D03*
G04 #@! TD*
D10*
G04 #@! TO.C,L1*
G36*
X89972592Y-92383794D02*
X89998681Y-92387664D01*
X90024264Y-92394072D01*
X90049096Y-92402957D01*
X90072938Y-92414234D01*
X90095560Y-92427793D01*
X90116743Y-92443503D01*
X90136285Y-92461215D01*
X90153997Y-92480757D01*
X90169707Y-92501940D01*
X90183266Y-92524562D01*
X90194543Y-92548404D01*
X90203428Y-92573236D01*
X90209836Y-92598819D01*
X90213706Y-92624908D01*
X90215000Y-92651250D01*
X90215000Y-93188750D01*
X90213706Y-93215092D01*
X90209836Y-93241181D01*
X90203428Y-93266764D01*
X90194543Y-93291596D01*
X90183266Y-93315438D01*
X90169707Y-93338060D01*
X90153997Y-93359243D01*
X90136285Y-93378785D01*
X90116743Y-93396497D01*
X90095560Y-93412207D01*
X90072938Y-93425766D01*
X90049096Y-93437043D01*
X90024264Y-93445928D01*
X89998681Y-93452336D01*
X89972592Y-93456206D01*
X89946250Y-93457500D01*
X89333750Y-93457500D01*
X89307408Y-93456206D01*
X89281319Y-93452336D01*
X89255736Y-93445928D01*
X89230904Y-93437043D01*
X89207062Y-93425766D01*
X89184440Y-93412207D01*
X89163257Y-93396497D01*
X89143715Y-93378785D01*
X89126003Y-93359243D01*
X89110293Y-93338060D01*
X89096734Y-93315438D01*
X89085457Y-93291596D01*
X89076572Y-93266764D01*
X89070164Y-93241181D01*
X89066294Y-93215092D01*
X89065000Y-93188750D01*
X89065000Y-92651250D01*
X89066294Y-92624908D01*
X89070164Y-92598819D01*
X89076572Y-92573236D01*
X89085457Y-92548404D01*
X89096734Y-92524562D01*
X89110293Y-92501940D01*
X89126003Y-92480757D01*
X89143715Y-92461215D01*
X89163257Y-92443503D01*
X89184440Y-92427793D01*
X89207062Y-92414234D01*
X89230904Y-92402957D01*
X89255736Y-92394072D01*
X89281319Y-92387664D01*
X89307408Y-92383794D01*
X89333750Y-92382500D01*
X89946250Y-92382500D01*
X89972592Y-92383794D01*
X89972592Y-92383794D01*
G37*
D11*
X89640000Y-92920000D03*
D10*
G36*
X89972592Y-93958794D02*
X89998681Y-93962664D01*
X90024264Y-93969072D01*
X90049096Y-93977957D01*
X90072938Y-93989234D01*
X90095560Y-94002793D01*
X90116743Y-94018503D01*
X90136285Y-94036215D01*
X90153997Y-94055757D01*
X90169707Y-94076940D01*
X90183266Y-94099562D01*
X90194543Y-94123404D01*
X90203428Y-94148236D01*
X90209836Y-94173819D01*
X90213706Y-94199908D01*
X90215000Y-94226250D01*
X90215000Y-94763750D01*
X90213706Y-94790092D01*
X90209836Y-94816181D01*
X90203428Y-94841764D01*
X90194543Y-94866596D01*
X90183266Y-94890438D01*
X90169707Y-94913060D01*
X90153997Y-94934243D01*
X90136285Y-94953785D01*
X90116743Y-94971497D01*
X90095560Y-94987207D01*
X90072938Y-95000766D01*
X90049096Y-95012043D01*
X90024264Y-95020928D01*
X89998681Y-95027336D01*
X89972592Y-95031206D01*
X89946250Y-95032500D01*
X89333750Y-95032500D01*
X89307408Y-95031206D01*
X89281319Y-95027336D01*
X89255736Y-95020928D01*
X89230904Y-95012043D01*
X89207062Y-95000766D01*
X89184440Y-94987207D01*
X89163257Y-94971497D01*
X89143715Y-94953785D01*
X89126003Y-94934243D01*
X89110293Y-94913060D01*
X89096734Y-94890438D01*
X89085457Y-94866596D01*
X89076572Y-94841764D01*
X89070164Y-94816181D01*
X89066294Y-94790092D01*
X89065000Y-94763750D01*
X89065000Y-94226250D01*
X89066294Y-94199908D01*
X89070164Y-94173819D01*
X89076572Y-94148236D01*
X89085457Y-94123404D01*
X89096734Y-94099562D01*
X89110293Y-94076940D01*
X89126003Y-94055757D01*
X89143715Y-94036215D01*
X89163257Y-94018503D01*
X89184440Y-94002793D01*
X89207062Y-93989234D01*
X89230904Y-93977957D01*
X89255736Y-93969072D01*
X89281319Y-93962664D01*
X89307408Y-93958794D01*
X89333750Y-93957500D01*
X89946250Y-93957500D01*
X89972592Y-93958794D01*
X89972592Y-93958794D01*
G37*
D11*
X89640000Y-94495000D03*
G04 #@! TD*
D10*
G04 #@! TO.C,L4*
G36*
X89992592Y-104058794D02*
X90018681Y-104062664D01*
X90044264Y-104069072D01*
X90069096Y-104077957D01*
X90092938Y-104089234D01*
X90115560Y-104102793D01*
X90136743Y-104118503D01*
X90156285Y-104136215D01*
X90173997Y-104155757D01*
X90189707Y-104176940D01*
X90203266Y-104199562D01*
X90214543Y-104223404D01*
X90223428Y-104248236D01*
X90229836Y-104273819D01*
X90233706Y-104299908D01*
X90235000Y-104326250D01*
X90235000Y-104863750D01*
X90233706Y-104890092D01*
X90229836Y-104916181D01*
X90223428Y-104941764D01*
X90214543Y-104966596D01*
X90203266Y-104990438D01*
X90189707Y-105013060D01*
X90173997Y-105034243D01*
X90156285Y-105053785D01*
X90136743Y-105071497D01*
X90115560Y-105087207D01*
X90092938Y-105100766D01*
X90069096Y-105112043D01*
X90044264Y-105120928D01*
X90018681Y-105127336D01*
X89992592Y-105131206D01*
X89966250Y-105132500D01*
X89353750Y-105132500D01*
X89327408Y-105131206D01*
X89301319Y-105127336D01*
X89275736Y-105120928D01*
X89250904Y-105112043D01*
X89227062Y-105100766D01*
X89204440Y-105087207D01*
X89183257Y-105071497D01*
X89163715Y-105053785D01*
X89146003Y-105034243D01*
X89130293Y-105013060D01*
X89116734Y-104990438D01*
X89105457Y-104966596D01*
X89096572Y-104941764D01*
X89090164Y-104916181D01*
X89086294Y-104890092D01*
X89085000Y-104863750D01*
X89085000Y-104326250D01*
X89086294Y-104299908D01*
X89090164Y-104273819D01*
X89096572Y-104248236D01*
X89105457Y-104223404D01*
X89116734Y-104199562D01*
X89130293Y-104176940D01*
X89146003Y-104155757D01*
X89163715Y-104136215D01*
X89183257Y-104118503D01*
X89204440Y-104102793D01*
X89227062Y-104089234D01*
X89250904Y-104077957D01*
X89275736Y-104069072D01*
X89301319Y-104062664D01*
X89327408Y-104058794D01*
X89353750Y-104057500D01*
X89966250Y-104057500D01*
X89992592Y-104058794D01*
X89992592Y-104058794D01*
G37*
D11*
X89660000Y-104595000D03*
D10*
G36*
X89992592Y-102483794D02*
X90018681Y-102487664D01*
X90044264Y-102494072D01*
X90069096Y-102502957D01*
X90092938Y-102514234D01*
X90115560Y-102527793D01*
X90136743Y-102543503D01*
X90156285Y-102561215D01*
X90173997Y-102580757D01*
X90189707Y-102601940D01*
X90203266Y-102624562D01*
X90214543Y-102648404D01*
X90223428Y-102673236D01*
X90229836Y-102698819D01*
X90233706Y-102724908D01*
X90235000Y-102751250D01*
X90235000Y-103288750D01*
X90233706Y-103315092D01*
X90229836Y-103341181D01*
X90223428Y-103366764D01*
X90214543Y-103391596D01*
X90203266Y-103415438D01*
X90189707Y-103438060D01*
X90173997Y-103459243D01*
X90156285Y-103478785D01*
X90136743Y-103496497D01*
X90115560Y-103512207D01*
X90092938Y-103525766D01*
X90069096Y-103537043D01*
X90044264Y-103545928D01*
X90018681Y-103552336D01*
X89992592Y-103556206D01*
X89966250Y-103557500D01*
X89353750Y-103557500D01*
X89327408Y-103556206D01*
X89301319Y-103552336D01*
X89275736Y-103545928D01*
X89250904Y-103537043D01*
X89227062Y-103525766D01*
X89204440Y-103512207D01*
X89183257Y-103496497D01*
X89163715Y-103478785D01*
X89146003Y-103459243D01*
X89130293Y-103438060D01*
X89116734Y-103415438D01*
X89105457Y-103391596D01*
X89096572Y-103366764D01*
X89090164Y-103341181D01*
X89086294Y-103315092D01*
X89085000Y-103288750D01*
X89085000Y-102751250D01*
X89086294Y-102724908D01*
X89090164Y-102698819D01*
X89096572Y-102673236D01*
X89105457Y-102648404D01*
X89116734Y-102624562D01*
X89130293Y-102601940D01*
X89146003Y-102580757D01*
X89163715Y-102561215D01*
X89183257Y-102543503D01*
X89204440Y-102527793D01*
X89227062Y-102514234D01*
X89250904Y-102502957D01*
X89275736Y-102494072D01*
X89301319Y-102487664D01*
X89327408Y-102483794D01*
X89353750Y-102482500D01*
X89966250Y-102482500D01*
X89992592Y-102483794D01*
X89992592Y-102483794D01*
G37*
D11*
X89660000Y-103020000D03*
G04 #@! TD*
D10*
G04 #@! TO.C,L2*
G36*
X89962592Y-95693794D02*
X89988681Y-95697664D01*
X90014264Y-95704072D01*
X90039096Y-95712957D01*
X90062938Y-95724234D01*
X90085560Y-95737793D01*
X90106743Y-95753503D01*
X90126285Y-95771215D01*
X90143997Y-95790757D01*
X90159707Y-95811940D01*
X90173266Y-95834562D01*
X90184543Y-95858404D01*
X90193428Y-95883236D01*
X90199836Y-95908819D01*
X90203706Y-95934908D01*
X90205000Y-95961250D01*
X90205000Y-96498750D01*
X90203706Y-96525092D01*
X90199836Y-96551181D01*
X90193428Y-96576764D01*
X90184543Y-96601596D01*
X90173266Y-96625438D01*
X90159707Y-96648060D01*
X90143997Y-96669243D01*
X90126285Y-96688785D01*
X90106743Y-96706497D01*
X90085560Y-96722207D01*
X90062938Y-96735766D01*
X90039096Y-96747043D01*
X90014264Y-96755928D01*
X89988681Y-96762336D01*
X89962592Y-96766206D01*
X89936250Y-96767500D01*
X89323750Y-96767500D01*
X89297408Y-96766206D01*
X89271319Y-96762336D01*
X89245736Y-96755928D01*
X89220904Y-96747043D01*
X89197062Y-96735766D01*
X89174440Y-96722207D01*
X89153257Y-96706497D01*
X89133715Y-96688785D01*
X89116003Y-96669243D01*
X89100293Y-96648060D01*
X89086734Y-96625438D01*
X89075457Y-96601596D01*
X89066572Y-96576764D01*
X89060164Y-96551181D01*
X89056294Y-96525092D01*
X89055000Y-96498750D01*
X89055000Y-95961250D01*
X89056294Y-95934908D01*
X89060164Y-95908819D01*
X89066572Y-95883236D01*
X89075457Y-95858404D01*
X89086734Y-95834562D01*
X89100293Y-95811940D01*
X89116003Y-95790757D01*
X89133715Y-95771215D01*
X89153257Y-95753503D01*
X89174440Y-95737793D01*
X89197062Y-95724234D01*
X89220904Y-95712957D01*
X89245736Y-95704072D01*
X89271319Y-95697664D01*
X89297408Y-95693794D01*
X89323750Y-95692500D01*
X89936250Y-95692500D01*
X89962592Y-95693794D01*
X89962592Y-95693794D01*
G37*
D11*
X89630000Y-96230000D03*
D10*
G36*
X89962592Y-97268794D02*
X89988681Y-97272664D01*
X90014264Y-97279072D01*
X90039096Y-97287957D01*
X90062938Y-97299234D01*
X90085560Y-97312793D01*
X90106743Y-97328503D01*
X90126285Y-97346215D01*
X90143997Y-97365757D01*
X90159707Y-97386940D01*
X90173266Y-97409562D01*
X90184543Y-97433404D01*
X90193428Y-97458236D01*
X90199836Y-97483819D01*
X90203706Y-97509908D01*
X90205000Y-97536250D01*
X90205000Y-98073750D01*
X90203706Y-98100092D01*
X90199836Y-98126181D01*
X90193428Y-98151764D01*
X90184543Y-98176596D01*
X90173266Y-98200438D01*
X90159707Y-98223060D01*
X90143997Y-98244243D01*
X90126285Y-98263785D01*
X90106743Y-98281497D01*
X90085560Y-98297207D01*
X90062938Y-98310766D01*
X90039096Y-98322043D01*
X90014264Y-98330928D01*
X89988681Y-98337336D01*
X89962592Y-98341206D01*
X89936250Y-98342500D01*
X89323750Y-98342500D01*
X89297408Y-98341206D01*
X89271319Y-98337336D01*
X89245736Y-98330928D01*
X89220904Y-98322043D01*
X89197062Y-98310766D01*
X89174440Y-98297207D01*
X89153257Y-98281497D01*
X89133715Y-98263785D01*
X89116003Y-98244243D01*
X89100293Y-98223060D01*
X89086734Y-98200438D01*
X89075457Y-98176596D01*
X89066572Y-98151764D01*
X89060164Y-98126181D01*
X89056294Y-98100092D01*
X89055000Y-98073750D01*
X89055000Y-97536250D01*
X89056294Y-97509908D01*
X89060164Y-97483819D01*
X89066572Y-97458236D01*
X89075457Y-97433404D01*
X89086734Y-97409562D01*
X89100293Y-97386940D01*
X89116003Y-97365757D01*
X89133715Y-97346215D01*
X89153257Y-97328503D01*
X89174440Y-97312793D01*
X89197062Y-97299234D01*
X89220904Y-97287957D01*
X89245736Y-97279072D01*
X89271319Y-97272664D01*
X89297408Y-97268794D01*
X89323750Y-97267500D01*
X89936250Y-97267500D01*
X89962592Y-97268794D01*
X89962592Y-97268794D01*
G37*
D11*
X89630000Y-97805000D03*
G04 #@! TD*
D10*
G04 #@! TO.C,R5*
G36*
X89994592Y-88846294D02*
X90020681Y-88850164D01*
X90046264Y-88856572D01*
X90071096Y-88865457D01*
X90094938Y-88876734D01*
X90117560Y-88890293D01*
X90138743Y-88906003D01*
X90158285Y-88923715D01*
X90175997Y-88943257D01*
X90191707Y-88964440D01*
X90205266Y-88987062D01*
X90216543Y-89010904D01*
X90225428Y-89035736D01*
X90231836Y-89061319D01*
X90235706Y-89087408D01*
X90237000Y-89113750D01*
X90237000Y-89651250D01*
X90235706Y-89677592D01*
X90231836Y-89703681D01*
X90225428Y-89729264D01*
X90216543Y-89754096D01*
X90205266Y-89777938D01*
X90191707Y-89800560D01*
X90175997Y-89821743D01*
X90158285Y-89841285D01*
X90138743Y-89858997D01*
X90117560Y-89874707D01*
X90094938Y-89888266D01*
X90071096Y-89899543D01*
X90046264Y-89908428D01*
X90020681Y-89914836D01*
X89994592Y-89918706D01*
X89968250Y-89920000D01*
X89355750Y-89920000D01*
X89329408Y-89918706D01*
X89303319Y-89914836D01*
X89277736Y-89908428D01*
X89252904Y-89899543D01*
X89229062Y-89888266D01*
X89206440Y-89874707D01*
X89185257Y-89858997D01*
X89165715Y-89841285D01*
X89148003Y-89821743D01*
X89132293Y-89800560D01*
X89118734Y-89777938D01*
X89107457Y-89754096D01*
X89098572Y-89729264D01*
X89092164Y-89703681D01*
X89088294Y-89677592D01*
X89087000Y-89651250D01*
X89087000Y-89113750D01*
X89088294Y-89087408D01*
X89092164Y-89061319D01*
X89098572Y-89035736D01*
X89107457Y-89010904D01*
X89118734Y-88987062D01*
X89132293Y-88964440D01*
X89148003Y-88943257D01*
X89165715Y-88923715D01*
X89185257Y-88906003D01*
X89206440Y-88890293D01*
X89229062Y-88876734D01*
X89252904Y-88865457D01*
X89277736Y-88856572D01*
X89303319Y-88850164D01*
X89329408Y-88846294D01*
X89355750Y-88845000D01*
X89968250Y-88845000D01*
X89994592Y-88846294D01*
X89994592Y-88846294D01*
G37*
D11*
X89662000Y-89382500D03*
D10*
G36*
X89994592Y-90421294D02*
X90020681Y-90425164D01*
X90046264Y-90431572D01*
X90071096Y-90440457D01*
X90094938Y-90451734D01*
X90117560Y-90465293D01*
X90138743Y-90481003D01*
X90158285Y-90498715D01*
X90175997Y-90518257D01*
X90191707Y-90539440D01*
X90205266Y-90562062D01*
X90216543Y-90585904D01*
X90225428Y-90610736D01*
X90231836Y-90636319D01*
X90235706Y-90662408D01*
X90237000Y-90688750D01*
X90237000Y-91226250D01*
X90235706Y-91252592D01*
X90231836Y-91278681D01*
X90225428Y-91304264D01*
X90216543Y-91329096D01*
X90205266Y-91352938D01*
X90191707Y-91375560D01*
X90175997Y-91396743D01*
X90158285Y-91416285D01*
X90138743Y-91433997D01*
X90117560Y-91449707D01*
X90094938Y-91463266D01*
X90071096Y-91474543D01*
X90046264Y-91483428D01*
X90020681Y-91489836D01*
X89994592Y-91493706D01*
X89968250Y-91495000D01*
X89355750Y-91495000D01*
X89329408Y-91493706D01*
X89303319Y-91489836D01*
X89277736Y-91483428D01*
X89252904Y-91474543D01*
X89229062Y-91463266D01*
X89206440Y-91449707D01*
X89185257Y-91433997D01*
X89165715Y-91416285D01*
X89148003Y-91396743D01*
X89132293Y-91375560D01*
X89118734Y-91352938D01*
X89107457Y-91329096D01*
X89098572Y-91304264D01*
X89092164Y-91278681D01*
X89088294Y-91252592D01*
X89087000Y-91226250D01*
X89087000Y-90688750D01*
X89088294Y-90662408D01*
X89092164Y-90636319D01*
X89098572Y-90610736D01*
X89107457Y-90585904D01*
X89118734Y-90562062D01*
X89132293Y-90539440D01*
X89148003Y-90518257D01*
X89165715Y-90498715D01*
X89185257Y-90481003D01*
X89206440Y-90465293D01*
X89229062Y-90451734D01*
X89252904Y-90440457D01*
X89277736Y-90431572D01*
X89303319Y-90425164D01*
X89329408Y-90421294D01*
X89355750Y-90420000D01*
X89968250Y-90420000D01*
X89994592Y-90421294D01*
X89994592Y-90421294D01*
G37*
D11*
X89662000Y-90957500D03*
G04 #@! TD*
D10*
G04 #@! TO.C,R14*
G36*
X92892592Y-107408794D02*
X92918681Y-107412664D01*
X92944264Y-107419072D01*
X92969096Y-107427957D01*
X92992938Y-107439234D01*
X93015560Y-107452793D01*
X93036743Y-107468503D01*
X93056285Y-107486215D01*
X93073997Y-107505757D01*
X93089707Y-107526940D01*
X93103266Y-107549562D01*
X93114543Y-107573404D01*
X93123428Y-107598236D01*
X93129836Y-107623819D01*
X93133706Y-107649908D01*
X93135000Y-107676250D01*
X93135000Y-108213750D01*
X93133706Y-108240092D01*
X93129836Y-108266181D01*
X93123428Y-108291764D01*
X93114543Y-108316596D01*
X93103266Y-108340438D01*
X93089707Y-108363060D01*
X93073997Y-108384243D01*
X93056285Y-108403785D01*
X93036743Y-108421497D01*
X93015560Y-108437207D01*
X92992938Y-108450766D01*
X92969096Y-108462043D01*
X92944264Y-108470928D01*
X92918681Y-108477336D01*
X92892592Y-108481206D01*
X92866250Y-108482500D01*
X92253750Y-108482500D01*
X92227408Y-108481206D01*
X92201319Y-108477336D01*
X92175736Y-108470928D01*
X92150904Y-108462043D01*
X92127062Y-108450766D01*
X92104440Y-108437207D01*
X92083257Y-108421497D01*
X92063715Y-108403785D01*
X92046003Y-108384243D01*
X92030293Y-108363060D01*
X92016734Y-108340438D01*
X92005457Y-108316596D01*
X91996572Y-108291764D01*
X91990164Y-108266181D01*
X91986294Y-108240092D01*
X91985000Y-108213750D01*
X91985000Y-107676250D01*
X91986294Y-107649908D01*
X91990164Y-107623819D01*
X91996572Y-107598236D01*
X92005457Y-107573404D01*
X92016734Y-107549562D01*
X92030293Y-107526940D01*
X92046003Y-107505757D01*
X92063715Y-107486215D01*
X92083257Y-107468503D01*
X92104440Y-107452793D01*
X92127062Y-107439234D01*
X92150904Y-107427957D01*
X92175736Y-107419072D01*
X92201319Y-107412664D01*
X92227408Y-107408794D01*
X92253750Y-107407500D01*
X92866250Y-107407500D01*
X92892592Y-107408794D01*
X92892592Y-107408794D01*
G37*
D11*
X92560000Y-107945000D03*
D10*
G36*
X92892592Y-105833794D02*
X92918681Y-105837664D01*
X92944264Y-105844072D01*
X92969096Y-105852957D01*
X92992938Y-105864234D01*
X93015560Y-105877793D01*
X93036743Y-105893503D01*
X93056285Y-105911215D01*
X93073997Y-105930757D01*
X93089707Y-105951940D01*
X93103266Y-105974562D01*
X93114543Y-105998404D01*
X93123428Y-106023236D01*
X93129836Y-106048819D01*
X93133706Y-106074908D01*
X93135000Y-106101250D01*
X93135000Y-106638750D01*
X93133706Y-106665092D01*
X93129836Y-106691181D01*
X93123428Y-106716764D01*
X93114543Y-106741596D01*
X93103266Y-106765438D01*
X93089707Y-106788060D01*
X93073997Y-106809243D01*
X93056285Y-106828785D01*
X93036743Y-106846497D01*
X93015560Y-106862207D01*
X92992938Y-106875766D01*
X92969096Y-106887043D01*
X92944264Y-106895928D01*
X92918681Y-106902336D01*
X92892592Y-106906206D01*
X92866250Y-106907500D01*
X92253750Y-106907500D01*
X92227408Y-106906206D01*
X92201319Y-106902336D01*
X92175736Y-106895928D01*
X92150904Y-106887043D01*
X92127062Y-106875766D01*
X92104440Y-106862207D01*
X92083257Y-106846497D01*
X92063715Y-106828785D01*
X92046003Y-106809243D01*
X92030293Y-106788060D01*
X92016734Y-106765438D01*
X92005457Y-106741596D01*
X91996572Y-106716764D01*
X91990164Y-106691181D01*
X91986294Y-106665092D01*
X91985000Y-106638750D01*
X91985000Y-106101250D01*
X91986294Y-106074908D01*
X91990164Y-106048819D01*
X91996572Y-106023236D01*
X92005457Y-105998404D01*
X92016734Y-105974562D01*
X92030293Y-105951940D01*
X92046003Y-105930757D01*
X92063715Y-105911215D01*
X92083257Y-105893503D01*
X92104440Y-105877793D01*
X92127062Y-105864234D01*
X92150904Y-105852957D01*
X92175736Y-105844072D01*
X92201319Y-105837664D01*
X92227408Y-105833794D01*
X92253750Y-105832500D01*
X92866250Y-105832500D01*
X92892592Y-105833794D01*
X92892592Y-105833794D01*
G37*
D11*
X92560000Y-106370000D03*
G04 #@! TD*
D10*
G04 #@! TO.C,C14*
G36*
X120056098Y-97001382D02*
X120083962Y-97005515D01*
X120111286Y-97012360D01*
X120137808Y-97021849D01*
X120163272Y-97033893D01*
X120187433Y-97048374D01*
X120210058Y-97065154D01*
X120230929Y-97084071D01*
X120249846Y-97104942D01*
X120266626Y-97127567D01*
X120281107Y-97151728D01*
X120293151Y-97177192D01*
X120302640Y-97203714D01*
X120309485Y-97231038D01*
X120313618Y-97258902D01*
X120315000Y-97287036D01*
X120315000Y-98312964D01*
X120313618Y-98341098D01*
X120309485Y-98368962D01*
X120302640Y-98396286D01*
X120293151Y-98422808D01*
X120281107Y-98448272D01*
X120266626Y-98472433D01*
X120249846Y-98495058D01*
X120230929Y-98515929D01*
X120210058Y-98534846D01*
X120187433Y-98551626D01*
X120163272Y-98566107D01*
X120137808Y-98578151D01*
X120111286Y-98587640D01*
X120083962Y-98594485D01*
X120056098Y-98598618D01*
X120027964Y-98600000D01*
X119052036Y-98600000D01*
X119023902Y-98598618D01*
X118996038Y-98594485D01*
X118968714Y-98587640D01*
X118942192Y-98578151D01*
X118916728Y-98566107D01*
X118892567Y-98551626D01*
X118869942Y-98534846D01*
X118849071Y-98515929D01*
X118830154Y-98495058D01*
X118813374Y-98472433D01*
X118798893Y-98448272D01*
X118786849Y-98422808D01*
X118777360Y-98396286D01*
X118770515Y-98368962D01*
X118766382Y-98341098D01*
X118765000Y-98312964D01*
X118765000Y-97287036D01*
X118766382Y-97258902D01*
X118770515Y-97231038D01*
X118777360Y-97203714D01*
X118786849Y-97177192D01*
X118798893Y-97151728D01*
X118813374Y-97127567D01*
X118830154Y-97104942D01*
X118849071Y-97084071D01*
X118869942Y-97065154D01*
X118892567Y-97048374D01*
X118916728Y-97033893D01*
X118942192Y-97021849D01*
X118968714Y-97012360D01*
X118996038Y-97005515D01*
X119023902Y-97001382D01*
X119052036Y-97000000D01*
X120027964Y-97000000D01*
X120056098Y-97001382D01*
X120056098Y-97001382D01*
G37*
D17*
X119540000Y-97800000D03*
D10*
G36*
X120056098Y-94301382D02*
X120083962Y-94305515D01*
X120111286Y-94312360D01*
X120137808Y-94321849D01*
X120163272Y-94333893D01*
X120187433Y-94348374D01*
X120210058Y-94365154D01*
X120230929Y-94384071D01*
X120249846Y-94404942D01*
X120266626Y-94427567D01*
X120281107Y-94451728D01*
X120293151Y-94477192D01*
X120302640Y-94503714D01*
X120309485Y-94531038D01*
X120313618Y-94558902D01*
X120315000Y-94587036D01*
X120315000Y-95612964D01*
X120313618Y-95641098D01*
X120309485Y-95668962D01*
X120302640Y-95696286D01*
X120293151Y-95722808D01*
X120281107Y-95748272D01*
X120266626Y-95772433D01*
X120249846Y-95795058D01*
X120230929Y-95815929D01*
X120210058Y-95834846D01*
X120187433Y-95851626D01*
X120163272Y-95866107D01*
X120137808Y-95878151D01*
X120111286Y-95887640D01*
X120083962Y-95894485D01*
X120056098Y-95898618D01*
X120027964Y-95900000D01*
X119052036Y-95900000D01*
X119023902Y-95898618D01*
X118996038Y-95894485D01*
X118968714Y-95887640D01*
X118942192Y-95878151D01*
X118916728Y-95866107D01*
X118892567Y-95851626D01*
X118869942Y-95834846D01*
X118849071Y-95815929D01*
X118830154Y-95795058D01*
X118813374Y-95772433D01*
X118798893Y-95748272D01*
X118786849Y-95722808D01*
X118777360Y-95696286D01*
X118770515Y-95668962D01*
X118766382Y-95641098D01*
X118765000Y-95612964D01*
X118765000Y-94587036D01*
X118766382Y-94558902D01*
X118770515Y-94531038D01*
X118777360Y-94503714D01*
X118786849Y-94477192D01*
X118798893Y-94451728D01*
X118813374Y-94427567D01*
X118830154Y-94404942D01*
X118849071Y-94384071D01*
X118869942Y-94365154D01*
X118892567Y-94348374D01*
X118916728Y-94333893D01*
X118942192Y-94321849D01*
X118968714Y-94312360D01*
X118996038Y-94305515D01*
X119023902Y-94301382D01*
X119052036Y-94300000D01*
X120027964Y-94300000D01*
X120056098Y-94301382D01*
X120056098Y-94301382D01*
G37*
D17*
X119540000Y-95100000D03*
G04 #@! TD*
D10*
G04 #@! TO.C,C17*
G36*
X82236098Y-69211382D02*
X82263962Y-69215515D01*
X82291286Y-69222360D01*
X82317808Y-69231849D01*
X82343272Y-69243893D01*
X82367433Y-69258374D01*
X82390058Y-69275154D01*
X82410929Y-69294071D01*
X82429846Y-69314942D01*
X82446626Y-69337567D01*
X82461107Y-69361728D01*
X82473151Y-69387192D01*
X82482640Y-69413714D01*
X82489485Y-69441038D01*
X82493618Y-69468902D01*
X82495000Y-69497036D01*
X82495000Y-70522964D01*
X82493618Y-70551098D01*
X82489485Y-70578962D01*
X82482640Y-70606286D01*
X82473151Y-70632808D01*
X82461107Y-70658272D01*
X82446626Y-70682433D01*
X82429846Y-70705058D01*
X82410929Y-70725929D01*
X82390058Y-70744846D01*
X82367433Y-70761626D01*
X82343272Y-70776107D01*
X82317808Y-70788151D01*
X82291286Y-70797640D01*
X82263962Y-70804485D01*
X82236098Y-70808618D01*
X82207964Y-70810000D01*
X81232036Y-70810000D01*
X81203902Y-70808618D01*
X81176038Y-70804485D01*
X81148714Y-70797640D01*
X81122192Y-70788151D01*
X81096728Y-70776107D01*
X81072567Y-70761626D01*
X81049942Y-70744846D01*
X81029071Y-70725929D01*
X81010154Y-70705058D01*
X80993374Y-70682433D01*
X80978893Y-70658272D01*
X80966849Y-70632808D01*
X80957360Y-70606286D01*
X80950515Y-70578962D01*
X80946382Y-70551098D01*
X80945000Y-70522964D01*
X80945000Y-69497036D01*
X80946382Y-69468902D01*
X80950515Y-69441038D01*
X80957360Y-69413714D01*
X80966849Y-69387192D01*
X80978893Y-69361728D01*
X80993374Y-69337567D01*
X81010154Y-69314942D01*
X81029071Y-69294071D01*
X81049942Y-69275154D01*
X81072567Y-69258374D01*
X81096728Y-69243893D01*
X81122192Y-69231849D01*
X81148714Y-69222360D01*
X81176038Y-69215515D01*
X81203902Y-69211382D01*
X81232036Y-69210000D01*
X82207964Y-69210000D01*
X82236098Y-69211382D01*
X82236098Y-69211382D01*
G37*
D17*
X81720000Y-70010000D03*
D10*
G36*
X82236098Y-71911382D02*
X82263962Y-71915515D01*
X82291286Y-71922360D01*
X82317808Y-71931849D01*
X82343272Y-71943893D01*
X82367433Y-71958374D01*
X82390058Y-71975154D01*
X82410929Y-71994071D01*
X82429846Y-72014942D01*
X82446626Y-72037567D01*
X82461107Y-72061728D01*
X82473151Y-72087192D01*
X82482640Y-72113714D01*
X82489485Y-72141038D01*
X82493618Y-72168902D01*
X82495000Y-72197036D01*
X82495000Y-73222964D01*
X82493618Y-73251098D01*
X82489485Y-73278962D01*
X82482640Y-73306286D01*
X82473151Y-73332808D01*
X82461107Y-73358272D01*
X82446626Y-73382433D01*
X82429846Y-73405058D01*
X82410929Y-73425929D01*
X82390058Y-73444846D01*
X82367433Y-73461626D01*
X82343272Y-73476107D01*
X82317808Y-73488151D01*
X82291286Y-73497640D01*
X82263962Y-73504485D01*
X82236098Y-73508618D01*
X82207964Y-73510000D01*
X81232036Y-73510000D01*
X81203902Y-73508618D01*
X81176038Y-73504485D01*
X81148714Y-73497640D01*
X81122192Y-73488151D01*
X81096728Y-73476107D01*
X81072567Y-73461626D01*
X81049942Y-73444846D01*
X81029071Y-73425929D01*
X81010154Y-73405058D01*
X80993374Y-73382433D01*
X80978893Y-73358272D01*
X80966849Y-73332808D01*
X80957360Y-73306286D01*
X80950515Y-73278962D01*
X80946382Y-73251098D01*
X80945000Y-73222964D01*
X80945000Y-72197036D01*
X80946382Y-72168902D01*
X80950515Y-72141038D01*
X80957360Y-72113714D01*
X80966849Y-72087192D01*
X80978893Y-72061728D01*
X80993374Y-72037567D01*
X81010154Y-72014942D01*
X81029071Y-71994071D01*
X81049942Y-71975154D01*
X81072567Y-71958374D01*
X81096728Y-71943893D01*
X81122192Y-71931849D01*
X81148714Y-71922360D01*
X81176038Y-71915515D01*
X81203902Y-71911382D01*
X81232036Y-71910000D01*
X82207964Y-71910000D01*
X82236098Y-71911382D01*
X82236098Y-71911382D01*
G37*
D17*
X81720000Y-72710000D03*
G04 #@! TD*
D10*
G04 #@! TO.C,C15*
G36*
X89736098Y-69151382D02*
X89763962Y-69155515D01*
X89791286Y-69162360D01*
X89817808Y-69171849D01*
X89843272Y-69183893D01*
X89867433Y-69198374D01*
X89890058Y-69215154D01*
X89910929Y-69234071D01*
X89929846Y-69254942D01*
X89946626Y-69277567D01*
X89961107Y-69301728D01*
X89973151Y-69327192D01*
X89982640Y-69353714D01*
X89989485Y-69381038D01*
X89993618Y-69408902D01*
X89995000Y-69437036D01*
X89995000Y-70462964D01*
X89993618Y-70491098D01*
X89989485Y-70518962D01*
X89982640Y-70546286D01*
X89973151Y-70572808D01*
X89961107Y-70598272D01*
X89946626Y-70622433D01*
X89929846Y-70645058D01*
X89910929Y-70665929D01*
X89890058Y-70684846D01*
X89867433Y-70701626D01*
X89843272Y-70716107D01*
X89817808Y-70728151D01*
X89791286Y-70737640D01*
X89763962Y-70744485D01*
X89736098Y-70748618D01*
X89707964Y-70750000D01*
X88732036Y-70750000D01*
X88703902Y-70748618D01*
X88676038Y-70744485D01*
X88648714Y-70737640D01*
X88622192Y-70728151D01*
X88596728Y-70716107D01*
X88572567Y-70701626D01*
X88549942Y-70684846D01*
X88529071Y-70665929D01*
X88510154Y-70645058D01*
X88493374Y-70622433D01*
X88478893Y-70598272D01*
X88466849Y-70572808D01*
X88457360Y-70546286D01*
X88450515Y-70518962D01*
X88446382Y-70491098D01*
X88445000Y-70462964D01*
X88445000Y-69437036D01*
X88446382Y-69408902D01*
X88450515Y-69381038D01*
X88457360Y-69353714D01*
X88466849Y-69327192D01*
X88478893Y-69301728D01*
X88493374Y-69277567D01*
X88510154Y-69254942D01*
X88529071Y-69234071D01*
X88549942Y-69215154D01*
X88572567Y-69198374D01*
X88596728Y-69183893D01*
X88622192Y-69171849D01*
X88648714Y-69162360D01*
X88676038Y-69155515D01*
X88703902Y-69151382D01*
X88732036Y-69150000D01*
X89707964Y-69150000D01*
X89736098Y-69151382D01*
X89736098Y-69151382D01*
G37*
D17*
X89220000Y-69950000D03*
D10*
G36*
X89736098Y-71851382D02*
X89763962Y-71855515D01*
X89791286Y-71862360D01*
X89817808Y-71871849D01*
X89843272Y-71883893D01*
X89867433Y-71898374D01*
X89890058Y-71915154D01*
X89910929Y-71934071D01*
X89929846Y-71954942D01*
X89946626Y-71977567D01*
X89961107Y-72001728D01*
X89973151Y-72027192D01*
X89982640Y-72053714D01*
X89989485Y-72081038D01*
X89993618Y-72108902D01*
X89995000Y-72137036D01*
X89995000Y-73162964D01*
X89993618Y-73191098D01*
X89989485Y-73218962D01*
X89982640Y-73246286D01*
X89973151Y-73272808D01*
X89961107Y-73298272D01*
X89946626Y-73322433D01*
X89929846Y-73345058D01*
X89910929Y-73365929D01*
X89890058Y-73384846D01*
X89867433Y-73401626D01*
X89843272Y-73416107D01*
X89817808Y-73428151D01*
X89791286Y-73437640D01*
X89763962Y-73444485D01*
X89736098Y-73448618D01*
X89707964Y-73450000D01*
X88732036Y-73450000D01*
X88703902Y-73448618D01*
X88676038Y-73444485D01*
X88648714Y-73437640D01*
X88622192Y-73428151D01*
X88596728Y-73416107D01*
X88572567Y-73401626D01*
X88549942Y-73384846D01*
X88529071Y-73365929D01*
X88510154Y-73345058D01*
X88493374Y-73322433D01*
X88478893Y-73298272D01*
X88466849Y-73272808D01*
X88457360Y-73246286D01*
X88450515Y-73218962D01*
X88446382Y-73191098D01*
X88445000Y-73162964D01*
X88445000Y-72137036D01*
X88446382Y-72108902D01*
X88450515Y-72081038D01*
X88457360Y-72053714D01*
X88466849Y-72027192D01*
X88478893Y-72001728D01*
X88493374Y-71977567D01*
X88510154Y-71954942D01*
X88529071Y-71934071D01*
X88549942Y-71915154D01*
X88572567Y-71898374D01*
X88596728Y-71883893D01*
X88622192Y-71871849D01*
X88648714Y-71862360D01*
X88676038Y-71855515D01*
X88703902Y-71851382D01*
X88732036Y-71850000D01*
X89707964Y-71850000D01*
X89736098Y-71851382D01*
X89736098Y-71851382D01*
G37*
D17*
X89220000Y-72650000D03*
G04 #@! TD*
D10*
G04 #@! TO.C,C13*
G36*
X120036098Y-99131382D02*
X120063962Y-99135515D01*
X120091286Y-99142360D01*
X120117808Y-99151849D01*
X120143272Y-99163893D01*
X120167433Y-99178374D01*
X120190058Y-99195154D01*
X120210929Y-99214071D01*
X120229846Y-99234942D01*
X120246626Y-99257567D01*
X120261107Y-99281728D01*
X120273151Y-99307192D01*
X120282640Y-99333714D01*
X120289485Y-99361038D01*
X120293618Y-99388902D01*
X120295000Y-99417036D01*
X120295000Y-100442964D01*
X120293618Y-100471098D01*
X120289485Y-100498962D01*
X120282640Y-100526286D01*
X120273151Y-100552808D01*
X120261107Y-100578272D01*
X120246626Y-100602433D01*
X120229846Y-100625058D01*
X120210929Y-100645929D01*
X120190058Y-100664846D01*
X120167433Y-100681626D01*
X120143272Y-100696107D01*
X120117808Y-100708151D01*
X120091286Y-100717640D01*
X120063962Y-100724485D01*
X120036098Y-100728618D01*
X120007964Y-100730000D01*
X119032036Y-100730000D01*
X119003902Y-100728618D01*
X118976038Y-100724485D01*
X118948714Y-100717640D01*
X118922192Y-100708151D01*
X118896728Y-100696107D01*
X118872567Y-100681626D01*
X118849942Y-100664846D01*
X118829071Y-100645929D01*
X118810154Y-100625058D01*
X118793374Y-100602433D01*
X118778893Y-100578272D01*
X118766849Y-100552808D01*
X118757360Y-100526286D01*
X118750515Y-100498962D01*
X118746382Y-100471098D01*
X118745000Y-100442964D01*
X118745000Y-99417036D01*
X118746382Y-99388902D01*
X118750515Y-99361038D01*
X118757360Y-99333714D01*
X118766849Y-99307192D01*
X118778893Y-99281728D01*
X118793374Y-99257567D01*
X118810154Y-99234942D01*
X118829071Y-99214071D01*
X118849942Y-99195154D01*
X118872567Y-99178374D01*
X118896728Y-99163893D01*
X118922192Y-99151849D01*
X118948714Y-99142360D01*
X118976038Y-99135515D01*
X119003902Y-99131382D01*
X119032036Y-99130000D01*
X120007964Y-99130000D01*
X120036098Y-99131382D01*
X120036098Y-99131382D01*
G37*
D17*
X119520000Y-99930000D03*
D10*
G36*
X120036098Y-101831382D02*
X120063962Y-101835515D01*
X120091286Y-101842360D01*
X120117808Y-101851849D01*
X120143272Y-101863893D01*
X120167433Y-101878374D01*
X120190058Y-101895154D01*
X120210929Y-101914071D01*
X120229846Y-101934942D01*
X120246626Y-101957567D01*
X120261107Y-101981728D01*
X120273151Y-102007192D01*
X120282640Y-102033714D01*
X120289485Y-102061038D01*
X120293618Y-102088902D01*
X120295000Y-102117036D01*
X120295000Y-103142964D01*
X120293618Y-103171098D01*
X120289485Y-103198962D01*
X120282640Y-103226286D01*
X120273151Y-103252808D01*
X120261107Y-103278272D01*
X120246626Y-103302433D01*
X120229846Y-103325058D01*
X120210929Y-103345929D01*
X120190058Y-103364846D01*
X120167433Y-103381626D01*
X120143272Y-103396107D01*
X120117808Y-103408151D01*
X120091286Y-103417640D01*
X120063962Y-103424485D01*
X120036098Y-103428618D01*
X120007964Y-103430000D01*
X119032036Y-103430000D01*
X119003902Y-103428618D01*
X118976038Y-103424485D01*
X118948714Y-103417640D01*
X118922192Y-103408151D01*
X118896728Y-103396107D01*
X118872567Y-103381626D01*
X118849942Y-103364846D01*
X118829071Y-103345929D01*
X118810154Y-103325058D01*
X118793374Y-103302433D01*
X118778893Y-103278272D01*
X118766849Y-103252808D01*
X118757360Y-103226286D01*
X118750515Y-103198962D01*
X118746382Y-103171098D01*
X118745000Y-103142964D01*
X118745000Y-102117036D01*
X118746382Y-102088902D01*
X118750515Y-102061038D01*
X118757360Y-102033714D01*
X118766849Y-102007192D01*
X118778893Y-101981728D01*
X118793374Y-101957567D01*
X118810154Y-101934942D01*
X118829071Y-101914071D01*
X118849942Y-101895154D01*
X118872567Y-101878374D01*
X118896728Y-101863893D01*
X118922192Y-101851849D01*
X118948714Y-101842360D01*
X118976038Y-101835515D01*
X119003902Y-101831382D01*
X119032036Y-101830000D01*
X120007964Y-101830000D01*
X120036098Y-101831382D01*
X120036098Y-101831382D01*
G37*
D17*
X119520000Y-102630000D03*
G04 #@! TD*
D10*
G04 #@! TO.C,C12*
G36*
X94866098Y-71821382D02*
X94893962Y-71825515D01*
X94921286Y-71832360D01*
X94947808Y-71841849D01*
X94973272Y-71853893D01*
X94997433Y-71868374D01*
X95020058Y-71885154D01*
X95040929Y-71904071D01*
X95059846Y-71924942D01*
X95076626Y-71947567D01*
X95091107Y-71971728D01*
X95103151Y-71997192D01*
X95112640Y-72023714D01*
X95119485Y-72051038D01*
X95123618Y-72078902D01*
X95125000Y-72107036D01*
X95125000Y-73132964D01*
X95123618Y-73161098D01*
X95119485Y-73188962D01*
X95112640Y-73216286D01*
X95103151Y-73242808D01*
X95091107Y-73268272D01*
X95076626Y-73292433D01*
X95059846Y-73315058D01*
X95040929Y-73335929D01*
X95020058Y-73354846D01*
X94997433Y-73371626D01*
X94973272Y-73386107D01*
X94947808Y-73398151D01*
X94921286Y-73407640D01*
X94893962Y-73414485D01*
X94866098Y-73418618D01*
X94837964Y-73420000D01*
X93862036Y-73420000D01*
X93833902Y-73418618D01*
X93806038Y-73414485D01*
X93778714Y-73407640D01*
X93752192Y-73398151D01*
X93726728Y-73386107D01*
X93702567Y-73371626D01*
X93679942Y-73354846D01*
X93659071Y-73335929D01*
X93640154Y-73315058D01*
X93623374Y-73292433D01*
X93608893Y-73268272D01*
X93596849Y-73242808D01*
X93587360Y-73216286D01*
X93580515Y-73188962D01*
X93576382Y-73161098D01*
X93575000Y-73132964D01*
X93575000Y-72107036D01*
X93576382Y-72078902D01*
X93580515Y-72051038D01*
X93587360Y-72023714D01*
X93596849Y-71997192D01*
X93608893Y-71971728D01*
X93623374Y-71947567D01*
X93640154Y-71924942D01*
X93659071Y-71904071D01*
X93679942Y-71885154D01*
X93702567Y-71868374D01*
X93726728Y-71853893D01*
X93752192Y-71841849D01*
X93778714Y-71832360D01*
X93806038Y-71825515D01*
X93833902Y-71821382D01*
X93862036Y-71820000D01*
X94837964Y-71820000D01*
X94866098Y-71821382D01*
X94866098Y-71821382D01*
G37*
D17*
X94350000Y-72620000D03*
D10*
G36*
X94866098Y-69121382D02*
X94893962Y-69125515D01*
X94921286Y-69132360D01*
X94947808Y-69141849D01*
X94973272Y-69153893D01*
X94997433Y-69168374D01*
X95020058Y-69185154D01*
X95040929Y-69204071D01*
X95059846Y-69224942D01*
X95076626Y-69247567D01*
X95091107Y-69271728D01*
X95103151Y-69297192D01*
X95112640Y-69323714D01*
X95119485Y-69351038D01*
X95123618Y-69378902D01*
X95125000Y-69407036D01*
X95125000Y-70432964D01*
X95123618Y-70461098D01*
X95119485Y-70488962D01*
X95112640Y-70516286D01*
X95103151Y-70542808D01*
X95091107Y-70568272D01*
X95076626Y-70592433D01*
X95059846Y-70615058D01*
X95040929Y-70635929D01*
X95020058Y-70654846D01*
X94997433Y-70671626D01*
X94973272Y-70686107D01*
X94947808Y-70698151D01*
X94921286Y-70707640D01*
X94893962Y-70714485D01*
X94866098Y-70718618D01*
X94837964Y-70720000D01*
X93862036Y-70720000D01*
X93833902Y-70718618D01*
X93806038Y-70714485D01*
X93778714Y-70707640D01*
X93752192Y-70698151D01*
X93726728Y-70686107D01*
X93702567Y-70671626D01*
X93679942Y-70654846D01*
X93659071Y-70635929D01*
X93640154Y-70615058D01*
X93623374Y-70592433D01*
X93608893Y-70568272D01*
X93596849Y-70542808D01*
X93587360Y-70516286D01*
X93580515Y-70488962D01*
X93576382Y-70461098D01*
X93575000Y-70432964D01*
X93575000Y-69407036D01*
X93576382Y-69378902D01*
X93580515Y-69351038D01*
X93587360Y-69323714D01*
X93596849Y-69297192D01*
X93608893Y-69271728D01*
X93623374Y-69247567D01*
X93640154Y-69224942D01*
X93659071Y-69204071D01*
X93679942Y-69185154D01*
X93702567Y-69168374D01*
X93726728Y-69153893D01*
X93752192Y-69141849D01*
X93778714Y-69132360D01*
X93806038Y-69125515D01*
X93833902Y-69121382D01*
X93862036Y-69120000D01*
X94837964Y-69120000D01*
X94866098Y-69121382D01*
X94866098Y-69121382D01*
G37*
D17*
X94350000Y-69920000D03*
G04 #@! TD*
D18*
G04 #@! TO.C,TP6*
X116830000Y-70660000D03*
G04 #@! TD*
D19*
G04 #@! TO.C,RV2*
X98350000Y-96880000D03*
D20*
X97100000Y-99780000D03*
D19*
X95850000Y-96880000D03*
G04 #@! TD*
D21*
G04 #@! TO.C,U5*
X108140000Y-96480000D03*
X108140000Y-97130000D03*
X108140000Y-97780000D03*
X108140000Y-98430000D03*
X108140000Y-99070000D03*
X108140000Y-99730000D03*
X108140000Y-100370000D03*
X108140000Y-101020000D03*
X108140000Y-101670000D03*
X108140000Y-102320000D03*
X114040000Y-102320000D03*
X114040000Y-101670000D03*
X114040000Y-101020000D03*
X114040000Y-100370000D03*
X114040000Y-99730000D03*
X114040000Y-99070000D03*
X114040000Y-98430000D03*
X114040000Y-97780000D03*
X114040000Y-97130000D03*
X114040000Y-96480000D03*
D22*
X111090000Y-99400000D03*
G04 #@! TD*
D10*
G04 #@! TO.C,C19*
G36*
X90632592Y-82813794D02*
X90658681Y-82817664D01*
X90684264Y-82824072D01*
X90709096Y-82832957D01*
X90732938Y-82844234D01*
X90755560Y-82857793D01*
X90776743Y-82873503D01*
X90796285Y-82891215D01*
X90813997Y-82910757D01*
X90829707Y-82931940D01*
X90843266Y-82954562D01*
X90854543Y-82978404D01*
X90863428Y-83003236D01*
X90869836Y-83028819D01*
X90873706Y-83054908D01*
X90875000Y-83081250D01*
X90875000Y-83618750D01*
X90873706Y-83645092D01*
X90869836Y-83671181D01*
X90863428Y-83696764D01*
X90854543Y-83721596D01*
X90843266Y-83745438D01*
X90829707Y-83768060D01*
X90813997Y-83789243D01*
X90796285Y-83808785D01*
X90776743Y-83826497D01*
X90755560Y-83842207D01*
X90732938Y-83855766D01*
X90709096Y-83867043D01*
X90684264Y-83875928D01*
X90658681Y-83882336D01*
X90632592Y-83886206D01*
X90606250Y-83887500D01*
X89993750Y-83887500D01*
X89967408Y-83886206D01*
X89941319Y-83882336D01*
X89915736Y-83875928D01*
X89890904Y-83867043D01*
X89867062Y-83855766D01*
X89844440Y-83842207D01*
X89823257Y-83826497D01*
X89803715Y-83808785D01*
X89786003Y-83789243D01*
X89770293Y-83768060D01*
X89756734Y-83745438D01*
X89745457Y-83721596D01*
X89736572Y-83696764D01*
X89730164Y-83671181D01*
X89726294Y-83645092D01*
X89725000Y-83618750D01*
X89725000Y-83081250D01*
X89726294Y-83054908D01*
X89730164Y-83028819D01*
X89736572Y-83003236D01*
X89745457Y-82978404D01*
X89756734Y-82954562D01*
X89770293Y-82931940D01*
X89786003Y-82910757D01*
X89803715Y-82891215D01*
X89823257Y-82873503D01*
X89844440Y-82857793D01*
X89867062Y-82844234D01*
X89890904Y-82832957D01*
X89915736Y-82824072D01*
X89941319Y-82817664D01*
X89967408Y-82813794D01*
X89993750Y-82812500D01*
X90606250Y-82812500D01*
X90632592Y-82813794D01*
X90632592Y-82813794D01*
G37*
D11*
X90300000Y-83350000D03*
D10*
G36*
X90632592Y-84388794D02*
X90658681Y-84392664D01*
X90684264Y-84399072D01*
X90709096Y-84407957D01*
X90732938Y-84419234D01*
X90755560Y-84432793D01*
X90776743Y-84448503D01*
X90796285Y-84466215D01*
X90813997Y-84485757D01*
X90829707Y-84506940D01*
X90843266Y-84529562D01*
X90854543Y-84553404D01*
X90863428Y-84578236D01*
X90869836Y-84603819D01*
X90873706Y-84629908D01*
X90875000Y-84656250D01*
X90875000Y-85193750D01*
X90873706Y-85220092D01*
X90869836Y-85246181D01*
X90863428Y-85271764D01*
X90854543Y-85296596D01*
X90843266Y-85320438D01*
X90829707Y-85343060D01*
X90813997Y-85364243D01*
X90796285Y-85383785D01*
X90776743Y-85401497D01*
X90755560Y-85417207D01*
X90732938Y-85430766D01*
X90709096Y-85442043D01*
X90684264Y-85450928D01*
X90658681Y-85457336D01*
X90632592Y-85461206D01*
X90606250Y-85462500D01*
X89993750Y-85462500D01*
X89967408Y-85461206D01*
X89941319Y-85457336D01*
X89915736Y-85450928D01*
X89890904Y-85442043D01*
X89867062Y-85430766D01*
X89844440Y-85417207D01*
X89823257Y-85401497D01*
X89803715Y-85383785D01*
X89786003Y-85364243D01*
X89770293Y-85343060D01*
X89756734Y-85320438D01*
X89745457Y-85296596D01*
X89736572Y-85271764D01*
X89730164Y-85246181D01*
X89726294Y-85220092D01*
X89725000Y-85193750D01*
X89725000Y-84656250D01*
X89726294Y-84629908D01*
X89730164Y-84603819D01*
X89736572Y-84578236D01*
X89745457Y-84553404D01*
X89756734Y-84529562D01*
X89770293Y-84506940D01*
X89786003Y-84485757D01*
X89803715Y-84466215D01*
X89823257Y-84448503D01*
X89844440Y-84432793D01*
X89867062Y-84419234D01*
X89890904Y-84407957D01*
X89915736Y-84399072D01*
X89941319Y-84392664D01*
X89967408Y-84388794D01*
X89993750Y-84387500D01*
X90606250Y-84387500D01*
X90632592Y-84388794D01*
X90632592Y-84388794D01*
G37*
D11*
X90300000Y-84925000D03*
G04 #@! TD*
D12*
G04 #@! TO.C,J4*
X103160000Y-71270000D03*
D13*
X103160000Y-73810000D03*
X103160000Y-76350000D03*
G04 #@! TD*
D23*
G04 #@! TO.C,X1*
X93285001Y-87530000D03*
X98585001Y-87530000D03*
X98585001Y-83330000D03*
X93285001Y-83330000D03*
G04 #@! TD*
D19*
G04 #@! TO.C,RV1*
X120970000Y-80070000D03*
D20*
X119720000Y-82970000D03*
D19*
X118470000Y-80070000D03*
G04 #@! TD*
D24*
G04 #@! TO.C,J3*
X114110000Y-113040000D03*
X111110000Y-113040000D03*
X108110000Y-113040000D03*
G04 #@! TD*
D12*
G04 #@! TO.C,J2*
X115830000Y-107470000D03*
D13*
X115830000Y-104930000D03*
G04 #@! TD*
D10*
G04 #@! TO.C,C10*
G36*
X97022592Y-72118794D02*
X97048681Y-72122664D01*
X97074264Y-72129072D01*
X97099096Y-72137957D01*
X97122938Y-72149234D01*
X97145560Y-72162793D01*
X97166743Y-72178503D01*
X97186285Y-72196215D01*
X97203997Y-72215757D01*
X97219707Y-72236940D01*
X97233266Y-72259562D01*
X97244543Y-72283404D01*
X97253428Y-72308236D01*
X97259836Y-72333819D01*
X97263706Y-72359908D01*
X97265000Y-72386250D01*
X97265000Y-72923750D01*
X97263706Y-72950092D01*
X97259836Y-72976181D01*
X97253428Y-73001764D01*
X97244543Y-73026596D01*
X97233266Y-73050438D01*
X97219707Y-73073060D01*
X97203997Y-73094243D01*
X97186285Y-73113785D01*
X97166743Y-73131497D01*
X97145560Y-73147207D01*
X97122938Y-73160766D01*
X97099096Y-73172043D01*
X97074264Y-73180928D01*
X97048681Y-73187336D01*
X97022592Y-73191206D01*
X96996250Y-73192500D01*
X96383750Y-73192500D01*
X96357408Y-73191206D01*
X96331319Y-73187336D01*
X96305736Y-73180928D01*
X96280904Y-73172043D01*
X96257062Y-73160766D01*
X96234440Y-73147207D01*
X96213257Y-73131497D01*
X96193715Y-73113785D01*
X96176003Y-73094243D01*
X96160293Y-73073060D01*
X96146734Y-73050438D01*
X96135457Y-73026596D01*
X96126572Y-73001764D01*
X96120164Y-72976181D01*
X96116294Y-72950092D01*
X96115000Y-72923750D01*
X96115000Y-72386250D01*
X96116294Y-72359908D01*
X96120164Y-72333819D01*
X96126572Y-72308236D01*
X96135457Y-72283404D01*
X96146734Y-72259562D01*
X96160293Y-72236940D01*
X96176003Y-72215757D01*
X96193715Y-72196215D01*
X96213257Y-72178503D01*
X96234440Y-72162793D01*
X96257062Y-72149234D01*
X96280904Y-72137957D01*
X96305736Y-72129072D01*
X96331319Y-72122664D01*
X96357408Y-72118794D01*
X96383750Y-72117500D01*
X96996250Y-72117500D01*
X97022592Y-72118794D01*
X97022592Y-72118794D01*
G37*
D11*
X96690000Y-72655000D03*
D10*
G36*
X97022592Y-70543794D02*
X97048681Y-70547664D01*
X97074264Y-70554072D01*
X97099096Y-70562957D01*
X97122938Y-70574234D01*
X97145560Y-70587793D01*
X97166743Y-70603503D01*
X97186285Y-70621215D01*
X97203997Y-70640757D01*
X97219707Y-70661940D01*
X97233266Y-70684562D01*
X97244543Y-70708404D01*
X97253428Y-70733236D01*
X97259836Y-70758819D01*
X97263706Y-70784908D01*
X97265000Y-70811250D01*
X97265000Y-71348750D01*
X97263706Y-71375092D01*
X97259836Y-71401181D01*
X97253428Y-71426764D01*
X97244543Y-71451596D01*
X97233266Y-71475438D01*
X97219707Y-71498060D01*
X97203997Y-71519243D01*
X97186285Y-71538785D01*
X97166743Y-71556497D01*
X97145560Y-71572207D01*
X97122938Y-71585766D01*
X97099096Y-71597043D01*
X97074264Y-71605928D01*
X97048681Y-71612336D01*
X97022592Y-71616206D01*
X96996250Y-71617500D01*
X96383750Y-71617500D01*
X96357408Y-71616206D01*
X96331319Y-71612336D01*
X96305736Y-71605928D01*
X96280904Y-71597043D01*
X96257062Y-71585766D01*
X96234440Y-71572207D01*
X96213257Y-71556497D01*
X96193715Y-71538785D01*
X96176003Y-71519243D01*
X96160293Y-71498060D01*
X96146734Y-71475438D01*
X96135457Y-71451596D01*
X96126572Y-71426764D01*
X96120164Y-71401181D01*
X96116294Y-71375092D01*
X96115000Y-71348750D01*
X96115000Y-70811250D01*
X96116294Y-70784908D01*
X96120164Y-70758819D01*
X96126572Y-70733236D01*
X96135457Y-70708404D01*
X96146734Y-70684562D01*
X96160293Y-70661940D01*
X96176003Y-70640757D01*
X96193715Y-70621215D01*
X96213257Y-70603503D01*
X96234440Y-70587793D01*
X96257062Y-70574234D01*
X96280904Y-70562957D01*
X96305736Y-70554072D01*
X96331319Y-70547664D01*
X96357408Y-70543794D01*
X96383750Y-70542500D01*
X96996250Y-70542500D01*
X97022592Y-70543794D01*
X97022592Y-70543794D01*
G37*
D11*
X96690000Y-71080000D03*
G04 #@! TD*
D10*
G04 #@! TO.C,C4*
G36*
X122312592Y-95953794D02*
X122338681Y-95957664D01*
X122364264Y-95964072D01*
X122389096Y-95972957D01*
X122412938Y-95984234D01*
X122435560Y-95997793D01*
X122456743Y-96013503D01*
X122476285Y-96031215D01*
X122493997Y-96050757D01*
X122509707Y-96071940D01*
X122523266Y-96094562D01*
X122534543Y-96118404D01*
X122543428Y-96143236D01*
X122549836Y-96168819D01*
X122553706Y-96194908D01*
X122555000Y-96221250D01*
X122555000Y-96758750D01*
X122553706Y-96785092D01*
X122549836Y-96811181D01*
X122543428Y-96836764D01*
X122534543Y-96861596D01*
X122523266Y-96885438D01*
X122509707Y-96908060D01*
X122493997Y-96929243D01*
X122476285Y-96948785D01*
X122456743Y-96966497D01*
X122435560Y-96982207D01*
X122412938Y-96995766D01*
X122389096Y-97007043D01*
X122364264Y-97015928D01*
X122338681Y-97022336D01*
X122312592Y-97026206D01*
X122286250Y-97027500D01*
X121673750Y-97027500D01*
X121647408Y-97026206D01*
X121621319Y-97022336D01*
X121595736Y-97015928D01*
X121570904Y-97007043D01*
X121547062Y-96995766D01*
X121524440Y-96982207D01*
X121503257Y-96966497D01*
X121483715Y-96948785D01*
X121466003Y-96929243D01*
X121450293Y-96908060D01*
X121436734Y-96885438D01*
X121425457Y-96861596D01*
X121416572Y-96836764D01*
X121410164Y-96811181D01*
X121406294Y-96785092D01*
X121405000Y-96758750D01*
X121405000Y-96221250D01*
X121406294Y-96194908D01*
X121410164Y-96168819D01*
X121416572Y-96143236D01*
X121425457Y-96118404D01*
X121436734Y-96094562D01*
X121450293Y-96071940D01*
X121466003Y-96050757D01*
X121483715Y-96031215D01*
X121503257Y-96013503D01*
X121524440Y-95997793D01*
X121547062Y-95984234D01*
X121570904Y-95972957D01*
X121595736Y-95964072D01*
X121621319Y-95957664D01*
X121647408Y-95953794D01*
X121673750Y-95952500D01*
X122286250Y-95952500D01*
X122312592Y-95953794D01*
X122312592Y-95953794D01*
G37*
D11*
X121980000Y-96490000D03*
D10*
G36*
X122312592Y-97528794D02*
X122338681Y-97532664D01*
X122364264Y-97539072D01*
X122389096Y-97547957D01*
X122412938Y-97559234D01*
X122435560Y-97572793D01*
X122456743Y-97588503D01*
X122476285Y-97606215D01*
X122493997Y-97625757D01*
X122509707Y-97646940D01*
X122523266Y-97669562D01*
X122534543Y-97693404D01*
X122543428Y-97718236D01*
X122549836Y-97743819D01*
X122553706Y-97769908D01*
X122555000Y-97796250D01*
X122555000Y-98333750D01*
X122553706Y-98360092D01*
X122549836Y-98386181D01*
X122543428Y-98411764D01*
X122534543Y-98436596D01*
X122523266Y-98460438D01*
X122509707Y-98483060D01*
X122493997Y-98504243D01*
X122476285Y-98523785D01*
X122456743Y-98541497D01*
X122435560Y-98557207D01*
X122412938Y-98570766D01*
X122389096Y-98582043D01*
X122364264Y-98590928D01*
X122338681Y-98597336D01*
X122312592Y-98601206D01*
X122286250Y-98602500D01*
X121673750Y-98602500D01*
X121647408Y-98601206D01*
X121621319Y-98597336D01*
X121595736Y-98590928D01*
X121570904Y-98582043D01*
X121547062Y-98570766D01*
X121524440Y-98557207D01*
X121503257Y-98541497D01*
X121483715Y-98523785D01*
X121466003Y-98504243D01*
X121450293Y-98483060D01*
X121436734Y-98460438D01*
X121425457Y-98436596D01*
X121416572Y-98411764D01*
X121410164Y-98386181D01*
X121406294Y-98360092D01*
X121405000Y-98333750D01*
X121405000Y-97796250D01*
X121406294Y-97769908D01*
X121410164Y-97743819D01*
X121416572Y-97718236D01*
X121425457Y-97693404D01*
X121436734Y-97669562D01*
X121450293Y-97646940D01*
X121466003Y-97625757D01*
X121483715Y-97606215D01*
X121503257Y-97588503D01*
X121524440Y-97572793D01*
X121547062Y-97559234D01*
X121570904Y-97547957D01*
X121595736Y-97539072D01*
X121621319Y-97532664D01*
X121647408Y-97528794D01*
X121673750Y-97527500D01*
X122286250Y-97527500D01*
X122312592Y-97528794D01*
X122312592Y-97528794D01*
G37*
D11*
X121980000Y-98065000D03*
G04 #@! TD*
D10*
G04 #@! TO.C,C5*
G36*
X122312592Y-100758794D02*
X122338681Y-100762664D01*
X122364264Y-100769072D01*
X122389096Y-100777957D01*
X122412938Y-100789234D01*
X122435560Y-100802793D01*
X122456743Y-100818503D01*
X122476285Y-100836215D01*
X122493997Y-100855757D01*
X122509707Y-100876940D01*
X122523266Y-100899562D01*
X122534543Y-100923404D01*
X122543428Y-100948236D01*
X122549836Y-100973819D01*
X122553706Y-100999908D01*
X122555000Y-101026250D01*
X122555000Y-101563750D01*
X122553706Y-101590092D01*
X122549836Y-101616181D01*
X122543428Y-101641764D01*
X122534543Y-101666596D01*
X122523266Y-101690438D01*
X122509707Y-101713060D01*
X122493997Y-101734243D01*
X122476285Y-101753785D01*
X122456743Y-101771497D01*
X122435560Y-101787207D01*
X122412938Y-101800766D01*
X122389096Y-101812043D01*
X122364264Y-101820928D01*
X122338681Y-101827336D01*
X122312592Y-101831206D01*
X122286250Y-101832500D01*
X121673750Y-101832500D01*
X121647408Y-101831206D01*
X121621319Y-101827336D01*
X121595736Y-101820928D01*
X121570904Y-101812043D01*
X121547062Y-101800766D01*
X121524440Y-101787207D01*
X121503257Y-101771497D01*
X121483715Y-101753785D01*
X121466003Y-101734243D01*
X121450293Y-101713060D01*
X121436734Y-101690438D01*
X121425457Y-101666596D01*
X121416572Y-101641764D01*
X121410164Y-101616181D01*
X121406294Y-101590092D01*
X121405000Y-101563750D01*
X121405000Y-101026250D01*
X121406294Y-100999908D01*
X121410164Y-100973819D01*
X121416572Y-100948236D01*
X121425457Y-100923404D01*
X121436734Y-100899562D01*
X121450293Y-100876940D01*
X121466003Y-100855757D01*
X121483715Y-100836215D01*
X121503257Y-100818503D01*
X121524440Y-100802793D01*
X121547062Y-100789234D01*
X121570904Y-100777957D01*
X121595736Y-100769072D01*
X121621319Y-100762664D01*
X121647408Y-100758794D01*
X121673750Y-100757500D01*
X122286250Y-100757500D01*
X122312592Y-100758794D01*
X122312592Y-100758794D01*
G37*
D11*
X121980000Y-101295000D03*
D10*
G36*
X122312592Y-99183794D02*
X122338681Y-99187664D01*
X122364264Y-99194072D01*
X122389096Y-99202957D01*
X122412938Y-99214234D01*
X122435560Y-99227793D01*
X122456743Y-99243503D01*
X122476285Y-99261215D01*
X122493997Y-99280757D01*
X122509707Y-99301940D01*
X122523266Y-99324562D01*
X122534543Y-99348404D01*
X122543428Y-99373236D01*
X122549836Y-99398819D01*
X122553706Y-99424908D01*
X122555000Y-99451250D01*
X122555000Y-99988750D01*
X122553706Y-100015092D01*
X122549836Y-100041181D01*
X122543428Y-100066764D01*
X122534543Y-100091596D01*
X122523266Y-100115438D01*
X122509707Y-100138060D01*
X122493997Y-100159243D01*
X122476285Y-100178785D01*
X122456743Y-100196497D01*
X122435560Y-100212207D01*
X122412938Y-100225766D01*
X122389096Y-100237043D01*
X122364264Y-100245928D01*
X122338681Y-100252336D01*
X122312592Y-100256206D01*
X122286250Y-100257500D01*
X121673750Y-100257500D01*
X121647408Y-100256206D01*
X121621319Y-100252336D01*
X121595736Y-100245928D01*
X121570904Y-100237043D01*
X121547062Y-100225766D01*
X121524440Y-100212207D01*
X121503257Y-100196497D01*
X121483715Y-100178785D01*
X121466003Y-100159243D01*
X121450293Y-100138060D01*
X121436734Y-100115438D01*
X121425457Y-100091596D01*
X121416572Y-100066764D01*
X121410164Y-100041181D01*
X121406294Y-100015092D01*
X121405000Y-99988750D01*
X121405000Y-99451250D01*
X121406294Y-99424908D01*
X121410164Y-99398819D01*
X121416572Y-99373236D01*
X121425457Y-99348404D01*
X121436734Y-99324562D01*
X121450293Y-99301940D01*
X121466003Y-99280757D01*
X121483715Y-99261215D01*
X121503257Y-99243503D01*
X121524440Y-99227793D01*
X121547062Y-99214234D01*
X121570904Y-99202957D01*
X121595736Y-99194072D01*
X121621319Y-99187664D01*
X121647408Y-99183794D01*
X121673750Y-99182500D01*
X122286250Y-99182500D01*
X122312592Y-99183794D01*
X122312592Y-99183794D01*
G37*
D11*
X121980000Y-99720000D03*
G04 #@! TD*
D10*
G04 #@! TO.C,C7*
G36*
X119052592Y-86893794D02*
X119078681Y-86897664D01*
X119104264Y-86904072D01*
X119129096Y-86912957D01*
X119152938Y-86924234D01*
X119175560Y-86937793D01*
X119196743Y-86953503D01*
X119216285Y-86971215D01*
X119233997Y-86990757D01*
X119249707Y-87011940D01*
X119263266Y-87034562D01*
X119274543Y-87058404D01*
X119283428Y-87083236D01*
X119289836Y-87108819D01*
X119293706Y-87134908D01*
X119295000Y-87161250D01*
X119295000Y-87698750D01*
X119293706Y-87725092D01*
X119289836Y-87751181D01*
X119283428Y-87776764D01*
X119274543Y-87801596D01*
X119263266Y-87825438D01*
X119249707Y-87848060D01*
X119233997Y-87869243D01*
X119216285Y-87888785D01*
X119196743Y-87906497D01*
X119175560Y-87922207D01*
X119152938Y-87935766D01*
X119129096Y-87947043D01*
X119104264Y-87955928D01*
X119078681Y-87962336D01*
X119052592Y-87966206D01*
X119026250Y-87967500D01*
X118413750Y-87967500D01*
X118387408Y-87966206D01*
X118361319Y-87962336D01*
X118335736Y-87955928D01*
X118310904Y-87947043D01*
X118287062Y-87935766D01*
X118264440Y-87922207D01*
X118243257Y-87906497D01*
X118223715Y-87888785D01*
X118206003Y-87869243D01*
X118190293Y-87848060D01*
X118176734Y-87825438D01*
X118165457Y-87801596D01*
X118156572Y-87776764D01*
X118150164Y-87751181D01*
X118146294Y-87725092D01*
X118145000Y-87698750D01*
X118145000Y-87161250D01*
X118146294Y-87134908D01*
X118150164Y-87108819D01*
X118156572Y-87083236D01*
X118165457Y-87058404D01*
X118176734Y-87034562D01*
X118190293Y-87011940D01*
X118206003Y-86990757D01*
X118223715Y-86971215D01*
X118243257Y-86953503D01*
X118264440Y-86937793D01*
X118287062Y-86924234D01*
X118310904Y-86912957D01*
X118335736Y-86904072D01*
X118361319Y-86897664D01*
X118387408Y-86893794D01*
X118413750Y-86892500D01*
X119026250Y-86892500D01*
X119052592Y-86893794D01*
X119052592Y-86893794D01*
G37*
D11*
X118720000Y-87430000D03*
D10*
G36*
X119052592Y-85318794D02*
X119078681Y-85322664D01*
X119104264Y-85329072D01*
X119129096Y-85337957D01*
X119152938Y-85349234D01*
X119175560Y-85362793D01*
X119196743Y-85378503D01*
X119216285Y-85396215D01*
X119233997Y-85415757D01*
X119249707Y-85436940D01*
X119263266Y-85459562D01*
X119274543Y-85483404D01*
X119283428Y-85508236D01*
X119289836Y-85533819D01*
X119293706Y-85559908D01*
X119295000Y-85586250D01*
X119295000Y-86123750D01*
X119293706Y-86150092D01*
X119289836Y-86176181D01*
X119283428Y-86201764D01*
X119274543Y-86226596D01*
X119263266Y-86250438D01*
X119249707Y-86273060D01*
X119233997Y-86294243D01*
X119216285Y-86313785D01*
X119196743Y-86331497D01*
X119175560Y-86347207D01*
X119152938Y-86360766D01*
X119129096Y-86372043D01*
X119104264Y-86380928D01*
X119078681Y-86387336D01*
X119052592Y-86391206D01*
X119026250Y-86392500D01*
X118413750Y-86392500D01*
X118387408Y-86391206D01*
X118361319Y-86387336D01*
X118335736Y-86380928D01*
X118310904Y-86372043D01*
X118287062Y-86360766D01*
X118264440Y-86347207D01*
X118243257Y-86331497D01*
X118223715Y-86313785D01*
X118206003Y-86294243D01*
X118190293Y-86273060D01*
X118176734Y-86250438D01*
X118165457Y-86226596D01*
X118156572Y-86201764D01*
X118150164Y-86176181D01*
X118146294Y-86150092D01*
X118145000Y-86123750D01*
X118145000Y-85586250D01*
X118146294Y-85559908D01*
X118150164Y-85533819D01*
X118156572Y-85508236D01*
X118165457Y-85483404D01*
X118176734Y-85459562D01*
X118190293Y-85436940D01*
X118206003Y-85415757D01*
X118223715Y-85396215D01*
X118243257Y-85378503D01*
X118264440Y-85362793D01*
X118287062Y-85349234D01*
X118310904Y-85337957D01*
X118335736Y-85329072D01*
X118361319Y-85322664D01*
X118387408Y-85318794D01*
X118413750Y-85317500D01*
X119026250Y-85317500D01*
X119052592Y-85318794D01*
X119052592Y-85318794D01*
G37*
D11*
X118720000Y-85855000D03*
G04 #@! TD*
D10*
G04 #@! TO.C,C8*
G36*
X112612592Y-84271294D02*
X112638681Y-84275164D01*
X112664264Y-84281572D01*
X112689096Y-84290457D01*
X112712938Y-84301734D01*
X112735560Y-84315293D01*
X112756743Y-84331003D01*
X112776285Y-84348715D01*
X112793997Y-84368257D01*
X112809707Y-84389440D01*
X112823266Y-84412062D01*
X112834543Y-84435904D01*
X112843428Y-84460736D01*
X112849836Y-84486319D01*
X112853706Y-84512408D01*
X112855000Y-84538750D01*
X112855000Y-85076250D01*
X112853706Y-85102592D01*
X112849836Y-85128681D01*
X112843428Y-85154264D01*
X112834543Y-85179096D01*
X112823266Y-85202938D01*
X112809707Y-85225560D01*
X112793997Y-85246743D01*
X112776285Y-85266285D01*
X112756743Y-85283997D01*
X112735560Y-85299707D01*
X112712938Y-85313266D01*
X112689096Y-85324543D01*
X112664264Y-85333428D01*
X112638681Y-85339836D01*
X112612592Y-85343706D01*
X112586250Y-85345000D01*
X111973750Y-85345000D01*
X111947408Y-85343706D01*
X111921319Y-85339836D01*
X111895736Y-85333428D01*
X111870904Y-85324543D01*
X111847062Y-85313266D01*
X111824440Y-85299707D01*
X111803257Y-85283997D01*
X111783715Y-85266285D01*
X111766003Y-85246743D01*
X111750293Y-85225560D01*
X111736734Y-85202938D01*
X111725457Y-85179096D01*
X111716572Y-85154264D01*
X111710164Y-85128681D01*
X111706294Y-85102592D01*
X111705000Y-85076250D01*
X111705000Y-84538750D01*
X111706294Y-84512408D01*
X111710164Y-84486319D01*
X111716572Y-84460736D01*
X111725457Y-84435904D01*
X111736734Y-84412062D01*
X111750293Y-84389440D01*
X111766003Y-84368257D01*
X111783715Y-84348715D01*
X111803257Y-84331003D01*
X111824440Y-84315293D01*
X111847062Y-84301734D01*
X111870904Y-84290457D01*
X111895736Y-84281572D01*
X111921319Y-84275164D01*
X111947408Y-84271294D01*
X111973750Y-84270000D01*
X112586250Y-84270000D01*
X112612592Y-84271294D01*
X112612592Y-84271294D01*
G37*
D11*
X112280000Y-84807500D03*
D10*
G36*
X112612592Y-82696294D02*
X112638681Y-82700164D01*
X112664264Y-82706572D01*
X112689096Y-82715457D01*
X112712938Y-82726734D01*
X112735560Y-82740293D01*
X112756743Y-82756003D01*
X112776285Y-82773715D01*
X112793997Y-82793257D01*
X112809707Y-82814440D01*
X112823266Y-82837062D01*
X112834543Y-82860904D01*
X112843428Y-82885736D01*
X112849836Y-82911319D01*
X112853706Y-82937408D01*
X112855000Y-82963750D01*
X112855000Y-83501250D01*
X112853706Y-83527592D01*
X112849836Y-83553681D01*
X112843428Y-83579264D01*
X112834543Y-83604096D01*
X112823266Y-83627938D01*
X112809707Y-83650560D01*
X112793997Y-83671743D01*
X112776285Y-83691285D01*
X112756743Y-83708997D01*
X112735560Y-83724707D01*
X112712938Y-83738266D01*
X112689096Y-83749543D01*
X112664264Y-83758428D01*
X112638681Y-83764836D01*
X112612592Y-83768706D01*
X112586250Y-83770000D01*
X111973750Y-83770000D01*
X111947408Y-83768706D01*
X111921319Y-83764836D01*
X111895736Y-83758428D01*
X111870904Y-83749543D01*
X111847062Y-83738266D01*
X111824440Y-83724707D01*
X111803257Y-83708997D01*
X111783715Y-83691285D01*
X111766003Y-83671743D01*
X111750293Y-83650560D01*
X111736734Y-83627938D01*
X111725457Y-83604096D01*
X111716572Y-83579264D01*
X111710164Y-83553681D01*
X111706294Y-83527592D01*
X111705000Y-83501250D01*
X111705000Y-82963750D01*
X111706294Y-82937408D01*
X111710164Y-82911319D01*
X111716572Y-82885736D01*
X111725457Y-82860904D01*
X111736734Y-82837062D01*
X111750293Y-82814440D01*
X111766003Y-82793257D01*
X111783715Y-82773715D01*
X111803257Y-82756003D01*
X111824440Y-82740293D01*
X111847062Y-82726734D01*
X111870904Y-82715457D01*
X111895736Y-82706572D01*
X111921319Y-82700164D01*
X111947408Y-82696294D01*
X111973750Y-82695000D01*
X112586250Y-82695000D01*
X112612592Y-82696294D01*
X112612592Y-82696294D01*
G37*
D11*
X112280000Y-83232500D03*
G04 #@! TD*
D10*
G04 #@! TO.C,C9*
G36*
X105682592Y-96073794D02*
X105708681Y-96077664D01*
X105734264Y-96084072D01*
X105759096Y-96092957D01*
X105782938Y-96104234D01*
X105805560Y-96117793D01*
X105826743Y-96133503D01*
X105846285Y-96151215D01*
X105863997Y-96170757D01*
X105879707Y-96191940D01*
X105893266Y-96214562D01*
X105904543Y-96238404D01*
X105913428Y-96263236D01*
X105919836Y-96288819D01*
X105923706Y-96314908D01*
X105925000Y-96341250D01*
X105925000Y-96878750D01*
X105923706Y-96905092D01*
X105919836Y-96931181D01*
X105913428Y-96956764D01*
X105904543Y-96981596D01*
X105893266Y-97005438D01*
X105879707Y-97028060D01*
X105863997Y-97049243D01*
X105846285Y-97068785D01*
X105826743Y-97086497D01*
X105805560Y-97102207D01*
X105782938Y-97115766D01*
X105759096Y-97127043D01*
X105734264Y-97135928D01*
X105708681Y-97142336D01*
X105682592Y-97146206D01*
X105656250Y-97147500D01*
X105043750Y-97147500D01*
X105017408Y-97146206D01*
X104991319Y-97142336D01*
X104965736Y-97135928D01*
X104940904Y-97127043D01*
X104917062Y-97115766D01*
X104894440Y-97102207D01*
X104873257Y-97086497D01*
X104853715Y-97068785D01*
X104836003Y-97049243D01*
X104820293Y-97028060D01*
X104806734Y-97005438D01*
X104795457Y-96981596D01*
X104786572Y-96956764D01*
X104780164Y-96931181D01*
X104776294Y-96905092D01*
X104775000Y-96878750D01*
X104775000Y-96341250D01*
X104776294Y-96314908D01*
X104780164Y-96288819D01*
X104786572Y-96263236D01*
X104795457Y-96238404D01*
X104806734Y-96214562D01*
X104820293Y-96191940D01*
X104836003Y-96170757D01*
X104853715Y-96151215D01*
X104873257Y-96133503D01*
X104894440Y-96117793D01*
X104917062Y-96104234D01*
X104940904Y-96092957D01*
X104965736Y-96084072D01*
X104991319Y-96077664D01*
X105017408Y-96073794D01*
X105043750Y-96072500D01*
X105656250Y-96072500D01*
X105682592Y-96073794D01*
X105682592Y-96073794D01*
G37*
D11*
X105350000Y-96610000D03*
D10*
G36*
X105682592Y-97648794D02*
X105708681Y-97652664D01*
X105734264Y-97659072D01*
X105759096Y-97667957D01*
X105782938Y-97679234D01*
X105805560Y-97692793D01*
X105826743Y-97708503D01*
X105846285Y-97726215D01*
X105863997Y-97745757D01*
X105879707Y-97766940D01*
X105893266Y-97789562D01*
X105904543Y-97813404D01*
X105913428Y-97838236D01*
X105919836Y-97863819D01*
X105923706Y-97889908D01*
X105925000Y-97916250D01*
X105925000Y-98453750D01*
X105923706Y-98480092D01*
X105919836Y-98506181D01*
X105913428Y-98531764D01*
X105904543Y-98556596D01*
X105893266Y-98580438D01*
X105879707Y-98603060D01*
X105863997Y-98624243D01*
X105846285Y-98643785D01*
X105826743Y-98661497D01*
X105805560Y-98677207D01*
X105782938Y-98690766D01*
X105759096Y-98702043D01*
X105734264Y-98710928D01*
X105708681Y-98717336D01*
X105682592Y-98721206D01*
X105656250Y-98722500D01*
X105043750Y-98722500D01*
X105017408Y-98721206D01*
X104991319Y-98717336D01*
X104965736Y-98710928D01*
X104940904Y-98702043D01*
X104917062Y-98690766D01*
X104894440Y-98677207D01*
X104873257Y-98661497D01*
X104853715Y-98643785D01*
X104836003Y-98624243D01*
X104820293Y-98603060D01*
X104806734Y-98580438D01*
X104795457Y-98556596D01*
X104786572Y-98531764D01*
X104780164Y-98506181D01*
X104776294Y-98480092D01*
X104775000Y-98453750D01*
X104775000Y-97916250D01*
X104776294Y-97889908D01*
X104780164Y-97863819D01*
X104786572Y-97838236D01*
X104795457Y-97813404D01*
X104806734Y-97789562D01*
X104820293Y-97766940D01*
X104836003Y-97745757D01*
X104853715Y-97726215D01*
X104873257Y-97708503D01*
X104894440Y-97692793D01*
X104917062Y-97679234D01*
X104940904Y-97667957D01*
X104965736Y-97659072D01*
X104991319Y-97652664D01*
X105017408Y-97648794D01*
X105043750Y-97647500D01*
X105656250Y-97647500D01*
X105682592Y-97648794D01*
X105682592Y-97648794D01*
G37*
D11*
X105350000Y-98185000D03*
G04 #@! TD*
D10*
G04 #@! TO.C,C11*
G36*
X92022592Y-70578794D02*
X92048681Y-70582664D01*
X92074264Y-70589072D01*
X92099096Y-70597957D01*
X92122938Y-70609234D01*
X92145560Y-70622793D01*
X92166743Y-70638503D01*
X92186285Y-70656215D01*
X92203997Y-70675757D01*
X92219707Y-70696940D01*
X92233266Y-70719562D01*
X92244543Y-70743404D01*
X92253428Y-70768236D01*
X92259836Y-70793819D01*
X92263706Y-70819908D01*
X92265000Y-70846250D01*
X92265000Y-71383750D01*
X92263706Y-71410092D01*
X92259836Y-71436181D01*
X92253428Y-71461764D01*
X92244543Y-71486596D01*
X92233266Y-71510438D01*
X92219707Y-71533060D01*
X92203997Y-71554243D01*
X92186285Y-71573785D01*
X92166743Y-71591497D01*
X92145560Y-71607207D01*
X92122938Y-71620766D01*
X92099096Y-71632043D01*
X92074264Y-71640928D01*
X92048681Y-71647336D01*
X92022592Y-71651206D01*
X91996250Y-71652500D01*
X91383750Y-71652500D01*
X91357408Y-71651206D01*
X91331319Y-71647336D01*
X91305736Y-71640928D01*
X91280904Y-71632043D01*
X91257062Y-71620766D01*
X91234440Y-71607207D01*
X91213257Y-71591497D01*
X91193715Y-71573785D01*
X91176003Y-71554243D01*
X91160293Y-71533060D01*
X91146734Y-71510438D01*
X91135457Y-71486596D01*
X91126572Y-71461764D01*
X91120164Y-71436181D01*
X91116294Y-71410092D01*
X91115000Y-71383750D01*
X91115000Y-70846250D01*
X91116294Y-70819908D01*
X91120164Y-70793819D01*
X91126572Y-70768236D01*
X91135457Y-70743404D01*
X91146734Y-70719562D01*
X91160293Y-70696940D01*
X91176003Y-70675757D01*
X91193715Y-70656215D01*
X91213257Y-70638503D01*
X91234440Y-70622793D01*
X91257062Y-70609234D01*
X91280904Y-70597957D01*
X91305736Y-70589072D01*
X91331319Y-70582664D01*
X91357408Y-70578794D01*
X91383750Y-70577500D01*
X91996250Y-70577500D01*
X92022592Y-70578794D01*
X92022592Y-70578794D01*
G37*
D11*
X91690000Y-71115000D03*
D10*
G36*
X92022592Y-72153794D02*
X92048681Y-72157664D01*
X92074264Y-72164072D01*
X92099096Y-72172957D01*
X92122938Y-72184234D01*
X92145560Y-72197793D01*
X92166743Y-72213503D01*
X92186285Y-72231215D01*
X92203997Y-72250757D01*
X92219707Y-72271940D01*
X92233266Y-72294562D01*
X92244543Y-72318404D01*
X92253428Y-72343236D01*
X92259836Y-72368819D01*
X92263706Y-72394908D01*
X92265000Y-72421250D01*
X92265000Y-72958750D01*
X92263706Y-72985092D01*
X92259836Y-73011181D01*
X92253428Y-73036764D01*
X92244543Y-73061596D01*
X92233266Y-73085438D01*
X92219707Y-73108060D01*
X92203997Y-73129243D01*
X92186285Y-73148785D01*
X92166743Y-73166497D01*
X92145560Y-73182207D01*
X92122938Y-73195766D01*
X92099096Y-73207043D01*
X92074264Y-73215928D01*
X92048681Y-73222336D01*
X92022592Y-73226206D01*
X91996250Y-73227500D01*
X91383750Y-73227500D01*
X91357408Y-73226206D01*
X91331319Y-73222336D01*
X91305736Y-73215928D01*
X91280904Y-73207043D01*
X91257062Y-73195766D01*
X91234440Y-73182207D01*
X91213257Y-73166497D01*
X91193715Y-73148785D01*
X91176003Y-73129243D01*
X91160293Y-73108060D01*
X91146734Y-73085438D01*
X91135457Y-73061596D01*
X91126572Y-73036764D01*
X91120164Y-73011181D01*
X91116294Y-72985092D01*
X91115000Y-72958750D01*
X91115000Y-72421250D01*
X91116294Y-72394908D01*
X91120164Y-72368819D01*
X91126572Y-72343236D01*
X91135457Y-72318404D01*
X91146734Y-72294562D01*
X91160293Y-72271940D01*
X91176003Y-72250757D01*
X91193715Y-72231215D01*
X91213257Y-72213503D01*
X91234440Y-72197793D01*
X91257062Y-72184234D01*
X91280904Y-72172957D01*
X91305736Y-72164072D01*
X91331319Y-72157664D01*
X91357408Y-72153794D01*
X91383750Y-72152500D01*
X91996250Y-72152500D01*
X92022592Y-72153794D01*
X92022592Y-72153794D01*
G37*
D11*
X91690000Y-72690000D03*
G04 #@! TD*
D10*
G04 #@! TO.C,C16*
G36*
X101322592Y-101768794D02*
X101348681Y-101772664D01*
X101374264Y-101779072D01*
X101399096Y-101787957D01*
X101422938Y-101799234D01*
X101445560Y-101812793D01*
X101466743Y-101828503D01*
X101486285Y-101846215D01*
X101503997Y-101865757D01*
X101519707Y-101886940D01*
X101533266Y-101909562D01*
X101544543Y-101933404D01*
X101553428Y-101958236D01*
X101559836Y-101983819D01*
X101563706Y-102009908D01*
X101565000Y-102036250D01*
X101565000Y-102573750D01*
X101563706Y-102600092D01*
X101559836Y-102626181D01*
X101553428Y-102651764D01*
X101544543Y-102676596D01*
X101533266Y-102700438D01*
X101519707Y-102723060D01*
X101503997Y-102744243D01*
X101486285Y-102763785D01*
X101466743Y-102781497D01*
X101445560Y-102797207D01*
X101422938Y-102810766D01*
X101399096Y-102822043D01*
X101374264Y-102830928D01*
X101348681Y-102837336D01*
X101322592Y-102841206D01*
X101296250Y-102842500D01*
X100683750Y-102842500D01*
X100657408Y-102841206D01*
X100631319Y-102837336D01*
X100605736Y-102830928D01*
X100580904Y-102822043D01*
X100557062Y-102810766D01*
X100534440Y-102797207D01*
X100513257Y-102781497D01*
X100493715Y-102763785D01*
X100476003Y-102744243D01*
X100460293Y-102723060D01*
X100446734Y-102700438D01*
X100435457Y-102676596D01*
X100426572Y-102651764D01*
X100420164Y-102626181D01*
X100416294Y-102600092D01*
X100415000Y-102573750D01*
X100415000Y-102036250D01*
X100416294Y-102009908D01*
X100420164Y-101983819D01*
X100426572Y-101958236D01*
X100435457Y-101933404D01*
X100446734Y-101909562D01*
X100460293Y-101886940D01*
X100476003Y-101865757D01*
X100493715Y-101846215D01*
X100513257Y-101828503D01*
X100534440Y-101812793D01*
X100557062Y-101799234D01*
X100580904Y-101787957D01*
X100605736Y-101779072D01*
X100631319Y-101772664D01*
X100657408Y-101768794D01*
X100683750Y-101767500D01*
X101296250Y-101767500D01*
X101322592Y-101768794D01*
X101322592Y-101768794D01*
G37*
D11*
X100990000Y-102305000D03*
D10*
G36*
X101322592Y-100193794D02*
X101348681Y-100197664D01*
X101374264Y-100204072D01*
X101399096Y-100212957D01*
X101422938Y-100224234D01*
X101445560Y-100237793D01*
X101466743Y-100253503D01*
X101486285Y-100271215D01*
X101503997Y-100290757D01*
X101519707Y-100311940D01*
X101533266Y-100334562D01*
X101544543Y-100358404D01*
X101553428Y-100383236D01*
X101559836Y-100408819D01*
X101563706Y-100434908D01*
X101565000Y-100461250D01*
X101565000Y-100998750D01*
X101563706Y-101025092D01*
X101559836Y-101051181D01*
X101553428Y-101076764D01*
X101544543Y-101101596D01*
X101533266Y-101125438D01*
X101519707Y-101148060D01*
X101503997Y-101169243D01*
X101486285Y-101188785D01*
X101466743Y-101206497D01*
X101445560Y-101222207D01*
X101422938Y-101235766D01*
X101399096Y-101247043D01*
X101374264Y-101255928D01*
X101348681Y-101262336D01*
X101322592Y-101266206D01*
X101296250Y-101267500D01*
X100683750Y-101267500D01*
X100657408Y-101266206D01*
X100631319Y-101262336D01*
X100605736Y-101255928D01*
X100580904Y-101247043D01*
X100557062Y-101235766D01*
X100534440Y-101222207D01*
X100513257Y-101206497D01*
X100493715Y-101188785D01*
X100476003Y-101169243D01*
X100460293Y-101148060D01*
X100446734Y-101125438D01*
X100435457Y-101101596D01*
X100426572Y-101076764D01*
X100420164Y-101051181D01*
X100416294Y-101025092D01*
X100415000Y-100998750D01*
X100415000Y-100461250D01*
X100416294Y-100434908D01*
X100420164Y-100408819D01*
X100426572Y-100383236D01*
X100435457Y-100358404D01*
X100446734Y-100334562D01*
X100460293Y-100311940D01*
X100476003Y-100290757D01*
X100493715Y-100271215D01*
X100513257Y-100253503D01*
X100534440Y-100237793D01*
X100557062Y-100224234D01*
X100580904Y-100212957D01*
X100605736Y-100204072D01*
X100631319Y-100197664D01*
X100657408Y-100193794D01*
X100683750Y-100192500D01*
X101296250Y-100192500D01*
X101322592Y-100193794D01*
X101322592Y-100193794D01*
G37*
D11*
X100990000Y-100730000D03*
G04 #@! TD*
D10*
G04 #@! TO.C,C18*
G36*
X84372592Y-72168794D02*
X84398681Y-72172664D01*
X84424264Y-72179072D01*
X84449096Y-72187957D01*
X84472938Y-72199234D01*
X84495560Y-72212793D01*
X84516743Y-72228503D01*
X84536285Y-72246215D01*
X84553997Y-72265757D01*
X84569707Y-72286940D01*
X84583266Y-72309562D01*
X84594543Y-72333404D01*
X84603428Y-72358236D01*
X84609836Y-72383819D01*
X84613706Y-72409908D01*
X84615000Y-72436250D01*
X84615000Y-72973750D01*
X84613706Y-73000092D01*
X84609836Y-73026181D01*
X84603428Y-73051764D01*
X84594543Y-73076596D01*
X84583266Y-73100438D01*
X84569707Y-73123060D01*
X84553997Y-73144243D01*
X84536285Y-73163785D01*
X84516743Y-73181497D01*
X84495560Y-73197207D01*
X84472938Y-73210766D01*
X84449096Y-73222043D01*
X84424264Y-73230928D01*
X84398681Y-73237336D01*
X84372592Y-73241206D01*
X84346250Y-73242500D01*
X83733750Y-73242500D01*
X83707408Y-73241206D01*
X83681319Y-73237336D01*
X83655736Y-73230928D01*
X83630904Y-73222043D01*
X83607062Y-73210766D01*
X83584440Y-73197207D01*
X83563257Y-73181497D01*
X83543715Y-73163785D01*
X83526003Y-73144243D01*
X83510293Y-73123060D01*
X83496734Y-73100438D01*
X83485457Y-73076596D01*
X83476572Y-73051764D01*
X83470164Y-73026181D01*
X83466294Y-73000092D01*
X83465000Y-72973750D01*
X83465000Y-72436250D01*
X83466294Y-72409908D01*
X83470164Y-72383819D01*
X83476572Y-72358236D01*
X83485457Y-72333404D01*
X83496734Y-72309562D01*
X83510293Y-72286940D01*
X83526003Y-72265757D01*
X83543715Y-72246215D01*
X83563257Y-72228503D01*
X83584440Y-72212793D01*
X83607062Y-72199234D01*
X83630904Y-72187957D01*
X83655736Y-72179072D01*
X83681319Y-72172664D01*
X83707408Y-72168794D01*
X83733750Y-72167500D01*
X84346250Y-72167500D01*
X84372592Y-72168794D01*
X84372592Y-72168794D01*
G37*
D11*
X84040000Y-72705000D03*
D10*
G36*
X84372592Y-70593794D02*
X84398681Y-70597664D01*
X84424264Y-70604072D01*
X84449096Y-70612957D01*
X84472938Y-70624234D01*
X84495560Y-70637793D01*
X84516743Y-70653503D01*
X84536285Y-70671215D01*
X84553997Y-70690757D01*
X84569707Y-70711940D01*
X84583266Y-70734562D01*
X84594543Y-70758404D01*
X84603428Y-70783236D01*
X84609836Y-70808819D01*
X84613706Y-70834908D01*
X84615000Y-70861250D01*
X84615000Y-71398750D01*
X84613706Y-71425092D01*
X84609836Y-71451181D01*
X84603428Y-71476764D01*
X84594543Y-71501596D01*
X84583266Y-71525438D01*
X84569707Y-71548060D01*
X84553997Y-71569243D01*
X84536285Y-71588785D01*
X84516743Y-71606497D01*
X84495560Y-71622207D01*
X84472938Y-71635766D01*
X84449096Y-71647043D01*
X84424264Y-71655928D01*
X84398681Y-71662336D01*
X84372592Y-71666206D01*
X84346250Y-71667500D01*
X83733750Y-71667500D01*
X83707408Y-71666206D01*
X83681319Y-71662336D01*
X83655736Y-71655928D01*
X83630904Y-71647043D01*
X83607062Y-71635766D01*
X83584440Y-71622207D01*
X83563257Y-71606497D01*
X83543715Y-71588785D01*
X83526003Y-71569243D01*
X83510293Y-71548060D01*
X83496734Y-71525438D01*
X83485457Y-71501596D01*
X83476572Y-71476764D01*
X83470164Y-71451181D01*
X83466294Y-71425092D01*
X83465000Y-71398750D01*
X83465000Y-70861250D01*
X83466294Y-70834908D01*
X83470164Y-70808819D01*
X83476572Y-70783236D01*
X83485457Y-70758404D01*
X83496734Y-70734562D01*
X83510293Y-70711940D01*
X83526003Y-70690757D01*
X83543715Y-70671215D01*
X83563257Y-70653503D01*
X83584440Y-70637793D01*
X83607062Y-70624234D01*
X83630904Y-70612957D01*
X83655736Y-70604072D01*
X83681319Y-70597664D01*
X83707408Y-70593794D01*
X83733750Y-70592500D01*
X84346250Y-70592500D01*
X84372592Y-70593794D01*
X84372592Y-70593794D01*
G37*
D11*
X84040000Y-71130000D03*
G04 #@! TD*
D12*
G04 #@! TO.C,J1*
X86890000Y-65610000D03*
D13*
X86890000Y-63070000D03*
X89430000Y-65610000D03*
X89430000Y-63070000D03*
X91970000Y-65610000D03*
X91970000Y-63070000D03*
X94510000Y-65610000D03*
X94510000Y-63070000D03*
X97050000Y-65610000D03*
X97050000Y-63070000D03*
X99590000Y-65610000D03*
X99590000Y-63070000D03*
X102130000Y-65610000D03*
X102130000Y-63070000D03*
X104670000Y-65610000D03*
X104670000Y-63070000D03*
X107210000Y-65610000D03*
X107210000Y-63070000D03*
X109750000Y-65610000D03*
X109750000Y-63070000D03*
X112290000Y-65610000D03*
X112290000Y-63070000D03*
X114830000Y-65610000D03*
X114830000Y-63070000D03*
X117370000Y-65610000D03*
X117370000Y-63070000D03*
X119910000Y-65610000D03*
X119910000Y-63070000D03*
X122450000Y-65610000D03*
X122450000Y-63070000D03*
X124990000Y-65610000D03*
X124990000Y-63070000D03*
X127530000Y-65610000D03*
X127530000Y-63070000D03*
X130070000Y-65610000D03*
X130070000Y-63070000D03*
X132610000Y-65610000D03*
X132610000Y-63070000D03*
X135150000Y-65610000D03*
X135150000Y-63070000D03*
G04 #@! TD*
D25*
G04 #@! TO.C,U3*
X108910000Y-78710000D03*
X108910000Y-79210000D03*
X108910000Y-79710000D03*
X108910000Y-80210000D03*
X108910000Y-80710000D03*
X113310000Y-80710000D03*
X113310000Y-80210000D03*
X113310000Y-79710000D03*
X113310000Y-79210000D03*
X113310000Y-78710000D03*
G04 #@! TD*
D26*
G04 #@! TO.C,U2*
X108170000Y-86910000D03*
X108170000Y-87560000D03*
X108170000Y-88210000D03*
X108170000Y-88860000D03*
X108170000Y-89510000D03*
X108170000Y-90160000D03*
X108170000Y-90810000D03*
X114070000Y-90810000D03*
X114070000Y-90160000D03*
X114070000Y-89510000D03*
X114070000Y-88860000D03*
X114070000Y-88210000D03*
X114070000Y-87560000D03*
X114070000Y-86910000D03*
G04 #@! TD*
D10*
G04 #@! TO.C,R10*
G36*
X105672592Y-100186294D02*
X105698681Y-100190164D01*
X105724264Y-100196572D01*
X105749096Y-100205457D01*
X105772938Y-100216734D01*
X105795560Y-100230293D01*
X105816743Y-100246003D01*
X105836285Y-100263715D01*
X105853997Y-100283257D01*
X105869707Y-100304440D01*
X105883266Y-100327062D01*
X105894543Y-100350904D01*
X105903428Y-100375736D01*
X105909836Y-100401319D01*
X105913706Y-100427408D01*
X105915000Y-100453750D01*
X105915000Y-100991250D01*
X105913706Y-101017592D01*
X105909836Y-101043681D01*
X105903428Y-101069264D01*
X105894543Y-101094096D01*
X105883266Y-101117938D01*
X105869707Y-101140560D01*
X105853997Y-101161743D01*
X105836285Y-101181285D01*
X105816743Y-101198997D01*
X105795560Y-101214707D01*
X105772938Y-101228266D01*
X105749096Y-101239543D01*
X105724264Y-101248428D01*
X105698681Y-101254836D01*
X105672592Y-101258706D01*
X105646250Y-101260000D01*
X105033750Y-101260000D01*
X105007408Y-101258706D01*
X104981319Y-101254836D01*
X104955736Y-101248428D01*
X104930904Y-101239543D01*
X104907062Y-101228266D01*
X104884440Y-101214707D01*
X104863257Y-101198997D01*
X104843715Y-101181285D01*
X104826003Y-101161743D01*
X104810293Y-101140560D01*
X104796734Y-101117938D01*
X104785457Y-101094096D01*
X104776572Y-101069264D01*
X104770164Y-101043681D01*
X104766294Y-101017592D01*
X104765000Y-100991250D01*
X104765000Y-100453750D01*
X104766294Y-100427408D01*
X104770164Y-100401319D01*
X104776572Y-100375736D01*
X104785457Y-100350904D01*
X104796734Y-100327062D01*
X104810293Y-100304440D01*
X104826003Y-100283257D01*
X104843715Y-100263715D01*
X104863257Y-100246003D01*
X104884440Y-100230293D01*
X104907062Y-100216734D01*
X104930904Y-100205457D01*
X104955736Y-100196572D01*
X104981319Y-100190164D01*
X105007408Y-100186294D01*
X105033750Y-100185000D01*
X105646250Y-100185000D01*
X105672592Y-100186294D01*
X105672592Y-100186294D01*
G37*
D11*
X105340000Y-100722500D03*
D10*
G36*
X105672592Y-101761294D02*
X105698681Y-101765164D01*
X105724264Y-101771572D01*
X105749096Y-101780457D01*
X105772938Y-101791734D01*
X105795560Y-101805293D01*
X105816743Y-101821003D01*
X105836285Y-101838715D01*
X105853997Y-101858257D01*
X105869707Y-101879440D01*
X105883266Y-101902062D01*
X105894543Y-101925904D01*
X105903428Y-101950736D01*
X105909836Y-101976319D01*
X105913706Y-102002408D01*
X105915000Y-102028750D01*
X105915000Y-102566250D01*
X105913706Y-102592592D01*
X105909836Y-102618681D01*
X105903428Y-102644264D01*
X105894543Y-102669096D01*
X105883266Y-102692938D01*
X105869707Y-102715560D01*
X105853997Y-102736743D01*
X105836285Y-102756285D01*
X105816743Y-102773997D01*
X105795560Y-102789707D01*
X105772938Y-102803266D01*
X105749096Y-102814543D01*
X105724264Y-102823428D01*
X105698681Y-102829836D01*
X105672592Y-102833706D01*
X105646250Y-102835000D01*
X105033750Y-102835000D01*
X105007408Y-102833706D01*
X104981319Y-102829836D01*
X104955736Y-102823428D01*
X104930904Y-102814543D01*
X104907062Y-102803266D01*
X104884440Y-102789707D01*
X104863257Y-102773997D01*
X104843715Y-102756285D01*
X104826003Y-102736743D01*
X104810293Y-102715560D01*
X104796734Y-102692938D01*
X104785457Y-102669096D01*
X104776572Y-102644264D01*
X104770164Y-102618681D01*
X104766294Y-102592592D01*
X104765000Y-102566250D01*
X104765000Y-102028750D01*
X104766294Y-102002408D01*
X104770164Y-101976319D01*
X104776572Y-101950736D01*
X104785457Y-101925904D01*
X104796734Y-101902062D01*
X104810293Y-101879440D01*
X104826003Y-101858257D01*
X104843715Y-101838715D01*
X104863257Y-101821003D01*
X104884440Y-101805293D01*
X104907062Y-101791734D01*
X104930904Y-101780457D01*
X104955736Y-101771572D01*
X104981319Y-101765164D01*
X105007408Y-101761294D01*
X105033750Y-101760000D01*
X105646250Y-101760000D01*
X105672592Y-101761294D01*
X105672592Y-101761294D01*
G37*
D11*
X105340000Y-102297500D03*
G04 #@! TD*
D10*
G04 #@! TO.C,R11*
G36*
X103482592Y-101788794D02*
X103508681Y-101792664D01*
X103534264Y-101799072D01*
X103559096Y-101807957D01*
X103582938Y-101819234D01*
X103605560Y-101832793D01*
X103626743Y-101848503D01*
X103646285Y-101866215D01*
X103663997Y-101885757D01*
X103679707Y-101906940D01*
X103693266Y-101929562D01*
X103704543Y-101953404D01*
X103713428Y-101978236D01*
X103719836Y-102003819D01*
X103723706Y-102029908D01*
X103725000Y-102056250D01*
X103725000Y-102593750D01*
X103723706Y-102620092D01*
X103719836Y-102646181D01*
X103713428Y-102671764D01*
X103704543Y-102696596D01*
X103693266Y-102720438D01*
X103679707Y-102743060D01*
X103663997Y-102764243D01*
X103646285Y-102783785D01*
X103626743Y-102801497D01*
X103605560Y-102817207D01*
X103582938Y-102830766D01*
X103559096Y-102842043D01*
X103534264Y-102850928D01*
X103508681Y-102857336D01*
X103482592Y-102861206D01*
X103456250Y-102862500D01*
X102843750Y-102862500D01*
X102817408Y-102861206D01*
X102791319Y-102857336D01*
X102765736Y-102850928D01*
X102740904Y-102842043D01*
X102717062Y-102830766D01*
X102694440Y-102817207D01*
X102673257Y-102801497D01*
X102653715Y-102783785D01*
X102636003Y-102764243D01*
X102620293Y-102743060D01*
X102606734Y-102720438D01*
X102595457Y-102696596D01*
X102586572Y-102671764D01*
X102580164Y-102646181D01*
X102576294Y-102620092D01*
X102575000Y-102593750D01*
X102575000Y-102056250D01*
X102576294Y-102029908D01*
X102580164Y-102003819D01*
X102586572Y-101978236D01*
X102595457Y-101953404D01*
X102606734Y-101929562D01*
X102620293Y-101906940D01*
X102636003Y-101885757D01*
X102653715Y-101866215D01*
X102673257Y-101848503D01*
X102694440Y-101832793D01*
X102717062Y-101819234D01*
X102740904Y-101807957D01*
X102765736Y-101799072D01*
X102791319Y-101792664D01*
X102817408Y-101788794D01*
X102843750Y-101787500D01*
X103456250Y-101787500D01*
X103482592Y-101788794D01*
X103482592Y-101788794D01*
G37*
D11*
X103150000Y-102325000D03*
D10*
G36*
X103482592Y-100213794D02*
X103508681Y-100217664D01*
X103534264Y-100224072D01*
X103559096Y-100232957D01*
X103582938Y-100244234D01*
X103605560Y-100257793D01*
X103626743Y-100273503D01*
X103646285Y-100291215D01*
X103663997Y-100310757D01*
X103679707Y-100331940D01*
X103693266Y-100354562D01*
X103704543Y-100378404D01*
X103713428Y-100403236D01*
X103719836Y-100428819D01*
X103723706Y-100454908D01*
X103725000Y-100481250D01*
X103725000Y-101018750D01*
X103723706Y-101045092D01*
X103719836Y-101071181D01*
X103713428Y-101096764D01*
X103704543Y-101121596D01*
X103693266Y-101145438D01*
X103679707Y-101168060D01*
X103663997Y-101189243D01*
X103646285Y-101208785D01*
X103626743Y-101226497D01*
X103605560Y-101242207D01*
X103582938Y-101255766D01*
X103559096Y-101267043D01*
X103534264Y-101275928D01*
X103508681Y-101282336D01*
X103482592Y-101286206D01*
X103456250Y-101287500D01*
X102843750Y-101287500D01*
X102817408Y-101286206D01*
X102791319Y-101282336D01*
X102765736Y-101275928D01*
X102740904Y-101267043D01*
X102717062Y-101255766D01*
X102694440Y-101242207D01*
X102673257Y-101226497D01*
X102653715Y-101208785D01*
X102636003Y-101189243D01*
X102620293Y-101168060D01*
X102606734Y-101145438D01*
X102595457Y-101121596D01*
X102586572Y-101096764D01*
X102580164Y-101071181D01*
X102576294Y-101045092D01*
X102575000Y-101018750D01*
X102575000Y-100481250D01*
X102576294Y-100454908D01*
X102580164Y-100428819D01*
X102586572Y-100403236D01*
X102595457Y-100378404D01*
X102606734Y-100354562D01*
X102620293Y-100331940D01*
X102636003Y-100310757D01*
X102653715Y-100291215D01*
X102673257Y-100273503D01*
X102694440Y-100257793D01*
X102717062Y-100244234D01*
X102740904Y-100232957D01*
X102765736Y-100224072D01*
X102791319Y-100217664D01*
X102817408Y-100213794D01*
X102843750Y-100212500D01*
X103456250Y-100212500D01*
X103482592Y-100213794D01*
X103482592Y-100213794D01*
G37*
D11*
X103150000Y-100750000D03*
G04 #@! TD*
D10*
G04 #@! TO.C,R12*
G36*
X113283425Y-104076396D02*
X113311576Y-104080572D01*
X113339183Y-104087487D01*
X113365978Y-104097075D01*
X113391705Y-104109243D01*
X113416115Y-104123874D01*
X113438974Y-104140827D01*
X113460061Y-104159939D01*
X113479173Y-104181026D01*
X113496126Y-104203885D01*
X113510757Y-104228295D01*
X113522925Y-104254022D01*
X113532513Y-104280817D01*
X113539428Y-104308424D01*
X113543604Y-104336575D01*
X113545000Y-104365000D01*
X113545000Y-105235000D01*
X113543604Y-105263425D01*
X113539428Y-105291576D01*
X113532513Y-105319183D01*
X113522925Y-105345978D01*
X113510757Y-105371705D01*
X113496126Y-105396115D01*
X113479173Y-105418974D01*
X113460061Y-105440061D01*
X113438974Y-105459173D01*
X113416115Y-105476126D01*
X113391705Y-105490757D01*
X113365978Y-105502925D01*
X113339183Y-105512513D01*
X113311576Y-105519428D01*
X113283425Y-105523604D01*
X113255000Y-105525000D01*
X111885000Y-105525000D01*
X111856575Y-105523604D01*
X111828424Y-105519428D01*
X111800817Y-105512513D01*
X111774022Y-105502925D01*
X111748295Y-105490757D01*
X111723885Y-105476126D01*
X111701026Y-105459173D01*
X111679939Y-105440061D01*
X111660827Y-105418974D01*
X111643874Y-105396115D01*
X111629243Y-105371705D01*
X111617075Y-105345978D01*
X111607487Y-105319183D01*
X111600572Y-105291576D01*
X111596396Y-105263425D01*
X111595000Y-105235000D01*
X111595000Y-104365000D01*
X111596396Y-104336575D01*
X111600572Y-104308424D01*
X111607487Y-104280817D01*
X111617075Y-104254022D01*
X111629243Y-104228295D01*
X111643874Y-104203885D01*
X111660827Y-104181026D01*
X111679939Y-104159939D01*
X111701026Y-104140827D01*
X111723885Y-104123874D01*
X111748295Y-104109243D01*
X111774022Y-104097075D01*
X111800817Y-104087487D01*
X111828424Y-104080572D01*
X111856575Y-104076396D01*
X111885000Y-104075000D01*
X113255000Y-104075000D01*
X113283425Y-104076396D01*
X113283425Y-104076396D01*
G37*
D27*
X112570000Y-104800000D03*
D10*
G36*
X113283425Y-106876396D02*
X113311576Y-106880572D01*
X113339183Y-106887487D01*
X113365978Y-106897075D01*
X113391705Y-106909243D01*
X113416115Y-106923874D01*
X113438974Y-106940827D01*
X113460061Y-106959939D01*
X113479173Y-106981026D01*
X113496126Y-107003885D01*
X113510757Y-107028295D01*
X113522925Y-107054022D01*
X113532513Y-107080817D01*
X113539428Y-107108424D01*
X113543604Y-107136575D01*
X113545000Y-107165000D01*
X113545000Y-108035000D01*
X113543604Y-108063425D01*
X113539428Y-108091576D01*
X113532513Y-108119183D01*
X113522925Y-108145978D01*
X113510757Y-108171705D01*
X113496126Y-108196115D01*
X113479173Y-108218974D01*
X113460061Y-108240061D01*
X113438974Y-108259173D01*
X113416115Y-108276126D01*
X113391705Y-108290757D01*
X113365978Y-108302925D01*
X113339183Y-108312513D01*
X113311576Y-108319428D01*
X113283425Y-108323604D01*
X113255000Y-108325000D01*
X111885000Y-108325000D01*
X111856575Y-108323604D01*
X111828424Y-108319428D01*
X111800817Y-108312513D01*
X111774022Y-108302925D01*
X111748295Y-108290757D01*
X111723885Y-108276126D01*
X111701026Y-108259173D01*
X111679939Y-108240061D01*
X111660827Y-108218974D01*
X111643874Y-108196115D01*
X111629243Y-108171705D01*
X111617075Y-108145978D01*
X111607487Y-108119183D01*
X111600572Y-108091576D01*
X111596396Y-108063425D01*
X111595000Y-108035000D01*
X111595000Y-107165000D01*
X111596396Y-107136575D01*
X111600572Y-107108424D01*
X111607487Y-107080817D01*
X111617075Y-107054022D01*
X111629243Y-107028295D01*
X111643874Y-107003885D01*
X111660827Y-106981026D01*
X111679939Y-106959939D01*
X111701026Y-106940827D01*
X111723885Y-106923874D01*
X111748295Y-106909243D01*
X111774022Y-106897075D01*
X111800817Y-106887487D01*
X111828424Y-106880572D01*
X111856575Y-106876396D01*
X111885000Y-106875000D01*
X113255000Y-106875000D01*
X113283425Y-106876396D01*
X113283425Y-106876396D01*
G37*
D27*
X112570000Y-107600000D03*
G04 #@! TD*
D10*
G04 #@! TO.C,R13*
G36*
X110333425Y-106876396D02*
X110361576Y-106880572D01*
X110389183Y-106887487D01*
X110415978Y-106897075D01*
X110441705Y-106909243D01*
X110466115Y-106923874D01*
X110488974Y-106940827D01*
X110510061Y-106959939D01*
X110529173Y-106981026D01*
X110546126Y-107003885D01*
X110560757Y-107028295D01*
X110572925Y-107054022D01*
X110582513Y-107080817D01*
X110589428Y-107108424D01*
X110593604Y-107136575D01*
X110595000Y-107165000D01*
X110595000Y-108035000D01*
X110593604Y-108063425D01*
X110589428Y-108091576D01*
X110582513Y-108119183D01*
X110572925Y-108145978D01*
X110560757Y-108171705D01*
X110546126Y-108196115D01*
X110529173Y-108218974D01*
X110510061Y-108240061D01*
X110488974Y-108259173D01*
X110466115Y-108276126D01*
X110441705Y-108290757D01*
X110415978Y-108302925D01*
X110389183Y-108312513D01*
X110361576Y-108319428D01*
X110333425Y-108323604D01*
X110305000Y-108325000D01*
X108935000Y-108325000D01*
X108906575Y-108323604D01*
X108878424Y-108319428D01*
X108850817Y-108312513D01*
X108824022Y-108302925D01*
X108798295Y-108290757D01*
X108773885Y-108276126D01*
X108751026Y-108259173D01*
X108729939Y-108240061D01*
X108710827Y-108218974D01*
X108693874Y-108196115D01*
X108679243Y-108171705D01*
X108667075Y-108145978D01*
X108657487Y-108119183D01*
X108650572Y-108091576D01*
X108646396Y-108063425D01*
X108645000Y-108035000D01*
X108645000Y-107165000D01*
X108646396Y-107136575D01*
X108650572Y-107108424D01*
X108657487Y-107080817D01*
X108667075Y-107054022D01*
X108679243Y-107028295D01*
X108693874Y-107003885D01*
X108710827Y-106981026D01*
X108729939Y-106959939D01*
X108751026Y-106940827D01*
X108773885Y-106923874D01*
X108798295Y-106909243D01*
X108824022Y-106897075D01*
X108850817Y-106887487D01*
X108878424Y-106880572D01*
X108906575Y-106876396D01*
X108935000Y-106875000D01*
X110305000Y-106875000D01*
X110333425Y-106876396D01*
X110333425Y-106876396D01*
G37*
D27*
X109620000Y-107600000D03*
D10*
G36*
X110333425Y-104076396D02*
X110361576Y-104080572D01*
X110389183Y-104087487D01*
X110415978Y-104097075D01*
X110441705Y-104109243D01*
X110466115Y-104123874D01*
X110488974Y-104140827D01*
X110510061Y-104159939D01*
X110529173Y-104181026D01*
X110546126Y-104203885D01*
X110560757Y-104228295D01*
X110572925Y-104254022D01*
X110582513Y-104280817D01*
X110589428Y-104308424D01*
X110593604Y-104336575D01*
X110595000Y-104365000D01*
X110595000Y-105235000D01*
X110593604Y-105263425D01*
X110589428Y-105291576D01*
X110582513Y-105319183D01*
X110572925Y-105345978D01*
X110560757Y-105371705D01*
X110546126Y-105396115D01*
X110529173Y-105418974D01*
X110510061Y-105440061D01*
X110488974Y-105459173D01*
X110466115Y-105476126D01*
X110441705Y-105490757D01*
X110415978Y-105502925D01*
X110389183Y-105512513D01*
X110361576Y-105519428D01*
X110333425Y-105523604D01*
X110305000Y-105525000D01*
X108935000Y-105525000D01*
X108906575Y-105523604D01*
X108878424Y-105519428D01*
X108850817Y-105512513D01*
X108824022Y-105502925D01*
X108798295Y-105490757D01*
X108773885Y-105476126D01*
X108751026Y-105459173D01*
X108729939Y-105440061D01*
X108710827Y-105418974D01*
X108693874Y-105396115D01*
X108679243Y-105371705D01*
X108667075Y-105345978D01*
X108657487Y-105319183D01*
X108650572Y-105291576D01*
X108646396Y-105263425D01*
X108645000Y-105235000D01*
X108645000Y-104365000D01*
X108646396Y-104336575D01*
X108650572Y-104308424D01*
X108657487Y-104280817D01*
X108667075Y-104254022D01*
X108679243Y-104228295D01*
X108693874Y-104203885D01*
X108710827Y-104181026D01*
X108729939Y-104159939D01*
X108751026Y-104140827D01*
X108773885Y-104123874D01*
X108798295Y-104109243D01*
X108824022Y-104097075D01*
X108850817Y-104087487D01*
X108878424Y-104080572D01*
X108906575Y-104076396D01*
X108935000Y-104075000D01*
X110305000Y-104075000D01*
X110333425Y-104076396D01*
X110333425Y-104076396D01*
G37*
D27*
X109620000Y-104800000D03*
G04 #@! TD*
D28*
G04 #@! TO.C,U4*
X81690000Y-76390000D03*
D29*
X84230000Y-76390000D03*
X89310000Y-76390000D03*
X91850000Y-76390000D03*
X94390000Y-76390000D03*
G04 #@! TD*
D18*
G04 #@! TO.C,TP5*
X119900000Y-107890000D03*
G04 #@! TD*
G04 #@! TO.C,TP4*
X108100000Y-92820000D03*
G04 #@! TD*
G04 #@! TO.C,TP3*
X108200000Y-84940000D03*
G04 #@! TD*
G04 #@! TO.C,TP1*
X114120000Y-92820000D03*
G04 #@! TD*
G04 #@! TO.C,TP2*
X114120000Y-84940000D03*
G04 #@! TD*
D10*
G04 #@! TO.C,C6*
G36*
X101322592Y-96048794D02*
X101348681Y-96052664D01*
X101374264Y-96059072D01*
X101399096Y-96067957D01*
X101422938Y-96079234D01*
X101445560Y-96092793D01*
X101466743Y-96108503D01*
X101486285Y-96126215D01*
X101503997Y-96145757D01*
X101519707Y-96166940D01*
X101533266Y-96189562D01*
X101544543Y-96213404D01*
X101553428Y-96238236D01*
X101559836Y-96263819D01*
X101563706Y-96289908D01*
X101565000Y-96316250D01*
X101565000Y-96853750D01*
X101563706Y-96880092D01*
X101559836Y-96906181D01*
X101553428Y-96931764D01*
X101544543Y-96956596D01*
X101533266Y-96980438D01*
X101519707Y-97003060D01*
X101503997Y-97024243D01*
X101486285Y-97043785D01*
X101466743Y-97061497D01*
X101445560Y-97077207D01*
X101422938Y-97090766D01*
X101399096Y-97102043D01*
X101374264Y-97110928D01*
X101348681Y-97117336D01*
X101322592Y-97121206D01*
X101296250Y-97122500D01*
X100683750Y-97122500D01*
X100657408Y-97121206D01*
X100631319Y-97117336D01*
X100605736Y-97110928D01*
X100580904Y-97102043D01*
X100557062Y-97090766D01*
X100534440Y-97077207D01*
X100513257Y-97061497D01*
X100493715Y-97043785D01*
X100476003Y-97024243D01*
X100460293Y-97003060D01*
X100446734Y-96980438D01*
X100435457Y-96956596D01*
X100426572Y-96931764D01*
X100420164Y-96906181D01*
X100416294Y-96880092D01*
X100415000Y-96853750D01*
X100415000Y-96316250D01*
X100416294Y-96289908D01*
X100420164Y-96263819D01*
X100426572Y-96238236D01*
X100435457Y-96213404D01*
X100446734Y-96189562D01*
X100460293Y-96166940D01*
X100476003Y-96145757D01*
X100493715Y-96126215D01*
X100513257Y-96108503D01*
X100534440Y-96092793D01*
X100557062Y-96079234D01*
X100580904Y-96067957D01*
X100605736Y-96059072D01*
X100631319Y-96052664D01*
X100657408Y-96048794D01*
X100683750Y-96047500D01*
X101296250Y-96047500D01*
X101322592Y-96048794D01*
X101322592Y-96048794D01*
G37*
D11*
X100990000Y-96585000D03*
D10*
G36*
X101322592Y-97623794D02*
X101348681Y-97627664D01*
X101374264Y-97634072D01*
X101399096Y-97642957D01*
X101422938Y-97654234D01*
X101445560Y-97667793D01*
X101466743Y-97683503D01*
X101486285Y-97701215D01*
X101503997Y-97720757D01*
X101519707Y-97741940D01*
X101533266Y-97764562D01*
X101544543Y-97788404D01*
X101553428Y-97813236D01*
X101559836Y-97838819D01*
X101563706Y-97864908D01*
X101565000Y-97891250D01*
X101565000Y-98428750D01*
X101563706Y-98455092D01*
X101559836Y-98481181D01*
X101553428Y-98506764D01*
X101544543Y-98531596D01*
X101533266Y-98555438D01*
X101519707Y-98578060D01*
X101503997Y-98599243D01*
X101486285Y-98618785D01*
X101466743Y-98636497D01*
X101445560Y-98652207D01*
X101422938Y-98665766D01*
X101399096Y-98677043D01*
X101374264Y-98685928D01*
X101348681Y-98692336D01*
X101322592Y-98696206D01*
X101296250Y-98697500D01*
X100683750Y-98697500D01*
X100657408Y-98696206D01*
X100631319Y-98692336D01*
X100605736Y-98685928D01*
X100580904Y-98677043D01*
X100557062Y-98665766D01*
X100534440Y-98652207D01*
X100513257Y-98636497D01*
X100493715Y-98618785D01*
X100476003Y-98599243D01*
X100460293Y-98578060D01*
X100446734Y-98555438D01*
X100435457Y-98531596D01*
X100426572Y-98506764D01*
X100420164Y-98481181D01*
X100416294Y-98455092D01*
X100415000Y-98428750D01*
X100415000Y-97891250D01*
X100416294Y-97864908D01*
X100420164Y-97838819D01*
X100426572Y-97813236D01*
X100435457Y-97788404D01*
X100446734Y-97764562D01*
X100460293Y-97741940D01*
X100476003Y-97720757D01*
X100493715Y-97701215D01*
X100513257Y-97683503D01*
X100534440Y-97667793D01*
X100557062Y-97654234D01*
X100580904Y-97642957D01*
X100605736Y-97634072D01*
X100631319Y-97627664D01*
X100657408Y-97623794D01*
X100683750Y-97622500D01*
X101296250Y-97622500D01*
X101322592Y-97623794D01*
X101322592Y-97623794D01*
G37*
D11*
X100990000Y-98160000D03*
G04 #@! TD*
D10*
G04 #@! TO.C,R7*
G36*
X103492592Y-89453794D02*
X103518681Y-89457664D01*
X103544264Y-89464072D01*
X103569096Y-89472957D01*
X103592938Y-89484234D01*
X103615560Y-89497793D01*
X103636743Y-89513503D01*
X103656285Y-89531215D01*
X103673997Y-89550757D01*
X103689707Y-89571940D01*
X103703266Y-89594562D01*
X103714543Y-89618404D01*
X103723428Y-89643236D01*
X103729836Y-89668819D01*
X103733706Y-89694908D01*
X103735000Y-89721250D01*
X103735000Y-90258750D01*
X103733706Y-90285092D01*
X103729836Y-90311181D01*
X103723428Y-90336764D01*
X103714543Y-90361596D01*
X103703266Y-90385438D01*
X103689707Y-90408060D01*
X103673997Y-90429243D01*
X103656285Y-90448785D01*
X103636743Y-90466497D01*
X103615560Y-90482207D01*
X103592938Y-90495766D01*
X103569096Y-90507043D01*
X103544264Y-90515928D01*
X103518681Y-90522336D01*
X103492592Y-90526206D01*
X103466250Y-90527500D01*
X102853750Y-90527500D01*
X102827408Y-90526206D01*
X102801319Y-90522336D01*
X102775736Y-90515928D01*
X102750904Y-90507043D01*
X102727062Y-90495766D01*
X102704440Y-90482207D01*
X102683257Y-90466497D01*
X102663715Y-90448785D01*
X102646003Y-90429243D01*
X102630293Y-90408060D01*
X102616734Y-90385438D01*
X102605457Y-90361596D01*
X102596572Y-90336764D01*
X102590164Y-90311181D01*
X102586294Y-90285092D01*
X102585000Y-90258750D01*
X102585000Y-89721250D01*
X102586294Y-89694908D01*
X102590164Y-89668819D01*
X102596572Y-89643236D01*
X102605457Y-89618404D01*
X102616734Y-89594562D01*
X102630293Y-89571940D01*
X102646003Y-89550757D01*
X102663715Y-89531215D01*
X102683257Y-89513503D01*
X102704440Y-89497793D01*
X102727062Y-89484234D01*
X102750904Y-89472957D01*
X102775736Y-89464072D01*
X102801319Y-89457664D01*
X102827408Y-89453794D01*
X102853750Y-89452500D01*
X103466250Y-89452500D01*
X103492592Y-89453794D01*
X103492592Y-89453794D01*
G37*
D11*
X103160000Y-89990000D03*
D10*
G36*
X103492592Y-91028794D02*
X103518681Y-91032664D01*
X103544264Y-91039072D01*
X103569096Y-91047957D01*
X103592938Y-91059234D01*
X103615560Y-91072793D01*
X103636743Y-91088503D01*
X103656285Y-91106215D01*
X103673997Y-91125757D01*
X103689707Y-91146940D01*
X103703266Y-91169562D01*
X103714543Y-91193404D01*
X103723428Y-91218236D01*
X103729836Y-91243819D01*
X103733706Y-91269908D01*
X103735000Y-91296250D01*
X103735000Y-91833750D01*
X103733706Y-91860092D01*
X103729836Y-91886181D01*
X103723428Y-91911764D01*
X103714543Y-91936596D01*
X103703266Y-91960438D01*
X103689707Y-91983060D01*
X103673997Y-92004243D01*
X103656285Y-92023785D01*
X103636743Y-92041497D01*
X103615560Y-92057207D01*
X103592938Y-92070766D01*
X103569096Y-92082043D01*
X103544264Y-92090928D01*
X103518681Y-92097336D01*
X103492592Y-92101206D01*
X103466250Y-92102500D01*
X102853750Y-92102500D01*
X102827408Y-92101206D01*
X102801319Y-92097336D01*
X102775736Y-92090928D01*
X102750904Y-92082043D01*
X102727062Y-92070766D01*
X102704440Y-92057207D01*
X102683257Y-92041497D01*
X102663715Y-92023785D01*
X102646003Y-92004243D01*
X102630293Y-91983060D01*
X102616734Y-91960438D01*
X102605457Y-91936596D01*
X102596572Y-91911764D01*
X102590164Y-91886181D01*
X102586294Y-91860092D01*
X102585000Y-91833750D01*
X102585000Y-91296250D01*
X102586294Y-91269908D01*
X102590164Y-91243819D01*
X102596572Y-91218236D01*
X102605457Y-91193404D01*
X102616734Y-91169562D01*
X102630293Y-91146940D01*
X102646003Y-91125757D01*
X102663715Y-91106215D01*
X102683257Y-91088503D01*
X102704440Y-91072793D01*
X102727062Y-91059234D01*
X102750904Y-91047957D01*
X102775736Y-91039072D01*
X102801319Y-91032664D01*
X102827408Y-91028794D01*
X102853750Y-91027500D01*
X103466250Y-91027500D01*
X103492592Y-91028794D01*
X103492592Y-91028794D01*
G37*
D11*
X103160000Y-91565000D03*
G04 #@! TD*
D10*
G04 #@! TO.C,R6*
G36*
X101132592Y-91031294D02*
X101158681Y-91035164D01*
X101184264Y-91041572D01*
X101209096Y-91050457D01*
X101232938Y-91061734D01*
X101255560Y-91075293D01*
X101276743Y-91091003D01*
X101296285Y-91108715D01*
X101313997Y-91128257D01*
X101329707Y-91149440D01*
X101343266Y-91172062D01*
X101354543Y-91195904D01*
X101363428Y-91220736D01*
X101369836Y-91246319D01*
X101373706Y-91272408D01*
X101375000Y-91298750D01*
X101375000Y-91836250D01*
X101373706Y-91862592D01*
X101369836Y-91888681D01*
X101363428Y-91914264D01*
X101354543Y-91939096D01*
X101343266Y-91962938D01*
X101329707Y-91985560D01*
X101313997Y-92006743D01*
X101296285Y-92026285D01*
X101276743Y-92043997D01*
X101255560Y-92059707D01*
X101232938Y-92073266D01*
X101209096Y-92084543D01*
X101184264Y-92093428D01*
X101158681Y-92099836D01*
X101132592Y-92103706D01*
X101106250Y-92105000D01*
X100493750Y-92105000D01*
X100467408Y-92103706D01*
X100441319Y-92099836D01*
X100415736Y-92093428D01*
X100390904Y-92084543D01*
X100367062Y-92073266D01*
X100344440Y-92059707D01*
X100323257Y-92043997D01*
X100303715Y-92026285D01*
X100286003Y-92006743D01*
X100270293Y-91985560D01*
X100256734Y-91962938D01*
X100245457Y-91939096D01*
X100236572Y-91914264D01*
X100230164Y-91888681D01*
X100226294Y-91862592D01*
X100225000Y-91836250D01*
X100225000Y-91298750D01*
X100226294Y-91272408D01*
X100230164Y-91246319D01*
X100236572Y-91220736D01*
X100245457Y-91195904D01*
X100256734Y-91172062D01*
X100270293Y-91149440D01*
X100286003Y-91128257D01*
X100303715Y-91108715D01*
X100323257Y-91091003D01*
X100344440Y-91075293D01*
X100367062Y-91061734D01*
X100390904Y-91050457D01*
X100415736Y-91041572D01*
X100441319Y-91035164D01*
X100467408Y-91031294D01*
X100493750Y-91030000D01*
X101106250Y-91030000D01*
X101132592Y-91031294D01*
X101132592Y-91031294D01*
G37*
D11*
X100800000Y-91567500D03*
D10*
G36*
X101132592Y-89456294D02*
X101158681Y-89460164D01*
X101184264Y-89466572D01*
X101209096Y-89475457D01*
X101232938Y-89486734D01*
X101255560Y-89500293D01*
X101276743Y-89516003D01*
X101296285Y-89533715D01*
X101313997Y-89553257D01*
X101329707Y-89574440D01*
X101343266Y-89597062D01*
X101354543Y-89620904D01*
X101363428Y-89645736D01*
X101369836Y-89671319D01*
X101373706Y-89697408D01*
X101375000Y-89723750D01*
X101375000Y-90261250D01*
X101373706Y-90287592D01*
X101369836Y-90313681D01*
X101363428Y-90339264D01*
X101354543Y-90364096D01*
X101343266Y-90387938D01*
X101329707Y-90410560D01*
X101313997Y-90431743D01*
X101296285Y-90451285D01*
X101276743Y-90468997D01*
X101255560Y-90484707D01*
X101232938Y-90498266D01*
X101209096Y-90509543D01*
X101184264Y-90518428D01*
X101158681Y-90524836D01*
X101132592Y-90528706D01*
X101106250Y-90530000D01*
X100493750Y-90530000D01*
X100467408Y-90528706D01*
X100441319Y-90524836D01*
X100415736Y-90518428D01*
X100390904Y-90509543D01*
X100367062Y-90498266D01*
X100344440Y-90484707D01*
X100323257Y-90468997D01*
X100303715Y-90451285D01*
X100286003Y-90431743D01*
X100270293Y-90410560D01*
X100256734Y-90387938D01*
X100245457Y-90364096D01*
X100236572Y-90339264D01*
X100230164Y-90313681D01*
X100226294Y-90287592D01*
X100225000Y-90261250D01*
X100225000Y-89723750D01*
X100226294Y-89697408D01*
X100230164Y-89671319D01*
X100236572Y-89645736D01*
X100245457Y-89620904D01*
X100256734Y-89597062D01*
X100270293Y-89574440D01*
X100286003Y-89553257D01*
X100303715Y-89533715D01*
X100323257Y-89516003D01*
X100344440Y-89500293D01*
X100367062Y-89486734D01*
X100390904Y-89475457D01*
X100415736Y-89466572D01*
X100441319Y-89460164D01*
X100467408Y-89456294D01*
X100493750Y-89455000D01*
X101106250Y-89455000D01*
X101132592Y-89456294D01*
X101132592Y-89456294D01*
G37*
D11*
X100800000Y-89992500D03*
G04 #@! TD*
D10*
G04 #@! TO.C,R8*
G36*
X105832592Y-89438794D02*
X105858681Y-89442664D01*
X105884264Y-89449072D01*
X105909096Y-89457957D01*
X105932938Y-89469234D01*
X105955560Y-89482793D01*
X105976743Y-89498503D01*
X105996285Y-89516215D01*
X106013997Y-89535757D01*
X106029707Y-89556940D01*
X106043266Y-89579562D01*
X106054543Y-89603404D01*
X106063428Y-89628236D01*
X106069836Y-89653819D01*
X106073706Y-89679908D01*
X106075000Y-89706250D01*
X106075000Y-90243750D01*
X106073706Y-90270092D01*
X106069836Y-90296181D01*
X106063428Y-90321764D01*
X106054543Y-90346596D01*
X106043266Y-90370438D01*
X106029707Y-90393060D01*
X106013997Y-90414243D01*
X105996285Y-90433785D01*
X105976743Y-90451497D01*
X105955560Y-90467207D01*
X105932938Y-90480766D01*
X105909096Y-90492043D01*
X105884264Y-90500928D01*
X105858681Y-90507336D01*
X105832592Y-90511206D01*
X105806250Y-90512500D01*
X105193750Y-90512500D01*
X105167408Y-90511206D01*
X105141319Y-90507336D01*
X105115736Y-90500928D01*
X105090904Y-90492043D01*
X105067062Y-90480766D01*
X105044440Y-90467207D01*
X105023257Y-90451497D01*
X105003715Y-90433785D01*
X104986003Y-90414243D01*
X104970293Y-90393060D01*
X104956734Y-90370438D01*
X104945457Y-90346596D01*
X104936572Y-90321764D01*
X104930164Y-90296181D01*
X104926294Y-90270092D01*
X104925000Y-90243750D01*
X104925000Y-89706250D01*
X104926294Y-89679908D01*
X104930164Y-89653819D01*
X104936572Y-89628236D01*
X104945457Y-89603404D01*
X104956734Y-89579562D01*
X104970293Y-89556940D01*
X104986003Y-89535757D01*
X105003715Y-89516215D01*
X105023257Y-89498503D01*
X105044440Y-89482793D01*
X105067062Y-89469234D01*
X105090904Y-89457957D01*
X105115736Y-89449072D01*
X105141319Y-89442664D01*
X105167408Y-89438794D01*
X105193750Y-89437500D01*
X105806250Y-89437500D01*
X105832592Y-89438794D01*
X105832592Y-89438794D01*
G37*
D11*
X105500000Y-89975000D03*
D10*
G36*
X105832592Y-91013794D02*
X105858681Y-91017664D01*
X105884264Y-91024072D01*
X105909096Y-91032957D01*
X105932938Y-91044234D01*
X105955560Y-91057793D01*
X105976743Y-91073503D01*
X105996285Y-91091215D01*
X106013997Y-91110757D01*
X106029707Y-91131940D01*
X106043266Y-91154562D01*
X106054543Y-91178404D01*
X106063428Y-91203236D01*
X106069836Y-91228819D01*
X106073706Y-91254908D01*
X106075000Y-91281250D01*
X106075000Y-91818750D01*
X106073706Y-91845092D01*
X106069836Y-91871181D01*
X106063428Y-91896764D01*
X106054543Y-91921596D01*
X106043266Y-91945438D01*
X106029707Y-91968060D01*
X106013997Y-91989243D01*
X105996285Y-92008785D01*
X105976743Y-92026497D01*
X105955560Y-92042207D01*
X105932938Y-92055766D01*
X105909096Y-92067043D01*
X105884264Y-92075928D01*
X105858681Y-92082336D01*
X105832592Y-92086206D01*
X105806250Y-92087500D01*
X105193750Y-92087500D01*
X105167408Y-92086206D01*
X105141319Y-92082336D01*
X105115736Y-92075928D01*
X105090904Y-92067043D01*
X105067062Y-92055766D01*
X105044440Y-92042207D01*
X105023257Y-92026497D01*
X105003715Y-92008785D01*
X104986003Y-91989243D01*
X104970293Y-91968060D01*
X104956734Y-91945438D01*
X104945457Y-91921596D01*
X104936572Y-91896764D01*
X104930164Y-91871181D01*
X104926294Y-91845092D01*
X104925000Y-91818750D01*
X104925000Y-91281250D01*
X104926294Y-91254908D01*
X104930164Y-91228819D01*
X104936572Y-91203236D01*
X104945457Y-91178404D01*
X104956734Y-91154562D01*
X104970293Y-91131940D01*
X104986003Y-91110757D01*
X105003715Y-91091215D01*
X105023257Y-91073503D01*
X105044440Y-91057793D01*
X105067062Y-91044234D01*
X105090904Y-91032957D01*
X105115736Y-91024072D01*
X105141319Y-91017664D01*
X105167408Y-91013794D01*
X105193750Y-91012500D01*
X105806250Y-91012500D01*
X105832592Y-91013794D01*
X105832592Y-91013794D01*
G37*
D11*
X105500000Y-91550000D03*
G04 #@! TD*
D10*
G04 #@! TO.C,R9*
G36*
X103502592Y-97648794D02*
X103528681Y-97652664D01*
X103554264Y-97659072D01*
X103579096Y-97667957D01*
X103602938Y-97679234D01*
X103625560Y-97692793D01*
X103646743Y-97708503D01*
X103666285Y-97726215D01*
X103683997Y-97745757D01*
X103699707Y-97766940D01*
X103713266Y-97789562D01*
X103724543Y-97813404D01*
X103733428Y-97838236D01*
X103739836Y-97863819D01*
X103743706Y-97889908D01*
X103745000Y-97916250D01*
X103745000Y-98453750D01*
X103743706Y-98480092D01*
X103739836Y-98506181D01*
X103733428Y-98531764D01*
X103724543Y-98556596D01*
X103713266Y-98580438D01*
X103699707Y-98603060D01*
X103683997Y-98624243D01*
X103666285Y-98643785D01*
X103646743Y-98661497D01*
X103625560Y-98677207D01*
X103602938Y-98690766D01*
X103579096Y-98702043D01*
X103554264Y-98710928D01*
X103528681Y-98717336D01*
X103502592Y-98721206D01*
X103476250Y-98722500D01*
X102863750Y-98722500D01*
X102837408Y-98721206D01*
X102811319Y-98717336D01*
X102785736Y-98710928D01*
X102760904Y-98702043D01*
X102737062Y-98690766D01*
X102714440Y-98677207D01*
X102693257Y-98661497D01*
X102673715Y-98643785D01*
X102656003Y-98624243D01*
X102640293Y-98603060D01*
X102626734Y-98580438D01*
X102615457Y-98556596D01*
X102606572Y-98531764D01*
X102600164Y-98506181D01*
X102596294Y-98480092D01*
X102595000Y-98453750D01*
X102595000Y-97916250D01*
X102596294Y-97889908D01*
X102600164Y-97863819D01*
X102606572Y-97838236D01*
X102615457Y-97813404D01*
X102626734Y-97789562D01*
X102640293Y-97766940D01*
X102656003Y-97745757D01*
X102673715Y-97726215D01*
X102693257Y-97708503D01*
X102714440Y-97692793D01*
X102737062Y-97679234D01*
X102760904Y-97667957D01*
X102785736Y-97659072D01*
X102811319Y-97652664D01*
X102837408Y-97648794D01*
X102863750Y-97647500D01*
X103476250Y-97647500D01*
X103502592Y-97648794D01*
X103502592Y-97648794D01*
G37*
D11*
X103170000Y-98185000D03*
D10*
G36*
X103502592Y-96073794D02*
X103528681Y-96077664D01*
X103554264Y-96084072D01*
X103579096Y-96092957D01*
X103602938Y-96104234D01*
X103625560Y-96117793D01*
X103646743Y-96133503D01*
X103666285Y-96151215D01*
X103683997Y-96170757D01*
X103699707Y-96191940D01*
X103713266Y-96214562D01*
X103724543Y-96238404D01*
X103733428Y-96263236D01*
X103739836Y-96288819D01*
X103743706Y-96314908D01*
X103745000Y-96341250D01*
X103745000Y-96878750D01*
X103743706Y-96905092D01*
X103739836Y-96931181D01*
X103733428Y-96956764D01*
X103724543Y-96981596D01*
X103713266Y-97005438D01*
X103699707Y-97028060D01*
X103683997Y-97049243D01*
X103666285Y-97068785D01*
X103646743Y-97086497D01*
X103625560Y-97102207D01*
X103602938Y-97115766D01*
X103579096Y-97127043D01*
X103554264Y-97135928D01*
X103528681Y-97142336D01*
X103502592Y-97146206D01*
X103476250Y-97147500D01*
X102863750Y-97147500D01*
X102837408Y-97146206D01*
X102811319Y-97142336D01*
X102785736Y-97135928D01*
X102760904Y-97127043D01*
X102737062Y-97115766D01*
X102714440Y-97102207D01*
X102693257Y-97086497D01*
X102673715Y-97068785D01*
X102656003Y-97049243D01*
X102640293Y-97028060D01*
X102626734Y-97005438D01*
X102615457Y-96981596D01*
X102606572Y-96956764D01*
X102600164Y-96931181D01*
X102596294Y-96905092D01*
X102595000Y-96878750D01*
X102595000Y-96341250D01*
X102596294Y-96314908D01*
X102600164Y-96288819D01*
X102606572Y-96263236D01*
X102615457Y-96238404D01*
X102626734Y-96214562D01*
X102640293Y-96191940D01*
X102656003Y-96170757D01*
X102673715Y-96151215D01*
X102693257Y-96133503D01*
X102714440Y-96117793D01*
X102737062Y-96104234D01*
X102760904Y-96092957D01*
X102785736Y-96084072D01*
X102811319Y-96077664D01*
X102837408Y-96073794D01*
X102863750Y-96072500D01*
X103476250Y-96072500D01*
X103502592Y-96073794D01*
X103502592Y-96073794D01*
G37*
D11*
X103170000Y-96610000D03*
G04 #@! TD*
D10*
G04 #@! TO.C,R2*
G36*
X116982592Y-89336294D02*
X117008681Y-89340164D01*
X117034264Y-89346572D01*
X117059096Y-89355457D01*
X117082938Y-89366734D01*
X117105560Y-89380293D01*
X117126743Y-89396003D01*
X117146285Y-89413715D01*
X117163997Y-89433257D01*
X117179707Y-89454440D01*
X117193266Y-89477062D01*
X117204543Y-89500904D01*
X117213428Y-89525736D01*
X117219836Y-89551319D01*
X117223706Y-89577408D01*
X117225000Y-89603750D01*
X117225000Y-90141250D01*
X117223706Y-90167592D01*
X117219836Y-90193681D01*
X117213428Y-90219264D01*
X117204543Y-90244096D01*
X117193266Y-90267938D01*
X117179707Y-90290560D01*
X117163997Y-90311743D01*
X117146285Y-90331285D01*
X117126743Y-90348997D01*
X117105560Y-90364707D01*
X117082938Y-90378266D01*
X117059096Y-90389543D01*
X117034264Y-90398428D01*
X117008681Y-90404836D01*
X116982592Y-90408706D01*
X116956250Y-90410000D01*
X116343750Y-90410000D01*
X116317408Y-90408706D01*
X116291319Y-90404836D01*
X116265736Y-90398428D01*
X116240904Y-90389543D01*
X116217062Y-90378266D01*
X116194440Y-90364707D01*
X116173257Y-90348997D01*
X116153715Y-90331285D01*
X116136003Y-90311743D01*
X116120293Y-90290560D01*
X116106734Y-90267938D01*
X116095457Y-90244096D01*
X116086572Y-90219264D01*
X116080164Y-90193681D01*
X116076294Y-90167592D01*
X116075000Y-90141250D01*
X116075000Y-89603750D01*
X116076294Y-89577408D01*
X116080164Y-89551319D01*
X116086572Y-89525736D01*
X116095457Y-89500904D01*
X116106734Y-89477062D01*
X116120293Y-89454440D01*
X116136003Y-89433257D01*
X116153715Y-89413715D01*
X116173257Y-89396003D01*
X116194440Y-89380293D01*
X116217062Y-89366734D01*
X116240904Y-89355457D01*
X116265736Y-89346572D01*
X116291319Y-89340164D01*
X116317408Y-89336294D01*
X116343750Y-89335000D01*
X116956250Y-89335000D01*
X116982592Y-89336294D01*
X116982592Y-89336294D01*
G37*
D11*
X116650000Y-89872500D03*
D10*
G36*
X116982592Y-90911294D02*
X117008681Y-90915164D01*
X117034264Y-90921572D01*
X117059096Y-90930457D01*
X117082938Y-90941734D01*
X117105560Y-90955293D01*
X117126743Y-90971003D01*
X117146285Y-90988715D01*
X117163997Y-91008257D01*
X117179707Y-91029440D01*
X117193266Y-91052062D01*
X117204543Y-91075904D01*
X117213428Y-91100736D01*
X117219836Y-91126319D01*
X117223706Y-91152408D01*
X117225000Y-91178750D01*
X117225000Y-91716250D01*
X117223706Y-91742592D01*
X117219836Y-91768681D01*
X117213428Y-91794264D01*
X117204543Y-91819096D01*
X117193266Y-91842938D01*
X117179707Y-91865560D01*
X117163997Y-91886743D01*
X117146285Y-91906285D01*
X117126743Y-91923997D01*
X117105560Y-91939707D01*
X117082938Y-91953266D01*
X117059096Y-91964543D01*
X117034264Y-91973428D01*
X117008681Y-91979836D01*
X116982592Y-91983706D01*
X116956250Y-91985000D01*
X116343750Y-91985000D01*
X116317408Y-91983706D01*
X116291319Y-91979836D01*
X116265736Y-91973428D01*
X116240904Y-91964543D01*
X116217062Y-91953266D01*
X116194440Y-91939707D01*
X116173257Y-91923997D01*
X116153715Y-91906285D01*
X116136003Y-91886743D01*
X116120293Y-91865560D01*
X116106734Y-91842938D01*
X116095457Y-91819096D01*
X116086572Y-91794264D01*
X116080164Y-91768681D01*
X116076294Y-91742592D01*
X116075000Y-91716250D01*
X116075000Y-91178750D01*
X116076294Y-91152408D01*
X116080164Y-91126319D01*
X116086572Y-91100736D01*
X116095457Y-91075904D01*
X116106734Y-91052062D01*
X116120293Y-91029440D01*
X116136003Y-91008257D01*
X116153715Y-90988715D01*
X116173257Y-90971003D01*
X116194440Y-90955293D01*
X116217062Y-90941734D01*
X116240904Y-90930457D01*
X116265736Y-90921572D01*
X116291319Y-90915164D01*
X116317408Y-90911294D01*
X116343750Y-90910000D01*
X116956250Y-90910000D01*
X116982592Y-90911294D01*
X116982592Y-90911294D01*
G37*
D11*
X116650000Y-91447500D03*
G04 #@! TD*
D10*
G04 #@! TO.C,R3*
G36*
X121292592Y-75511294D02*
X121318681Y-75515164D01*
X121344264Y-75521572D01*
X121369096Y-75530457D01*
X121392938Y-75541734D01*
X121415560Y-75555293D01*
X121436743Y-75571003D01*
X121456285Y-75588715D01*
X121473997Y-75608257D01*
X121489707Y-75629440D01*
X121503266Y-75652062D01*
X121514543Y-75675904D01*
X121523428Y-75700736D01*
X121529836Y-75726319D01*
X121533706Y-75752408D01*
X121535000Y-75778750D01*
X121535000Y-76316250D01*
X121533706Y-76342592D01*
X121529836Y-76368681D01*
X121523428Y-76394264D01*
X121514543Y-76419096D01*
X121503266Y-76442938D01*
X121489707Y-76465560D01*
X121473997Y-76486743D01*
X121456285Y-76506285D01*
X121436743Y-76523997D01*
X121415560Y-76539707D01*
X121392938Y-76553266D01*
X121369096Y-76564543D01*
X121344264Y-76573428D01*
X121318681Y-76579836D01*
X121292592Y-76583706D01*
X121266250Y-76585000D01*
X120653750Y-76585000D01*
X120627408Y-76583706D01*
X120601319Y-76579836D01*
X120575736Y-76573428D01*
X120550904Y-76564543D01*
X120527062Y-76553266D01*
X120504440Y-76539707D01*
X120483257Y-76523997D01*
X120463715Y-76506285D01*
X120446003Y-76486743D01*
X120430293Y-76465560D01*
X120416734Y-76442938D01*
X120405457Y-76419096D01*
X120396572Y-76394264D01*
X120390164Y-76368681D01*
X120386294Y-76342592D01*
X120385000Y-76316250D01*
X120385000Y-75778750D01*
X120386294Y-75752408D01*
X120390164Y-75726319D01*
X120396572Y-75700736D01*
X120405457Y-75675904D01*
X120416734Y-75652062D01*
X120430293Y-75629440D01*
X120446003Y-75608257D01*
X120463715Y-75588715D01*
X120483257Y-75571003D01*
X120504440Y-75555293D01*
X120527062Y-75541734D01*
X120550904Y-75530457D01*
X120575736Y-75521572D01*
X120601319Y-75515164D01*
X120627408Y-75511294D01*
X120653750Y-75510000D01*
X121266250Y-75510000D01*
X121292592Y-75511294D01*
X121292592Y-75511294D01*
G37*
D11*
X120960000Y-76047500D03*
D10*
G36*
X121292592Y-73936294D02*
X121318681Y-73940164D01*
X121344264Y-73946572D01*
X121369096Y-73955457D01*
X121392938Y-73966734D01*
X121415560Y-73980293D01*
X121436743Y-73996003D01*
X121456285Y-74013715D01*
X121473997Y-74033257D01*
X121489707Y-74054440D01*
X121503266Y-74077062D01*
X121514543Y-74100904D01*
X121523428Y-74125736D01*
X121529836Y-74151319D01*
X121533706Y-74177408D01*
X121535000Y-74203750D01*
X121535000Y-74741250D01*
X121533706Y-74767592D01*
X121529836Y-74793681D01*
X121523428Y-74819264D01*
X121514543Y-74844096D01*
X121503266Y-74867938D01*
X121489707Y-74890560D01*
X121473997Y-74911743D01*
X121456285Y-74931285D01*
X121436743Y-74948997D01*
X121415560Y-74964707D01*
X121392938Y-74978266D01*
X121369096Y-74989543D01*
X121344264Y-74998428D01*
X121318681Y-75004836D01*
X121292592Y-75008706D01*
X121266250Y-75010000D01*
X120653750Y-75010000D01*
X120627408Y-75008706D01*
X120601319Y-75004836D01*
X120575736Y-74998428D01*
X120550904Y-74989543D01*
X120527062Y-74978266D01*
X120504440Y-74964707D01*
X120483257Y-74948997D01*
X120463715Y-74931285D01*
X120446003Y-74911743D01*
X120430293Y-74890560D01*
X120416734Y-74867938D01*
X120405457Y-74844096D01*
X120396572Y-74819264D01*
X120390164Y-74793681D01*
X120386294Y-74767592D01*
X120385000Y-74741250D01*
X120385000Y-74203750D01*
X120386294Y-74177408D01*
X120390164Y-74151319D01*
X120396572Y-74125736D01*
X120405457Y-74100904D01*
X120416734Y-74077062D01*
X120430293Y-74054440D01*
X120446003Y-74033257D01*
X120463715Y-74013715D01*
X120483257Y-73996003D01*
X120504440Y-73980293D01*
X120527062Y-73966734D01*
X120550904Y-73955457D01*
X120575736Y-73946572D01*
X120601319Y-73940164D01*
X120627408Y-73936294D01*
X120653750Y-73935000D01*
X121266250Y-73935000D01*
X121292592Y-73936294D01*
X121292592Y-73936294D01*
G37*
D11*
X120960000Y-74472500D03*
G04 #@! TD*
D10*
G04 #@! TO.C,R4*
G36*
X118792592Y-75601294D02*
X118818681Y-75605164D01*
X118844264Y-75611572D01*
X118869096Y-75620457D01*
X118892938Y-75631734D01*
X118915560Y-75645293D01*
X118936743Y-75661003D01*
X118956285Y-75678715D01*
X118973997Y-75698257D01*
X118989707Y-75719440D01*
X119003266Y-75742062D01*
X119014543Y-75765904D01*
X119023428Y-75790736D01*
X119029836Y-75816319D01*
X119033706Y-75842408D01*
X119035000Y-75868750D01*
X119035000Y-76406250D01*
X119033706Y-76432592D01*
X119029836Y-76458681D01*
X119023428Y-76484264D01*
X119014543Y-76509096D01*
X119003266Y-76532938D01*
X118989707Y-76555560D01*
X118973997Y-76576743D01*
X118956285Y-76596285D01*
X118936743Y-76613997D01*
X118915560Y-76629707D01*
X118892938Y-76643266D01*
X118869096Y-76654543D01*
X118844264Y-76663428D01*
X118818681Y-76669836D01*
X118792592Y-76673706D01*
X118766250Y-76675000D01*
X118153750Y-76675000D01*
X118127408Y-76673706D01*
X118101319Y-76669836D01*
X118075736Y-76663428D01*
X118050904Y-76654543D01*
X118027062Y-76643266D01*
X118004440Y-76629707D01*
X117983257Y-76613997D01*
X117963715Y-76596285D01*
X117946003Y-76576743D01*
X117930293Y-76555560D01*
X117916734Y-76532938D01*
X117905457Y-76509096D01*
X117896572Y-76484264D01*
X117890164Y-76458681D01*
X117886294Y-76432592D01*
X117885000Y-76406250D01*
X117885000Y-75868750D01*
X117886294Y-75842408D01*
X117890164Y-75816319D01*
X117896572Y-75790736D01*
X117905457Y-75765904D01*
X117916734Y-75742062D01*
X117930293Y-75719440D01*
X117946003Y-75698257D01*
X117963715Y-75678715D01*
X117983257Y-75661003D01*
X118004440Y-75645293D01*
X118027062Y-75631734D01*
X118050904Y-75620457D01*
X118075736Y-75611572D01*
X118101319Y-75605164D01*
X118127408Y-75601294D01*
X118153750Y-75600000D01*
X118766250Y-75600000D01*
X118792592Y-75601294D01*
X118792592Y-75601294D01*
G37*
D11*
X118460000Y-76137500D03*
D10*
G36*
X118792592Y-74026294D02*
X118818681Y-74030164D01*
X118844264Y-74036572D01*
X118869096Y-74045457D01*
X118892938Y-74056734D01*
X118915560Y-74070293D01*
X118936743Y-74086003D01*
X118956285Y-74103715D01*
X118973997Y-74123257D01*
X118989707Y-74144440D01*
X119003266Y-74167062D01*
X119014543Y-74190904D01*
X119023428Y-74215736D01*
X119029836Y-74241319D01*
X119033706Y-74267408D01*
X119035000Y-74293750D01*
X119035000Y-74831250D01*
X119033706Y-74857592D01*
X119029836Y-74883681D01*
X119023428Y-74909264D01*
X119014543Y-74934096D01*
X119003266Y-74957938D01*
X118989707Y-74980560D01*
X118973997Y-75001743D01*
X118956285Y-75021285D01*
X118936743Y-75038997D01*
X118915560Y-75054707D01*
X118892938Y-75068266D01*
X118869096Y-75079543D01*
X118844264Y-75088428D01*
X118818681Y-75094836D01*
X118792592Y-75098706D01*
X118766250Y-75100000D01*
X118153750Y-75100000D01*
X118127408Y-75098706D01*
X118101319Y-75094836D01*
X118075736Y-75088428D01*
X118050904Y-75079543D01*
X118027062Y-75068266D01*
X118004440Y-75054707D01*
X117983257Y-75038997D01*
X117963715Y-75021285D01*
X117946003Y-75001743D01*
X117930293Y-74980560D01*
X117916734Y-74957938D01*
X117905457Y-74934096D01*
X117896572Y-74909264D01*
X117890164Y-74883681D01*
X117886294Y-74857592D01*
X117885000Y-74831250D01*
X117885000Y-74293750D01*
X117886294Y-74267408D01*
X117890164Y-74241319D01*
X117896572Y-74215736D01*
X117905457Y-74190904D01*
X117916734Y-74167062D01*
X117930293Y-74144440D01*
X117946003Y-74123257D01*
X117963715Y-74103715D01*
X117983257Y-74086003D01*
X118004440Y-74070293D01*
X118027062Y-74056734D01*
X118050904Y-74045457D01*
X118075736Y-74036572D01*
X118101319Y-74030164D01*
X118127408Y-74026294D01*
X118153750Y-74025000D01*
X118766250Y-74025000D01*
X118792592Y-74026294D01*
X118792592Y-74026294D01*
G37*
D11*
X118460000Y-74562500D03*
G04 #@! TD*
D10*
G04 #@! TO.C,C3*
G36*
X105862592Y-85688794D02*
X105888681Y-85692664D01*
X105914264Y-85699072D01*
X105939096Y-85707957D01*
X105962938Y-85719234D01*
X105985560Y-85732793D01*
X106006743Y-85748503D01*
X106026285Y-85766215D01*
X106043997Y-85785757D01*
X106059707Y-85806940D01*
X106073266Y-85829562D01*
X106084543Y-85853404D01*
X106093428Y-85878236D01*
X106099836Y-85903819D01*
X106103706Y-85929908D01*
X106105000Y-85956250D01*
X106105000Y-86493750D01*
X106103706Y-86520092D01*
X106099836Y-86546181D01*
X106093428Y-86571764D01*
X106084543Y-86596596D01*
X106073266Y-86620438D01*
X106059707Y-86643060D01*
X106043997Y-86664243D01*
X106026285Y-86683785D01*
X106006743Y-86701497D01*
X105985560Y-86717207D01*
X105962938Y-86730766D01*
X105939096Y-86742043D01*
X105914264Y-86750928D01*
X105888681Y-86757336D01*
X105862592Y-86761206D01*
X105836250Y-86762500D01*
X105223750Y-86762500D01*
X105197408Y-86761206D01*
X105171319Y-86757336D01*
X105145736Y-86750928D01*
X105120904Y-86742043D01*
X105097062Y-86730766D01*
X105074440Y-86717207D01*
X105053257Y-86701497D01*
X105033715Y-86683785D01*
X105016003Y-86664243D01*
X105000293Y-86643060D01*
X104986734Y-86620438D01*
X104975457Y-86596596D01*
X104966572Y-86571764D01*
X104960164Y-86546181D01*
X104956294Y-86520092D01*
X104955000Y-86493750D01*
X104955000Y-85956250D01*
X104956294Y-85929908D01*
X104960164Y-85903819D01*
X104966572Y-85878236D01*
X104975457Y-85853404D01*
X104986734Y-85829562D01*
X105000293Y-85806940D01*
X105016003Y-85785757D01*
X105033715Y-85766215D01*
X105053257Y-85748503D01*
X105074440Y-85732793D01*
X105097062Y-85719234D01*
X105120904Y-85707957D01*
X105145736Y-85699072D01*
X105171319Y-85692664D01*
X105197408Y-85688794D01*
X105223750Y-85687500D01*
X105836250Y-85687500D01*
X105862592Y-85688794D01*
X105862592Y-85688794D01*
G37*
D11*
X105530000Y-86225000D03*
D10*
G36*
X105862592Y-87263794D02*
X105888681Y-87267664D01*
X105914264Y-87274072D01*
X105939096Y-87282957D01*
X105962938Y-87294234D01*
X105985560Y-87307793D01*
X106006743Y-87323503D01*
X106026285Y-87341215D01*
X106043997Y-87360757D01*
X106059707Y-87381940D01*
X106073266Y-87404562D01*
X106084543Y-87428404D01*
X106093428Y-87453236D01*
X106099836Y-87478819D01*
X106103706Y-87504908D01*
X106105000Y-87531250D01*
X106105000Y-88068750D01*
X106103706Y-88095092D01*
X106099836Y-88121181D01*
X106093428Y-88146764D01*
X106084543Y-88171596D01*
X106073266Y-88195438D01*
X106059707Y-88218060D01*
X106043997Y-88239243D01*
X106026285Y-88258785D01*
X106006743Y-88276497D01*
X105985560Y-88292207D01*
X105962938Y-88305766D01*
X105939096Y-88317043D01*
X105914264Y-88325928D01*
X105888681Y-88332336D01*
X105862592Y-88336206D01*
X105836250Y-88337500D01*
X105223750Y-88337500D01*
X105197408Y-88336206D01*
X105171319Y-88332336D01*
X105145736Y-88325928D01*
X105120904Y-88317043D01*
X105097062Y-88305766D01*
X105074440Y-88292207D01*
X105053257Y-88276497D01*
X105033715Y-88258785D01*
X105016003Y-88239243D01*
X105000293Y-88218060D01*
X104986734Y-88195438D01*
X104975457Y-88171596D01*
X104966572Y-88146764D01*
X104960164Y-88121181D01*
X104956294Y-88095092D01*
X104955000Y-88068750D01*
X104955000Y-87531250D01*
X104956294Y-87504908D01*
X104960164Y-87478819D01*
X104966572Y-87453236D01*
X104975457Y-87428404D01*
X104986734Y-87404562D01*
X105000293Y-87381940D01*
X105016003Y-87360757D01*
X105033715Y-87341215D01*
X105053257Y-87323503D01*
X105074440Y-87307793D01*
X105097062Y-87294234D01*
X105120904Y-87282957D01*
X105145736Y-87274072D01*
X105171319Y-87267664D01*
X105197408Y-87263794D01*
X105223750Y-87262500D01*
X105836250Y-87262500D01*
X105862592Y-87263794D01*
X105862592Y-87263794D01*
G37*
D11*
X105530000Y-87800000D03*
G04 #@! TD*
D10*
G04 #@! TO.C,R1*
G36*
X119062592Y-90918794D02*
X119088681Y-90922664D01*
X119114264Y-90929072D01*
X119139096Y-90937957D01*
X119162938Y-90949234D01*
X119185560Y-90962793D01*
X119206743Y-90978503D01*
X119226285Y-90996215D01*
X119243997Y-91015757D01*
X119259707Y-91036940D01*
X119273266Y-91059562D01*
X119284543Y-91083404D01*
X119293428Y-91108236D01*
X119299836Y-91133819D01*
X119303706Y-91159908D01*
X119305000Y-91186250D01*
X119305000Y-91723750D01*
X119303706Y-91750092D01*
X119299836Y-91776181D01*
X119293428Y-91801764D01*
X119284543Y-91826596D01*
X119273266Y-91850438D01*
X119259707Y-91873060D01*
X119243997Y-91894243D01*
X119226285Y-91913785D01*
X119206743Y-91931497D01*
X119185560Y-91947207D01*
X119162938Y-91960766D01*
X119139096Y-91972043D01*
X119114264Y-91980928D01*
X119088681Y-91987336D01*
X119062592Y-91991206D01*
X119036250Y-91992500D01*
X118423750Y-91992500D01*
X118397408Y-91991206D01*
X118371319Y-91987336D01*
X118345736Y-91980928D01*
X118320904Y-91972043D01*
X118297062Y-91960766D01*
X118274440Y-91947207D01*
X118253257Y-91931497D01*
X118233715Y-91913785D01*
X118216003Y-91894243D01*
X118200293Y-91873060D01*
X118186734Y-91850438D01*
X118175457Y-91826596D01*
X118166572Y-91801764D01*
X118160164Y-91776181D01*
X118156294Y-91750092D01*
X118155000Y-91723750D01*
X118155000Y-91186250D01*
X118156294Y-91159908D01*
X118160164Y-91133819D01*
X118166572Y-91108236D01*
X118175457Y-91083404D01*
X118186734Y-91059562D01*
X118200293Y-91036940D01*
X118216003Y-91015757D01*
X118233715Y-90996215D01*
X118253257Y-90978503D01*
X118274440Y-90962793D01*
X118297062Y-90949234D01*
X118320904Y-90937957D01*
X118345736Y-90929072D01*
X118371319Y-90922664D01*
X118397408Y-90918794D01*
X118423750Y-90917500D01*
X119036250Y-90917500D01*
X119062592Y-90918794D01*
X119062592Y-90918794D01*
G37*
D11*
X118730000Y-91455000D03*
D10*
G36*
X119062592Y-89343794D02*
X119088681Y-89347664D01*
X119114264Y-89354072D01*
X119139096Y-89362957D01*
X119162938Y-89374234D01*
X119185560Y-89387793D01*
X119206743Y-89403503D01*
X119226285Y-89421215D01*
X119243997Y-89440757D01*
X119259707Y-89461940D01*
X119273266Y-89484562D01*
X119284543Y-89508404D01*
X119293428Y-89533236D01*
X119299836Y-89558819D01*
X119303706Y-89584908D01*
X119305000Y-89611250D01*
X119305000Y-90148750D01*
X119303706Y-90175092D01*
X119299836Y-90201181D01*
X119293428Y-90226764D01*
X119284543Y-90251596D01*
X119273266Y-90275438D01*
X119259707Y-90298060D01*
X119243997Y-90319243D01*
X119226285Y-90338785D01*
X119206743Y-90356497D01*
X119185560Y-90372207D01*
X119162938Y-90385766D01*
X119139096Y-90397043D01*
X119114264Y-90405928D01*
X119088681Y-90412336D01*
X119062592Y-90416206D01*
X119036250Y-90417500D01*
X118423750Y-90417500D01*
X118397408Y-90416206D01*
X118371319Y-90412336D01*
X118345736Y-90405928D01*
X118320904Y-90397043D01*
X118297062Y-90385766D01*
X118274440Y-90372207D01*
X118253257Y-90356497D01*
X118233715Y-90338785D01*
X118216003Y-90319243D01*
X118200293Y-90298060D01*
X118186734Y-90275438D01*
X118175457Y-90251596D01*
X118166572Y-90226764D01*
X118160164Y-90201181D01*
X118156294Y-90175092D01*
X118155000Y-90148750D01*
X118155000Y-89611250D01*
X118156294Y-89584908D01*
X118160164Y-89558819D01*
X118166572Y-89533236D01*
X118175457Y-89508404D01*
X118186734Y-89484562D01*
X118200293Y-89461940D01*
X118216003Y-89440757D01*
X118233715Y-89421215D01*
X118253257Y-89403503D01*
X118274440Y-89387793D01*
X118297062Y-89374234D01*
X118320904Y-89362957D01*
X118345736Y-89354072D01*
X118371319Y-89347664D01*
X118397408Y-89343794D01*
X118423750Y-89342500D01*
X119036250Y-89342500D01*
X119062592Y-89343794D01*
X119062592Y-89343794D01*
G37*
D11*
X118730000Y-89880000D03*
G04 #@! TD*
D10*
G04 #@! TO.C,C2*
G36*
X106442592Y-70423794D02*
X106468681Y-70427664D01*
X106494264Y-70434072D01*
X106519096Y-70442957D01*
X106542938Y-70454234D01*
X106565560Y-70467793D01*
X106586743Y-70483503D01*
X106606285Y-70501215D01*
X106623997Y-70520757D01*
X106639707Y-70541940D01*
X106653266Y-70564562D01*
X106664543Y-70588404D01*
X106673428Y-70613236D01*
X106679836Y-70638819D01*
X106683706Y-70664908D01*
X106685000Y-70691250D01*
X106685000Y-71228750D01*
X106683706Y-71255092D01*
X106679836Y-71281181D01*
X106673428Y-71306764D01*
X106664543Y-71331596D01*
X106653266Y-71355438D01*
X106639707Y-71378060D01*
X106623997Y-71399243D01*
X106606285Y-71418785D01*
X106586743Y-71436497D01*
X106565560Y-71452207D01*
X106542938Y-71465766D01*
X106519096Y-71477043D01*
X106494264Y-71485928D01*
X106468681Y-71492336D01*
X106442592Y-71496206D01*
X106416250Y-71497500D01*
X105803750Y-71497500D01*
X105777408Y-71496206D01*
X105751319Y-71492336D01*
X105725736Y-71485928D01*
X105700904Y-71477043D01*
X105677062Y-71465766D01*
X105654440Y-71452207D01*
X105633257Y-71436497D01*
X105613715Y-71418785D01*
X105596003Y-71399243D01*
X105580293Y-71378060D01*
X105566734Y-71355438D01*
X105555457Y-71331596D01*
X105546572Y-71306764D01*
X105540164Y-71281181D01*
X105536294Y-71255092D01*
X105535000Y-71228750D01*
X105535000Y-70691250D01*
X105536294Y-70664908D01*
X105540164Y-70638819D01*
X105546572Y-70613236D01*
X105555457Y-70588404D01*
X105566734Y-70564562D01*
X105580293Y-70541940D01*
X105596003Y-70520757D01*
X105613715Y-70501215D01*
X105633257Y-70483503D01*
X105654440Y-70467793D01*
X105677062Y-70454234D01*
X105700904Y-70442957D01*
X105725736Y-70434072D01*
X105751319Y-70427664D01*
X105777408Y-70423794D01*
X105803750Y-70422500D01*
X106416250Y-70422500D01*
X106442592Y-70423794D01*
X106442592Y-70423794D01*
G37*
D11*
X106110000Y-70960000D03*
D10*
G36*
X106442592Y-68848794D02*
X106468681Y-68852664D01*
X106494264Y-68859072D01*
X106519096Y-68867957D01*
X106542938Y-68879234D01*
X106565560Y-68892793D01*
X106586743Y-68908503D01*
X106606285Y-68926215D01*
X106623997Y-68945757D01*
X106639707Y-68966940D01*
X106653266Y-68989562D01*
X106664543Y-69013404D01*
X106673428Y-69038236D01*
X106679836Y-69063819D01*
X106683706Y-69089908D01*
X106685000Y-69116250D01*
X106685000Y-69653750D01*
X106683706Y-69680092D01*
X106679836Y-69706181D01*
X106673428Y-69731764D01*
X106664543Y-69756596D01*
X106653266Y-69780438D01*
X106639707Y-69803060D01*
X106623997Y-69824243D01*
X106606285Y-69843785D01*
X106586743Y-69861497D01*
X106565560Y-69877207D01*
X106542938Y-69890766D01*
X106519096Y-69902043D01*
X106494264Y-69910928D01*
X106468681Y-69917336D01*
X106442592Y-69921206D01*
X106416250Y-69922500D01*
X105803750Y-69922500D01*
X105777408Y-69921206D01*
X105751319Y-69917336D01*
X105725736Y-69910928D01*
X105700904Y-69902043D01*
X105677062Y-69890766D01*
X105654440Y-69877207D01*
X105633257Y-69861497D01*
X105613715Y-69843785D01*
X105596003Y-69824243D01*
X105580293Y-69803060D01*
X105566734Y-69780438D01*
X105555457Y-69756596D01*
X105546572Y-69731764D01*
X105540164Y-69706181D01*
X105536294Y-69680092D01*
X105535000Y-69653750D01*
X105535000Y-69116250D01*
X105536294Y-69089908D01*
X105540164Y-69063819D01*
X105546572Y-69038236D01*
X105555457Y-69013404D01*
X105566734Y-68989562D01*
X105580293Y-68966940D01*
X105596003Y-68945757D01*
X105613715Y-68926215D01*
X105633257Y-68908503D01*
X105654440Y-68892793D01*
X105677062Y-68879234D01*
X105700904Y-68867957D01*
X105725736Y-68859072D01*
X105751319Y-68852664D01*
X105777408Y-68848794D01*
X105803750Y-68847500D01*
X106416250Y-68847500D01*
X106442592Y-68848794D01*
X106442592Y-68848794D01*
G37*
D11*
X106110000Y-69385000D03*
G04 #@! TD*
D10*
G04 #@! TO.C,C1*
G36*
X106452592Y-72498794D02*
X106478681Y-72502664D01*
X106504264Y-72509072D01*
X106529096Y-72517957D01*
X106552938Y-72529234D01*
X106575560Y-72542793D01*
X106596743Y-72558503D01*
X106616285Y-72576215D01*
X106633997Y-72595757D01*
X106649707Y-72616940D01*
X106663266Y-72639562D01*
X106674543Y-72663404D01*
X106683428Y-72688236D01*
X106689836Y-72713819D01*
X106693706Y-72739908D01*
X106695000Y-72766250D01*
X106695000Y-73303750D01*
X106693706Y-73330092D01*
X106689836Y-73356181D01*
X106683428Y-73381764D01*
X106674543Y-73406596D01*
X106663266Y-73430438D01*
X106649707Y-73453060D01*
X106633997Y-73474243D01*
X106616285Y-73493785D01*
X106596743Y-73511497D01*
X106575560Y-73527207D01*
X106552938Y-73540766D01*
X106529096Y-73552043D01*
X106504264Y-73560928D01*
X106478681Y-73567336D01*
X106452592Y-73571206D01*
X106426250Y-73572500D01*
X105813750Y-73572500D01*
X105787408Y-73571206D01*
X105761319Y-73567336D01*
X105735736Y-73560928D01*
X105710904Y-73552043D01*
X105687062Y-73540766D01*
X105664440Y-73527207D01*
X105643257Y-73511497D01*
X105623715Y-73493785D01*
X105606003Y-73474243D01*
X105590293Y-73453060D01*
X105576734Y-73430438D01*
X105565457Y-73406596D01*
X105556572Y-73381764D01*
X105550164Y-73356181D01*
X105546294Y-73330092D01*
X105545000Y-73303750D01*
X105545000Y-72766250D01*
X105546294Y-72739908D01*
X105550164Y-72713819D01*
X105556572Y-72688236D01*
X105565457Y-72663404D01*
X105576734Y-72639562D01*
X105590293Y-72616940D01*
X105606003Y-72595757D01*
X105623715Y-72576215D01*
X105643257Y-72558503D01*
X105664440Y-72542793D01*
X105687062Y-72529234D01*
X105710904Y-72517957D01*
X105735736Y-72509072D01*
X105761319Y-72502664D01*
X105787408Y-72498794D01*
X105813750Y-72497500D01*
X106426250Y-72497500D01*
X106452592Y-72498794D01*
X106452592Y-72498794D01*
G37*
D11*
X106120000Y-73035000D03*
D10*
G36*
X106452592Y-74073794D02*
X106478681Y-74077664D01*
X106504264Y-74084072D01*
X106529096Y-74092957D01*
X106552938Y-74104234D01*
X106575560Y-74117793D01*
X106596743Y-74133503D01*
X106616285Y-74151215D01*
X106633997Y-74170757D01*
X106649707Y-74191940D01*
X106663266Y-74214562D01*
X106674543Y-74238404D01*
X106683428Y-74263236D01*
X106689836Y-74288819D01*
X106693706Y-74314908D01*
X106695000Y-74341250D01*
X106695000Y-74878750D01*
X106693706Y-74905092D01*
X106689836Y-74931181D01*
X106683428Y-74956764D01*
X106674543Y-74981596D01*
X106663266Y-75005438D01*
X106649707Y-75028060D01*
X106633997Y-75049243D01*
X106616285Y-75068785D01*
X106596743Y-75086497D01*
X106575560Y-75102207D01*
X106552938Y-75115766D01*
X106529096Y-75127043D01*
X106504264Y-75135928D01*
X106478681Y-75142336D01*
X106452592Y-75146206D01*
X106426250Y-75147500D01*
X105813750Y-75147500D01*
X105787408Y-75146206D01*
X105761319Y-75142336D01*
X105735736Y-75135928D01*
X105710904Y-75127043D01*
X105687062Y-75115766D01*
X105664440Y-75102207D01*
X105643257Y-75086497D01*
X105623715Y-75068785D01*
X105606003Y-75049243D01*
X105590293Y-75028060D01*
X105576734Y-75005438D01*
X105565457Y-74981596D01*
X105556572Y-74956764D01*
X105550164Y-74931181D01*
X105546294Y-74905092D01*
X105545000Y-74878750D01*
X105545000Y-74341250D01*
X105546294Y-74314908D01*
X105550164Y-74288819D01*
X105556572Y-74263236D01*
X105565457Y-74238404D01*
X105576734Y-74214562D01*
X105590293Y-74191940D01*
X105606003Y-74170757D01*
X105623715Y-74151215D01*
X105643257Y-74133503D01*
X105664440Y-74117793D01*
X105687062Y-74104234D01*
X105710904Y-74092957D01*
X105735736Y-74084072D01*
X105761319Y-74077664D01*
X105787408Y-74073794D01*
X105813750Y-74072500D01*
X106426250Y-74072500D01*
X106452592Y-74073794D01*
X106452592Y-74073794D01*
G37*
D11*
X106120000Y-74610000D03*
G04 #@! TD*
D25*
G04 #@! TO.C,U1*
X108900000Y-70640000D03*
X108900000Y-71140000D03*
X108900000Y-71640000D03*
X108900000Y-72140000D03*
X108900000Y-72640000D03*
X113300000Y-72640000D03*
X113300000Y-72140000D03*
X113300000Y-71640000D03*
X113300000Y-71140000D03*
X113300000Y-70640000D03*
G04 #@! TD*
D30*
G04 #@! TO.C,H1*
X82040000Y-64310000D03*
G04 #@! TD*
G04 #@! TO.C,H2*
X140040000Y-64330000D03*
G04 #@! TD*
G04 #@! TO.C,H3*
X82040000Y-113320000D03*
G04 #@! TD*
G04 #@! TO.C,H4*
X140030000Y-113310000D03*
G04 #@! TD*
M02*
