G04 #@! TF.GenerationSoftware,KiCad,Pcbnew,5.0.0-fee4fd1~66~ubuntu18.04.1*
G04 #@! TF.CreationDate,2018-11-03T07:12:00+00:00*
G04 #@! TF.ProjectId,DDS-hat,4444532D6861742E6B696361645F7063,rev?*
G04 #@! TF.SameCoordinates,Original*
G04 #@! TF.FileFunction,Soldermask,Bot*
G04 #@! TF.FilePolarity,Negative*
%FSLAX46Y46*%
G04 Gerber Fmt 4.6, Leading zero omitted, Abs format (unit mm)*
G04 Created by KiCad (PCBNEW 5.0.0-fee4fd1~66~ubuntu18.04.1) date Sat Nov  3 07:12:00 2018*
%MOMM*%
%LPD*%
G01*
G04 APERTURE LIST*
%ADD10C,0.100000*%
%ADD11R,1.200000X1.200000*%
%ADD12O,1.200000X1.200000*%
%ADD13O,1.700000X1.700000*%
%ADD14R,1.700000X1.700000*%
%ADD15R,1.700000X4.200000*%
%ADD16C,0.700000*%
%ADD17R,1.900000X1.900000*%
%ADD18O,1.900000X1.900000*%
%ADD19C,3.200000*%
G04 APERTURE END LIST*
D10*
X116300000Y-116820000D02*
X140546356Y-116817611D01*
X105960000Y-115110000D02*
X105960000Y-116817611D01*
X116300000Y-115110000D02*
X116300000Y-116820000D01*
X105960000Y-115110000D02*
X116300000Y-115110000D01*
X78546356Y-63817611D02*
X78546356Y-113817611D01*
X78546356Y-63817611D02*
G75*
G02X81546356Y-60817611I3000000J0D01*
G01*
X140546356Y-60817611D02*
X81546356Y-60817611D01*
X140546356Y-60817611D02*
G75*
G02X143546356Y-63817611I0J-3000000D01*
G01*
X143546356Y-113817611D02*
X143546356Y-63817611D01*
X81546356Y-116817611D02*
G75*
G02X78546356Y-113817611I0J3000000D01*
G01*
X81546356Y-116817611D02*
X105960000Y-116820000D01*
X143546351Y-113822847D02*
G75*
G02X140546356Y-116817611I-2999995J5236D01*
G01*
D11*
G04 #@! TO.C,J2*
X126380000Y-114430000D03*
D12*
X126380000Y-113160000D03*
G04 #@! TD*
G04 #@! TO.C,J5*
X97290000Y-92500000D03*
D11*
X97290000Y-91230000D03*
G04 #@! TD*
G04 #@! TO.C,J6*
X132640000Y-114440000D03*
D12*
X132640000Y-113170000D03*
G04 #@! TD*
D13*
G04 #@! TO.C,U4*
X81650000Y-76060000D03*
X96890000Y-83680000D03*
X89270000Y-76060000D03*
X94350000Y-76060000D03*
X96890000Y-76060000D03*
D14*
X81650000Y-83680000D03*
G04 #@! TD*
D15*
G04 #@! TO.C,J3*
X106860000Y-113040000D03*
X115360000Y-113040000D03*
G04 #@! TD*
D16*
G04 #@! TO.C,U5*
X110620000Y-101630000D03*
X111620000Y-101630000D03*
X110620000Y-102630000D03*
X111620000Y-102630000D03*
X111620000Y-104530000D03*
X110620000Y-104530000D03*
X110620000Y-103530000D03*
X111620000Y-103530000D03*
X109620000Y-102630000D03*
X109620000Y-104530000D03*
X109620000Y-103530000D03*
X109620000Y-101630000D03*
X112620000Y-101630000D03*
X112620000Y-104530000D03*
X112620000Y-102630000D03*
X112620000Y-103530000D03*
X111620000Y-100630000D03*
X112620000Y-100630000D03*
X109620000Y-99630000D03*
X110620000Y-100630000D03*
X112620000Y-99630000D03*
X109620000Y-100630000D03*
X110620000Y-99630000D03*
X111620000Y-99630000D03*
X112620000Y-98630000D03*
X111620000Y-98630000D03*
X109620000Y-98630000D03*
X110620000Y-98630000D03*
X110620000Y-105630000D03*
X109620000Y-105630000D03*
X112620000Y-105630000D03*
X111620000Y-105630000D03*
G04 #@! TD*
D17*
G04 #@! TO.C,J1*
X86890000Y-65610000D03*
D18*
X86890000Y-63070000D03*
X89430000Y-65610000D03*
X89430000Y-63070000D03*
X91970000Y-65610000D03*
X91970000Y-63070000D03*
X94510000Y-65610000D03*
X94510000Y-63070000D03*
X97050000Y-65610000D03*
X97050000Y-63070000D03*
X99590000Y-65610000D03*
X99590000Y-63070000D03*
X102130000Y-65610000D03*
X102130000Y-63070000D03*
X104670000Y-65610000D03*
X104670000Y-63070000D03*
X107210000Y-65610000D03*
X107210000Y-63070000D03*
X109750000Y-65610000D03*
X109750000Y-63070000D03*
X112290000Y-65610000D03*
X112290000Y-63070000D03*
X114830000Y-65610000D03*
X114830000Y-63070000D03*
X117370000Y-65610000D03*
X117370000Y-63070000D03*
X119910000Y-65610000D03*
X119910000Y-63070000D03*
X122450000Y-65610000D03*
X122450000Y-63070000D03*
X124990000Y-65610000D03*
X124990000Y-63070000D03*
X127530000Y-65610000D03*
X127530000Y-63070000D03*
X130070000Y-65610000D03*
X130070000Y-63070000D03*
X132610000Y-65610000D03*
X132610000Y-63070000D03*
X135150000Y-65610000D03*
X135150000Y-63070000D03*
G04 #@! TD*
D19*
G04 #@! TO.C,H1*
X82040000Y-64310000D03*
G04 #@! TD*
G04 #@! TO.C,H2*
X140040000Y-64330000D03*
G04 #@! TD*
G04 #@! TO.C,H3*
X82040000Y-113320000D03*
G04 #@! TD*
G04 #@! TO.C,H4*
X140030000Y-113310000D03*
G04 #@! TD*
M02*
