G04 #@! TF.GenerationSoftware,KiCad,Pcbnew,5.0.0-fee4fd1~66~ubuntu18.04.1*
G04 #@! TF.CreationDate,2018-11-03T07:12:00+00:00*
G04 #@! TF.ProjectId,DDS-hat,4444532D6861742E6B696361645F7063,rev?*
G04 #@! TF.SameCoordinates,Original*
G04 #@! TF.FileFunction,Soldermask,Top*
G04 #@! TF.FilePolarity,Negative*
%FSLAX46Y46*%
G04 Gerber Fmt 4.6, Leading zero omitted, Abs format (unit mm)*
G04 Created by KiCad (PCBNEW 5.0.0-fee4fd1~66~ubuntu18.04.1) date Sat Nov  3 07:12:00 2018*
%MOMM*%
%LPD*%
G01*
G04 APERTURE LIST*
%ADD10C,0.100000*%
%ADD11R,1.200000X1.200000*%
%ADD12O,1.200000X1.200000*%
%ADD13O,1.700000X1.700000*%
%ADD14R,1.700000X1.700000*%
%ADD15C,1.075000*%
%ADD16R,1.700000X4.200000*%
%ADD17R,2.150000X0.800000*%
%ADD18C,0.700000*%
%ADD19R,6.200000X12.200000*%
%ADD20R,0.900000X0.710000*%
%ADD21C,1.400000*%
%ADD22R,1.100000X1.000000*%
%ADD23C,1.550000*%
%ADD24C,1.200000*%
%ADD25R,1.500000X1.800000*%
%ADD26R,2.200000X1.800000*%
%ADD27R,2.200000X2.200000*%
%ADD28R,1.900000X1.900000*%
%ADD29O,1.900000X1.900000*%
%ADD30R,1.600000X0.500000*%
%ADD31R,1.650000X0.650000*%
%ADD32C,1.450000*%
%ADD33C,3.200000*%
G04 APERTURE END LIST*
D10*
X116300000Y-116820000D02*
X140546356Y-116817611D01*
X105960000Y-115110000D02*
X105960000Y-116817611D01*
X116300000Y-115110000D02*
X116300000Y-116820000D01*
X105960000Y-115110000D02*
X116300000Y-115110000D01*
X78546356Y-63817611D02*
X78546356Y-113817611D01*
X78546356Y-63817611D02*
G75*
G02X81546356Y-60817611I3000000J0D01*
G01*
X140546356Y-60817611D02*
X81546356Y-60817611D01*
X140546356Y-60817611D02*
G75*
G02X143546356Y-63817611I0J-3000000D01*
G01*
X143546356Y-113817611D02*
X143546356Y-63817611D01*
X81546356Y-116817611D02*
G75*
G02X78546356Y-113817611I0J3000000D01*
G01*
X81546356Y-116817611D02*
X105960000Y-116820000D01*
X143546351Y-113822847D02*
G75*
G02X140546356Y-116817611I-2999995J5236D01*
G01*
D11*
G04 #@! TO.C,J2*
X126380000Y-114430000D03*
D12*
X126380000Y-113160000D03*
G04 #@! TD*
G04 #@! TO.C,J5*
X97290000Y-92500000D03*
D11*
X97290000Y-91230000D03*
G04 #@! TD*
G04 #@! TO.C,J6*
X132640000Y-114440000D03*
D12*
X132640000Y-113170000D03*
G04 #@! TD*
D13*
G04 #@! TO.C,U4*
X81650000Y-76060000D03*
X96890000Y-83680000D03*
X89270000Y-76060000D03*
X94350000Y-76060000D03*
X96890000Y-76060000D03*
D14*
X81650000Y-83680000D03*
G04 #@! TD*
D10*
G04 #@! TO.C,C31*
G36*
X103582592Y-87251294D02*
X103608681Y-87255164D01*
X103634264Y-87261572D01*
X103659096Y-87270457D01*
X103682938Y-87281734D01*
X103705560Y-87295293D01*
X103726743Y-87311003D01*
X103746285Y-87328715D01*
X103763997Y-87348257D01*
X103779707Y-87369440D01*
X103793266Y-87392062D01*
X103804543Y-87415904D01*
X103813428Y-87440736D01*
X103819836Y-87466319D01*
X103823706Y-87492408D01*
X103825000Y-87518750D01*
X103825000Y-88056250D01*
X103823706Y-88082592D01*
X103819836Y-88108681D01*
X103813428Y-88134264D01*
X103804543Y-88159096D01*
X103793266Y-88182938D01*
X103779707Y-88205560D01*
X103763997Y-88226743D01*
X103746285Y-88246285D01*
X103726743Y-88263997D01*
X103705560Y-88279707D01*
X103682938Y-88293266D01*
X103659096Y-88304543D01*
X103634264Y-88313428D01*
X103608681Y-88319836D01*
X103582592Y-88323706D01*
X103556250Y-88325000D01*
X102943750Y-88325000D01*
X102917408Y-88323706D01*
X102891319Y-88319836D01*
X102865736Y-88313428D01*
X102840904Y-88304543D01*
X102817062Y-88293266D01*
X102794440Y-88279707D01*
X102773257Y-88263997D01*
X102753715Y-88246285D01*
X102736003Y-88226743D01*
X102720293Y-88205560D01*
X102706734Y-88182938D01*
X102695457Y-88159096D01*
X102686572Y-88134264D01*
X102680164Y-88108681D01*
X102676294Y-88082592D01*
X102675000Y-88056250D01*
X102675000Y-87518750D01*
X102676294Y-87492408D01*
X102680164Y-87466319D01*
X102686572Y-87440736D01*
X102695457Y-87415904D01*
X102706734Y-87392062D01*
X102720293Y-87369440D01*
X102736003Y-87348257D01*
X102753715Y-87328715D01*
X102773257Y-87311003D01*
X102794440Y-87295293D01*
X102817062Y-87281734D01*
X102840904Y-87270457D01*
X102865736Y-87261572D01*
X102891319Y-87255164D01*
X102917408Y-87251294D01*
X102943750Y-87250000D01*
X103556250Y-87250000D01*
X103582592Y-87251294D01*
X103582592Y-87251294D01*
G37*
D15*
X103250000Y-87787500D03*
D10*
G36*
X103582592Y-85676294D02*
X103608681Y-85680164D01*
X103634264Y-85686572D01*
X103659096Y-85695457D01*
X103682938Y-85706734D01*
X103705560Y-85720293D01*
X103726743Y-85736003D01*
X103746285Y-85753715D01*
X103763997Y-85773257D01*
X103779707Y-85794440D01*
X103793266Y-85817062D01*
X103804543Y-85840904D01*
X103813428Y-85865736D01*
X103819836Y-85891319D01*
X103823706Y-85917408D01*
X103825000Y-85943750D01*
X103825000Y-86481250D01*
X103823706Y-86507592D01*
X103819836Y-86533681D01*
X103813428Y-86559264D01*
X103804543Y-86584096D01*
X103793266Y-86607938D01*
X103779707Y-86630560D01*
X103763997Y-86651743D01*
X103746285Y-86671285D01*
X103726743Y-86688997D01*
X103705560Y-86704707D01*
X103682938Y-86718266D01*
X103659096Y-86729543D01*
X103634264Y-86738428D01*
X103608681Y-86744836D01*
X103582592Y-86748706D01*
X103556250Y-86750000D01*
X102943750Y-86750000D01*
X102917408Y-86748706D01*
X102891319Y-86744836D01*
X102865736Y-86738428D01*
X102840904Y-86729543D01*
X102817062Y-86718266D01*
X102794440Y-86704707D01*
X102773257Y-86688997D01*
X102753715Y-86671285D01*
X102736003Y-86651743D01*
X102720293Y-86630560D01*
X102706734Y-86607938D01*
X102695457Y-86584096D01*
X102686572Y-86559264D01*
X102680164Y-86533681D01*
X102676294Y-86507592D01*
X102675000Y-86481250D01*
X102675000Y-85943750D01*
X102676294Y-85917408D01*
X102680164Y-85891319D01*
X102686572Y-85865736D01*
X102695457Y-85840904D01*
X102706734Y-85817062D01*
X102720293Y-85794440D01*
X102736003Y-85773257D01*
X102753715Y-85753715D01*
X102773257Y-85736003D01*
X102794440Y-85720293D01*
X102817062Y-85706734D01*
X102840904Y-85695457D01*
X102865736Y-85686572D01*
X102891319Y-85680164D01*
X102917408Y-85676294D01*
X102943750Y-85675000D01*
X103556250Y-85675000D01*
X103582592Y-85676294D01*
X103582592Y-85676294D01*
G37*
D15*
X103250000Y-86212500D03*
G04 #@! TD*
D16*
G04 #@! TO.C,J3*
X115360000Y-113040000D03*
X111110000Y-113040000D03*
X106860000Y-113040000D03*
G04 #@! TD*
D17*
G04 #@! TO.C,U5*
X106420000Y-96415000D03*
X106420000Y-97685000D03*
X106420000Y-98955000D03*
X106420000Y-100225000D03*
X106420000Y-101495000D03*
X106420000Y-102765000D03*
X106420000Y-104035000D03*
X106420000Y-105305000D03*
X106420000Y-106575000D03*
X106420000Y-107845000D03*
X115820000Y-107845000D03*
X115820000Y-106575000D03*
X115820000Y-105305000D03*
X115820000Y-104035000D03*
X115820000Y-102765000D03*
X115820000Y-101495000D03*
X115820000Y-100225000D03*
X115820000Y-98955000D03*
X115820000Y-97685000D03*
X115820000Y-96415000D03*
D18*
X110620000Y-101630000D03*
D19*
X111120000Y-102130000D03*
X111120000Y-102130000D03*
D18*
X111620000Y-101630000D03*
X110620000Y-102630000D03*
X111620000Y-102630000D03*
X111620000Y-104530000D03*
X110620000Y-104530000D03*
X110620000Y-103530000D03*
X111620000Y-103530000D03*
X109620000Y-102630000D03*
X109620000Y-104530000D03*
X109620000Y-103530000D03*
X109620000Y-101630000D03*
X112620000Y-101630000D03*
X112620000Y-104530000D03*
X112620000Y-102630000D03*
X112620000Y-103530000D03*
X111620000Y-100630000D03*
X112620000Y-100630000D03*
X109620000Y-99630000D03*
X110620000Y-100630000D03*
X112620000Y-99630000D03*
X109620000Y-100630000D03*
X110620000Y-99630000D03*
X111620000Y-99630000D03*
X112620000Y-98630000D03*
X111620000Y-98630000D03*
X109620000Y-98630000D03*
X110620000Y-98630000D03*
X110620000Y-105630000D03*
X109620000Y-105630000D03*
X112620000Y-105630000D03*
X111620000Y-105630000D03*
G04 #@! TD*
D10*
G04 #@! TO.C,C30*
G36*
X112612592Y-74796294D02*
X112638681Y-74800164D01*
X112664264Y-74806572D01*
X112689096Y-74815457D01*
X112712938Y-74826734D01*
X112735560Y-74840293D01*
X112756743Y-74856003D01*
X112776285Y-74873715D01*
X112793997Y-74893257D01*
X112809707Y-74914440D01*
X112823266Y-74937062D01*
X112834543Y-74960904D01*
X112843428Y-74985736D01*
X112849836Y-75011319D01*
X112853706Y-75037408D01*
X112855000Y-75063750D01*
X112855000Y-75601250D01*
X112853706Y-75627592D01*
X112849836Y-75653681D01*
X112843428Y-75679264D01*
X112834543Y-75704096D01*
X112823266Y-75727938D01*
X112809707Y-75750560D01*
X112793997Y-75771743D01*
X112776285Y-75791285D01*
X112756743Y-75808997D01*
X112735560Y-75824707D01*
X112712938Y-75838266D01*
X112689096Y-75849543D01*
X112664264Y-75858428D01*
X112638681Y-75864836D01*
X112612592Y-75868706D01*
X112586250Y-75870000D01*
X111973750Y-75870000D01*
X111947408Y-75868706D01*
X111921319Y-75864836D01*
X111895736Y-75858428D01*
X111870904Y-75849543D01*
X111847062Y-75838266D01*
X111824440Y-75824707D01*
X111803257Y-75808997D01*
X111783715Y-75791285D01*
X111766003Y-75771743D01*
X111750293Y-75750560D01*
X111736734Y-75727938D01*
X111725457Y-75704096D01*
X111716572Y-75679264D01*
X111710164Y-75653681D01*
X111706294Y-75627592D01*
X111705000Y-75601250D01*
X111705000Y-75063750D01*
X111706294Y-75037408D01*
X111710164Y-75011319D01*
X111716572Y-74985736D01*
X111725457Y-74960904D01*
X111736734Y-74937062D01*
X111750293Y-74914440D01*
X111766003Y-74893257D01*
X111783715Y-74873715D01*
X111803257Y-74856003D01*
X111824440Y-74840293D01*
X111847062Y-74826734D01*
X111870904Y-74815457D01*
X111895736Y-74806572D01*
X111921319Y-74800164D01*
X111947408Y-74796294D01*
X111973750Y-74795000D01*
X112586250Y-74795000D01*
X112612592Y-74796294D01*
X112612592Y-74796294D01*
G37*
D15*
X112280000Y-75332500D03*
D10*
G36*
X112612592Y-76371294D02*
X112638681Y-76375164D01*
X112664264Y-76381572D01*
X112689096Y-76390457D01*
X112712938Y-76401734D01*
X112735560Y-76415293D01*
X112756743Y-76431003D01*
X112776285Y-76448715D01*
X112793997Y-76468257D01*
X112809707Y-76489440D01*
X112823266Y-76512062D01*
X112834543Y-76535904D01*
X112843428Y-76560736D01*
X112849836Y-76586319D01*
X112853706Y-76612408D01*
X112855000Y-76638750D01*
X112855000Y-77176250D01*
X112853706Y-77202592D01*
X112849836Y-77228681D01*
X112843428Y-77254264D01*
X112834543Y-77279096D01*
X112823266Y-77302938D01*
X112809707Y-77325560D01*
X112793997Y-77346743D01*
X112776285Y-77366285D01*
X112756743Y-77383997D01*
X112735560Y-77399707D01*
X112712938Y-77413266D01*
X112689096Y-77424543D01*
X112664264Y-77433428D01*
X112638681Y-77439836D01*
X112612592Y-77443706D01*
X112586250Y-77445000D01*
X111973750Y-77445000D01*
X111947408Y-77443706D01*
X111921319Y-77439836D01*
X111895736Y-77433428D01*
X111870904Y-77424543D01*
X111847062Y-77413266D01*
X111824440Y-77399707D01*
X111803257Y-77383997D01*
X111783715Y-77366285D01*
X111766003Y-77346743D01*
X111750293Y-77325560D01*
X111736734Y-77302938D01*
X111725457Y-77279096D01*
X111716572Y-77254264D01*
X111710164Y-77228681D01*
X111706294Y-77202592D01*
X111705000Y-77176250D01*
X111705000Y-76638750D01*
X111706294Y-76612408D01*
X111710164Y-76586319D01*
X111716572Y-76560736D01*
X111725457Y-76535904D01*
X111736734Y-76512062D01*
X111750293Y-76489440D01*
X111766003Y-76468257D01*
X111783715Y-76448715D01*
X111803257Y-76431003D01*
X111824440Y-76415293D01*
X111847062Y-76401734D01*
X111870904Y-76390457D01*
X111895736Y-76381572D01*
X111921319Y-76375164D01*
X111947408Y-76371294D01*
X111973750Y-76370000D01*
X112586250Y-76370000D01*
X112612592Y-76371294D01*
X112612592Y-76371294D01*
G37*
D15*
X112280000Y-76907500D03*
G04 #@! TD*
D10*
G04 #@! TO.C,R16*
G36*
X121272592Y-90981294D02*
X121298681Y-90985164D01*
X121324264Y-90991572D01*
X121349096Y-91000457D01*
X121372938Y-91011734D01*
X121395560Y-91025293D01*
X121416743Y-91041003D01*
X121436285Y-91058715D01*
X121453997Y-91078257D01*
X121469707Y-91099440D01*
X121483266Y-91122062D01*
X121494543Y-91145904D01*
X121503428Y-91170736D01*
X121509836Y-91196319D01*
X121513706Y-91222408D01*
X121515000Y-91248750D01*
X121515000Y-91786250D01*
X121513706Y-91812592D01*
X121509836Y-91838681D01*
X121503428Y-91864264D01*
X121494543Y-91889096D01*
X121483266Y-91912938D01*
X121469707Y-91935560D01*
X121453997Y-91956743D01*
X121436285Y-91976285D01*
X121416743Y-91993997D01*
X121395560Y-92009707D01*
X121372938Y-92023266D01*
X121349096Y-92034543D01*
X121324264Y-92043428D01*
X121298681Y-92049836D01*
X121272592Y-92053706D01*
X121246250Y-92055000D01*
X120633750Y-92055000D01*
X120607408Y-92053706D01*
X120581319Y-92049836D01*
X120555736Y-92043428D01*
X120530904Y-92034543D01*
X120507062Y-92023266D01*
X120484440Y-92009707D01*
X120463257Y-91993997D01*
X120443715Y-91976285D01*
X120426003Y-91956743D01*
X120410293Y-91935560D01*
X120396734Y-91912938D01*
X120385457Y-91889096D01*
X120376572Y-91864264D01*
X120370164Y-91838681D01*
X120366294Y-91812592D01*
X120365000Y-91786250D01*
X120365000Y-91248750D01*
X120366294Y-91222408D01*
X120370164Y-91196319D01*
X120376572Y-91170736D01*
X120385457Y-91145904D01*
X120396734Y-91122062D01*
X120410293Y-91099440D01*
X120426003Y-91078257D01*
X120443715Y-91058715D01*
X120463257Y-91041003D01*
X120484440Y-91025293D01*
X120507062Y-91011734D01*
X120530904Y-91000457D01*
X120555736Y-90991572D01*
X120581319Y-90985164D01*
X120607408Y-90981294D01*
X120633750Y-90980000D01*
X121246250Y-90980000D01*
X121272592Y-90981294D01*
X121272592Y-90981294D01*
G37*
D15*
X120940000Y-91517500D03*
D10*
G36*
X121272592Y-89406294D02*
X121298681Y-89410164D01*
X121324264Y-89416572D01*
X121349096Y-89425457D01*
X121372938Y-89436734D01*
X121395560Y-89450293D01*
X121416743Y-89466003D01*
X121436285Y-89483715D01*
X121453997Y-89503257D01*
X121469707Y-89524440D01*
X121483266Y-89547062D01*
X121494543Y-89570904D01*
X121503428Y-89595736D01*
X121509836Y-89621319D01*
X121513706Y-89647408D01*
X121515000Y-89673750D01*
X121515000Y-90211250D01*
X121513706Y-90237592D01*
X121509836Y-90263681D01*
X121503428Y-90289264D01*
X121494543Y-90314096D01*
X121483266Y-90337938D01*
X121469707Y-90360560D01*
X121453997Y-90381743D01*
X121436285Y-90401285D01*
X121416743Y-90418997D01*
X121395560Y-90434707D01*
X121372938Y-90448266D01*
X121349096Y-90459543D01*
X121324264Y-90468428D01*
X121298681Y-90474836D01*
X121272592Y-90478706D01*
X121246250Y-90480000D01*
X120633750Y-90480000D01*
X120607408Y-90478706D01*
X120581319Y-90474836D01*
X120555736Y-90468428D01*
X120530904Y-90459543D01*
X120507062Y-90448266D01*
X120484440Y-90434707D01*
X120463257Y-90418997D01*
X120443715Y-90401285D01*
X120426003Y-90381743D01*
X120410293Y-90360560D01*
X120396734Y-90337938D01*
X120385457Y-90314096D01*
X120376572Y-90289264D01*
X120370164Y-90263681D01*
X120366294Y-90237592D01*
X120365000Y-90211250D01*
X120365000Y-89673750D01*
X120366294Y-89647408D01*
X120370164Y-89621319D01*
X120376572Y-89595736D01*
X120385457Y-89570904D01*
X120396734Y-89547062D01*
X120410293Y-89524440D01*
X120426003Y-89503257D01*
X120443715Y-89483715D01*
X120463257Y-89466003D01*
X120484440Y-89450293D01*
X120507062Y-89436734D01*
X120530904Y-89425457D01*
X120555736Y-89416572D01*
X120581319Y-89410164D01*
X120607408Y-89406294D01*
X120633750Y-89405000D01*
X121246250Y-89405000D01*
X121272592Y-89406294D01*
X121272592Y-89406294D01*
G37*
D15*
X120940000Y-89942500D03*
G04 #@! TD*
D20*
G04 #@! TO.C,U6*
X126750000Y-105940000D03*
X126750000Y-106890000D03*
X126750000Y-107840000D03*
X129070000Y-107840000D03*
X129070000Y-105940000D03*
G04 #@! TD*
D10*
G04 #@! TO.C,C29*
G36*
X131312592Y-105396294D02*
X131338681Y-105400164D01*
X131364264Y-105406572D01*
X131389096Y-105415457D01*
X131412938Y-105426734D01*
X131435560Y-105440293D01*
X131456743Y-105456003D01*
X131476285Y-105473715D01*
X131493997Y-105493257D01*
X131509707Y-105514440D01*
X131523266Y-105537062D01*
X131534543Y-105560904D01*
X131543428Y-105585736D01*
X131549836Y-105611319D01*
X131553706Y-105637408D01*
X131555000Y-105663750D01*
X131555000Y-106201250D01*
X131553706Y-106227592D01*
X131549836Y-106253681D01*
X131543428Y-106279264D01*
X131534543Y-106304096D01*
X131523266Y-106327938D01*
X131509707Y-106350560D01*
X131493997Y-106371743D01*
X131476285Y-106391285D01*
X131456743Y-106408997D01*
X131435560Y-106424707D01*
X131412938Y-106438266D01*
X131389096Y-106449543D01*
X131364264Y-106458428D01*
X131338681Y-106464836D01*
X131312592Y-106468706D01*
X131286250Y-106470000D01*
X130673750Y-106470000D01*
X130647408Y-106468706D01*
X130621319Y-106464836D01*
X130595736Y-106458428D01*
X130570904Y-106449543D01*
X130547062Y-106438266D01*
X130524440Y-106424707D01*
X130503257Y-106408997D01*
X130483715Y-106391285D01*
X130466003Y-106371743D01*
X130450293Y-106350560D01*
X130436734Y-106327938D01*
X130425457Y-106304096D01*
X130416572Y-106279264D01*
X130410164Y-106253681D01*
X130406294Y-106227592D01*
X130405000Y-106201250D01*
X130405000Y-105663750D01*
X130406294Y-105637408D01*
X130410164Y-105611319D01*
X130416572Y-105585736D01*
X130425457Y-105560904D01*
X130436734Y-105537062D01*
X130450293Y-105514440D01*
X130466003Y-105493257D01*
X130483715Y-105473715D01*
X130503257Y-105456003D01*
X130524440Y-105440293D01*
X130547062Y-105426734D01*
X130570904Y-105415457D01*
X130595736Y-105406572D01*
X130621319Y-105400164D01*
X130647408Y-105396294D01*
X130673750Y-105395000D01*
X131286250Y-105395000D01*
X131312592Y-105396294D01*
X131312592Y-105396294D01*
G37*
D15*
X130980000Y-105932500D03*
D10*
G36*
X131312592Y-106971294D02*
X131338681Y-106975164D01*
X131364264Y-106981572D01*
X131389096Y-106990457D01*
X131412938Y-107001734D01*
X131435560Y-107015293D01*
X131456743Y-107031003D01*
X131476285Y-107048715D01*
X131493997Y-107068257D01*
X131509707Y-107089440D01*
X131523266Y-107112062D01*
X131534543Y-107135904D01*
X131543428Y-107160736D01*
X131549836Y-107186319D01*
X131553706Y-107212408D01*
X131555000Y-107238750D01*
X131555000Y-107776250D01*
X131553706Y-107802592D01*
X131549836Y-107828681D01*
X131543428Y-107854264D01*
X131534543Y-107879096D01*
X131523266Y-107902938D01*
X131509707Y-107925560D01*
X131493997Y-107946743D01*
X131476285Y-107966285D01*
X131456743Y-107983997D01*
X131435560Y-107999707D01*
X131412938Y-108013266D01*
X131389096Y-108024543D01*
X131364264Y-108033428D01*
X131338681Y-108039836D01*
X131312592Y-108043706D01*
X131286250Y-108045000D01*
X130673750Y-108045000D01*
X130647408Y-108043706D01*
X130621319Y-108039836D01*
X130595736Y-108033428D01*
X130570904Y-108024543D01*
X130547062Y-108013266D01*
X130524440Y-107999707D01*
X130503257Y-107983997D01*
X130483715Y-107966285D01*
X130466003Y-107946743D01*
X130450293Y-107925560D01*
X130436734Y-107902938D01*
X130425457Y-107879096D01*
X130416572Y-107854264D01*
X130410164Y-107828681D01*
X130406294Y-107802592D01*
X130405000Y-107776250D01*
X130405000Y-107238750D01*
X130406294Y-107212408D01*
X130410164Y-107186319D01*
X130416572Y-107160736D01*
X130425457Y-107135904D01*
X130436734Y-107112062D01*
X130450293Y-107089440D01*
X130466003Y-107068257D01*
X130483715Y-107048715D01*
X130503257Y-107031003D01*
X130524440Y-107015293D01*
X130547062Y-107001734D01*
X130570904Y-106990457D01*
X130595736Y-106981572D01*
X130621319Y-106975164D01*
X130647408Y-106971294D01*
X130673750Y-106970000D01*
X131286250Y-106970000D01*
X131312592Y-106971294D01*
X131312592Y-106971294D01*
G37*
D15*
X130980000Y-107507500D03*
G04 #@! TD*
D10*
G04 #@! TO.C,D1*
G36*
X102887547Y-111928794D02*
X102913640Y-111932665D01*
X102939229Y-111939074D01*
X102964065Y-111947961D01*
X102987911Y-111959240D01*
X103010537Y-111972801D01*
X103031725Y-111988515D01*
X103051270Y-112006230D01*
X103068985Y-112025775D01*
X103084699Y-112046963D01*
X103098260Y-112069589D01*
X103109539Y-112093435D01*
X103118426Y-112118271D01*
X103124835Y-112143860D01*
X103128706Y-112169953D01*
X103130000Y-112196300D01*
X103130000Y-113058700D01*
X103128706Y-113085047D01*
X103124835Y-113111140D01*
X103118426Y-113136729D01*
X103109539Y-113161565D01*
X103098260Y-113185411D01*
X103084699Y-113208037D01*
X103068985Y-113229225D01*
X103051270Y-113248770D01*
X103031725Y-113266485D01*
X103010537Y-113282199D01*
X102987911Y-113295760D01*
X102964065Y-113307039D01*
X102939229Y-113315926D01*
X102913640Y-113322335D01*
X102887547Y-113326206D01*
X102861200Y-113327500D01*
X101998800Y-113327500D01*
X101972453Y-113326206D01*
X101946360Y-113322335D01*
X101920771Y-113315926D01*
X101895935Y-113307039D01*
X101872089Y-113295760D01*
X101849463Y-113282199D01*
X101828275Y-113266485D01*
X101808730Y-113248770D01*
X101791015Y-113229225D01*
X101775301Y-113208037D01*
X101761740Y-113185411D01*
X101750461Y-113161565D01*
X101741574Y-113136729D01*
X101735165Y-113111140D01*
X101731294Y-113085047D01*
X101730000Y-113058700D01*
X101730000Y-112196300D01*
X101731294Y-112169953D01*
X101735165Y-112143860D01*
X101741574Y-112118271D01*
X101750461Y-112093435D01*
X101761740Y-112069589D01*
X101775301Y-112046963D01*
X101791015Y-112025775D01*
X101808730Y-112006230D01*
X101828275Y-111988515D01*
X101849463Y-111972801D01*
X101872089Y-111959240D01*
X101895935Y-111947961D01*
X101920771Y-111939074D01*
X101946360Y-111932665D01*
X101972453Y-111928794D01*
X101998800Y-111927500D01*
X102861200Y-111927500D01*
X102887547Y-111928794D01*
X102887547Y-111928794D01*
G37*
D21*
X102430000Y-112627500D03*
D10*
G36*
X102887547Y-114053794D02*
X102913640Y-114057665D01*
X102939229Y-114064074D01*
X102964065Y-114072961D01*
X102987911Y-114084240D01*
X103010537Y-114097801D01*
X103031725Y-114113515D01*
X103051270Y-114131230D01*
X103068985Y-114150775D01*
X103084699Y-114171963D01*
X103098260Y-114194589D01*
X103109539Y-114218435D01*
X103118426Y-114243271D01*
X103124835Y-114268860D01*
X103128706Y-114294953D01*
X103130000Y-114321300D01*
X103130000Y-115183700D01*
X103128706Y-115210047D01*
X103124835Y-115236140D01*
X103118426Y-115261729D01*
X103109539Y-115286565D01*
X103098260Y-115310411D01*
X103084699Y-115333037D01*
X103068985Y-115354225D01*
X103051270Y-115373770D01*
X103031725Y-115391485D01*
X103010537Y-115407199D01*
X102987911Y-115420760D01*
X102964065Y-115432039D01*
X102939229Y-115440926D01*
X102913640Y-115447335D01*
X102887547Y-115451206D01*
X102861200Y-115452500D01*
X101998800Y-115452500D01*
X101972453Y-115451206D01*
X101946360Y-115447335D01*
X101920771Y-115440926D01*
X101895935Y-115432039D01*
X101872089Y-115420760D01*
X101849463Y-115407199D01*
X101828275Y-115391485D01*
X101808730Y-115373770D01*
X101791015Y-115354225D01*
X101775301Y-115333037D01*
X101761740Y-115310411D01*
X101750461Y-115286565D01*
X101741574Y-115261729D01*
X101735165Y-115236140D01*
X101731294Y-115210047D01*
X101730000Y-115183700D01*
X101730000Y-114321300D01*
X101731294Y-114294953D01*
X101735165Y-114268860D01*
X101741574Y-114243271D01*
X101750461Y-114218435D01*
X101761740Y-114194589D01*
X101775301Y-114171963D01*
X101791015Y-114150775D01*
X101808730Y-114131230D01*
X101828275Y-114113515D01*
X101849463Y-114097801D01*
X101872089Y-114084240D01*
X101895935Y-114072961D01*
X101920771Y-114064074D01*
X101946360Y-114057665D01*
X101972453Y-114053794D01*
X101998800Y-114052500D01*
X102861200Y-114052500D01*
X102887547Y-114053794D01*
X102887547Y-114053794D01*
G37*
D21*
X102430000Y-114752500D03*
G04 #@! TD*
D22*
G04 #@! TO.C,Q1*
X97120000Y-109820000D03*
X97120000Y-111720000D03*
X99120000Y-110770000D03*
G04 #@! TD*
D10*
G04 #@! TO.C,R15*
G36*
X105102592Y-114231294D02*
X105128681Y-114235164D01*
X105154264Y-114241572D01*
X105179096Y-114250457D01*
X105202938Y-114261734D01*
X105225560Y-114275293D01*
X105246743Y-114291003D01*
X105266285Y-114308715D01*
X105283997Y-114328257D01*
X105299707Y-114349440D01*
X105313266Y-114372062D01*
X105324543Y-114395904D01*
X105333428Y-114420736D01*
X105339836Y-114446319D01*
X105343706Y-114472408D01*
X105345000Y-114498750D01*
X105345000Y-115036250D01*
X105343706Y-115062592D01*
X105339836Y-115088681D01*
X105333428Y-115114264D01*
X105324543Y-115139096D01*
X105313266Y-115162938D01*
X105299707Y-115185560D01*
X105283997Y-115206743D01*
X105266285Y-115226285D01*
X105246743Y-115243997D01*
X105225560Y-115259707D01*
X105202938Y-115273266D01*
X105179096Y-115284543D01*
X105154264Y-115293428D01*
X105128681Y-115299836D01*
X105102592Y-115303706D01*
X105076250Y-115305000D01*
X104463750Y-115305000D01*
X104437408Y-115303706D01*
X104411319Y-115299836D01*
X104385736Y-115293428D01*
X104360904Y-115284543D01*
X104337062Y-115273266D01*
X104314440Y-115259707D01*
X104293257Y-115243997D01*
X104273715Y-115226285D01*
X104256003Y-115206743D01*
X104240293Y-115185560D01*
X104226734Y-115162938D01*
X104215457Y-115139096D01*
X104206572Y-115114264D01*
X104200164Y-115088681D01*
X104196294Y-115062592D01*
X104195000Y-115036250D01*
X104195000Y-114498750D01*
X104196294Y-114472408D01*
X104200164Y-114446319D01*
X104206572Y-114420736D01*
X104215457Y-114395904D01*
X104226734Y-114372062D01*
X104240293Y-114349440D01*
X104256003Y-114328257D01*
X104273715Y-114308715D01*
X104293257Y-114291003D01*
X104314440Y-114275293D01*
X104337062Y-114261734D01*
X104360904Y-114250457D01*
X104385736Y-114241572D01*
X104411319Y-114235164D01*
X104437408Y-114231294D01*
X104463750Y-114230000D01*
X105076250Y-114230000D01*
X105102592Y-114231294D01*
X105102592Y-114231294D01*
G37*
D15*
X104770000Y-114767500D03*
D10*
G36*
X105102592Y-112656294D02*
X105128681Y-112660164D01*
X105154264Y-112666572D01*
X105179096Y-112675457D01*
X105202938Y-112686734D01*
X105225560Y-112700293D01*
X105246743Y-112716003D01*
X105266285Y-112733715D01*
X105283997Y-112753257D01*
X105299707Y-112774440D01*
X105313266Y-112797062D01*
X105324543Y-112820904D01*
X105333428Y-112845736D01*
X105339836Y-112871319D01*
X105343706Y-112897408D01*
X105345000Y-112923750D01*
X105345000Y-113461250D01*
X105343706Y-113487592D01*
X105339836Y-113513681D01*
X105333428Y-113539264D01*
X105324543Y-113564096D01*
X105313266Y-113587938D01*
X105299707Y-113610560D01*
X105283997Y-113631743D01*
X105266285Y-113651285D01*
X105246743Y-113668997D01*
X105225560Y-113684707D01*
X105202938Y-113698266D01*
X105179096Y-113709543D01*
X105154264Y-113718428D01*
X105128681Y-113724836D01*
X105102592Y-113728706D01*
X105076250Y-113730000D01*
X104463750Y-113730000D01*
X104437408Y-113728706D01*
X104411319Y-113724836D01*
X104385736Y-113718428D01*
X104360904Y-113709543D01*
X104337062Y-113698266D01*
X104314440Y-113684707D01*
X104293257Y-113668997D01*
X104273715Y-113651285D01*
X104256003Y-113631743D01*
X104240293Y-113610560D01*
X104226734Y-113587938D01*
X104215457Y-113564096D01*
X104206572Y-113539264D01*
X104200164Y-113513681D01*
X104196294Y-113487592D01*
X104195000Y-113461250D01*
X104195000Y-112923750D01*
X104196294Y-112897408D01*
X104200164Y-112871319D01*
X104206572Y-112845736D01*
X104215457Y-112820904D01*
X104226734Y-112797062D01*
X104240293Y-112774440D01*
X104256003Y-112753257D01*
X104273715Y-112733715D01*
X104293257Y-112716003D01*
X104314440Y-112700293D01*
X104337062Y-112686734D01*
X104360904Y-112675457D01*
X104385736Y-112666572D01*
X104411319Y-112660164D01*
X104437408Y-112656294D01*
X104463750Y-112655000D01*
X105076250Y-112655000D01*
X105102592Y-112656294D01*
X105102592Y-112656294D01*
G37*
D15*
X104770000Y-113192500D03*
G04 #@! TD*
D10*
G04 #@! TO.C,C28*
G36*
X89994592Y-105889794D02*
X90020681Y-105893664D01*
X90046264Y-105900072D01*
X90071096Y-105908957D01*
X90094938Y-105920234D01*
X90117560Y-105933793D01*
X90138743Y-105949503D01*
X90158285Y-105967215D01*
X90175997Y-105986757D01*
X90191707Y-106007940D01*
X90205266Y-106030562D01*
X90216543Y-106054404D01*
X90225428Y-106079236D01*
X90231836Y-106104819D01*
X90235706Y-106130908D01*
X90237000Y-106157250D01*
X90237000Y-106694750D01*
X90235706Y-106721092D01*
X90231836Y-106747181D01*
X90225428Y-106772764D01*
X90216543Y-106797596D01*
X90205266Y-106821438D01*
X90191707Y-106844060D01*
X90175997Y-106865243D01*
X90158285Y-106884785D01*
X90138743Y-106902497D01*
X90117560Y-106918207D01*
X90094938Y-106931766D01*
X90071096Y-106943043D01*
X90046264Y-106951928D01*
X90020681Y-106958336D01*
X89994592Y-106962206D01*
X89968250Y-106963500D01*
X89355750Y-106963500D01*
X89329408Y-106962206D01*
X89303319Y-106958336D01*
X89277736Y-106951928D01*
X89252904Y-106943043D01*
X89229062Y-106931766D01*
X89206440Y-106918207D01*
X89185257Y-106902497D01*
X89165715Y-106884785D01*
X89148003Y-106865243D01*
X89132293Y-106844060D01*
X89118734Y-106821438D01*
X89107457Y-106797596D01*
X89098572Y-106772764D01*
X89092164Y-106747181D01*
X89088294Y-106721092D01*
X89087000Y-106694750D01*
X89087000Y-106157250D01*
X89088294Y-106130908D01*
X89092164Y-106104819D01*
X89098572Y-106079236D01*
X89107457Y-106054404D01*
X89118734Y-106030562D01*
X89132293Y-106007940D01*
X89148003Y-105986757D01*
X89165715Y-105967215D01*
X89185257Y-105949503D01*
X89206440Y-105933793D01*
X89229062Y-105920234D01*
X89252904Y-105908957D01*
X89277736Y-105900072D01*
X89303319Y-105893664D01*
X89329408Y-105889794D01*
X89355750Y-105888500D01*
X89968250Y-105888500D01*
X89994592Y-105889794D01*
X89994592Y-105889794D01*
G37*
D15*
X89662000Y-106426000D03*
D10*
G36*
X89994592Y-107464794D02*
X90020681Y-107468664D01*
X90046264Y-107475072D01*
X90071096Y-107483957D01*
X90094938Y-107495234D01*
X90117560Y-107508793D01*
X90138743Y-107524503D01*
X90158285Y-107542215D01*
X90175997Y-107561757D01*
X90191707Y-107582940D01*
X90205266Y-107605562D01*
X90216543Y-107629404D01*
X90225428Y-107654236D01*
X90231836Y-107679819D01*
X90235706Y-107705908D01*
X90237000Y-107732250D01*
X90237000Y-108269750D01*
X90235706Y-108296092D01*
X90231836Y-108322181D01*
X90225428Y-108347764D01*
X90216543Y-108372596D01*
X90205266Y-108396438D01*
X90191707Y-108419060D01*
X90175997Y-108440243D01*
X90158285Y-108459785D01*
X90138743Y-108477497D01*
X90117560Y-108493207D01*
X90094938Y-108506766D01*
X90071096Y-108518043D01*
X90046264Y-108526928D01*
X90020681Y-108533336D01*
X89994592Y-108537206D01*
X89968250Y-108538500D01*
X89355750Y-108538500D01*
X89329408Y-108537206D01*
X89303319Y-108533336D01*
X89277736Y-108526928D01*
X89252904Y-108518043D01*
X89229062Y-108506766D01*
X89206440Y-108493207D01*
X89185257Y-108477497D01*
X89165715Y-108459785D01*
X89148003Y-108440243D01*
X89132293Y-108419060D01*
X89118734Y-108396438D01*
X89107457Y-108372596D01*
X89098572Y-108347764D01*
X89092164Y-108322181D01*
X89088294Y-108296092D01*
X89087000Y-108269750D01*
X89087000Y-107732250D01*
X89088294Y-107705908D01*
X89092164Y-107679819D01*
X89098572Y-107654236D01*
X89107457Y-107629404D01*
X89118734Y-107605562D01*
X89132293Y-107582940D01*
X89148003Y-107561757D01*
X89165715Y-107542215D01*
X89185257Y-107524503D01*
X89206440Y-107508793D01*
X89229062Y-107495234D01*
X89252904Y-107483957D01*
X89277736Y-107475072D01*
X89303319Y-107468664D01*
X89329408Y-107464794D01*
X89355750Y-107463500D01*
X89968250Y-107463500D01*
X89994592Y-107464794D01*
X89994592Y-107464794D01*
G37*
D15*
X89662000Y-108001000D03*
G04 #@! TD*
D10*
G04 #@! TO.C,C27*
G36*
X92892592Y-102416294D02*
X92918681Y-102420164D01*
X92944264Y-102426572D01*
X92969096Y-102435457D01*
X92992938Y-102446734D01*
X93015560Y-102460293D01*
X93036743Y-102476003D01*
X93056285Y-102493715D01*
X93073997Y-102513257D01*
X93089707Y-102534440D01*
X93103266Y-102557062D01*
X93114543Y-102580904D01*
X93123428Y-102605736D01*
X93129836Y-102631319D01*
X93133706Y-102657408D01*
X93135000Y-102683750D01*
X93135000Y-103221250D01*
X93133706Y-103247592D01*
X93129836Y-103273681D01*
X93123428Y-103299264D01*
X93114543Y-103324096D01*
X93103266Y-103347938D01*
X93089707Y-103370560D01*
X93073997Y-103391743D01*
X93056285Y-103411285D01*
X93036743Y-103428997D01*
X93015560Y-103444707D01*
X92992938Y-103458266D01*
X92969096Y-103469543D01*
X92944264Y-103478428D01*
X92918681Y-103484836D01*
X92892592Y-103488706D01*
X92866250Y-103490000D01*
X92253750Y-103490000D01*
X92227408Y-103488706D01*
X92201319Y-103484836D01*
X92175736Y-103478428D01*
X92150904Y-103469543D01*
X92127062Y-103458266D01*
X92104440Y-103444707D01*
X92083257Y-103428997D01*
X92063715Y-103411285D01*
X92046003Y-103391743D01*
X92030293Y-103370560D01*
X92016734Y-103347938D01*
X92005457Y-103324096D01*
X91996572Y-103299264D01*
X91990164Y-103273681D01*
X91986294Y-103247592D01*
X91985000Y-103221250D01*
X91985000Y-102683750D01*
X91986294Y-102657408D01*
X91990164Y-102631319D01*
X91996572Y-102605736D01*
X92005457Y-102580904D01*
X92016734Y-102557062D01*
X92030293Y-102534440D01*
X92046003Y-102513257D01*
X92063715Y-102493715D01*
X92083257Y-102476003D01*
X92104440Y-102460293D01*
X92127062Y-102446734D01*
X92150904Y-102435457D01*
X92175736Y-102426572D01*
X92201319Y-102420164D01*
X92227408Y-102416294D01*
X92253750Y-102415000D01*
X92866250Y-102415000D01*
X92892592Y-102416294D01*
X92892592Y-102416294D01*
G37*
D15*
X92560000Y-102952500D03*
D10*
G36*
X92892592Y-103991294D02*
X92918681Y-103995164D01*
X92944264Y-104001572D01*
X92969096Y-104010457D01*
X92992938Y-104021734D01*
X93015560Y-104035293D01*
X93036743Y-104051003D01*
X93056285Y-104068715D01*
X93073997Y-104088257D01*
X93089707Y-104109440D01*
X93103266Y-104132062D01*
X93114543Y-104155904D01*
X93123428Y-104180736D01*
X93129836Y-104206319D01*
X93133706Y-104232408D01*
X93135000Y-104258750D01*
X93135000Y-104796250D01*
X93133706Y-104822592D01*
X93129836Y-104848681D01*
X93123428Y-104874264D01*
X93114543Y-104899096D01*
X93103266Y-104922938D01*
X93089707Y-104945560D01*
X93073997Y-104966743D01*
X93056285Y-104986285D01*
X93036743Y-105003997D01*
X93015560Y-105019707D01*
X92992938Y-105033266D01*
X92969096Y-105044543D01*
X92944264Y-105053428D01*
X92918681Y-105059836D01*
X92892592Y-105063706D01*
X92866250Y-105065000D01*
X92253750Y-105065000D01*
X92227408Y-105063706D01*
X92201319Y-105059836D01*
X92175736Y-105053428D01*
X92150904Y-105044543D01*
X92127062Y-105033266D01*
X92104440Y-105019707D01*
X92083257Y-105003997D01*
X92063715Y-104986285D01*
X92046003Y-104966743D01*
X92030293Y-104945560D01*
X92016734Y-104922938D01*
X92005457Y-104899096D01*
X91996572Y-104874264D01*
X91990164Y-104848681D01*
X91986294Y-104822592D01*
X91985000Y-104796250D01*
X91985000Y-104258750D01*
X91986294Y-104232408D01*
X91990164Y-104206319D01*
X91996572Y-104180736D01*
X92005457Y-104155904D01*
X92016734Y-104132062D01*
X92030293Y-104109440D01*
X92046003Y-104088257D01*
X92063715Y-104068715D01*
X92083257Y-104051003D01*
X92104440Y-104035293D01*
X92127062Y-104021734D01*
X92150904Y-104010457D01*
X92175736Y-104001572D01*
X92201319Y-103995164D01*
X92227408Y-103991294D01*
X92253750Y-103990000D01*
X92866250Y-103990000D01*
X92892592Y-103991294D01*
X92892592Y-103991294D01*
G37*
D15*
X92560000Y-104527500D03*
G04 #@! TD*
D10*
G04 #@! TO.C,C26*
G36*
X87052592Y-102506294D02*
X87078681Y-102510164D01*
X87104264Y-102516572D01*
X87129096Y-102525457D01*
X87152938Y-102536734D01*
X87175560Y-102550293D01*
X87196743Y-102566003D01*
X87216285Y-102583715D01*
X87233997Y-102603257D01*
X87249707Y-102624440D01*
X87263266Y-102647062D01*
X87274543Y-102670904D01*
X87283428Y-102695736D01*
X87289836Y-102721319D01*
X87293706Y-102747408D01*
X87295000Y-102773750D01*
X87295000Y-103311250D01*
X87293706Y-103337592D01*
X87289836Y-103363681D01*
X87283428Y-103389264D01*
X87274543Y-103414096D01*
X87263266Y-103437938D01*
X87249707Y-103460560D01*
X87233997Y-103481743D01*
X87216285Y-103501285D01*
X87196743Y-103518997D01*
X87175560Y-103534707D01*
X87152938Y-103548266D01*
X87129096Y-103559543D01*
X87104264Y-103568428D01*
X87078681Y-103574836D01*
X87052592Y-103578706D01*
X87026250Y-103580000D01*
X86413750Y-103580000D01*
X86387408Y-103578706D01*
X86361319Y-103574836D01*
X86335736Y-103568428D01*
X86310904Y-103559543D01*
X86287062Y-103548266D01*
X86264440Y-103534707D01*
X86243257Y-103518997D01*
X86223715Y-103501285D01*
X86206003Y-103481743D01*
X86190293Y-103460560D01*
X86176734Y-103437938D01*
X86165457Y-103414096D01*
X86156572Y-103389264D01*
X86150164Y-103363681D01*
X86146294Y-103337592D01*
X86145000Y-103311250D01*
X86145000Y-102773750D01*
X86146294Y-102747408D01*
X86150164Y-102721319D01*
X86156572Y-102695736D01*
X86165457Y-102670904D01*
X86176734Y-102647062D01*
X86190293Y-102624440D01*
X86206003Y-102603257D01*
X86223715Y-102583715D01*
X86243257Y-102566003D01*
X86264440Y-102550293D01*
X86287062Y-102536734D01*
X86310904Y-102525457D01*
X86335736Y-102516572D01*
X86361319Y-102510164D01*
X86387408Y-102506294D01*
X86413750Y-102505000D01*
X87026250Y-102505000D01*
X87052592Y-102506294D01*
X87052592Y-102506294D01*
G37*
D15*
X86720000Y-103042500D03*
D10*
G36*
X87052592Y-104081294D02*
X87078681Y-104085164D01*
X87104264Y-104091572D01*
X87129096Y-104100457D01*
X87152938Y-104111734D01*
X87175560Y-104125293D01*
X87196743Y-104141003D01*
X87216285Y-104158715D01*
X87233997Y-104178257D01*
X87249707Y-104199440D01*
X87263266Y-104222062D01*
X87274543Y-104245904D01*
X87283428Y-104270736D01*
X87289836Y-104296319D01*
X87293706Y-104322408D01*
X87295000Y-104348750D01*
X87295000Y-104886250D01*
X87293706Y-104912592D01*
X87289836Y-104938681D01*
X87283428Y-104964264D01*
X87274543Y-104989096D01*
X87263266Y-105012938D01*
X87249707Y-105035560D01*
X87233997Y-105056743D01*
X87216285Y-105076285D01*
X87196743Y-105093997D01*
X87175560Y-105109707D01*
X87152938Y-105123266D01*
X87129096Y-105134543D01*
X87104264Y-105143428D01*
X87078681Y-105149836D01*
X87052592Y-105153706D01*
X87026250Y-105155000D01*
X86413750Y-105155000D01*
X86387408Y-105153706D01*
X86361319Y-105149836D01*
X86335736Y-105143428D01*
X86310904Y-105134543D01*
X86287062Y-105123266D01*
X86264440Y-105109707D01*
X86243257Y-105093997D01*
X86223715Y-105076285D01*
X86206003Y-105056743D01*
X86190293Y-105035560D01*
X86176734Y-105012938D01*
X86165457Y-104989096D01*
X86156572Y-104964264D01*
X86150164Y-104938681D01*
X86146294Y-104912592D01*
X86145000Y-104886250D01*
X86145000Y-104348750D01*
X86146294Y-104322408D01*
X86150164Y-104296319D01*
X86156572Y-104270736D01*
X86165457Y-104245904D01*
X86176734Y-104222062D01*
X86190293Y-104199440D01*
X86206003Y-104178257D01*
X86223715Y-104158715D01*
X86243257Y-104141003D01*
X86264440Y-104125293D01*
X86287062Y-104111734D01*
X86310904Y-104100457D01*
X86335736Y-104091572D01*
X86361319Y-104085164D01*
X86387408Y-104081294D01*
X86413750Y-104080000D01*
X87026250Y-104080000D01*
X87052592Y-104081294D01*
X87052592Y-104081294D01*
G37*
D15*
X86720000Y-104617500D03*
G04 #@! TD*
D10*
G04 #@! TO.C,C25*
G36*
X92852592Y-99026294D02*
X92878681Y-99030164D01*
X92904264Y-99036572D01*
X92929096Y-99045457D01*
X92952938Y-99056734D01*
X92975560Y-99070293D01*
X92996743Y-99086003D01*
X93016285Y-99103715D01*
X93033997Y-99123257D01*
X93049707Y-99144440D01*
X93063266Y-99167062D01*
X93074543Y-99190904D01*
X93083428Y-99215736D01*
X93089836Y-99241319D01*
X93093706Y-99267408D01*
X93095000Y-99293750D01*
X93095000Y-99831250D01*
X93093706Y-99857592D01*
X93089836Y-99883681D01*
X93083428Y-99909264D01*
X93074543Y-99934096D01*
X93063266Y-99957938D01*
X93049707Y-99980560D01*
X93033997Y-100001743D01*
X93016285Y-100021285D01*
X92996743Y-100038997D01*
X92975560Y-100054707D01*
X92952938Y-100068266D01*
X92929096Y-100079543D01*
X92904264Y-100088428D01*
X92878681Y-100094836D01*
X92852592Y-100098706D01*
X92826250Y-100100000D01*
X92213750Y-100100000D01*
X92187408Y-100098706D01*
X92161319Y-100094836D01*
X92135736Y-100088428D01*
X92110904Y-100079543D01*
X92087062Y-100068266D01*
X92064440Y-100054707D01*
X92043257Y-100038997D01*
X92023715Y-100021285D01*
X92006003Y-100001743D01*
X91990293Y-99980560D01*
X91976734Y-99957938D01*
X91965457Y-99934096D01*
X91956572Y-99909264D01*
X91950164Y-99883681D01*
X91946294Y-99857592D01*
X91945000Y-99831250D01*
X91945000Y-99293750D01*
X91946294Y-99267408D01*
X91950164Y-99241319D01*
X91956572Y-99215736D01*
X91965457Y-99190904D01*
X91976734Y-99167062D01*
X91990293Y-99144440D01*
X92006003Y-99123257D01*
X92023715Y-99103715D01*
X92043257Y-99086003D01*
X92064440Y-99070293D01*
X92087062Y-99056734D01*
X92110904Y-99045457D01*
X92135736Y-99036572D01*
X92161319Y-99030164D01*
X92187408Y-99026294D01*
X92213750Y-99025000D01*
X92826250Y-99025000D01*
X92852592Y-99026294D01*
X92852592Y-99026294D01*
G37*
D15*
X92520000Y-99562500D03*
D10*
G36*
X92852592Y-100601294D02*
X92878681Y-100605164D01*
X92904264Y-100611572D01*
X92929096Y-100620457D01*
X92952938Y-100631734D01*
X92975560Y-100645293D01*
X92996743Y-100661003D01*
X93016285Y-100678715D01*
X93033997Y-100698257D01*
X93049707Y-100719440D01*
X93063266Y-100742062D01*
X93074543Y-100765904D01*
X93083428Y-100790736D01*
X93089836Y-100816319D01*
X93093706Y-100842408D01*
X93095000Y-100868750D01*
X93095000Y-101406250D01*
X93093706Y-101432592D01*
X93089836Y-101458681D01*
X93083428Y-101484264D01*
X93074543Y-101509096D01*
X93063266Y-101532938D01*
X93049707Y-101555560D01*
X93033997Y-101576743D01*
X93016285Y-101596285D01*
X92996743Y-101613997D01*
X92975560Y-101629707D01*
X92952938Y-101643266D01*
X92929096Y-101654543D01*
X92904264Y-101663428D01*
X92878681Y-101669836D01*
X92852592Y-101673706D01*
X92826250Y-101675000D01*
X92213750Y-101675000D01*
X92187408Y-101673706D01*
X92161319Y-101669836D01*
X92135736Y-101663428D01*
X92110904Y-101654543D01*
X92087062Y-101643266D01*
X92064440Y-101629707D01*
X92043257Y-101613997D01*
X92023715Y-101596285D01*
X92006003Y-101576743D01*
X91990293Y-101555560D01*
X91976734Y-101532938D01*
X91965457Y-101509096D01*
X91956572Y-101484264D01*
X91950164Y-101458681D01*
X91946294Y-101432592D01*
X91945000Y-101406250D01*
X91945000Y-100868750D01*
X91946294Y-100842408D01*
X91950164Y-100816319D01*
X91956572Y-100790736D01*
X91965457Y-100765904D01*
X91976734Y-100742062D01*
X91990293Y-100719440D01*
X92006003Y-100698257D01*
X92023715Y-100678715D01*
X92043257Y-100661003D01*
X92064440Y-100645293D01*
X92087062Y-100631734D01*
X92110904Y-100620457D01*
X92135736Y-100611572D01*
X92161319Y-100605164D01*
X92187408Y-100601294D01*
X92213750Y-100600000D01*
X92826250Y-100600000D01*
X92852592Y-100601294D01*
X92852592Y-100601294D01*
G37*
D15*
X92520000Y-101137500D03*
G04 #@! TD*
D10*
G04 #@! TO.C,C24*
G36*
X87082592Y-99006294D02*
X87108681Y-99010164D01*
X87134264Y-99016572D01*
X87159096Y-99025457D01*
X87182938Y-99036734D01*
X87205560Y-99050293D01*
X87226743Y-99066003D01*
X87246285Y-99083715D01*
X87263997Y-99103257D01*
X87279707Y-99124440D01*
X87293266Y-99147062D01*
X87304543Y-99170904D01*
X87313428Y-99195736D01*
X87319836Y-99221319D01*
X87323706Y-99247408D01*
X87325000Y-99273750D01*
X87325000Y-99811250D01*
X87323706Y-99837592D01*
X87319836Y-99863681D01*
X87313428Y-99889264D01*
X87304543Y-99914096D01*
X87293266Y-99937938D01*
X87279707Y-99960560D01*
X87263997Y-99981743D01*
X87246285Y-100001285D01*
X87226743Y-100018997D01*
X87205560Y-100034707D01*
X87182938Y-100048266D01*
X87159096Y-100059543D01*
X87134264Y-100068428D01*
X87108681Y-100074836D01*
X87082592Y-100078706D01*
X87056250Y-100080000D01*
X86443750Y-100080000D01*
X86417408Y-100078706D01*
X86391319Y-100074836D01*
X86365736Y-100068428D01*
X86340904Y-100059543D01*
X86317062Y-100048266D01*
X86294440Y-100034707D01*
X86273257Y-100018997D01*
X86253715Y-100001285D01*
X86236003Y-99981743D01*
X86220293Y-99960560D01*
X86206734Y-99937938D01*
X86195457Y-99914096D01*
X86186572Y-99889264D01*
X86180164Y-99863681D01*
X86176294Y-99837592D01*
X86175000Y-99811250D01*
X86175000Y-99273750D01*
X86176294Y-99247408D01*
X86180164Y-99221319D01*
X86186572Y-99195736D01*
X86195457Y-99170904D01*
X86206734Y-99147062D01*
X86220293Y-99124440D01*
X86236003Y-99103257D01*
X86253715Y-99083715D01*
X86273257Y-99066003D01*
X86294440Y-99050293D01*
X86317062Y-99036734D01*
X86340904Y-99025457D01*
X86365736Y-99016572D01*
X86391319Y-99010164D01*
X86417408Y-99006294D01*
X86443750Y-99005000D01*
X87056250Y-99005000D01*
X87082592Y-99006294D01*
X87082592Y-99006294D01*
G37*
D15*
X86750000Y-99542500D03*
D10*
G36*
X87082592Y-100581294D02*
X87108681Y-100585164D01*
X87134264Y-100591572D01*
X87159096Y-100600457D01*
X87182938Y-100611734D01*
X87205560Y-100625293D01*
X87226743Y-100641003D01*
X87246285Y-100658715D01*
X87263997Y-100678257D01*
X87279707Y-100699440D01*
X87293266Y-100722062D01*
X87304543Y-100745904D01*
X87313428Y-100770736D01*
X87319836Y-100796319D01*
X87323706Y-100822408D01*
X87325000Y-100848750D01*
X87325000Y-101386250D01*
X87323706Y-101412592D01*
X87319836Y-101438681D01*
X87313428Y-101464264D01*
X87304543Y-101489096D01*
X87293266Y-101512938D01*
X87279707Y-101535560D01*
X87263997Y-101556743D01*
X87246285Y-101576285D01*
X87226743Y-101593997D01*
X87205560Y-101609707D01*
X87182938Y-101623266D01*
X87159096Y-101634543D01*
X87134264Y-101643428D01*
X87108681Y-101649836D01*
X87082592Y-101653706D01*
X87056250Y-101655000D01*
X86443750Y-101655000D01*
X86417408Y-101653706D01*
X86391319Y-101649836D01*
X86365736Y-101643428D01*
X86340904Y-101634543D01*
X86317062Y-101623266D01*
X86294440Y-101609707D01*
X86273257Y-101593997D01*
X86253715Y-101576285D01*
X86236003Y-101556743D01*
X86220293Y-101535560D01*
X86206734Y-101512938D01*
X86195457Y-101489096D01*
X86186572Y-101464264D01*
X86180164Y-101438681D01*
X86176294Y-101412592D01*
X86175000Y-101386250D01*
X86175000Y-100848750D01*
X86176294Y-100822408D01*
X86180164Y-100796319D01*
X86186572Y-100770736D01*
X86195457Y-100745904D01*
X86206734Y-100722062D01*
X86220293Y-100699440D01*
X86236003Y-100678257D01*
X86253715Y-100658715D01*
X86273257Y-100641003D01*
X86294440Y-100625293D01*
X86317062Y-100611734D01*
X86340904Y-100600457D01*
X86365736Y-100591572D01*
X86391319Y-100585164D01*
X86417408Y-100581294D01*
X86443750Y-100580000D01*
X87056250Y-100580000D01*
X87082592Y-100581294D01*
X87082592Y-100581294D01*
G37*
D15*
X86750000Y-101117500D03*
G04 #@! TD*
D10*
G04 #@! TO.C,C23*
G36*
X92832592Y-95663794D02*
X92858681Y-95667664D01*
X92884264Y-95674072D01*
X92909096Y-95682957D01*
X92932938Y-95694234D01*
X92955560Y-95707793D01*
X92976743Y-95723503D01*
X92996285Y-95741215D01*
X93013997Y-95760757D01*
X93029707Y-95781940D01*
X93043266Y-95804562D01*
X93054543Y-95828404D01*
X93063428Y-95853236D01*
X93069836Y-95878819D01*
X93073706Y-95904908D01*
X93075000Y-95931250D01*
X93075000Y-96468750D01*
X93073706Y-96495092D01*
X93069836Y-96521181D01*
X93063428Y-96546764D01*
X93054543Y-96571596D01*
X93043266Y-96595438D01*
X93029707Y-96618060D01*
X93013997Y-96639243D01*
X92996285Y-96658785D01*
X92976743Y-96676497D01*
X92955560Y-96692207D01*
X92932938Y-96705766D01*
X92909096Y-96717043D01*
X92884264Y-96725928D01*
X92858681Y-96732336D01*
X92832592Y-96736206D01*
X92806250Y-96737500D01*
X92193750Y-96737500D01*
X92167408Y-96736206D01*
X92141319Y-96732336D01*
X92115736Y-96725928D01*
X92090904Y-96717043D01*
X92067062Y-96705766D01*
X92044440Y-96692207D01*
X92023257Y-96676497D01*
X92003715Y-96658785D01*
X91986003Y-96639243D01*
X91970293Y-96618060D01*
X91956734Y-96595438D01*
X91945457Y-96571596D01*
X91936572Y-96546764D01*
X91930164Y-96521181D01*
X91926294Y-96495092D01*
X91925000Y-96468750D01*
X91925000Y-95931250D01*
X91926294Y-95904908D01*
X91930164Y-95878819D01*
X91936572Y-95853236D01*
X91945457Y-95828404D01*
X91956734Y-95804562D01*
X91970293Y-95781940D01*
X91986003Y-95760757D01*
X92003715Y-95741215D01*
X92023257Y-95723503D01*
X92044440Y-95707793D01*
X92067062Y-95694234D01*
X92090904Y-95682957D01*
X92115736Y-95674072D01*
X92141319Y-95667664D01*
X92167408Y-95663794D01*
X92193750Y-95662500D01*
X92806250Y-95662500D01*
X92832592Y-95663794D01*
X92832592Y-95663794D01*
G37*
D15*
X92500000Y-96200000D03*
D10*
G36*
X92832592Y-97238794D02*
X92858681Y-97242664D01*
X92884264Y-97249072D01*
X92909096Y-97257957D01*
X92932938Y-97269234D01*
X92955560Y-97282793D01*
X92976743Y-97298503D01*
X92996285Y-97316215D01*
X93013997Y-97335757D01*
X93029707Y-97356940D01*
X93043266Y-97379562D01*
X93054543Y-97403404D01*
X93063428Y-97428236D01*
X93069836Y-97453819D01*
X93073706Y-97479908D01*
X93075000Y-97506250D01*
X93075000Y-98043750D01*
X93073706Y-98070092D01*
X93069836Y-98096181D01*
X93063428Y-98121764D01*
X93054543Y-98146596D01*
X93043266Y-98170438D01*
X93029707Y-98193060D01*
X93013997Y-98214243D01*
X92996285Y-98233785D01*
X92976743Y-98251497D01*
X92955560Y-98267207D01*
X92932938Y-98280766D01*
X92909096Y-98292043D01*
X92884264Y-98300928D01*
X92858681Y-98307336D01*
X92832592Y-98311206D01*
X92806250Y-98312500D01*
X92193750Y-98312500D01*
X92167408Y-98311206D01*
X92141319Y-98307336D01*
X92115736Y-98300928D01*
X92090904Y-98292043D01*
X92067062Y-98280766D01*
X92044440Y-98267207D01*
X92023257Y-98251497D01*
X92003715Y-98233785D01*
X91986003Y-98214243D01*
X91970293Y-98193060D01*
X91956734Y-98170438D01*
X91945457Y-98146596D01*
X91936572Y-98121764D01*
X91930164Y-98096181D01*
X91926294Y-98070092D01*
X91925000Y-98043750D01*
X91925000Y-97506250D01*
X91926294Y-97479908D01*
X91930164Y-97453819D01*
X91936572Y-97428236D01*
X91945457Y-97403404D01*
X91956734Y-97379562D01*
X91970293Y-97356940D01*
X91986003Y-97335757D01*
X92003715Y-97316215D01*
X92023257Y-97298503D01*
X92044440Y-97282793D01*
X92067062Y-97269234D01*
X92090904Y-97257957D01*
X92115736Y-97249072D01*
X92141319Y-97242664D01*
X92167408Y-97238794D01*
X92193750Y-97237500D01*
X92806250Y-97237500D01*
X92832592Y-97238794D01*
X92832592Y-97238794D01*
G37*
D15*
X92500000Y-97775000D03*
G04 #@! TD*
D10*
G04 #@! TO.C,C22*
G36*
X87062592Y-95729794D02*
X87088681Y-95733664D01*
X87114264Y-95740072D01*
X87139096Y-95748957D01*
X87162938Y-95760234D01*
X87185560Y-95773793D01*
X87206743Y-95789503D01*
X87226285Y-95807215D01*
X87243997Y-95826757D01*
X87259707Y-95847940D01*
X87273266Y-95870562D01*
X87284543Y-95894404D01*
X87293428Y-95919236D01*
X87299836Y-95944819D01*
X87303706Y-95970908D01*
X87305000Y-95997250D01*
X87305000Y-96534750D01*
X87303706Y-96561092D01*
X87299836Y-96587181D01*
X87293428Y-96612764D01*
X87284543Y-96637596D01*
X87273266Y-96661438D01*
X87259707Y-96684060D01*
X87243997Y-96705243D01*
X87226285Y-96724785D01*
X87206743Y-96742497D01*
X87185560Y-96758207D01*
X87162938Y-96771766D01*
X87139096Y-96783043D01*
X87114264Y-96791928D01*
X87088681Y-96798336D01*
X87062592Y-96802206D01*
X87036250Y-96803500D01*
X86423750Y-96803500D01*
X86397408Y-96802206D01*
X86371319Y-96798336D01*
X86345736Y-96791928D01*
X86320904Y-96783043D01*
X86297062Y-96771766D01*
X86274440Y-96758207D01*
X86253257Y-96742497D01*
X86233715Y-96724785D01*
X86216003Y-96705243D01*
X86200293Y-96684060D01*
X86186734Y-96661438D01*
X86175457Y-96637596D01*
X86166572Y-96612764D01*
X86160164Y-96587181D01*
X86156294Y-96561092D01*
X86155000Y-96534750D01*
X86155000Y-95997250D01*
X86156294Y-95970908D01*
X86160164Y-95944819D01*
X86166572Y-95919236D01*
X86175457Y-95894404D01*
X86186734Y-95870562D01*
X86200293Y-95847940D01*
X86216003Y-95826757D01*
X86233715Y-95807215D01*
X86253257Y-95789503D01*
X86274440Y-95773793D01*
X86297062Y-95760234D01*
X86320904Y-95748957D01*
X86345736Y-95740072D01*
X86371319Y-95733664D01*
X86397408Y-95729794D01*
X86423750Y-95728500D01*
X87036250Y-95728500D01*
X87062592Y-95729794D01*
X87062592Y-95729794D01*
G37*
D15*
X86730000Y-96266000D03*
D10*
G36*
X87062592Y-97304794D02*
X87088681Y-97308664D01*
X87114264Y-97315072D01*
X87139096Y-97323957D01*
X87162938Y-97335234D01*
X87185560Y-97348793D01*
X87206743Y-97364503D01*
X87226285Y-97382215D01*
X87243997Y-97401757D01*
X87259707Y-97422940D01*
X87273266Y-97445562D01*
X87284543Y-97469404D01*
X87293428Y-97494236D01*
X87299836Y-97519819D01*
X87303706Y-97545908D01*
X87305000Y-97572250D01*
X87305000Y-98109750D01*
X87303706Y-98136092D01*
X87299836Y-98162181D01*
X87293428Y-98187764D01*
X87284543Y-98212596D01*
X87273266Y-98236438D01*
X87259707Y-98259060D01*
X87243997Y-98280243D01*
X87226285Y-98299785D01*
X87206743Y-98317497D01*
X87185560Y-98333207D01*
X87162938Y-98346766D01*
X87139096Y-98358043D01*
X87114264Y-98366928D01*
X87088681Y-98373336D01*
X87062592Y-98377206D01*
X87036250Y-98378500D01*
X86423750Y-98378500D01*
X86397408Y-98377206D01*
X86371319Y-98373336D01*
X86345736Y-98366928D01*
X86320904Y-98358043D01*
X86297062Y-98346766D01*
X86274440Y-98333207D01*
X86253257Y-98317497D01*
X86233715Y-98299785D01*
X86216003Y-98280243D01*
X86200293Y-98259060D01*
X86186734Y-98236438D01*
X86175457Y-98212596D01*
X86166572Y-98187764D01*
X86160164Y-98162181D01*
X86156294Y-98136092D01*
X86155000Y-98109750D01*
X86155000Y-97572250D01*
X86156294Y-97545908D01*
X86160164Y-97519819D01*
X86166572Y-97494236D01*
X86175457Y-97469404D01*
X86186734Y-97445562D01*
X86200293Y-97422940D01*
X86216003Y-97401757D01*
X86233715Y-97382215D01*
X86253257Y-97364503D01*
X86274440Y-97348793D01*
X86297062Y-97335234D01*
X86320904Y-97323957D01*
X86345736Y-97315072D01*
X86371319Y-97308664D01*
X86397408Y-97304794D01*
X86423750Y-97303500D01*
X87036250Y-97303500D01*
X87062592Y-97304794D01*
X87062592Y-97304794D01*
G37*
D15*
X86730000Y-97841000D03*
G04 #@! TD*
D10*
G04 #@! TO.C,C21*
G36*
X92812592Y-92353794D02*
X92838681Y-92357664D01*
X92864264Y-92364072D01*
X92889096Y-92372957D01*
X92912938Y-92384234D01*
X92935560Y-92397793D01*
X92956743Y-92413503D01*
X92976285Y-92431215D01*
X92993997Y-92450757D01*
X93009707Y-92471940D01*
X93023266Y-92494562D01*
X93034543Y-92518404D01*
X93043428Y-92543236D01*
X93049836Y-92568819D01*
X93053706Y-92594908D01*
X93055000Y-92621250D01*
X93055000Y-93158750D01*
X93053706Y-93185092D01*
X93049836Y-93211181D01*
X93043428Y-93236764D01*
X93034543Y-93261596D01*
X93023266Y-93285438D01*
X93009707Y-93308060D01*
X92993997Y-93329243D01*
X92976285Y-93348785D01*
X92956743Y-93366497D01*
X92935560Y-93382207D01*
X92912938Y-93395766D01*
X92889096Y-93407043D01*
X92864264Y-93415928D01*
X92838681Y-93422336D01*
X92812592Y-93426206D01*
X92786250Y-93427500D01*
X92173750Y-93427500D01*
X92147408Y-93426206D01*
X92121319Y-93422336D01*
X92095736Y-93415928D01*
X92070904Y-93407043D01*
X92047062Y-93395766D01*
X92024440Y-93382207D01*
X92003257Y-93366497D01*
X91983715Y-93348785D01*
X91966003Y-93329243D01*
X91950293Y-93308060D01*
X91936734Y-93285438D01*
X91925457Y-93261596D01*
X91916572Y-93236764D01*
X91910164Y-93211181D01*
X91906294Y-93185092D01*
X91905000Y-93158750D01*
X91905000Y-92621250D01*
X91906294Y-92594908D01*
X91910164Y-92568819D01*
X91916572Y-92543236D01*
X91925457Y-92518404D01*
X91936734Y-92494562D01*
X91950293Y-92471940D01*
X91966003Y-92450757D01*
X91983715Y-92431215D01*
X92003257Y-92413503D01*
X92024440Y-92397793D01*
X92047062Y-92384234D01*
X92070904Y-92372957D01*
X92095736Y-92364072D01*
X92121319Y-92357664D01*
X92147408Y-92353794D01*
X92173750Y-92352500D01*
X92786250Y-92352500D01*
X92812592Y-92353794D01*
X92812592Y-92353794D01*
G37*
D15*
X92480000Y-92890000D03*
D10*
G36*
X92812592Y-93928794D02*
X92838681Y-93932664D01*
X92864264Y-93939072D01*
X92889096Y-93947957D01*
X92912938Y-93959234D01*
X92935560Y-93972793D01*
X92956743Y-93988503D01*
X92976285Y-94006215D01*
X92993997Y-94025757D01*
X93009707Y-94046940D01*
X93023266Y-94069562D01*
X93034543Y-94093404D01*
X93043428Y-94118236D01*
X93049836Y-94143819D01*
X93053706Y-94169908D01*
X93055000Y-94196250D01*
X93055000Y-94733750D01*
X93053706Y-94760092D01*
X93049836Y-94786181D01*
X93043428Y-94811764D01*
X93034543Y-94836596D01*
X93023266Y-94860438D01*
X93009707Y-94883060D01*
X92993997Y-94904243D01*
X92976285Y-94923785D01*
X92956743Y-94941497D01*
X92935560Y-94957207D01*
X92912938Y-94970766D01*
X92889096Y-94982043D01*
X92864264Y-94990928D01*
X92838681Y-94997336D01*
X92812592Y-95001206D01*
X92786250Y-95002500D01*
X92173750Y-95002500D01*
X92147408Y-95001206D01*
X92121319Y-94997336D01*
X92095736Y-94990928D01*
X92070904Y-94982043D01*
X92047062Y-94970766D01*
X92024440Y-94957207D01*
X92003257Y-94941497D01*
X91983715Y-94923785D01*
X91966003Y-94904243D01*
X91950293Y-94883060D01*
X91936734Y-94860438D01*
X91925457Y-94836596D01*
X91916572Y-94811764D01*
X91910164Y-94786181D01*
X91906294Y-94760092D01*
X91905000Y-94733750D01*
X91905000Y-94196250D01*
X91906294Y-94169908D01*
X91910164Y-94143819D01*
X91916572Y-94118236D01*
X91925457Y-94093404D01*
X91936734Y-94069562D01*
X91950293Y-94046940D01*
X91966003Y-94025757D01*
X91983715Y-94006215D01*
X92003257Y-93988503D01*
X92024440Y-93972793D01*
X92047062Y-93959234D01*
X92070904Y-93947957D01*
X92095736Y-93939072D01*
X92121319Y-93932664D01*
X92147408Y-93928794D01*
X92173750Y-93927500D01*
X92786250Y-93927500D01*
X92812592Y-93928794D01*
X92812592Y-93928794D01*
G37*
D15*
X92480000Y-94465000D03*
G04 #@! TD*
D10*
G04 #@! TO.C,C20*
G36*
X87102592Y-92396294D02*
X87128681Y-92400164D01*
X87154264Y-92406572D01*
X87179096Y-92415457D01*
X87202938Y-92426734D01*
X87225560Y-92440293D01*
X87246743Y-92456003D01*
X87266285Y-92473715D01*
X87283997Y-92493257D01*
X87299707Y-92514440D01*
X87313266Y-92537062D01*
X87324543Y-92560904D01*
X87333428Y-92585736D01*
X87339836Y-92611319D01*
X87343706Y-92637408D01*
X87345000Y-92663750D01*
X87345000Y-93201250D01*
X87343706Y-93227592D01*
X87339836Y-93253681D01*
X87333428Y-93279264D01*
X87324543Y-93304096D01*
X87313266Y-93327938D01*
X87299707Y-93350560D01*
X87283997Y-93371743D01*
X87266285Y-93391285D01*
X87246743Y-93408997D01*
X87225560Y-93424707D01*
X87202938Y-93438266D01*
X87179096Y-93449543D01*
X87154264Y-93458428D01*
X87128681Y-93464836D01*
X87102592Y-93468706D01*
X87076250Y-93470000D01*
X86463750Y-93470000D01*
X86437408Y-93468706D01*
X86411319Y-93464836D01*
X86385736Y-93458428D01*
X86360904Y-93449543D01*
X86337062Y-93438266D01*
X86314440Y-93424707D01*
X86293257Y-93408997D01*
X86273715Y-93391285D01*
X86256003Y-93371743D01*
X86240293Y-93350560D01*
X86226734Y-93327938D01*
X86215457Y-93304096D01*
X86206572Y-93279264D01*
X86200164Y-93253681D01*
X86196294Y-93227592D01*
X86195000Y-93201250D01*
X86195000Y-92663750D01*
X86196294Y-92637408D01*
X86200164Y-92611319D01*
X86206572Y-92585736D01*
X86215457Y-92560904D01*
X86226734Y-92537062D01*
X86240293Y-92514440D01*
X86256003Y-92493257D01*
X86273715Y-92473715D01*
X86293257Y-92456003D01*
X86314440Y-92440293D01*
X86337062Y-92426734D01*
X86360904Y-92415457D01*
X86385736Y-92406572D01*
X86411319Y-92400164D01*
X86437408Y-92396294D01*
X86463750Y-92395000D01*
X87076250Y-92395000D01*
X87102592Y-92396294D01*
X87102592Y-92396294D01*
G37*
D15*
X86770000Y-92932500D03*
D10*
G36*
X87102592Y-93971294D02*
X87128681Y-93975164D01*
X87154264Y-93981572D01*
X87179096Y-93990457D01*
X87202938Y-94001734D01*
X87225560Y-94015293D01*
X87246743Y-94031003D01*
X87266285Y-94048715D01*
X87283997Y-94068257D01*
X87299707Y-94089440D01*
X87313266Y-94112062D01*
X87324543Y-94135904D01*
X87333428Y-94160736D01*
X87339836Y-94186319D01*
X87343706Y-94212408D01*
X87345000Y-94238750D01*
X87345000Y-94776250D01*
X87343706Y-94802592D01*
X87339836Y-94828681D01*
X87333428Y-94854264D01*
X87324543Y-94879096D01*
X87313266Y-94902938D01*
X87299707Y-94925560D01*
X87283997Y-94946743D01*
X87266285Y-94966285D01*
X87246743Y-94983997D01*
X87225560Y-94999707D01*
X87202938Y-95013266D01*
X87179096Y-95024543D01*
X87154264Y-95033428D01*
X87128681Y-95039836D01*
X87102592Y-95043706D01*
X87076250Y-95045000D01*
X86463750Y-95045000D01*
X86437408Y-95043706D01*
X86411319Y-95039836D01*
X86385736Y-95033428D01*
X86360904Y-95024543D01*
X86337062Y-95013266D01*
X86314440Y-94999707D01*
X86293257Y-94983997D01*
X86273715Y-94966285D01*
X86256003Y-94946743D01*
X86240293Y-94925560D01*
X86226734Y-94902938D01*
X86215457Y-94879096D01*
X86206572Y-94854264D01*
X86200164Y-94828681D01*
X86196294Y-94802592D01*
X86195000Y-94776250D01*
X86195000Y-94238750D01*
X86196294Y-94212408D01*
X86200164Y-94186319D01*
X86206572Y-94160736D01*
X86215457Y-94135904D01*
X86226734Y-94112062D01*
X86240293Y-94089440D01*
X86256003Y-94068257D01*
X86273715Y-94048715D01*
X86293257Y-94031003D01*
X86314440Y-94015293D01*
X86337062Y-94001734D01*
X86360904Y-93990457D01*
X86385736Y-93981572D01*
X86411319Y-93975164D01*
X86437408Y-93971294D01*
X86463750Y-93970000D01*
X87076250Y-93970000D01*
X87102592Y-93971294D01*
X87102592Y-93971294D01*
G37*
D15*
X86770000Y-94507500D03*
G04 #@! TD*
D10*
G04 #@! TO.C,L3*
G36*
X89982592Y-100551294D02*
X90008681Y-100555164D01*
X90034264Y-100561572D01*
X90059096Y-100570457D01*
X90082938Y-100581734D01*
X90105560Y-100595293D01*
X90126743Y-100611003D01*
X90146285Y-100628715D01*
X90163997Y-100648257D01*
X90179707Y-100669440D01*
X90193266Y-100692062D01*
X90204543Y-100715904D01*
X90213428Y-100740736D01*
X90219836Y-100766319D01*
X90223706Y-100792408D01*
X90225000Y-100818750D01*
X90225000Y-101356250D01*
X90223706Y-101382592D01*
X90219836Y-101408681D01*
X90213428Y-101434264D01*
X90204543Y-101459096D01*
X90193266Y-101482938D01*
X90179707Y-101505560D01*
X90163997Y-101526743D01*
X90146285Y-101546285D01*
X90126743Y-101563997D01*
X90105560Y-101579707D01*
X90082938Y-101593266D01*
X90059096Y-101604543D01*
X90034264Y-101613428D01*
X90008681Y-101619836D01*
X89982592Y-101623706D01*
X89956250Y-101625000D01*
X89343750Y-101625000D01*
X89317408Y-101623706D01*
X89291319Y-101619836D01*
X89265736Y-101613428D01*
X89240904Y-101604543D01*
X89217062Y-101593266D01*
X89194440Y-101579707D01*
X89173257Y-101563997D01*
X89153715Y-101546285D01*
X89136003Y-101526743D01*
X89120293Y-101505560D01*
X89106734Y-101482938D01*
X89095457Y-101459096D01*
X89086572Y-101434264D01*
X89080164Y-101408681D01*
X89076294Y-101382592D01*
X89075000Y-101356250D01*
X89075000Y-100818750D01*
X89076294Y-100792408D01*
X89080164Y-100766319D01*
X89086572Y-100740736D01*
X89095457Y-100715904D01*
X89106734Y-100692062D01*
X89120293Y-100669440D01*
X89136003Y-100648257D01*
X89153715Y-100628715D01*
X89173257Y-100611003D01*
X89194440Y-100595293D01*
X89217062Y-100581734D01*
X89240904Y-100570457D01*
X89265736Y-100561572D01*
X89291319Y-100555164D01*
X89317408Y-100551294D01*
X89343750Y-100550000D01*
X89956250Y-100550000D01*
X89982592Y-100551294D01*
X89982592Y-100551294D01*
G37*
D15*
X89650000Y-101087500D03*
D10*
G36*
X89982592Y-98976294D02*
X90008681Y-98980164D01*
X90034264Y-98986572D01*
X90059096Y-98995457D01*
X90082938Y-99006734D01*
X90105560Y-99020293D01*
X90126743Y-99036003D01*
X90146285Y-99053715D01*
X90163997Y-99073257D01*
X90179707Y-99094440D01*
X90193266Y-99117062D01*
X90204543Y-99140904D01*
X90213428Y-99165736D01*
X90219836Y-99191319D01*
X90223706Y-99217408D01*
X90225000Y-99243750D01*
X90225000Y-99781250D01*
X90223706Y-99807592D01*
X90219836Y-99833681D01*
X90213428Y-99859264D01*
X90204543Y-99884096D01*
X90193266Y-99907938D01*
X90179707Y-99930560D01*
X90163997Y-99951743D01*
X90146285Y-99971285D01*
X90126743Y-99988997D01*
X90105560Y-100004707D01*
X90082938Y-100018266D01*
X90059096Y-100029543D01*
X90034264Y-100038428D01*
X90008681Y-100044836D01*
X89982592Y-100048706D01*
X89956250Y-100050000D01*
X89343750Y-100050000D01*
X89317408Y-100048706D01*
X89291319Y-100044836D01*
X89265736Y-100038428D01*
X89240904Y-100029543D01*
X89217062Y-100018266D01*
X89194440Y-100004707D01*
X89173257Y-99988997D01*
X89153715Y-99971285D01*
X89136003Y-99951743D01*
X89120293Y-99930560D01*
X89106734Y-99907938D01*
X89095457Y-99884096D01*
X89086572Y-99859264D01*
X89080164Y-99833681D01*
X89076294Y-99807592D01*
X89075000Y-99781250D01*
X89075000Y-99243750D01*
X89076294Y-99217408D01*
X89080164Y-99191319D01*
X89086572Y-99165736D01*
X89095457Y-99140904D01*
X89106734Y-99117062D01*
X89120293Y-99094440D01*
X89136003Y-99073257D01*
X89153715Y-99053715D01*
X89173257Y-99036003D01*
X89194440Y-99020293D01*
X89217062Y-99006734D01*
X89240904Y-98995457D01*
X89265736Y-98986572D01*
X89291319Y-98980164D01*
X89317408Y-98976294D01*
X89343750Y-98975000D01*
X89956250Y-98975000D01*
X89982592Y-98976294D01*
X89982592Y-98976294D01*
G37*
D15*
X89650000Y-99512500D03*
G04 #@! TD*
D10*
G04 #@! TO.C,L1*
G36*
X89972592Y-92383794D02*
X89998681Y-92387664D01*
X90024264Y-92394072D01*
X90049096Y-92402957D01*
X90072938Y-92414234D01*
X90095560Y-92427793D01*
X90116743Y-92443503D01*
X90136285Y-92461215D01*
X90153997Y-92480757D01*
X90169707Y-92501940D01*
X90183266Y-92524562D01*
X90194543Y-92548404D01*
X90203428Y-92573236D01*
X90209836Y-92598819D01*
X90213706Y-92624908D01*
X90215000Y-92651250D01*
X90215000Y-93188750D01*
X90213706Y-93215092D01*
X90209836Y-93241181D01*
X90203428Y-93266764D01*
X90194543Y-93291596D01*
X90183266Y-93315438D01*
X90169707Y-93338060D01*
X90153997Y-93359243D01*
X90136285Y-93378785D01*
X90116743Y-93396497D01*
X90095560Y-93412207D01*
X90072938Y-93425766D01*
X90049096Y-93437043D01*
X90024264Y-93445928D01*
X89998681Y-93452336D01*
X89972592Y-93456206D01*
X89946250Y-93457500D01*
X89333750Y-93457500D01*
X89307408Y-93456206D01*
X89281319Y-93452336D01*
X89255736Y-93445928D01*
X89230904Y-93437043D01*
X89207062Y-93425766D01*
X89184440Y-93412207D01*
X89163257Y-93396497D01*
X89143715Y-93378785D01*
X89126003Y-93359243D01*
X89110293Y-93338060D01*
X89096734Y-93315438D01*
X89085457Y-93291596D01*
X89076572Y-93266764D01*
X89070164Y-93241181D01*
X89066294Y-93215092D01*
X89065000Y-93188750D01*
X89065000Y-92651250D01*
X89066294Y-92624908D01*
X89070164Y-92598819D01*
X89076572Y-92573236D01*
X89085457Y-92548404D01*
X89096734Y-92524562D01*
X89110293Y-92501940D01*
X89126003Y-92480757D01*
X89143715Y-92461215D01*
X89163257Y-92443503D01*
X89184440Y-92427793D01*
X89207062Y-92414234D01*
X89230904Y-92402957D01*
X89255736Y-92394072D01*
X89281319Y-92387664D01*
X89307408Y-92383794D01*
X89333750Y-92382500D01*
X89946250Y-92382500D01*
X89972592Y-92383794D01*
X89972592Y-92383794D01*
G37*
D15*
X89640000Y-92920000D03*
D10*
G36*
X89972592Y-93958794D02*
X89998681Y-93962664D01*
X90024264Y-93969072D01*
X90049096Y-93977957D01*
X90072938Y-93989234D01*
X90095560Y-94002793D01*
X90116743Y-94018503D01*
X90136285Y-94036215D01*
X90153997Y-94055757D01*
X90169707Y-94076940D01*
X90183266Y-94099562D01*
X90194543Y-94123404D01*
X90203428Y-94148236D01*
X90209836Y-94173819D01*
X90213706Y-94199908D01*
X90215000Y-94226250D01*
X90215000Y-94763750D01*
X90213706Y-94790092D01*
X90209836Y-94816181D01*
X90203428Y-94841764D01*
X90194543Y-94866596D01*
X90183266Y-94890438D01*
X90169707Y-94913060D01*
X90153997Y-94934243D01*
X90136285Y-94953785D01*
X90116743Y-94971497D01*
X90095560Y-94987207D01*
X90072938Y-95000766D01*
X90049096Y-95012043D01*
X90024264Y-95020928D01*
X89998681Y-95027336D01*
X89972592Y-95031206D01*
X89946250Y-95032500D01*
X89333750Y-95032500D01*
X89307408Y-95031206D01*
X89281319Y-95027336D01*
X89255736Y-95020928D01*
X89230904Y-95012043D01*
X89207062Y-95000766D01*
X89184440Y-94987207D01*
X89163257Y-94971497D01*
X89143715Y-94953785D01*
X89126003Y-94934243D01*
X89110293Y-94913060D01*
X89096734Y-94890438D01*
X89085457Y-94866596D01*
X89076572Y-94841764D01*
X89070164Y-94816181D01*
X89066294Y-94790092D01*
X89065000Y-94763750D01*
X89065000Y-94226250D01*
X89066294Y-94199908D01*
X89070164Y-94173819D01*
X89076572Y-94148236D01*
X89085457Y-94123404D01*
X89096734Y-94099562D01*
X89110293Y-94076940D01*
X89126003Y-94055757D01*
X89143715Y-94036215D01*
X89163257Y-94018503D01*
X89184440Y-94002793D01*
X89207062Y-93989234D01*
X89230904Y-93977957D01*
X89255736Y-93969072D01*
X89281319Y-93962664D01*
X89307408Y-93958794D01*
X89333750Y-93957500D01*
X89946250Y-93957500D01*
X89972592Y-93958794D01*
X89972592Y-93958794D01*
G37*
D15*
X89640000Y-94495000D03*
G04 #@! TD*
D10*
G04 #@! TO.C,L4*
G36*
X89992592Y-104058794D02*
X90018681Y-104062664D01*
X90044264Y-104069072D01*
X90069096Y-104077957D01*
X90092938Y-104089234D01*
X90115560Y-104102793D01*
X90136743Y-104118503D01*
X90156285Y-104136215D01*
X90173997Y-104155757D01*
X90189707Y-104176940D01*
X90203266Y-104199562D01*
X90214543Y-104223404D01*
X90223428Y-104248236D01*
X90229836Y-104273819D01*
X90233706Y-104299908D01*
X90235000Y-104326250D01*
X90235000Y-104863750D01*
X90233706Y-104890092D01*
X90229836Y-104916181D01*
X90223428Y-104941764D01*
X90214543Y-104966596D01*
X90203266Y-104990438D01*
X90189707Y-105013060D01*
X90173997Y-105034243D01*
X90156285Y-105053785D01*
X90136743Y-105071497D01*
X90115560Y-105087207D01*
X90092938Y-105100766D01*
X90069096Y-105112043D01*
X90044264Y-105120928D01*
X90018681Y-105127336D01*
X89992592Y-105131206D01*
X89966250Y-105132500D01*
X89353750Y-105132500D01*
X89327408Y-105131206D01*
X89301319Y-105127336D01*
X89275736Y-105120928D01*
X89250904Y-105112043D01*
X89227062Y-105100766D01*
X89204440Y-105087207D01*
X89183257Y-105071497D01*
X89163715Y-105053785D01*
X89146003Y-105034243D01*
X89130293Y-105013060D01*
X89116734Y-104990438D01*
X89105457Y-104966596D01*
X89096572Y-104941764D01*
X89090164Y-104916181D01*
X89086294Y-104890092D01*
X89085000Y-104863750D01*
X89085000Y-104326250D01*
X89086294Y-104299908D01*
X89090164Y-104273819D01*
X89096572Y-104248236D01*
X89105457Y-104223404D01*
X89116734Y-104199562D01*
X89130293Y-104176940D01*
X89146003Y-104155757D01*
X89163715Y-104136215D01*
X89183257Y-104118503D01*
X89204440Y-104102793D01*
X89227062Y-104089234D01*
X89250904Y-104077957D01*
X89275736Y-104069072D01*
X89301319Y-104062664D01*
X89327408Y-104058794D01*
X89353750Y-104057500D01*
X89966250Y-104057500D01*
X89992592Y-104058794D01*
X89992592Y-104058794D01*
G37*
D15*
X89660000Y-104595000D03*
D10*
G36*
X89992592Y-102483794D02*
X90018681Y-102487664D01*
X90044264Y-102494072D01*
X90069096Y-102502957D01*
X90092938Y-102514234D01*
X90115560Y-102527793D01*
X90136743Y-102543503D01*
X90156285Y-102561215D01*
X90173997Y-102580757D01*
X90189707Y-102601940D01*
X90203266Y-102624562D01*
X90214543Y-102648404D01*
X90223428Y-102673236D01*
X90229836Y-102698819D01*
X90233706Y-102724908D01*
X90235000Y-102751250D01*
X90235000Y-103288750D01*
X90233706Y-103315092D01*
X90229836Y-103341181D01*
X90223428Y-103366764D01*
X90214543Y-103391596D01*
X90203266Y-103415438D01*
X90189707Y-103438060D01*
X90173997Y-103459243D01*
X90156285Y-103478785D01*
X90136743Y-103496497D01*
X90115560Y-103512207D01*
X90092938Y-103525766D01*
X90069096Y-103537043D01*
X90044264Y-103545928D01*
X90018681Y-103552336D01*
X89992592Y-103556206D01*
X89966250Y-103557500D01*
X89353750Y-103557500D01*
X89327408Y-103556206D01*
X89301319Y-103552336D01*
X89275736Y-103545928D01*
X89250904Y-103537043D01*
X89227062Y-103525766D01*
X89204440Y-103512207D01*
X89183257Y-103496497D01*
X89163715Y-103478785D01*
X89146003Y-103459243D01*
X89130293Y-103438060D01*
X89116734Y-103415438D01*
X89105457Y-103391596D01*
X89096572Y-103366764D01*
X89090164Y-103341181D01*
X89086294Y-103315092D01*
X89085000Y-103288750D01*
X89085000Y-102751250D01*
X89086294Y-102724908D01*
X89090164Y-102698819D01*
X89096572Y-102673236D01*
X89105457Y-102648404D01*
X89116734Y-102624562D01*
X89130293Y-102601940D01*
X89146003Y-102580757D01*
X89163715Y-102561215D01*
X89183257Y-102543503D01*
X89204440Y-102527793D01*
X89227062Y-102514234D01*
X89250904Y-102502957D01*
X89275736Y-102494072D01*
X89301319Y-102487664D01*
X89327408Y-102483794D01*
X89353750Y-102482500D01*
X89966250Y-102482500D01*
X89992592Y-102483794D01*
X89992592Y-102483794D01*
G37*
D15*
X89660000Y-103020000D03*
G04 #@! TD*
D10*
G04 #@! TO.C,L2*
G36*
X89962592Y-95693794D02*
X89988681Y-95697664D01*
X90014264Y-95704072D01*
X90039096Y-95712957D01*
X90062938Y-95724234D01*
X90085560Y-95737793D01*
X90106743Y-95753503D01*
X90126285Y-95771215D01*
X90143997Y-95790757D01*
X90159707Y-95811940D01*
X90173266Y-95834562D01*
X90184543Y-95858404D01*
X90193428Y-95883236D01*
X90199836Y-95908819D01*
X90203706Y-95934908D01*
X90205000Y-95961250D01*
X90205000Y-96498750D01*
X90203706Y-96525092D01*
X90199836Y-96551181D01*
X90193428Y-96576764D01*
X90184543Y-96601596D01*
X90173266Y-96625438D01*
X90159707Y-96648060D01*
X90143997Y-96669243D01*
X90126285Y-96688785D01*
X90106743Y-96706497D01*
X90085560Y-96722207D01*
X90062938Y-96735766D01*
X90039096Y-96747043D01*
X90014264Y-96755928D01*
X89988681Y-96762336D01*
X89962592Y-96766206D01*
X89936250Y-96767500D01*
X89323750Y-96767500D01*
X89297408Y-96766206D01*
X89271319Y-96762336D01*
X89245736Y-96755928D01*
X89220904Y-96747043D01*
X89197062Y-96735766D01*
X89174440Y-96722207D01*
X89153257Y-96706497D01*
X89133715Y-96688785D01*
X89116003Y-96669243D01*
X89100293Y-96648060D01*
X89086734Y-96625438D01*
X89075457Y-96601596D01*
X89066572Y-96576764D01*
X89060164Y-96551181D01*
X89056294Y-96525092D01*
X89055000Y-96498750D01*
X89055000Y-95961250D01*
X89056294Y-95934908D01*
X89060164Y-95908819D01*
X89066572Y-95883236D01*
X89075457Y-95858404D01*
X89086734Y-95834562D01*
X89100293Y-95811940D01*
X89116003Y-95790757D01*
X89133715Y-95771215D01*
X89153257Y-95753503D01*
X89174440Y-95737793D01*
X89197062Y-95724234D01*
X89220904Y-95712957D01*
X89245736Y-95704072D01*
X89271319Y-95697664D01*
X89297408Y-95693794D01*
X89323750Y-95692500D01*
X89936250Y-95692500D01*
X89962592Y-95693794D01*
X89962592Y-95693794D01*
G37*
D15*
X89630000Y-96230000D03*
D10*
G36*
X89962592Y-97268794D02*
X89988681Y-97272664D01*
X90014264Y-97279072D01*
X90039096Y-97287957D01*
X90062938Y-97299234D01*
X90085560Y-97312793D01*
X90106743Y-97328503D01*
X90126285Y-97346215D01*
X90143997Y-97365757D01*
X90159707Y-97386940D01*
X90173266Y-97409562D01*
X90184543Y-97433404D01*
X90193428Y-97458236D01*
X90199836Y-97483819D01*
X90203706Y-97509908D01*
X90205000Y-97536250D01*
X90205000Y-98073750D01*
X90203706Y-98100092D01*
X90199836Y-98126181D01*
X90193428Y-98151764D01*
X90184543Y-98176596D01*
X90173266Y-98200438D01*
X90159707Y-98223060D01*
X90143997Y-98244243D01*
X90126285Y-98263785D01*
X90106743Y-98281497D01*
X90085560Y-98297207D01*
X90062938Y-98310766D01*
X90039096Y-98322043D01*
X90014264Y-98330928D01*
X89988681Y-98337336D01*
X89962592Y-98341206D01*
X89936250Y-98342500D01*
X89323750Y-98342500D01*
X89297408Y-98341206D01*
X89271319Y-98337336D01*
X89245736Y-98330928D01*
X89220904Y-98322043D01*
X89197062Y-98310766D01*
X89174440Y-98297207D01*
X89153257Y-98281497D01*
X89133715Y-98263785D01*
X89116003Y-98244243D01*
X89100293Y-98223060D01*
X89086734Y-98200438D01*
X89075457Y-98176596D01*
X89066572Y-98151764D01*
X89060164Y-98126181D01*
X89056294Y-98100092D01*
X89055000Y-98073750D01*
X89055000Y-97536250D01*
X89056294Y-97509908D01*
X89060164Y-97483819D01*
X89066572Y-97458236D01*
X89075457Y-97433404D01*
X89086734Y-97409562D01*
X89100293Y-97386940D01*
X89116003Y-97365757D01*
X89133715Y-97346215D01*
X89153257Y-97328503D01*
X89174440Y-97312793D01*
X89197062Y-97299234D01*
X89220904Y-97287957D01*
X89245736Y-97279072D01*
X89271319Y-97272664D01*
X89297408Y-97268794D01*
X89323750Y-97267500D01*
X89936250Y-97267500D01*
X89962592Y-97268794D01*
X89962592Y-97268794D01*
G37*
D15*
X89630000Y-97805000D03*
G04 #@! TD*
D10*
G04 #@! TO.C,R5*
G36*
X89994592Y-88846294D02*
X90020681Y-88850164D01*
X90046264Y-88856572D01*
X90071096Y-88865457D01*
X90094938Y-88876734D01*
X90117560Y-88890293D01*
X90138743Y-88906003D01*
X90158285Y-88923715D01*
X90175997Y-88943257D01*
X90191707Y-88964440D01*
X90205266Y-88987062D01*
X90216543Y-89010904D01*
X90225428Y-89035736D01*
X90231836Y-89061319D01*
X90235706Y-89087408D01*
X90237000Y-89113750D01*
X90237000Y-89651250D01*
X90235706Y-89677592D01*
X90231836Y-89703681D01*
X90225428Y-89729264D01*
X90216543Y-89754096D01*
X90205266Y-89777938D01*
X90191707Y-89800560D01*
X90175997Y-89821743D01*
X90158285Y-89841285D01*
X90138743Y-89858997D01*
X90117560Y-89874707D01*
X90094938Y-89888266D01*
X90071096Y-89899543D01*
X90046264Y-89908428D01*
X90020681Y-89914836D01*
X89994592Y-89918706D01*
X89968250Y-89920000D01*
X89355750Y-89920000D01*
X89329408Y-89918706D01*
X89303319Y-89914836D01*
X89277736Y-89908428D01*
X89252904Y-89899543D01*
X89229062Y-89888266D01*
X89206440Y-89874707D01*
X89185257Y-89858997D01*
X89165715Y-89841285D01*
X89148003Y-89821743D01*
X89132293Y-89800560D01*
X89118734Y-89777938D01*
X89107457Y-89754096D01*
X89098572Y-89729264D01*
X89092164Y-89703681D01*
X89088294Y-89677592D01*
X89087000Y-89651250D01*
X89087000Y-89113750D01*
X89088294Y-89087408D01*
X89092164Y-89061319D01*
X89098572Y-89035736D01*
X89107457Y-89010904D01*
X89118734Y-88987062D01*
X89132293Y-88964440D01*
X89148003Y-88943257D01*
X89165715Y-88923715D01*
X89185257Y-88906003D01*
X89206440Y-88890293D01*
X89229062Y-88876734D01*
X89252904Y-88865457D01*
X89277736Y-88856572D01*
X89303319Y-88850164D01*
X89329408Y-88846294D01*
X89355750Y-88845000D01*
X89968250Y-88845000D01*
X89994592Y-88846294D01*
X89994592Y-88846294D01*
G37*
D15*
X89662000Y-89382500D03*
D10*
G36*
X89994592Y-90421294D02*
X90020681Y-90425164D01*
X90046264Y-90431572D01*
X90071096Y-90440457D01*
X90094938Y-90451734D01*
X90117560Y-90465293D01*
X90138743Y-90481003D01*
X90158285Y-90498715D01*
X90175997Y-90518257D01*
X90191707Y-90539440D01*
X90205266Y-90562062D01*
X90216543Y-90585904D01*
X90225428Y-90610736D01*
X90231836Y-90636319D01*
X90235706Y-90662408D01*
X90237000Y-90688750D01*
X90237000Y-91226250D01*
X90235706Y-91252592D01*
X90231836Y-91278681D01*
X90225428Y-91304264D01*
X90216543Y-91329096D01*
X90205266Y-91352938D01*
X90191707Y-91375560D01*
X90175997Y-91396743D01*
X90158285Y-91416285D01*
X90138743Y-91433997D01*
X90117560Y-91449707D01*
X90094938Y-91463266D01*
X90071096Y-91474543D01*
X90046264Y-91483428D01*
X90020681Y-91489836D01*
X89994592Y-91493706D01*
X89968250Y-91495000D01*
X89355750Y-91495000D01*
X89329408Y-91493706D01*
X89303319Y-91489836D01*
X89277736Y-91483428D01*
X89252904Y-91474543D01*
X89229062Y-91463266D01*
X89206440Y-91449707D01*
X89185257Y-91433997D01*
X89165715Y-91416285D01*
X89148003Y-91396743D01*
X89132293Y-91375560D01*
X89118734Y-91352938D01*
X89107457Y-91329096D01*
X89098572Y-91304264D01*
X89092164Y-91278681D01*
X89088294Y-91252592D01*
X89087000Y-91226250D01*
X89087000Y-90688750D01*
X89088294Y-90662408D01*
X89092164Y-90636319D01*
X89098572Y-90610736D01*
X89107457Y-90585904D01*
X89118734Y-90562062D01*
X89132293Y-90539440D01*
X89148003Y-90518257D01*
X89165715Y-90498715D01*
X89185257Y-90481003D01*
X89206440Y-90465293D01*
X89229062Y-90451734D01*
X89252904Y-90440457D01*
X89277736Y-90431572D01*
X89303319Y-90425164D01*
X89329408Y-90421294D01*
X89355750Y-90420000D01*
X89968250Y-90420000D01*
X89994592Y-90421294D01*
X89994592Y-90421294D01*
G37*
D15*
X89662000Y-90957500D03*
G04 #@! TD*
D10*
G04 #@! TO.C,R14*
G36*
X92892592Y-107408794D02*
X92918681Y-107412664D01*
X92944264Y-107419072D01*
X92969096Y-107427957D01*
X92992938Y-107439234D01*
X93015560Y-107452793D01*
X93036743Y-107468503D01*
X93056285Y-107486215D01*
X93073997Y-107505757D01*
X93089707Y-107526940D01*
X93103266Y-107549562D01*
X93114543Y-107573404D01*
X93123428Y-107598236D01*
X93129836Y-107623819D01*
X93133706Y-107649908D01*
X93135000Y-107676250D01*
X93135000Y-108213750D01*
X93133706Y-108240092D01*
X93129836Y-108266181D01*
X93123428Y-108291764D01*
X93114543Y-108316596D01*
X93103266Y-108340438D01*
X93089707Y-108363060D01*
X93073997Y-108384243D01*
X93056285Y-108403785D01*
X93036743Y-108421497D01*
X93015560Y-108437207D01*
X92992938Y-108450766D01*
X92969096Y-108462043D01*
X92944264Y-108470928D01*
X92918681Y-108477336D01*
X92892592Y-108481206D01*
X92866250Y-108482500D01*
X92253750Y-108482500D01*
X92227408Y-108481206D01*
X92201319Y-108477336D01*
X92175736Y-108470928D01*
X92150904Y-108462043D01*
X92127062Y-108450766D01*
X92104440Y-108437207D01*
X92083257Y-108421497D01*
X92063715Y-108403785D01*
X92046003Y-108384243D01*
X92030293Y-108363060D01*
X92016734Y-108340438D01*
X92005457Y-108316596D01*
X91996572Y-108291764D01*
X91990164Y-108266181D01*
X91986294Y-108240092D01*
X91985000Y-108213750D01*
X91985000Y-107676250D01*
X91986294Y-107649908D01*
X91990164Y-107623819D01*
X91996572Y-107598236D01*
X92005457Y-107573404D01*
X92016734Y-107549562D01*
X92030293Y-107526940D01*
X92046003Y-107505757D01*
X92063715Y-107486215D01*
X92083257Y-107468503D01*
X92104440Y-107452793D01*
X92127062Y-107439234D01*
X92150904Y-107427957D01*
X92175736Y-107419072D01*
X92201319Y-107412664D01*
X92227408Y-107408794D01*
X92253750Y-107407500D01*
X92866250Y-107407500D01*
X92892592Y-107408794D01*
X92892592Y-107408794D01*
G37*
D15*
X92560000Y-107945000D03*
D10*
G36*
X92892592Y-105833794D02*
X92918681Y-105837664D01*
X92944264Y-105844072D01*
X92969096Y-105852957D01*
X92992938Y-105864234D01*
X93015560Y-105877793D01*
X93036743Y-105893503D01*
X93056285Y-105911215D01*
X93073997Y-105930757D01*
X93089707Y-105951940D01*
X93103266Y-105974562D01*
X93114543Y-105998404D01*
X93123428Y-106023236D01*
X93129836Y-106048819D01*
X93133706Y-106074908D01*
X93135000Y-106101250D01*
X93135000Y-106638750D01*
X93133706Y-106665092D01*
X93129836Y-106691181D01*
X93123428Y-106716764D01*
X93114543Y-106741596D01*
X93103266Y-106765438D01*
X93089707Y-106788060D01*
X93073997Y-106809243D01*
X93056285Y-106828785D01*
X93036743Y-106846497D01*
X93015560Y-106862207D01*
X92992938Y-106875766D01*
X92969096Y-106887043D01*
X92944264Y-106895928D01*
X92918681Y-106902336D01*
X92892592Y-106906206D01*
X92866250Y-106907500D01*
X92253750Y-106907500D01*
X92227408Y-106906206D01*
X92201319Y-106902336D01*
X92175736Y-106895928D01*
X92150904Y-106887043D01*
X92127062Y-106875766D01*
X92104440Y-106862207D01*
X92083257Y-106846497D01*
X92063715Y-106828785D01*
X92046003Y-106809243D01*
X92030293Y-106788060D01*
X92016734Y-106765438D01*
X92005457Y-106741596D01*
X91996572Y-106716764D01*
X91990164Y-106691181D01*
X91986294Y-106665092D01*
X91985000Y-106638750D01*
X91985000Y-106101250D01*
X91986294Y-106074908D01*
X91990164Y-106048819D01*
X91996572Y-106023236D01*
X92005457Y-105998404D01*
X92016734Y-105974562D01*
X92030293Y-105951940D01*
X92046003Y-105930757D01*
X92063715Y-105911215D01*
X92083257Y-105893503D01*
X92104440Y-105877793D01*
X92127062Y-105864234D01*
X92150904Y-105852957D01*
X92175736Y-105844072D01*
X92201319Y-105837664D01*
X92227408Y-105833794D01*
X92253750Y-105832500D01*
X92866250Y-105832500D01*
X92892592Y-105833794D01*
X92892592Y-105833794D01*
G37*
D15*
X92560000Y-106370000D03*
G04 #@! TD*
D10*
G04 #@! TO.C,C14*
G36*
X120006098Y-98221382D02*
X120033962Y-98225515D01*
X120061286Y-98232360D01*
X120087808Y-98241849D01*
X120113272Y-98253893D01*
X120137433Y-98268374D01*
X120160058Y-98285154D01*
X120180929Y-98304071D01*
X120199846Y-98324942D01*
X120216626Y-98347567D01*
X120231107Y-98371728D01*
X120243151Y-98397192D01*
X120252640Y-98423714D01*
X120259485Y-98451038D01*
X120263618Y-98478902D01*
X120265000Y-98507036D01*
X120265000Y-99532964D01*
X120263618Y-99561098D01*
X120259485Y-99588962D01*
X120252640Y-99616286D01*
X120243151Y-99642808D01*
X120231107Y-99668272D01*
X120216626Y-99692433D01*
X120199846Y-99715058D01*
X120180929Y-99735929D01*
X120160058Y-99754846D01*
X120137433Y-99771626D01*
X120113272Y-99786107D01*
X120087808Y-99798151D01*
X120061286Y-99807640D01*
X120033962Y-99814485D01*
X120006098Y-99818618D01*
X119977964Y-99820000D01*
X119002036Y-99820000D01*
X118973902Y-99818618D01*
X118946038Y-99814485D01*
X118918714Y-99807640D01*
X118892192Y-99798151D01*
X118866728Y-99786107D01*
X118842567Y-99771626D01*
X118819942Y-99754846D01*
X118799071Y-99735929D01*
X118780154Y-99715058D01*
X118763374Y-99692433D01*
X118748893Y-99668272D01*
X118736849Y-99642808D01*
X118727360Y-99616286D01*
X118720515Y-99588962D01*
X118716382Y-99561098D01*
X118715000Y-99532964D01*
X118715000Y-98507036D01*
X118716382Y-98478902D01*
X118720515Y-98451038D01*
X118727360Y-98423714D01*
X118736849Y-98397192D01*
X118748893Y-98371728D01*
X118763374Y-98347567D01*
X118780154Y-98324942D01*
X118799071Y-98304071D01*
X118819942Y-98285154D01*
X118842567Y-98268374D01*
X118866728Y-98253893D01*
X118892192Y-98241849D01*
X118918714Y-98232360D01*
X118946038Y-98225515D01*
X118973902Y-98221382D01*
X119002036Y-98220000D01*
X119977964Y-98220000D01*
X120006098Y-98221382D01*
X120006098Y-98221382D01*
G37*
D23*
X119490000Y-99020000D03*
D10*
G36*
X120006098Y-95521382D02*
X120033962Y-95525515D01*
X120061286Y-95532360D01*
X120087808Y-95541849D01*
X120113272Y-95553893D01*
X120137433Y-95568374D01*
X120160058Y-95585154D01*
X120180929Y-95604071D01*
X120199846Y-95624942D01*
X120216626Y-95647567D01*
X120231107Y-95671728D01*
X120243151Y-95697192D01*
X120252640Y-95723714D01*
X120259485Y-95751038D01*
X120263618Y-95778902D01*
X120265000Y-95807036D01*
X120265000Y-96832964D01*
X120263618Y-96861098D01*
X120259485Y-96888962D01*
X120252640Y-96916286D01*
X120243151Y-96942808D01*
X120231107Y-96968272D01*
X120216626Y-96992433D01*
X120199846Y-97015058D01*
X120180929Y-97035929D01*
X120160058Y-97054846D01*
X120137433Y-97071626D01*
X120113272Y-97086107D01*
X120087808Y-97098151D01*
X120061286Y-97107640D01*
X120033962Y-97114485D01*
X120006098Y-97118618D01*
X119977964Y-97120000D01*
X119002036Y-97120000D01*
X118973902Y-97118618D01*
X118946038Y-97114485D01*
X118918714Y-97107640D01*
X118892192Y-97098151D01*
X118866728Y-97086107D01*
X118842567Y-97071626D01*
X118819942Y-97054846D01*
X118799071Y-97035929D01*
X118780154Y-97015058D01*
X118763374Y-96992433D01*
X118748893Y-96968272D01*
X118736849Y-96942808D01*
X118727360Y-96916286D01*
X118720515Y-96888962D01*
X118716382Y-96861098D01*
X118715000Y-96832964D01*
X118715000Y-95807036D01*
X118716382Y-95778902D01*
X118720515Y-95751038D01*
X118727360Y-95723714D01*
X118736849Y-95697192D01*
X118748893Y-95671728D01*
X118763374Y-95647567D01*
X118780154Y-95624942D01*
X118799071Y-95604071D01*
X118819942Y-95585154D01*
X118842567Y-95568374D01*
X118866728Y-95553893D01*
X118892192Y-95541849D01*
X118918714Y-95532360D01*
X118946038Y-95525515D01*
X118973902Y-95521382D01*
X119002036Y-95520000D01*
X119977964Y-95520000D01*
X120006098Y-95521382D01*
X120006098Y-95521382D01*
G37*
D23*
X119490000Y-96320000D03*
G04 #@! TD*
D10*
G04 #@! TO.C,C17*
G36*
X82266098Y-68901382D02*
X82293962Y-68905515D01*
X82321286Y-68912360D01*
X82347808Y-68921849D01*
X82373272Y-68933893D01*
X82397433Y-68948374D01*
X82420058Y-68965154D01*
X82440929Y-68984071D01*
X82459846Y-69004942D01*
X82476626Y-69027567D01*
X82491107Y-69051728D01*
X82503151Y-69077192D01*
X82512640Y-69103714D01*
X82519485Y-69131038D01*
X82523618Y-69158902D01*
X82525000Y-69187036D01*
X82525000Y-70212964D01*
X82523618Y-70241098D01*
X82519485Y-70268962D01*
X82512640Y-70296286D01*
X82503151Y-70322808D01*
X82491107Y-70348272D01*
X82476626Y-70372433D01*
X82459846Y-70395058D01*
X82440929Y-70415929D01*
X82420058Y-70434846D01*
X82397433Y-70451626D01*
X82373272Y-70466107D01*
X82347808Y-70478151D01*
X82321286Y-70487640D01*
X82293962Y-70494485D01*
X82266098Y-70498618D01*
X82237964Y-70500000D01*
X81262036Y-70500000D01*
X81233902Y-70498618D01*
X81206038Y-70494485D01*
X81178714Y-70487640D01*
X81152192Y-70478151D01*
X81126728Y-70466107D01*
X81102567Y-70451626D01*
X81079942Y-70434846D01*
X81059071Y-70415929D01*
X81040154Y-70395058D01*
X81023374Y-70372433D01*
X81008893Y-70348272D01*
X80996849Y-70322808D01*
X80987360Y-70296286D01*
X80980515Y-70268962D01*
X80976382Y-70241098D01*
X80975000Y-70212964D01*
X80975000Y-69187036D01*
X80976382Y-69158902D01*
X80980515Y-69131038D01*
X80987360Y-69103714D01*
X80996849Y-69077192D01*
X81008893Y-69051728D01*
X81023374Y-69027567D01*
X81040154Y-69004942D01*
X81059071Y-68984071D01*
X81079942Y-68965154D01*
X81102567Y-68948374D01*
X81126728Y-68933893D01*
X81152192Y-68921849D01*
X81178714Y-68912360D01*
X81206038Y-68905515D01*
X81233902Y-68901382D01*
X81262036Y-68900000D01*
X82237964Y-68900000D01*
X82266098Y-68901382D01*
X82266098Y-68901382D01*
G37*
D23*
X81750000Y-69700000D03*
D10*
G36*
X82266098Y-71601382D02*
X82293962Y-71605515D01*
X82321286Y-71612360D01*
X82347808Y-71621849D01*
X82373272Y-71633893D01*
X82397433Y-71648374D01*
X82420058Y-71665154D01*
X82440929Y-71684071D01*
X82459846Y-71704942D01*
X82476626Y-71727567D01*
X82491107Y-71751728D01*
X82503151Y-71777192D01*
X82512640Y-71803714D01*
X82519485Y-71831038D01*
X82523618Y-71858902D01*
X82525000Y-71887036D01*
X82525000Y-72912964D01*
X82523618Y-72941098D01*
X82519485Y-72968962D01*
X82512640Y-72996286D01*
X82503151Y-73022808D01*
X82491107Y-73048272D01*
X82476626Y-73072433D01*
X82459846Y-73095058D01*
X82440929Y-73115929D01*
X82420058Y-73134846D01*
X82397433Y-73151626D01*
X82373272Y-73166107D01*
X82347808Y-73178151D01*
X82321286Y-73187640D01*
X82293962Y-73194485D01*
X82266098Y-73198618D01*
X82237964Y-73200000D01*
X81262036Y-73200000D01*
X81233902Y-73198618D01*
X81206038Y-73194485D01*
X81178714Y-73187640D01*
X81152192Y-73178151D01*
X81126728Y-73166107D01*
X81102567Y-73151626D01*
X81079942Y-73134846D01*
X81059071Y-73115929D01*
X81040154Y-73095058D01*
X81023374Y-73072433D01*
X81008893Y-73048272D01*
X80996849Y-73022808D01*
X80987360Y-72996286D01*
X80980515Y-72968962D01*
X80976382Y-72941098D01*
X80975000Y-72912964D01*
X80975000Y-71887036D01*
X80976382Y-71858902D01*
X80980515Y-71831038D01*
X80987360Y-71803714D01*
X80996849Y-71777192D01*
X81008893Y-71751728D01*
X81023374Y-71727567D01*
X81040154Y-71704942D01*
X81059071Y-71684071D01*
X81079942Y-71665154D01*
X81102567Y-71648374D01*
X81126728Y-71633893D01*
X81152192Y-71621849D01*
X81178714Y-71612360D01*
X81206038Y-71605515D01*
X81233902Y-71601382D01*
X81262036Y-71600000D01*
X82237964Y-71600000D01*
X82266098Y-71601382D01*
X82266098Y-71601382D01*
G37*
D23*
X81750000Y-72400000D03*
G04 #@! TD*
D10*
G04 #@! TO.C,C15*
G36*
X89766098Y-68841382D02*
X89793962Y-68845515D01*
X89821286Y-68852360D01*
X89847808Y-68861849D01*
X89873272Y-68873893D01*
X89897433Y-68888374D01*
X89920058Y-68905154D01*
X89940929Y-68924071D01*
X89959846Y-68944942D01*
X89976626Y-68967567D01*
X89991107Y-68991728D01*
X90003151Y-69017192D01*
X90012640Y-69043714D01*
X90019485Y-69071038D01*
X90023618Y-69098902D01*
X90025000Y-69127036D01*
X90025000Y-70152964D01*
X90023618Y-70181098D01*
X90019485Y-70208962D01*
X90012640Y-70236286D01*
X90003151Y-70262808D01*
X89991107Y-70288272D01*
X89976626Y-70312433D01*
X89959846Y-70335058D01*
X89940929Y-70355929D01*
X89920058Y-70374846D01*
X89897433Y-70391626D01*
X89873272Y-70406107D01*
X89847808Y-70418151D01*
X89821286Y-70427640D01*
X89793962Y-70434485D01*
X89766098Y-70438618D01*
X89737964Y-70440000D01*
X88762036Y-70440000D01*
X88733902Y-70438618D01*
X88706038Y-70434485D01*
X88678714Y-70427640D01*
X88652192Y-70418151D01*
X88626728Y-70406107D01*
X88602567Y-70391626D01*
X88579942Y-70374846D01*
X88559071Y-70355929D01*
X88540154Y-70335058D01*
X88523374Y-70312433D01*
X88508893Y-70288272D01*
X88496849Y-70262808D01*
X88487360Y-70236286D01*
X88480515Y-70208962D01*
X88476382Y-70181098D01*
X88475000Y-70152964D01*
X88475000Y-69127036D01*
X88476382Y-69098902D01*
X88480515Y-69071038D01*
X88487360Y-69043714D01*
X88496849Y-69017192D01*
X88508893Y-68991728D01*
X88523374Y-68967567D01*
X88540154Y-68944942D01*
X88559071Y-68924071D01*
X88579942Y-68905154D01*
X88602567Y-68888374D01*
X88626728Y-68873893D01*
X88652192Y-68861849D01*
X88678714Y-68852360D01*
X88706038Y-68845515D01*
X88733902Y-68841382D01*
X88762036Y-68840000D01*
X89737964Y-68840000D01*
X89766098Y-68841382D01*
X89766098Y-68841382D01*
G37*
D23*
X89250000Y-69640000D03*
D10*
G36*
X89766098Y-71541382D02*
X89793962Y-71545515D01*
X89821286Y-71552360D01*
X89847808Y-71561849D01*
X89873272Y-71573893D01*
X89897433Y-71588374D01*
X89920058Y-71605154D01*
X89940929Y-71624071D01*
X89959846Y-71644942D01*
X89976626Y-71667567D01*
X89991107Y-71691728D01*
X90003151Y-71717192D01*
X90012640Y-71743714D01*
X90019485Y-71771038D01*
X90023618Y-71798902D01*
X90025000Y-71827036D01*
X90025000Y-72852964D01*
X90023618Y-72881098D01*
X90019485Y-72908962D01*
X90012640Y-72936286D01*
X90003151Y-72962808D01*
X89991107Y-72988272D01*
X89976626Y-73012433D01*
X89959846Y-73035058D01*
X89940929Y-73055929D01*
X89920058Y-73074846D01*
X89897433Y-73091626D01*
X89873272Y-73106107D01*
X89847808Y-73118151D01*
X89821286Y-73127640D01*
X89793962Y-73134485D01*
X89766098Y-73138618D01*
X89737964Y-73140000D01*
X88762036Y-73140000D01*
X88733902Y-73138618D01*
X88706038Y-73134485D01*
X88678714Y-73127640D01*
X88652192Y-73118151D01*
X88626728Y-73106107D01*
X88602567Y-73091626D01*
X88579942Y-73074846D01*
X88559071Y-73055929D01*
X88540154Y-73035058D01*
X88523374Y-73012433D01*
X88508893Y-72988272D01*
X88496849Y-72962808D01*
X88487360Y-72936286D01*
X88480515Y-72908962D01*
X88476382Y-72881098D01*
X88475000Y-72852964D01*
X88475000Y-71827036D01*
X88476382Y-71798902D01*
X88480515Y-71771038D01*
X88487360Y-71743714D01*
X88496849Y-71717192D01*
X88508893Y-71691728D01*
X88523374Y-71667567D01*
X88540154Y-71644942D01*
X88559071Y-71624071D01*
X88579942Y-71605154D01*
X88602567Y-71588374D01*
X88626728Y-71573893D01*
X88652192Y-71561849D01*
X88678714Y-71552360D01*
X88706038Y-71545515D01*
X88733902Y-71541382D01*
X88762036Y-71540000D01*
X89737964Y-71540000D01*
X89766098Y-71541382D01*
X89766098Y-71541382D01*
G37*
D23*
X89250000Y-72340000D03*
G04 #@! TD*
D10*
G04 #@! TO.C,C13*
G36*
X120056098Y-104361382D02*
X120083962Y-104365515D01*
X120111286Y-104372360D01*
X120137808Y-104381849D01*
X120163272Y-104393893D01*
X120187433Y-104408374D01*
X120210058Y-104425154D01*
X120230929Y-104444071D01*
X120249846Y-104464942D01*
X120266626Y-104487567D01*
X120281107Y-104511728D01*
X120293151Y-104537192D01*
X120302640Y-104563714D01*
X120309485Y-104591038D01*
X120313618Y-104618902D01*
X120315000Y-104647036D01*
X120315000Y-105672964D01*
X120313618Y-105701098D01*
X120309485Y-105728962D01*
X120302640Y-105756286D01*
X120293151Y-105782808D01*
X120281107Y-105808272D01*
X120266626Y-105832433D01*
X120249846Y-105855058D01*
X120230929Y-105875929D01*
X120210058Y-105894846D01*
X120187433Y-105911626D01*
X120163272Y-105926107D01*
X120137808Y-105938151D01*
X120111286Y-105947640D01*
X120083962Y-105954485D01*
X120056098Y-105958618D01*
X120027964Y-105960000D01*
X119052036Y-105960000D01*
X119023902Y-105958618D01*
X118996038Y-105954485D01*
X118968714Y-105947640D01*
X118942192Y-105938151D01*
X118916728Y-105926107D01*
X118892567Y-105911626D01*
X118869942Y-105894846D01*
X118849071Y-105875929D01*
X118830154Y-105855058D01*
X118813374Y-105832433D01*
X118798893Y-105808272D01*
X118786849Y-105782808D01*
X118777360Y-105756286D01*
X118770515Y-105728962D01*
X118766382Y-105701098D01*
X118765000Y-105672964D01*
X118765000Y-104647036D01*
X118766382Y-104618902D01*
X118770515Y-104591038D01*
X118777360Y-104563714D01*
X118786849Y-104537192D01*
X118798893Y-104511728D01*
X118813374Y-104487567D01*
X118830154Y-104464942D01*
X118849071Y-104444071D01*
X118869942Y-104425154D01*
X118892567Y-104408374D01*
X118916728Y-104393893D01*
X118942192Y-104381849D01*
X118968714Y-104372360D01*
X118996038Y-104365515D01*
X119023902Y-104361382D01*
X119052036Y-104360000D01*
X120027964Y-104360000D01*
X120056098Y-104361382D01*
X120056098Y-104361382D01*
G37*
D23*
X119540000Y-105160000D03*
D10*
G36*
X120056098Y-107061382D02*
X120083962Y-107065515D01*
X120111286Y-107072360D01*
X120137808Y-107081849D01*
X120163272Y-107093893D01*
X120187433Y-107108374D01*
X120210058Y-107125154D01*
X120230929Y-107144071D01*
X120249846Y-107164942D01*
X120266626Y-107187567D01*
X120281107Y-107211728D01*
X120293151Y-107237192D01*
X120302640Y-107263714D01*
X120309485Y-107291038D01*
X120313618Y-107318902D01*
X120315000Y-107347036D01*
X120315000Y-108372964D01*
X120313618Y-108401098D01*
X120309485Y-108428962D01*
X120302640Y-108456286D01*
X120293151Y-108482808D01*
X120281107Y-108508272D01*
X120266626Y-108532433D01*
X120249846Y-108555058D01*
X120230929Y-108575929D01*
X120210058Y-108594846D01*
X120187433Y-108611626D01*
X120163272Y-108626107D01*
X120137808Y-108638151D01*
X120111286Y-108647640D01*
X120083962Y-108654485D01*
X120056098Y-108658618D01*
X120027964Y-108660000D01*
X119052036Y-108660000D01*
X119023902Y-108658618D01*
X118996038Y-108654485D01*
X118968714Y-108647640D01*
X118942192Y-108638151D01*
X118916728Y-108626107D01*
X118892567Y-108611626D01*
X118869942Y-108594846D01*
X118849071Y-108575929D01*
X118830154Y-108555058D01*
X118813374Y-108532433D01*
X118798893Y-108508272D01*
X118786849Y-108482808D01*
X118777360Y-108456286D01*
X118770515Y-108428962D01*
X118766382Y-108401098D01*
X118765000Y-108372964D01*
X118765000Y-107347036D01*
X118766382Y-107318902D01*
X118770515Y-107291038D01*
X118777360Y-107263714D01*
X118786849Y-107237192D01*
X118798893Y-107211728D01*
X118813374Y-107187567D01*
X118830154Y-107164942D01*
X118849071Y-107144071D01*
X118869942Y-107125154D01*
X118892567Y-107108374D01*
X118916728Y-107093893D01*
X118942192Y-107081849D01*
X118968714Y-107072360D01*
X118996038Y-107065515D01*
X119023902Y-107061382D01*
X119052036Y-107060000D01*
X120027964Y-107060000D01*
X120056098Y-107061382D01*
X120056098Y-107061382D01*
G37*
D23*
X119540000Y-107860000D03*
G04 #@! TD*
D10*
G04 #@! TO.C,C12*
G36*
X94896098Y-71511382D02*
X94923962Y-71515515D01*
X94951286Y-71522360D01*
X94977808Y-71531849D01*
X95003272Y-71543893D01*
X95027433Y-71558374D01*
X95050058Y-71575154D01*
X95070929Y-71594071D01*
X95089846Y-71614942D01*
X95106626Y-71637567D01*
X95121107Y-71661728D01*
X95133151Y-71687192D01*
X95142640Y-71713714D01*
X95149485Y-71741038D01*
X95153618Y-71768902D01*
X95155000Y-71797036D01*
X95155000Y-72822964D01*
X95153618Y-72851098D01*
X95149485Y-72878962D01*
X95142640Y-72906286D01*
X95133151Y-72932808D01*
X95121107Y-72958272D01*
X95106626Y-72982433D01*
X95089846Y-73005058D01*
X95070929Y-73025929D01*
X95050058Y-73044846D01*
X95027433Y-73061626D01*
X95003272Y-73076107D01*
X94977808Y-73088151D01*
X94951286Y-73097640D01*
X94923962Y-73104485D01*
X94896098Y-73108618D01*
X94867964Y-73110000D01*
X93892036Y-73110000D01*
X93863902Y-73108618D01*
X93836038Y-73104485D01*
X93808714Y-73097640D01*
X93782192Y-73088151D01*
X93756728Y-73076107D01*
X93732567Y-73061626D01*
X93709942Y-73044846D01*
X93689071Y-73025929D01*
X93670154Y-73005058D01*
X93653374Y-72982433D01*
X93638893Y-72958272D01*
X93626849Y-72932808D01*
X93617360Y-72906286D01*
X93610515Y-72878962D01*
X93606382Y-72851098D01*
X93605000Y-72822964D01*
X93605000Y-71797036D01*
X93606382Y-71768902D01*
X93610515Y-71741038D01*
X93617360Y-71713714D01*
X93626849Y-71687192D01*
X93638893Y-71661728D01*
X93653374Y-71637567D01*
X93670154Y-71614942D01*
X93689071Y-71594071D01*
X93709942Y-71575154D01*
X93732567Y-71558374D01*
X93756728Y-71543893D01*
X93782192Y-71531849D01*
X93808714Y-71522360D01*
X93836038Y-71515515D01*
X93863902Y-71511382D01*
X93892036Y-71510000D01*
X94867964Y-71510000D01*
X94896098Y-71511382D01*
X94896098Y-71511382D01*
G37*
D23*
X94380000Y-72310000D03*
D10*
G36*
X94896098Y-68811382D02*
X94923962Y-68815515D01*
X94951286Y-68822360D01*
X94977808Y-68831849D01*
X95003272Y-68843893D01*
X95027433Y-68858374D01*
X95050058Y-68875154D01*
X95070929Y-68894071D01*
X95089846Y-68914942D01*
X95106626Y-68937567D01*
X95121107Y-68961728D01*
X95133151Y-68987192D01*
X95142640Y-69013714D01*
X95149485Y-69041038D01*
X95153618Y-69068902D01*
X95155000Y-69097036D01*
X95155000Y-70122964D01*
X95153618Y-70151098D01*
X95149485Y-70178962D01*
X95142640Y-70206286D01*
X95133151Y-70232808D01*
X95121107Y-70258272D01*
X95106626Y-70282433D01*
X95089846Y-70305058D01*
X95070929Y-70325929D01*
X95050058Y-70344846D01*
X95027433Y-70361626D01*
X95003272Y-70376107D01*
X94977808Y-70388151D01*
X94951286Y-70397640D01*
X94923962Y-70404485D01*
X94896098Y-70408618D01*
X94867964Y-70410000D01*
X93892036Y-70410000D01*
X93863902Y-70408618D01*
X93836038Y-70404485D01*
X93808714Y-70397640D01*
X93782192Y-70388151D01*
X93756728Y-70376107D01*
X93732567Y-70361626D01*
X93709942Y-70344846D01*
X93689071Y-70325929D01*
X93670154Y-70305058D01*
X93653374Y-70282433D01*
X93638893Y-70258272D01*
X93626849Y-70232808D01*
X93617360Y-70206286D01*
X93610515Y-70178962D01*
X93606382Y-70151098D01*
X93605000Y-70122964D01*
X93605000Y-69097036D01*
X93606382Y-69068902D01*
X93610515Y-69041038D01*
X93617360Y-69013714D01*
X93626849Y-68987192D01*
X93638893Y-68961728D01*
X93653374Y-68937567D01*
X93670154Y-68914942D01*
X93689071Y-68894071D01*
X93709942Y-68875154D01*
X93732567Y-68858374D01*
X93756728Y-68843893D01*
X93782192Y-68831849D01*
X93808714Y-68822360D01*
X93836038Y-68815515D01*
X93863902Y-68811382D01*
X93892036Y-68810000D01*
X94867964Y-68810000D01*
X94896098Y-68811382D01*
X94896098Y-68811382D01*
G37*
D23*
X94380000Y-69610000D03*
G04 #@! TD*
D24*
G04 #@! TO.C,TP6*
X115740000Y-70650000D03*
G04 #@! TD*
D25*
G04 #@! TO.C,RV2*
X98350000Y-96880000D03*
D26*
X97100000Y-99780000D03*
D25*
X95850000Y-96880000D03*
G04 #@! TD*
D10*
G04 #@! TO.C,C19*
G36*
X100942592Y-79783794D02*
X100968681Y-79787664D01*
X100994264Y-79794072D01*
X101019096Y-79802957D01*
X101042938Y-79814234D01*
X101065560Y-79827793D01*
X101086743Y-79843503D01*
X101106285Y-79861215D01*
X101123997Y-79880757D01*
X101139707Y-79901940D01*
X101153266Y-79924562D01*
X101164543Y-79948404D01*
X101173428Y-79973236D01*
X101179836Y-79998819D01*
X101183706Y-80024908D01*
X101185000Y-80051250D01*
X101185000Y-80588750D01*
X101183706Y-80615092D01*
X101179836Y-80641181D01*
X101173428Y-80666764D01*
X101164543Y-80691596D01*
X101153266Y-80715438D01*
X101139707Y-80738060D01*
X101123997Y-80759243D01*
X101106285Y-80778785D01*
X101086743Y-80796497D01*
X101065560Y-80812207D01*
X101042938Y-80825766D01*
X101019096Y-80837043D01*
X100994264Y-80845928D01*
X100968681Y-80852336D01*
X100942592Y-80856206D01*
X100916250Y-80857500D01*
X100303750Y-80857500D01*
X100277408Y-80856206D01*
X100251319Y-80852336D01*
X100225736Y-80845928D01*
X100200904Y-80837043D01*
X100177062Y-80825766D01*
X100154440Y-80812207D01*
X100133257Y-80796497D01*
X100113715Y-80778785D01*
X100096003Y-80759243D01*
X100080293Y-80738060D01*
X100066734Y-80715438D01*
X100055457Y-80691596D01*
X100046572Y-80666764D01*
X100040164Y-80641181D01*
X100036294Y-80615092D01*
X100035000Y-80588750D01*
X100035000Y-80051250D01*
X100036294Y-80024908D01*
X100040164Y-79998819D01*
X100046572Y-79973236D01*
X100055457Y-79948404D01*
X100066734Y-79924562D01*
X100080293Y-79901940D01*
X100096003Y-79880757D01*
X100113715Y-79861215D01*
X100133257Y-79843503D01*
X100154440Y-79827793D01*
X100177062Y-79814234D01*
X100200904Y-79802957D01*
X100225736Y-79794072D01*
X100251319Y-79787664D01*
X100277408Y-79783794D01*
X100303750Y-79782500D01*
X100916250Y-79782500D01*
X100942592Y-79783794D01*
X100942592Y-79783794D01*
G37*
D15*
X100610000Y-80320000D03*
D10*
G36*
X100942592Y-81358794D02*
X100968681Y-81362664D01*
X100994264Y-81369072D01*
X101019096Y-81377957D01*
X101042938Y-81389234D01*
X101065560Y-81402793D01*
X101086743Y-81418503D01*
X101106285Y-81436215D01*
X101123997Y-81455757D01*
X101139707Y-81476940D01*
X101153266Y-81499562D01*
X101164543Y-81523404D01*
X101173428Y-81548236D01*
X101179836Y-81573819D01*
X101183706Y-81599908D01*
X101185000Y-81626250D01*
X101185000Y-82163750D01*
X101183706Y-82190092D01*
X101179836Y-82216181D01*
X101173428Y-82241764D01*
X101164543Y-82266596D01*
X101153266Y-82290438D01*
X101139707Y-82313060D01*
X101123997Y-82334243D01*
X101106285Y-82353785D01*
X101086743Y-82371497D01*
X101065560Y-82387207D01*
X101042938Y-82400766D01*
X101019096Y-82412043D01*
X100994264Y-82420928D01*
X100968681Y-82427336D01*
X100942592Y-82431206D01*
X100916250Y-82432500D01*
X100303750Y-82432500D01*
X100277408Y-82431206D01*
X100251319Y-82427336D01*
X100225736Y-82420928D01*
X100200904Y-82412043D01*
X100177062Y-82400766D01*
X100154440Y-82387207D01*
X100133257Y-82371497D01*
X100113715Y-82353785D01*
X100096003Y-82334243D01*
X100080293Y-82313060D01*
X100066734Y-82290438D01*
X100055457Y-82266596D01*
X100046572Y-82241764D01*
X100040164Y-82216181D01*
X100036294Y-82190092D01*
X100035000Y-82163750D01*
X100035000Y-81626250D01*
X100036294Y-81599908D01*
X100040164Y-81573819D01*
X100046572Y-81548236D01*
X100055457Y-81523404D01*
X100066734Y-81499562D01*
X100080293Y-81476940D01*
X100096003Y-81455757D01*
X100113715Y-81436215D01*
X100133257Y-81418503D01*
X100154440Y-81402793D01*
X100177062Y-81389234D01*
X100200904Y-81377957D01*
X100225736Y-81369072D01*
X100251319Y-81362664D01*
X100277408Y-81358794D01*
X100303750Y-81357500D01*
X100916250Y-81357500D01*
X100942592Y-81358794D01*
X100942592Y-81358794D01*
G37*
D15*
X100610000Y-81895000D03*
G04 #@! TD*
D27*
G04 #@! TO.C,X1*
X100610000Y-77870000D03*
X105910000Y-77870000D03*
X105910000Y-73670000D03*
X100610000Y-73670000D03*
G04 #@! TD*
D25*
G04 #@! TO.C,RV1*
X120970000Y-80070000D03*
D26*
X119720000Y-82970000D03*
D25*
X118470000Y-80070000D03*
G04 #@! TD*
D10*
G04 #@! TO.C,C10*
G36*
X97052592Y-71808794D02*
X97078681Y-71812664D01*
X97104264Y-71819072D01*
X97129096Y-71827957D01*
X97152938Y-71839234D01*
X97175560Y-71852793D01*
X97196743Y-71868503D01*
X97216285Y-71886215D01*
X97233997Y-71905757D01*
X97249707Y-71926940D01*
X97263266Y-71949562D01*
X97274543Y-71973404D01*
X97283428Y-71998236D01*
X97289836Y-72023819D01*
X97293706Y-72049908D01*
X97295000Y-72076250D01*
X97295000Y-72613750D01*
X97293706Y-72640092D01*
X97289836Y-72666181D01*
X97283428Y-72691764D01*
X97274543Y-72716596D01*
X97263266Y-72740438D01*
X97249707Y-72763060D01*
X97233997Y-72784243D01*
X97216285Y-72803785D01*
X97196743Y-72821497D01*
X97175560Y-72837207D01*
X97152938Y-72850766D01*
X97129096Y-72862043D01*
X97104264Y-72870928D01*
X97078681Y-72877336D01*
X97052592Y-72881206D01*
X97026250Y-72882500D01*
X96413750Y-72882500D01*
X96387408Y-72881206D01*
X96361319Y-72877336D01*
X96335736Y-72870928D01*
X96310904Y-72862043D01*
X96287062Y-72850766D01*
X96264440Y-72837207D01*
X96243257Y-72821497D01*
X96223715Y-72803785D01*
X96206003Y-72784243D01*
X96190293Y-72763060D01*
X96176734Y-72740438D01*
X96165457Y-72716596D01*
X96156572Y-72691764D01*
X96150164Y-72666181D01*
X96146294Y-72640092D01*
X96145000Y-72613750D01*
X96145000Y-72076250D01*
X96146294Y-72049908D01*
X96150164Y-72023819D01*
X96156572Y-71998236D01*
X96165457Y-71973404D01*
X96176734Y-71949562D01*
X96190293Y-71926940D01*
X96206003Y-71905757D01*
X96223715Y-71886215D01*
X96243257Y-71868503D01*
X96264440Y-71852793D01*
X96287062Y-71839234D01*
X96310904Y-71827957D01*
X96335736Y-71819072D01*
X96361319Y-71812664D01*
X96387408Y-71808794D01*
X96413750Y-71807500D01*
X97026250Y-71807500D01*
X97052592Y-71808794D01*
X97052592Y-71808794D01*
G37*
D15*
X96720000Y-72345000D03*
D10*
G36*
X97052592Y-70233794D02*
X97078681Y-70237664D01*
X97104264Y-70244072D01*
X97129096Y-70252957D01*
X97152938Y-70264234D01*
X97175560Y-70277793D01*
X97196743Y-70293503D01*
X97216285Y-70311215D01*
X97233997Y-70330757D01*
X97249707Y-70351940D01*
X97263266Y-70374562D01*
X97274543Y-70398404D01*
X97283428Y-70423236D01*
X97289836Y-70448819D01*
X97293706Y-70474908D01*
X97295000Y-70501250D01*
X97295000Y-71038750D01*
X97293706Y-71065092D01*
X97289836Y-71091181D01*
X97283428Y-71116764D01*
X97274543Y-71141596D01*
X97263266Y-71165438D01*
X97249707Y-71188060D01*
X97233997Y-71209243D01*
X97216285Y-71228785D01*
X97196743Y-71246497D01*
X97175560Y-71262207D01*
X97152938Y-71275766D01*
X97129096Y-71287043D01*
X97104264Y-71295928D01*
X97078681Y-71302336D01*
X97052592Y-71306206D01*
X97026250Y-71307500D01*
X96413750Y-71307500D01*
X96387408Y-71306206D01*
X96361319Y-71302336D01*
X96335736Y-71295928D01*
X96310904Y-71287043D01*
X96287062Y-71275766D01*
X96264440Y-71262207D01*
X96243257Y-71246497D01*
X96223715Y-71228785D01*
X96206003Y-71209243D01*
X96190293Y-71188060D01*
X96176734Y-71165438D01*
X96165457Y-71141596D01*
X96156572Y-71116764D01*
X96150164Y-71091181D01*
X96146294Y-71065092D01*
X96145000Y-71038750D01*
X96145000Y-70501250D01*
X96146294Y-70474908D01*
X96150164Y-70448819D01*
X96156572Y-70423236D01*
X96165457Y-70398404D01*
X96176734Y-70374562D01*
X96190293Y-70351940D01*
X96206003Y-70330757D01*
X96223715Y-70311215D01*
X96243257Y-70293503D01*
X96264440Y-70277793D01*
X96287062Y-70264234D01*
X96310904Y-70252957D01*
X96335736Y-70244072D01*
X96361319Y-70237664D01*
X96387408Y-70233794D01*
X96413750Y-70232500D01*
X97026250Y-70232500D01*
X97052592Y-70233794D01*
X97052592Y-70233794D01*
G37*
D15*
X96720000Y-70770000D03*
G04 #@! TD*
D10*
G04 #@! TO.C,C4*
G36*
X122092592Y-97156294D02*
X122118681Y-97160164D01*
X122144264Y-97166572D01*
X122169096Y-97175457D01*
X122192938Y-97186734D01*
X122215560Y-97200293D01*
X122236743Y-97216003D01*
X122256285Y-97233715D01*
X122273997Y-97253257D01*
X122289707Y-97274440D01*
X122303266Y-97297062D01*
X122314543Y-97320904D01*
X122323428Y-97345736D01*
X122329836Y-97371319D01*
X122333706Y-97397408D01*
X122335000Y-97423750D01*
X122335000Y-97961250D01*
X122333706Y-97987592D01*
X122329836Y-98013681D01*
X122323428Y-98039264D01*
X122314543Y-98064096D01*
X122303266Y-98087938D01*
X122289707Y-98110560D01*
X122273997Y-98131743D01*
X122256285Y-98151285D01*
X122236743Y-98168997D01*
X122215560Y-98184707D01*
X122192938Y-98198266D01*
X122169096Y-98209543D01*
X122144264Y-98218428D01*
X122118681Y-98224836D01*
X122092592Y-98228706D01*
X122066250Y-98230000D01*
X121453750Y-98230000D01*
X121427408Y-98228706D01*
X121401319Y-98224836D01*
X121375736Y-98218428D01*
X121350904Y-98209543D01*
X121327062Y-98198266D01*
X121304440Y-98184707D01*
X121283257Y-98168997D01*
X121263715Y-98151285D01*
X121246003Y-98131743D01*
X121230293Y-98110560D01*
X121216734Y-98087938D01*
X121205457Y-98064096D01*
X121196572Y-98039264D01*
X121190164Y-98013681D01*
X121186294Y-97987592D01*
X121185000Y-97961250D01*
X121185000Y-97423750D01*
X121186294Y-97397408D01*
X121190164Y-97371319D01*
X121196572Y-97345736D01*
X121205457Y-97320904D01*
X121216734Y-97297062D01*
X121230293Y-97274440D01*
X121246003Y-97253257D01*
X121263715Y-97233715D01*
X121283257Y-97216003D01*
X121304440Y-97200293D01*
X121327062Y-97186734D01*
X121350904Y-97175457D01*
X121375736Y-97166572D01*
X121401319Y-97160164D01*
X121427408Y-97156294D01*
X121453750Y-97155000D01*
X122066250Y-97155000D01*
X122092592Y-97156294D01*
X122092592Y-97156294D01*
G37*
D15*
X121760000Y-97692500D03*
D10*
G36*
X122092592Y-98731294D02*
X122118681Y-98735164D01*
X122144264Y-98741572D01*
X122169096Y-98750457D01*
X122192938Y-98761734D01*
X122215560Y-98775293D01*
X122236743Y-98791003D01*
X122256285Y-98808715D01*
X122273997Y-98828257D01*
X122289707Y-98849440D01*
X122303266Y-98872062D01*
X122314543Y-98895904D01*
X122323428Y-98920736D01*
X122329836Y-98946319D01*
X122333706Y-98972408D01*
X122335000Y-98998750D01*
X122335000Y-99536250D01*
X122333706Y-99562592D01*
X122329836Y-99588681D01*
X122323428Y-99614264D01*
X122314543Y-99639096D01*
X122303266Y-99662938D01*
X122289707Y-99685560D01*
X122273997Y-99706743D01*
X122256285Y-99726285D01*
X122236743Y-99743997D01*
X122215560Y-99759707D01*
X122192938Y-99773266D01*
X122169096Y-99784543D01*
X122144264Y-99793428D01*
X122118681Y-99799836D01*
X122092592Y-99803706D01*
X122066250Y-99805000D01*
X121453750Y-99805000D01*
X121427408Y-99803706D01*
X121401319Y-99799836D01*
X121375736Y-99793428D01*
X121350904Y-99784543D01*
X121327062Y-99773266D01*
X121304440Y-99759707D01*
X121283257Y-99743997D01*
X121263715Y-99726285D01*
X121246003Y-99706743D01*
X121230293Y-99685560D01*
X121216734Y-99662938D01*
X121205457Y-99639096D01*
X121196572Y-99614264D01*
X121190164Y-99588681D01*
X121186294Y-99562592D01*
X121185000Y-99536250D01*
X121185000Y-98998750D01*
X121186294Y-98972408D01*
X121190164Y-98946319D01*
X121196572Y-98920736D01*
X121205457Y-98895904D01*
X121216734Y-98872062D01*
X121230293Y-98849440D01*
X121246003Y-98828257D01*
X121263715Y-98808715D01*
X121283257Y-98791003D01*
X121304440Y-98775293D01*
X121327062Y-98761734D01*
X121350904Y-98750457D01*
X121375736Y-98741572D01*
X121401319Y-98735164D01*
X121427408Y-98731294D01*
X121453750Y-98730000D01*
X122066250Y-98730000D01*
X122092592Y-98731294D01*
X122092592Y-98731294D01*
G37*
D15*
X121760000Y-99267500D03*
G04 #@! TD*
D10*
G04 #@! TO.C,C5*
G36*
X122302592Y-106248794D02*
X122328681Y-106252664D01*
X122354264Y-106259072D01*
X122379096Y-106267957D01*
X122402938Y-106279234D01*
X122425560Y-106292793D01*
X122446743Y-106308503D01*
X122466285Y-106326215D01*
X122483997Y-106345757D01*
X122499707Y-106366940D01*
X122513266Y-106389562D01*
X122524543Y-106413404D01*
X122533428Y-106438236D01*
X122539836Y-106463819D01*
X122543706Y-106489908D01*
X122545000Y-106516250D01*
X122545000Y-107053750D01*
X122543706Y-107080092D01*
X122539836Y-107106181D01*
X122533428Y-107131764D01*
X122524543Y-107156596D01*
X122513266Y-107180438D01*
X122499707Y-107203060D01*
X122483997Y-107224243D01*
X122466285Y-107243785D01*
X122446743Y-107261497D01*
X122425560Y-107277207D01*
X122402938Y-107290766D01*
X122379096Y-107302043D01*
X122354264Y-107310928D01*
X122328681Y-107317336D01*
X122302592Y-107321206D01*
X122276250Y-107322500D01*
X121663750Y-107322500D01*
X121637408Y-107321206D01*
X121611319Y-107317336D01*
X121585736Y-107310928D01*
X121560904Y-107302043D01*
X121537062Y-107290766D01*
X121514440Y-107277207D01*
X121493257Y-107261497D01*
X121473715Y-107243785D01*
X121456003Y-107224243D01*
X121440293Y-107203060D01*
X121426734Y-107180438D01*
X121415457Y-107156596D01*
X121406572Y-107131764D01*
X121400164Y-107106181D01*
X121396294Y-107080092D01*
X121395000Y-107053750D01*
X121395000Y-106516250D01*
X121396294Y-106489908D01*
X121400164Y-106463819D01*
X121406572Y-106438236D01*
X121415457Y-106413404D01*
X121426734Y-106389562D01*
X121440293Y-106366940D01*
X121456003Y-106345757D01*
X121473715Y-106326215D01*
X121493257Y-106308503D01*
X121514440Y-106292793D01*
X121537062Y-106279234D01*
X121560904Y-106267957D01*
X121585736Y-106259072D01*
X121611319Y-106252664D01*
X121637408Y-106248794D01*
X121663750Y-106247500D01*
X122276250Y-106247500D01*
X122302592Y-106248794D01*
X122302592Y-106248794D01*
G37*
D15*
X121970000Y-106785000D03*
D10*
G36*
X122302592Y-104673794D02*
X122328681Y-104677664D01*
X122354264Y-104684072D01*
X122379096Y-104692957D01*
X122402938Y-104704234D01*
X122425560Y-104717793D01*
X122446743Y-104733503D01*
X122466285Y-104751215D01*
X122483997Y-104770757D01*
X122499707Y-104791940D01*
X122513266Y-104814562D01*
X122524543Y-104838404D01*
X122533428Y-104863236D01*
X122539836Y-104888819D01*
X122543706Y-104914908D01*
X122545000Y-104941250D01*
X122545000Y-105478750D01*
X122543706Y-105505092D01*
X122539836Y-105531181D01*
X122533428Y-105556764D01*
X122524543Y-105581596D01*
X122513266Y-105605438D01*
X122499707Y-105628060D01*
X122483997Y-105649243D01*
X122466285Y-105668785D01*
X122446743Y-105686497D01*
X122425560Y-105702207D01*
X122402938Y-105715766D01*
X122379096Y-105727043D01*
X122354264Y-105735928D01*
X122328681Y-105742336D01*
X122302592Y-105746206D01*
X122276250Y-105747500D01*
X121663750Y-105747500D01*
X121637408Y-105746206D01*
X121611319Y-105742336D01*
X121585736Y-105735928D01*
X121560904Y-105727043D01*
X121537062Y-105715766D01*
X121514440Y-105702207D01*
X121493257Y-105686497D01*
X121473715Y-105668785D01*
X121456003Y-105649243D01*
X121440293Y-105628060D01*
X121426734Y-105605438D01*
X121415457Y-105581596D01*
X121406572Y-105556764D01*
X121400164Y-105531181D01*
X121396294Y-105505092D01*
X121395000Y-105478750D01*
X121395000Y-104941250D01*
X121396294Y-104914908D01*
X121400164Y-104888819D01*
X121406572Y-104863236D01*
X121415457Y-104838404D01*
X121426734Y-104814562D01*
X121440293Y-104791940D01*
X121456003Y-104770757D01*
X121473715Y-104751215D01*
X121493257Y-104733503D01*
X121514440Y-104717793D01*
X121537062Y-104704234D01*
X121560904Y-104692957D01*
X121585736Y-104684072D01*
X121611319Y-104677664D01*
X121637408Y-104673794D01*
X121663750Y-104672500D01*
X122276250Y-104672500D01*
X122302592Y-104673794D01*
X122302592Y-104673794D01*
G37*
D15*
X121970000Y-105210000D03*
G04 #@! TD*
D10*
G04 #@! TO.C,C7*
G36*
X119052592Y-86893794D02*
X119078681Y-86897664D01*
X119104264Y-86904072D01*
X119129096Y-86912957D01*
X119152938Y-86924234D01*
X119175560Y-86937793D01*
X119196743Y-86953503D01*
X119216285Y-86971215D01*
X119233997Y-86990757D01*
X119249707Y-87011940D01*
X119263266Y-87034562D01*
X119274543Y-87058404D01*
X119283428Y-87083236D01*
X119289836Y-87108819D01*
X119293706Y-87134908D01*
X119295000Y-87161250D01*
X119295000Y-87698750D01*
X119293706Y-87725092D01*
X119289836Y-87751181D01*
X119283428Y-87776764D01*
X119274543Y-87801596D01*
X119263266Y-87825438D01*
X119249707Y-87848060D01*
X119233997Y-87869243D01*
X119216285Y-87888785D01*
X119196743Y-87906497D01*
X119175560Y-87922207D01*
X119152938Y-87935766D01*
X119129096Y-87947043D01*
X119104264Y-87955928D01*
X119078681Y-87962336D01*
X119052592Y-87966206D01*
X119026250Y-87967500D01*
X118413750Y-87967500D01*
X118387408Y-87966206D01*
X118361319Y-87962336D01*
X118335736Y-87955928D01*
X118310904Y-87947043D01*
X118287062Y-87935766D01*
X118264440Y-87922207D01*
X118243257Y-87906497D01*
X118223715Y-87888785D01*
X118206003Y-87869243D01*
X118190293Y-87848060D01*
X118176734Y-87825438D01*
X118165457Y-87801596D01*
X118156572Y-87776764D01*
X118150164Y-87751181D01*
X118146294Y-87725092D01*
X118145000Y-87698750D01*
X118145000Y-87161250D01*
X118146294Y-87134908D01*
X118150164Y-87108819D01*
X118156572Y-87083236D01*
X118165457Y-87058404D01*
X118176734Y-87034562D01*
X118190293Y-87011940D01*
X118206003Y-86990757D01*
X118223715Y-86971215D01*
X118243257Y-86953503D01*
X118264440Y-86937793D01*
X118287062Y-86924234D01*
X118310904Y-86912957D01*
X118335736Y-86904072D01*
X118361319Y-86897664D01*
X118387408Y-86893794D01*
X118413750Y-86892500D01*
X119026250Y-86892500D01*
X119052592Y-86893794D01*
X119052592Y-86893794D01*
G37*
D15*
X118720000Y-87430000D03*
D10*
G36*
X119052592Y-85318794D02*
X119078681Y-85322664D01*
X119104264Y-85329072D01*
X119129096Y-85337957D01*
X119152938Y-85349234D01*
X119175560Y-85362793D01*
X119196743Y-85378503D01*
X119216285Y-85396215D01*
X119233997Y-85415757D01*
X119249707Y-85436940D01*
X119263266Y-85459562D01*
X119274543Y-85483404D01*
X119283428Y-85508236D01*
X119289836Y-85533819D01*
X119293706Y-85559908D01*
X119295000Y-85586250D01*
X119295000Y-86123750D01*
X119293706Y-86150092D01*
X119289836Y-86176181D01*
X119283428Y-86201764D01*
X119274543Y-86226596D01*
X119263266Y-86250438D01*
X119249707Y-86273060D01*
X119233997Y-86294243D01*
X119216285Y-86313785D01*
X119196743Y-86331497D01*
X119175560Y-86347207D01*
X119152938Y-86360766D01*
X119129096Y-86372043D01*
X119104264Y-86380928D01*
X119078681Y-86387336D01*
X119052592Y-86391206D01*
X119026250Y-86392500D01*
X118413750Y-86392500D01*
X118387408Y-86391206D01*
X118361319Y-86387336D01*
X118335736Y-86380928D01*
X118310904Y-86372043D01*
X118287062Y-86360766D01*
X118264440Y-86347207D01*
X118243257Y-86331497D01*
X118223715Y-86313785D01*
X118206003Y-86294243D01*
X118190293Y-86273060D01*
X118176734Y-86250438D01*
X118165457Y-86226596D01*
X118156572Y-86201764D01*
X118150164Y-86176181D01*
X118146294Y-86150092D01*
X118145000Y-86123750D01*
X118145000Y-85586250D01*
X118146294Y-85559908D01*
X118150164Y-85533819D01*
X118156572Y-85508236D01*
X118165457Y-85483404D01*
X118176734Y-85459562D01*
X118190293Y-85436940D01*
X118206003Y-85415757D01*
X118223715Y-85396215D01*
X118243257Y-85378503D01*
X118264440Y-85362793D01*
X118287062Y-85349234D01*
X118310904Y-85337957D01*
X118335736Y-85329072D01*
X118361319Y-85322664D01*
X118387408Y-85318794D01*
X118413750Y-85317500D01*
X119026250Y-85317500D01*
X119052592Y-85318794D01*
X119052592Y-85318794D01*
G37*
D15*
X118720000Y-85855000D03*
G04 #@! TD*
D10*
G04 #@! TO.C,C8*
G36*
X112612592Y-84271294D02*
X112638681Y-84275164D01*
X112664264Y-84281572D01*
X112689096Y-84290457D01*
X112712938Y-84301734D01*
X112735560Y-84315293D01*
X112756743Y-84331003D01*
X112776285Y-84348715D01*
X112793997Y-84368257D01*
X112809707Y-84389440D01*
X112823266Y-84412062D01*
X112834543Y-84435904D01*
X112843428Y-84460736D01*
X112849836Y-84486319D01*
X112853706Y-84512408D01*
X112855000Y-84538750D01*
X112855000Y-85076250D01*
X112853706Y-85102592D01*
X112849836Y-85128681D01*
X112843428Y-85154264D01*
X112834543Y-85179096D01*
X112823266Y-85202938D01*
X112809707Y-85225560D01*
X112793997Y-85246743D01*
X112776285Y-85266285D01*
X112756743Y-85283997D01*
X112735560Y-85299707D01*
X112712938Y-85313266D01*
X112689096Y-85324543D01*
X112664264Y-85333428D01*
X112638681Y-85339836D01*
X112612592Y-85343706D01*
X112586250Y-85345000D01*
X111973750Y-85345000D01*
X111947408Y-85343706D01*
X111921319Y-85339836D01*
X111895736Y-85333428D01*
X111870904Y-85324543D01*
X111847062Y-85313266D01*
X111824440Y-85299707D01*
X111803257Y-85283997D01*
X111783715Y-85266285D01*
X111766003Y-85246743D01*
X111750293Y-85225560D01*
X111736734Y-85202938D01*
X111725457Y-85179096D01*
X111716572Y-85154264D01*
X111710164Y-85128681D01*
X111706294Y-85102592D01*
X111705000Y-85076250D01*
X111705000Y-84538750D01*
X111706294Y-84512408D01*
X111710164Y-84486319D01*
X111716572Y-84460736D01*
X111725457Y-84435904D01*
X111736734Y-84412062D01*
X111750293Y-84389440D01*
X111766003Y-84368257D01*
X111783715Y-84348715D01*
X111803257Y-84331003D01*
X111824440Y-84315293D01*
X111847062Y-84301734D01*
X111870904Y-84290457D01*
X111895736Y-84281572D01*
X111921319Y-84275164D01*
X111947408Y-84271294D01*
X111973750Y-84270000D01*
X112586250Y-84270000D01*
X112612592Y-84271294D01*
X112612592Y-84271294D01*
G37*
D15*
X112280000Y-84807500D03*
D10*
G36*
X112612592Y-82696294D02*
X112638681Y-82700164D01*
X112664264Y-82706572D01*
X112689096Y-82715457D01*
X112712938Y-82726734D01*
X112735560Y-82740293D01*
X112756743Y-82756003D01*
X112776285Y-82773715D01*
X112793997Y-82793257D01*
X112809707Y-82814440D01*
X112823266Y-82837062D01*
X112834543Y-82860904D01*
X112843428Y-82885736D01*
X112849836Y-82911319D01*
X112853706Y-82937408D01*
X112855000Y-82963750D01*
X112855000Y-83501250D01*
X112853706Y-83527592D01*
X112849836Y-83553681D01*
X112843428Y-83579264D01*
X112834543Y-83604096D01*
X112823266Y-83627938D01*
X112809707Y-83650560D01*
X112793997Y-83671743D01*
X112776285Y-83691285D01*
X112756743Y-83708997D01*
X112735560Y-83724707D01*
X112712938Y-83738266D01*
X112689096Y-83749543D01*
X112664264Y-83758428D01*
X112638681Y-83764836D01*
X112612592Y-83768706D01*
X112586250Y-83770000D01*
X111973750Y-83770000D01*
X111947408Y-83768706D01*
X111921319Y-83764836D01*
X111895736Y-83758428D01*
X111870904Y-83749543D01*
X111847062Y-83738266D01*
X111824440Y-83724707D01*
X111803257Y-83708997D01*
X111783715Y-83691285D01*
X111766003Y-83671743D01*
X111750293Y-83650560D01*
X111736734Y-83627938D01*
X111725457Y-83604096D01*
X111716572Y-83579264D01*
X111710164Y-83553681D01*
X111706294Y-83527592D01*
X111705000Y-83501250D01*
X111705000Y-82963750D01*
X111706294Y-82937408D01*
X111710164Y-82911319D01*
X111716572Y-82885736D01*
X111725457Y-82860904D01*
X111736734Y-82837062D01*
X111750293Y-82814440D01*
X111766003Y-82793257D01*
X111783715Y-82773715D01*
X111803257Y-82756003D01*
X111824440Y-82740293D01*
X111847062Y-82726734D01*
X111870904Y-82715457D01*
X111895736Y-82706572D01*
X111921319Y-82700164D01*
X111947408Y-82696294D01*
X111973750Y-82695000D01*
X112586250Y-82695000D01*
X112612592Y-82696294D01*
X112612592Y-82696294D01*
G37*
D15*
X112280000Y-83232500D03*
G04 #@! TD*
D10*
G04 #@! TO.C,C9*
G36*
X102842592Y-107351294D02*
X102868681Y-107355164D01*
X102894264Y-107361572D01*
X102919096Y-107370457D01*
X102942938Y-107381734D01*
X102965560Y-107395293D01*
X102986743Y-107411003D01*
X103006285Y-107428715D01*
X103023997Y-107448257D01*
X103039707Y-107469440D01*
X103053266Y-107492062D01*
X103064543Y-107515904D01*
X103073428Y-107540736D01*
X103079836Y-107566319D01*
X103083706Y-107592408D01*
X103085000Y-107618750D01*
X103085000Y-108156250D01*
X103083706Y-108182592D01*
X103079836Y-108208681D01*
X103073428Y-108234264D01*
X103064543Y-108259096D01*
X103053266Y-108282938D01*
X103039707Y-108305560D01*
X103023997Y-108326743D01*
X103006285Y-108346285D01*
X102986743Y-108363997D01*
X102965560Y-108379707D01*
X102942938Y-108393266D01*
X102919096Y-108404543D01*
X102894264Y-108413428D01*
X102868681Y-108419836D01*
X102842592Y-108423706D01*
X102816250Y-108425000D01*
X102203750Y-108425000D01*
X102177408Y-108423706D01*
X102151319Y-108419836D01*
X102125736Y-108413428D01*
X102100904Y-108404543D01*
X102077062Y-108393266D01*
X102054440Y-108379707D01*
X102033257Y-108363997D01*
X102013715Y-108346285D01*
X101996003Y-108326743D01*
X101980293Y-108305560D01*
X101966734Y-108282938D01*
X101955457Y-108259096D01*
X101946572Y-108234264D01*
X101940164Y-108208681D01*
X101936294Y-108182592D01*
X101935000Y-108156250D01*
X101935000Y-107618750D01*
X101936294Y-107592408D01*
X101940164Y-107566319D01*
X101946572Y-107540736D01*
X101955457Y-107515904D01*
X101966734Y-107492062D01*
X101980293Y-107469440D01*
X101996003Y-107448257D01*
X102013715Y-107428715D01*
X102033257Y-107411003D01*
X102054440Y-107395293D01*
X102077062Y-107381734D01*
X102100904Y-107370457D01*
X102125736Y-107361572D01*
X102151319Y-107355164D01*
X102177408Y-107351294D01*
X102203750Y-107350000D01*
X102816250Y-107350000D01*
X102842592Y-107351294D01*
X102842592Y-107351294D01*
G37*
D15*
X102510000Y-107887500D03*
D10*
G36*
X102842592Y-105776294D02*
X102868681Y-105780164D01*
X102894264Y-105786572D01*
X102919096Y-105795457D01*
X102942938Y-105806734D01*
X102965560Y-105820293D01*
X102986743Y-105836003D01*
X103006285Y-105853715D01*
X103023997Y-105873257D01*
X103039707Y-105894440D01*
X103053266Y-105917062D01*
X103064543Y-105940904D01*
X103073428Y-105965736D01*
X103079836Y-105991319D01*
X103083706Y-106017408D01*
X103085000Y-106043750D01*
X103085000Y-106581250D01*
X103083706Y-106607592D01*
X103079836Y-106633681D01*
X103073428Y-106659264D01*
X103064543Y-106684096D01*
X103053266Y-106707938D01*
X103039707Y-106730560D01*
X103023997Y-106751743D01*
X103006285Y-106771285D01*
X102986743Y-106788997D01*
X102965560Y-106804707D01*
X102942938Y-106818266D01*
X102919096Y-106829543D01*
X102894264Y-106838428D01*
X102868681Y-106844836D01*
X102842592Y-106848706D01*
X102816250Y-106850000D01*
X102203750Y-106850000D01*
X102177408Y-106848706D01*
X102151319Y-106844836D01*
X102125736Y-106838428D01*
X102100904Y-106829543D01*
X102077062Y-106818266D01*
X102054440Y-106804707D01*
X102033257Y-106788997D01*
X102013715Y-106771285D01*
X101996003Y-106751743D01*
X101980293Y-106730560D01*
X101966734Y-106707938D01*
X101955457Y-106684096D01*
X101946572Y-106659264D01*
X101940164Y-106633681D01*
X101936294Y-106607592D01*
X101935000Y-106581250D01*
X101935000Y-106043750D01*
X101936294Y-106017408D01*
X101940164Y-105991319D01*
X101946572Y-105965736D01*
X101955457Y-105940904D01*
X101966734Y-105917062D01*
X101980293Y-105894440D01*
X101996003Y-105873257D01*
X102013715Y-105853715D01*
X102033257Y-105836003D01*
X102054440Y-105820293D01*
X102077062Y-105806734D01*
X102100904Y-105795457D01*
X102125736Y-105786572D01*
X102151319Y-105780164D01*
X102177408Y-105776294D01*
X102203750Y-105775000D01*
X102816250Y-105775000D01*
X102842592Y-105776294D01*
X102842592Y-105776294D01*
G37*
D15*
X102510000Y-106312500D03*
G04 #@! TD*
D10*
G04 #@! TO.C,C11*
G36*
X92052592Y-70268794D02*
X92078681Y-70272664D01*
X92104264Y-70279072D01*
X92129096Y-70287957D01*
X92152938Y-70299234D01*
X92175560Y-70312793D01*
X92196743Y-70328503D01*
X92216285Y-70346215D01*
X92233997Y-70365757D01*
X92249707Y-70386940D01*
X92263266Y-70409562D01*
X92274543Y-70433404D01*
X92283428Y-70458236D01*
X92289836Y-70483819D01*
X92293706Y-70509908D01*
X92295000Y-70536250D01*
X92295000Y-71073750D01*
X92293706Y-71100092D01*
X92289836Y-71126181D01*
X92283428Y-71151764D01*
X92274543Y-71176596D01*
X92263266Y-71200438D01*
X92249707Y-71223060D01*
X92233997Y-71244243D01*
X92216285Y-71263785D01*
X92196743Y-71281497D01*
X92175560Y-71297207D01*
X92152938Y-71310766D01*
X92129096Y-71322043D01*
X92104264Y-71330928D01*
X92078681Y-71337336D01*
X92052592Y-71341206D01*
X92026250Y-71342500D01*
X91413750Y-71342500D01*
X91387408Y-71341206D01*
X91361319Y-71337336D01*
X91335736Y-71330928D01*
X91310904Y-71322043D01*
X91287062Y-71310766D01*
X91264440Y-71297207D01*
X91243257Y-71281497D01*
X91223715Y-71263785D01*
X91206003Y-71244243D01*
X91190293Y-71223060D01*
X91176734Y-71200438D01*
X91165457Y-71176596D01*
X91156572Y-71151764D01*
X91150164Y-71126181D01*
X91146294Y-71100092D01*
X91145000Y-71073750D01*
X91145000Y-70536250D01*
X91146294Y-70509908D01*
X91150164Y-70483819D01*
X91156572Y-70458236D01*
X91165457Y-70433404D01*
X91176734Y-70409562D01*
X91190293Y-70386940D01*
X91206003Y-70365757D01*
X91223715Y-70346215D01*
X91243257Y-70328503D01*
X91264440Y-70312793D01*
X91287062Y-70299234D01*
X91310904Y-70287957D01*
X91335736Y-70279072D01*
X91361319Y-70272664D01*
X91387408Y-70268794D01*
X91413750Y-70267500D01*
X92026250Y-70267500D01*
X92052592Y-70268794D01*
X92052592Y-70268794D01*
G37*
D15*
X91720000Y-70805000D03*
D10*
G36*
X92052592Y-71843794D02*
X92078681Y-71847664D01*
X92104264Y-71854072D01*
X92129096Y-71862957D01*
X92152938Y-71874234D01*
X92175560Y-71887793D01*
X92196743Y-71903503D01*
X92216285Y-71921215D01*
X92233997Y-71940757D01*
X92249707Y-71961940D01*
X92263266Y-71984562D01*
X92274543Y-72008404D01*
X92283428Y-72033236D01*
X92289836Y-72058819D01*
X92293706Y-72084908D01*
X92295000Y-72111250D01*
X92295000Y-72648750D01*
X92293706Y-72675092D01*
X92289836Y-72701181D01*
X92283428Y-72726764D01*
X92274543Y-72751596D01*
X92263266Y-72775438D01*
X92249707Y-72798060D01*
X92233997Y-72819243D01*
X92216285Y-72838785D01*
X92196743Y-72856497D01*
X92175560Y-72872207D01*
X92152938Y-72885766D01*
X92129096Y-72897043D01*
X92104264Y-72905928D01*
X92078681Y-72912336D01*
X92052592Y-72916206D01*
X92026250Y-72917500D01*
X91413750Y-72917500D01*
X91387408Y-72916206D01*
X91361319Y-72912336D01*
X91335736Y-72905928D01*
X91310904Y-72897043D01*
X91287062Y-72885766D01*
X91264440Y-72872207D01*
X91243257Y-72856497D01*
X91223715Y-72838785D01*
X91206003Y-72819243D01*
X91190293Y-72798060D01*
X91176734Y-72775438D01*
X91165457Y-72751596D01*
X91156572Y-72726764D01*
X91150164Y-72701181D01*
X91146294Y-72675092D01*
X91145000Y-72648750D01*
X91145000Y-72111250D01*
X91146294Y-72084908D01*
X91150164Y-72058819D01*
X91156572Y-72033236D01*
X91165457Y-72008404D01*
X91176734Y-71984562D01*
X91190293Y-71961940D01*
X91206003Y-71940757D01*
X91223715Y-71921215D01*
X91243257Y-71903503D01*
X91264440Y-71887793D01*
X91287062Y-71874234D01*
X91310904Y-71862957D01*
X91335736Y-71854072D01*
X91361319Y-71847664D01*
X91387408Y-71843794D01*
X91413750Y-71842500D01*
X92026250Y-71842500D01*
X92052592Y-71843794D01*
X92052592Y-71843794D01*
G37*
D15*
X91720000Y-72380000D03*
G04 #@! TD*
D10*
G04 #@! TO.C,C16*
G36*
X100712592Y-107308794D02*
X100738681Y-107312664D01*
X100764264Y-107319072D01*
X100789096Y-107327957D01*
X100812938Y-107339234D01*
X100835560Y-107352793D01*
X100856743Y-107368503D01*
X100876285Y-107386215D01*
X100893997Y-107405757D01*
X100909707Y-107426940D01*
X100923266Y-107449562D01*
X100934543Y-107473404D01*
X100943428Y-107498236D01*
X100949836Y-107523819D01*
X100953706Y-107549908D01*
X100955000Y-107576250D01*
X100955000Y-108113750D01*
X100953706Y-108140092D01*
X100949836Y-108166181D01*
X100943428Y-108191764D01*
X100934543Y-108216596D01*
X100923266Y-108240438D01*
X100909707Y-108263060D01*
X100893997Y-108284243D01*
X100876285Y-108303785D01*
X100856743Y-108321497D01*
X100835560Y-108337207D01*
X100812938Y-108350766D01*
X100789096Y-108362043D01*
X100764264Y-108370928D01*
X100738681Y-108377336D01*
X100712592Y-108381206D01*
X100686250Y-108382500D01*
X100073750Y-108382500D01*
X100047408Y-108381206D01*
X100021319Y-108377336D01*
X99995736Y-108370928D01*
X99970904Y-108362043D01*
X99947062Y-108350766D01*
X99924440Y-108337207D01*
X99903257Y-108321497D01*
X99883715Y-108303785D01*
X99866003Y-108284243D01*
X99850293Y-108263060D01*
X99836734Y-108240438D01*
X99825457Y-108216596D01*
X99816572Y-108191764D01*
X99810164Y-108166181D01*
X99806294Y-108140092D01*
X99805000Y-108113750D01*
X99805000Y-107576250D01*
X99806294Y-107549908D01*
X99810164Y-107523819D01*
X99816572Y-107498236D01*
X99825457Y-107473404D01*
X99836734Y-107449562D01*
X99850293Y-107426940D01*
X99866003Y-107405757D01*
X99883715Y-107386215D01*
X99903257Y-107368503D01*
X99924440Y-107352793D01*
X99947062Y-107339234D01*
X99970904Y-107327957D01*
X99995736Y-107319072D01*
X100021319Y-107312664D01*
X100047408Y-107308794D01*
X100073750Y-107307500D01*
X100686250Y-107307500D01*
X100712592Y-107308794D01*
X100712592Y-107308794D01*
G37*
D15*
X100380000Y-107845000D03*
D10*
G36*
X100712592Y-105733794D02*
X100738681Y-105737664D01*
X100764264Y-105744072D01*
X100789096Y-105752957D01*
X100812938Y-105764234D01*
X100835560Y-105777793D01*
X100856743Y-105793503D01*
X100876285Y-105811215D01*
X100893997Y-105830757D01*
X100909707Y-105851940D01*
X100923266Y-105874562D01*
X100934543Y-105898404D01*
X100943428Y-105923236D01*
X100949836Y-105948819D01*
X100953706Y-105974908D01*
X100955000Y-106001250D01*
X100955000Y-106538750D01*
X100953706Y-106565092D01*
X100949836Y-106591181D01*
X100943428Y-106616764D01*
X100934543Y-106641596D01*
X100923266Y-106665438D01*
X100909707Y-106688060D01*
X100893997Y-106709243D01*
X100876285Y-106728785D01*
X100856743Y-106746497D01*
X100835560Y-106762207D01*
X100812938Y-106775766D01*
X100789096Y-106787043D01*
X100764264Y-106795928D01*
X100738681Y-106802336D01*
X100712592Y-106806206D01*
X100686250Y-106807500D01*
X100073750Y-106807500D01*
X100047408Y-106806206D01*
X100021319Y-106802336D01*
X99995736Y-106795928D01*
X99970904Y-106787043D01*
X99947062Y-106775766D01*
X99924440Y-106762207D01*
X99903257Y-106746497D01*
X99883715Y-106728785D01*
X99866003Y-106709243D01*
X99850293Y-106688060D01*
X99836734Y-106665438D01*
X99825457Y-106641596D01*
X99816572Y-106616764D01*
X99810164Y-106591181D01*
X99806294Y-106565092D01*
X99805000Y-106538750D01*
X99805000Y-106001250D01*
X99806294Y-105974908D01*
X99810164Y-105948819D01*
X99816572Y-105923236D01*
X99825457Y-105898404D01*
X99836734Y-105874562D01*
X99850293Y-105851940D01*
X99866003Y-105830757D01*
X99883715Y-105811215D01*
X99903257Y-105793503D01*
X99924440Y-105777793D01*
X99947062Y-105764234D01*
X99970904Y-105752957D01*
X99995736Y-105744072D01*
X100021319Y-105737664D01*
X100047408Y-105733794D01*
X100073750Y-105732500D01*
X100686250Y-105732500D01*
X100712592Y-105733794D01*
X100712592Y-105733794D01*
G37*
D15*
X100380000Y-106270000D03*
G04 #@! TD*
D10*
G04 #@! TO.C,C18*
G36*
X84402592Y-71858794D02*
X84428681Y-71862664D01*
X84454264Y-71869072D01*
X84479096Y-71877957D01*
X84502938Y-71889234D01*
X84525560Y-71902793D01*
X84546743Y-71918503D01*
X84566285Y-71936215D01*
X84583997Y-71955757D01*
X84599707Y-71976940D01*
X84613266Y-71999562D01*
X84624543Y-72023404D01*
X84633428Y-72048236D01*
X84639836Y-72073819D01*
X84643706Y-72099908D01*
X84645000Y-72126250D01*
X84645000Y-72663750D01*
X84643706Y-72690092D01*
X84639836Y-72716181D01*
X84633428Y-72741764D01*
X84624543Y-72766596D01*
X84613266Y-72790438D01*
X84599707Y-72813060D01*
X84583997Y-72834243D01*
X84566285Y-72853785D01*
X84546743Y-72871497D01*
X84525560Y-72887207D01*
X84502938Y-72900766D01*
X84479096Y-72912043D01*
X84454264Y-72920928D01*
X84428681Y-72927336D01*
X84402592Y-72931206D01*
X84376250Y-72932500D01*
X83763750Y-72932500D01*
X83737408Y-72931206D01*
X83711319Y-72927336D01*
X83685736Y-72920928D01*
X83660904Y-72912043D01*
X83637062Y-72900766D01*
X83614440Y-72887207D01*
X83593257Y-72871497D01*
X83573715Y-72853785D01*
X83556003Y-72834243D01*
X83540293Y-72813060D01*
X83526734Y-72790438D01*
X83515457Y-72766596D01*
X83506572Y-72741764D01*
X83500164Y-72716181D01*
X83496294Y-72690092D01*
X83495000Y-72663750D01*
X83495000Y-72126250D01*
X83496294Y-72099908D01*
X83500164Y-72073819D01*
X83506572Y-72048236D01*
X83515457Y-72023404D01*
X83526734Y-71999562D01*
X83540293Y-71976940D01*
X83556003Y-71955757D01*
X83573715Y-71936215D01*
X83593257Y-71918503D01*
X83614440Y-71902793D01*
X83637062Y-71889234D01*
X83660904Y-71877957D01*
X83685736Y-71869072D01*
X83711319Y-71862664D01*
X83737408Y-71858794D01*
X83763750Y-71857500D01*
X84376250Y-71857500D01*
X84402592Y-71858794D01*
X84402592Y-71858794D01*
G37*
D15*
X84070000Y-72395000D03*
D10*
G36*
X84402592Y-70283794D02*
X84428681Y-70287664D01*
X84454264Y-70294072D01*
X84479096Y-70302957D01*
X84502938Y-70314234D01*
X84525560Y-70327793D01*
X84546743Y-70343503D01*
X84566285Y-70361215D01*
X84583997Y-70380757D01*
X84599707Y-70401940D01*
X84613266Y-70424562D01*
X84624543Y-70448404D01*
X84633428Y-70473236D01*
X84639836Y-70498819D01*
X84643706Y-70524908D01*
X84645000Y-70551250D01*
X84645000Y-71088750D01*
X84643706Y-71115092D01*
X84639836Y-71141181D01*
X84633428Y-71166764D01*
X84624543Y-71191596D01*
X84613266Y-71215438D01*
X84599707Y-71238060D01*
X84583997Y-71259243D01*
X84566285Y-71278785D01*
X84546743Y-71296497D01*
X84525560Y-71312207D01*
X84502938Y-71325766D01*
X84479096Y-71337043D01*
X84454264Y-71345928D01*
X84428681Y-71352336D01*
X84402592Y-71356206D01*
X84376250Y-71357500D01*
X83763750Y-71357500D01*
X83737408Y-71356206D01*
X83711319Y-71352336D01*
X83685736Y-71345928D01*
X83660904Y-71337043D01*
X83637062Y-71325766D01*
X83614440Y-71312207D01*
X83593257Y-71296497D01*
X83573715Y-71278785D01*
X83556003Y-71259243D01*
X83540293Y-71238060D01*
X83526734Y-71215438D01*
X83515457Y-71191596D01*
X83506572Y-71166764D01*
X83500164Y-71141181D01*
X83496294Y-71115092D01*
X83495000Y-71088750D01*
X83495000Y-70551250D01*
X83496294Y-70524908D01*
X83500164Y-70498819D01*
X83506572Y-70473236D01*
X83515457Y-70448404D01*
X83526734Y-70424562D01*
X83540293Y-70401940D01*
X83556003Y-70380757D01*
X83573715Y-70361215D01*
X83593257Y-70343503D01*
X83614440Y-70327793D01*
X83637062Y-70314234D01*
X83660904Y-70302957D01*
X83685736Y-70294072D01*
X83711319Y-70287664D01*
X83737408Y-70283794D01*
X83763750Y-70282500D01*
X84376250Y-70282500D01*
X84402592Y-70283794D01*
X84402592Y-70283794D01*
G37*
D15*
X84070000Y-70820000D03*
G04 #@! TD*
D28*
G04 #@! TO.C,J1*
X86890000Y-65610000D03*
D29*
X86890000Y-63070000D03*
X89430000Y-65610000D03*
X89430000Y-63070000D03*
X91970000Y-65610000D03*
X91970000Y-63070000D03*
X94510000Y-65610000D03*
X94510000Y-63070000D03*
X97050000Y-65610000D03*
X97050000Y-63070000D03*
X99590000Y-65610000D03*
X99590000Y-63070000D03*
X102130000Y-65610000D03*
X102130000Y-63070000D03*
X104670000Y-65610000D03*
X104670000Y-63070000D03*
X107210000Y-65610000D03*
X107210000Y-63070000D03*
X109750000Y-65610000D03*
X109750000Y-63070000D03*
X112290000Y-65610000D03*
X112290000Y-63070000D03*
X114830000Y-65610000D03*
X114830000Y-63070000D03*
X117370000Y-65610000D03*
X117370000Y-63070000D03*
X119910000Y-65610000D03*
X119910000Y-63070000D03*
X122450000Y-65610000D03*
X122450000Y-63070000D03*
X124990000Y-65610000D03*
X124990000Y-63070000D03*
X127530000Y-65610000D03*
X127530000Y-63070000D03*
X130070000Y-65610000D03*
X130070000Y-63070000D03*
X132610000Y-65610000D03*
X132610000Y-63070000D03*
X135150000Y-65610000D03*
X135150000Y-63070000D03*
G04 #@! TD*
D30*
G04 #@! TO.C,U3*
X108910000Y-78710000D03*
X108910000Y-79210000D03*
X108910000Y-79710000D03*
X108910000Y-80210000D03*
X108910000Y-80710000D03*
X113310000Y-80710000D03*
X113310000Y-80210000D03*
X113310000Y-79710000D03*
X113310000Y-79210000D03*
X113310000Y-78710000D03*
G04 #@! TD*
D31*
G04 #@! TO.C,U2*
X108170000Y-86910000D03*
X108170000Y-87560000D03*
X108170000Y-88210000D03*
X108170000Y-88860000D03*
X108170000Y-89510000D03*
X108170000Y-90160000D03*
X108170000Y-90810000D03*
X114070000Y-90810000D03*
X114070000Y-90160000D03*
X114070000Y-89510000D03*
X114070000Y-88860000D03*
X114070000Y-88210000D03*
X114070000Y-87560000D03*
X114070000Y-86910000D03*
G04 #@! TD*
D10*
G04 #@! TO.C,R10*
G36*
X102852592Y-102711294D02*
X102878681Y-102715164D01*
X102904264Y-102721572D01*
X102929096Y-102730457D01*
X102952938Y-102741734D01*
X102975560Y-102755293D01*
X102996743Y-102771003D01*
X103016285Y-102788715D01*
X103033997Y-102808257D01*
X103049707Y-102829440D01*
X103063266Y-102852062D01*
X103074543Y-102875904D01*
X103083428Y-102900736D01*
X103089836Y-102926319D01*
X103093706Y-102952408D01*
X103095000Y-102978750D01*
X103095000Y-103516250D01*
X103093706Y-103542592D01*
X103089836Y-103568681D01*
X103083428Y-103594264D01*
X103074543Y-103619096D01*
X103063266Y-103642938D01*
X103049707Y-103665560D01*
X103033997Y-103686743D01*
X103016285Y-103706285D01*
X102996743Y-103723997D01*
X102975560Y-103739707D01*
X102952938Y-103753266D01*
X102929096Y-103764543D01*
X102904264Y-103773428D01*
X102878681Y-103779836D01*
X102852592Y-103783706D01*
X102826250Y-103785000D01*
X102213750Y-103785000D01*
X102187408Y-103783706D01*
X102161319Y-103779836D01*
X102135736Y-103773428D01*
X102110904Y-103764543D01*
X102087062Y-103753266D01*
X102064440Y-103739707D01*
X102043257Y-103723997D01*
X102023715Y-103706285D01*
X102006003Y-103686743D01*
X101990293Y-103665560D01*
X101976734Y-103642938D01*
X101965457Y-103619096D01*
X101956572Y-103594264D01*
X101950164Y-103568681D01*
X101946294Y-103542592D01*
X101945000Y-103516250D01*
X101945000Y-102978750D01*
X101946294Y-102952408D01*
X101950164Y-102926319D01*
X101956572Y-102900736D01*
X101965457Y-102875904D01*
X101976734Y-102852062D01*
X101990293Y-102829440D01*
X102006003Y-102808257D01*
X102023715Y-102788715D01*
X102043257Y-102771003D01*
X102064440Y-102755293D01*
X102087062Y-102741734D01*
X102110904Y-102730457D01*
X102135736Y-102721572D01*
X102161319Y-102715164D01*
X102187408Y-102711294D01*
X102213750Y-102710000D01*
X102826250Y-102710000D01*
X102852592Y-102711294D01*
X102852592Y-102711294D01*
G37*
D15*
X102520000Y-103247500D03*
D10*
G36*
X102852592Y-101136294D02*
X102878681Y-101140164D01*
X102904264Y-101146572D01*
X102929096Y-101155457D01*
X102952938Y-101166734D01*
X102975560Y-101180293D01*
X102996743Y-101196003D01*
X103016285Y-101213715D01*
X103033997Y-101233257D01*
X103049707Y-101254440D01*
X103063266Y-101277062D01*
X103074543Y-101300904D01*
X103083428Y-101325736D01*
X103089836Y-101351319D01*
X103093706Y-101377408D01*
X103095000Y-101403750D01*
X103095000Y-101941250D01*
X103093706Y-101967592D01*
X103089836Y-101993681D01*
X103083428Y-102019264D01*
X103074543Y-102044096D01*
X103063266Y-102067938D01*
X103049707Y-102090560D01*
X103033997Y-102111743D01*
X103016285Y-102131285D01*
X102996743Y-102148997D01*
X102975560Y-102164707D01*
X102952938Y-102178266D01*
X102929096Y-102189543D01*
X102904264Y-102198428D01*
X102878681Y-102204836D01*
X102852592Y-102208706D01*
X102826250Y-102210000D01*
X102213750Y-102210000D01*
X102187408Y-102208706D01*
X102161319Y-102204836D01*
X102135736Y-102198428D01*
X102110904Y-102189543D01*
X102087062Y-102178266D01*
X102064440Y-102164707D01*
X102043257Y-102148997D01*
X102023715Y-102131285D01*
X102006003Y-102111743D01*
X101990293Y-102090560D01*
X101976734Y-102067938D01*
X101965457Y-102044096D01*
X101956572Y-102019264D01*
X101950164Y-101993681D01*
X101946294Y-101967592D01*
X101945000Y-101941250D01*
X101945000Y-101403750D01*
X101946294Y-101377408D01*
X101950164Y-101351319D01*
X101956572Y-101325736D01*
X101965457Y-101300904D01*
X101976734Y-101277062D01*
X101990293Y-101254440D01*
X102006003Y-101233257D01*
X102023715Y-101213715D01*
X102043257Y-101196003D01*
X102064440Y-101180293D01*
X102087062Y-101166734D01*
X102110904Y-101155457D01*
X102135736Y-101146572D01*
X102161319Y-101140164D01*
X102187408Y-101136294D01*
X102213750Y-101135000D01*
X102826250Y-101135000D01*
X102852592Y-101136294D01*
X102852592Y-101136294D01*
G37*
D15*
X102520000Y-101672500D03*
G04 #@! TD*
D10*
G04 #@! TO.C,R11*
G36*
X98492592Y-107291294D02*
X98518681Y-107295164D01*
X98544264Y-107301572D01*
X98569096Y-107310457D01*
X98592938Y-107321734D01*
X98615560Y-107335293D01*
X98636743Y-107351003D01*
X98656285Y-107368715D01*
X98673997Y-107388257D01*
X98689707Y-107409440D01*
X98703266Y-107432062D01*
X98714543Y-107455904D01*
X98723428Y-107480736D01*
X98729836Y-107506319D01*
X98733706Y-107532408D01*
X98735000Y-107558750D01*
X98735000Y-108096250D01*
X98733706Y-108122592D01*
X98729836Y-108148681D01*
X98723428Y-108174264D01*
X98714543Y-108199096D01*
X98703266Y-108222938D01*
X98689707Y-108245560D01*
X98673997Y-108266743D01*
X98656285Y-108286285D01*
X98636743Y-108303997D01*
X98615560Y-108319707D01*
X98592938Y-108333266D01*
X98569096Y-108344543D01*
X98544264Y-108353428D01*
X98518681Y-108359836D01*
X98492592Y-108363706D01*
X98466250Y-108365000D01*
X97853750Y-108365000D01*
X97827408Y-108363706D01*
X97801319Y-108359836D01*
X97775736Y-108353428D01*
X97750904Y-108344543D01*
X97727062Y-108333266D01*
X97704440Y-108319707D01*
X97683257Y-108303997D01*
X97663715Y-108286285D01*
X97646003Y-108266743D01*
X97630293Y-108245560D01*
X97616734Y-108222938D01*
X97605457Y-108199096D01*
X97596572Y-108174264D01*
X97590164Y-108148681D01*
X97586294Y-108122592D01*
X97585000Y-108096250D01*
X97585000Y-107558750D01*
X97586294Y-107532408D01*
X97590164Y-107506319D01*
X97596572Y-107480736D01*
X97605457Y-107455904D01*
X97616734Y-107432062D01*
X97630293Y-107409440D01*
X97646003Y-107388257D01*
X97663715Y-107368715D01*
X97683257Y-107351003D01*
X97704440Y-107335293D01*
X97727062Y-107321734D01*
X97750904Y-107310457D01*
X97775736Y-107301572D01*
X97801319Y-107295164D01*
X97827408Y-107291294D01*
X97853750Y-107290000D01*
X98466250Y-107290000D01*
X98492592Y-107291294D01*
X98492592Y-107291294D01*
G37*
D15*
X98160000Y-107827500D03*
D10*
G36*
X98492592Y-105716294D02*
X98518681Y-105720164D01*
X98544264Y-105726572D01*
X98569096Y-105735457D01*
X98592938Y-105746734D01*
X98615560Y-105760293D01*
X98636743Y-105776003D01*
X98656285Y-105793715D01*
X98673997Y-105813257D01*
X98689707Y-105834440D01*
X98703266Y-105857062D01*
X98714543Y-105880904D01*
X98723428Y-105905736D01*
X98729836Y-105931319D01*
X98733706Y-105957408D01*
X98735000Y-105983750D01*
X98735000Y-106521250D01*
X98733706Y-106547592D01*
X98729836Y-106573681D01*
X98723428Y-106599264D01*
X98714543Y-106624096D01*
X98703266Y-106647938D01*
X98689707Y-106670560D01*
X98673997Y-106691743D01*
X98656285Y-106711285D01*
X98636743Y-106728997D01*
X98615560Y-106744707D01*
X98592938Y-106758266D01*
X98569096Y-106769543D01*
X98544264Y-106778428D01*
X98518681Y-106784836D01*
X98492592Y-106788706D01*
X98466250Y-106790000D01*
X97853750Y-106790000D01*
X97827408Y-106788706D01*
X97801319Y-106784836D01*
X97775736Y-106778428D01*
X97750904Y-106769543D01*
X97727062Y-106758266D01*
X97704440Y-106744707D01*
X97683257Y-106728997D01*
X97663715Y-106711285D01*
X97646003Y-106691743D01*
X97630293Y-106670560D01*
X97616734Y-106647938D01*
X97605457Y-106624096D01*
X97596572Y-106599264D01*
X97590164Y-106573681D01*
X97586294Y-106547592D01*
X97585000Y-106521250D01*
X97585000Y-105983750D01*
X97586294Y-105957408D01*
X97590164Y-105931319D01*
X97596572Y-105905736D01*
X97605457Y-105880904D01*
X97616734Y-105857062D01*
X97630293Y-105834440D01*
X97646003Y-105813257D01*
X97663715Y-105793715D01*
X97683257Y-105776003D01*
X97704440Y-105760293D01*
X97727062Y-105746734D01*
X97750904Y-105735457D01*
X97775736Y-105726572D01*
X97801319Y-105720164D01*
X97827408Y-105716294D01*
X97853750Y-105715000D01*
X98466250Y-105715000D01*
X98492592Y-105716294D01*
X98492592Y-105716294D01*
G37*
D15*
X98160000Y-106252500D03*
G04 #@! TD*
D10*
G04 #@! TO.C,R12*
G36*
X122823425Y-111116396D02*
X122851576Y-111120572D01*
X122879183Y-111127487D01*
X122905978Y-111137075D01*
X122931705Y-111149243D01*
X122956115Y-111163874D01*
X122978974Y-111180827D01*
X123000061Y-111199939D01*
X123019173Y-111221026D01*
X123036126Y-111243885D01*
X123050757Y-111268295D01*
X123062925Y-111294022D01*
X123072513Y-111320817D01*
X123079428Y-111348424D01*
X123083604Y-111376575D01*
X123085000Y-111405000D01*
X123085000Y-112275000D01*
X123083604Y-112303425D01*
X123079428Y-112331576D01*
X123072513Y-112359183D01*
X123062925Y-112385978D01*
X123050757Y-112411705D01*
X123036126Y-112436115D01*
X123019173Y-112458974D01*
X123000061Y-112480061D01*
X122978974Y-112499173D01*
X122956115Y-112516126D01*
X122931705Y-112530757D01*
X122905978Y-112542925D01*
X122879183Y-112552513D01*
X122851576Y-112559428D01*
X122823425Y-112563604D01*
X122795000Y-112565000D01*
X121425000Y-112565000D01*
X121396575Y-112563604D01*
X121368424Y-112559428D01*
X121340817Y-112552513D01*
X121314022Y-112542925D01*
X121288295Y-112530757D01*
X121263885Y-112516126D01*
X121241026Y-112499173D01*
X121219939Y-112480061D01*
X121200827Y-112458974D01*
X121183874Y-112436115D01*
X121169243Y-112411705D01*
X121157075Y-112385978D01*
X121147487Y-112359183D01*
X121140572Y-112331576D01*
X121136396Y-112303425D01*
X121135000Y-112275000D01*
X121135000Y-111405000D01*
X121136396Y-111376575D01*
X121140572Y-111348424D01*
X121147487Y-111320817D01*
X121157075Y-111294022D01*
X121169243Y-111268295D01*
X121183874Y-111243885D01*
X121200827Y-111221026D01*
X121219939Y-111199939D01*
X121241026Y-111180827D01*
X121263885Y-111163874D01*
X121288295Y-111149243D01*
X121314022Y-111137075D01*
X121340817Y-111127487D01*
X121368424Y-111120572D01*
X121396575Y-111116396D01*
X121425000Y-111115000D01*
X122795000Y-111115000D01*
X122823425Y-111116396D01*
X122823425Y-111116396D01*
G37*
D32*
X122110000Y-111840000D03*
D10*
G36*
X122823425Y-113916396D02*
X122851576Y-113920572D01*
X122879183Y-113927487D01*
X122905978Y-113937075D01*
X122931705Y-113949243D01*
X122956115Y-113963874D01*
X122978974Y-113980827D01*
X123000061Y-113999939D01*
X123019173Y-114021026D01*
X123036126Y-114043885D01*
X123050757Y-114068295D01*
X123062925Y-114094022D01*
X123072513Y-114120817D01*
X123079428Y-114148424D01*
X123083604Y-114176575D01*
X123085000Y-114205000D01*
X123085000Y-115075000D01*
X123083604Y-115103425D01*
X123079428Y-115131576D01*
X123072513Y-115159183D01*
X123062925Y-115185978D01*
X123050757Y-115211705D01*
X123036126Y-115236115D01*
X123019173Y-115258974D01*
X123000061Y-115280061D01*
X122978974Y-115299173D01*
X122956115Y-115316126D01*
X122931705Y-115330757D01*
X122905978Y-115342925D01*
X122879183Y-115352513D01*
X122851576Y-115359428D01*
X122823425Y-115363604D01*
X122795000Y-115365000D01*
X121425000Y-115365000D01*
X121396575Y-115363604D01*
X121368424Y-115359428D01*
X121340817Y-115352513D01*
X121314022Y-115342925D01*
X121288295Y-115330757D01*
X121263885Y-115316126D01*
X121241026Y-115299173D01*
X121219939Y-115280061D01*
X121200827Y-115258974D01*
X121183874Y-115236115D01*
X121169243Y-115211705D01*
X121157075Y-115185978D01*
X121147487Y-115159183D01*
X121140572Y-115131576D01*
X121136396Y-115103425D01*
X121135000Y-115075000D01*
X121135000Y-114205000D01*
X121136396Y-114176575D01*
X121140572Y-114148424D01*
X121147487Y-114120817D01*
X121157075Y-114094022D01*
X121169243Y-114068295D01*
X121183874Y-114043885D01*
X121200827Y-114021026D01*
X121219939Y-113999939D01*
X121241026Y-113980827D01*
X121263885Y-113963874D01*
X121288295Y-113949243D01*
X121314022Y-113937075D01*
X121340817Y-113927487D01*
X121368424Y-113920572D01*
X121396575Y-113916396D01*
X121425000Y-113915000D01*
X122795000Y-113915000D01*
X122823425Y-113916396D01*
X122823425Y-113916396D01*
G37*
D32*
X122110000Y-114640000D03*
G04 #@! TD*
D10*
G04 #@! TO.C,R13*
G36*
X119873425Y-113916396D02*
X119901576Y-113920572D01*
X119929183Y-113927487D01*
X119955978Y-113937075D01*
X119981705Y-113949243D01*
X120006115Y-113963874D01*
X120028974Y-113980827D01*
X120050061Y-113999939D01*
X120069173Y-114021026D01*
X120086126Y-114043885D01*
X120100757Y-114068295D01*
X120112925Y-114094022D01*
X120122513Y-114120817D01*
X120129428Y-114148424D01*
X120133604Y-114176575D01*
X120135000Y-114205000D01*
X120135000Y-115075000D01*
X120133604Y-115103425D01*
X120129428Y-115131576D01*
X120122513Y-115159183D01*
X120112925Y-115185978D01*
X120100757Y-115211705D01*
X120086126Y-115236115D01*
X120069173Y-115258974D01*
X120050061Y-115280061D01*
X120028974Y-115299173D01*
X120006115Y-115316126D01*
X119981705Y-115330757D01*
X119955978Y-115342925D01*
X119929183Y-115352513D01*
X119901576Y-115359428D01*
X119873425Y-115363604D01*
X119845000Y-115365000D01*
X118475000Y-115365000D01*
X118446575Y-115363604D01*
X118418424Y-115359428D01*
X118390817Y-115352513D01*
X118364022Y-115342925D01*
X118338295Y-115330757D01*
X118313885Y-115316126D01*
X118291026Y-115299173D01*
X118269939Y-115280061D01*
X118250827Y-115258974D01*
X118233874Y-115236115D01*
X118219243Y-115211705D01*
X118207075Y-115185978D01*
X118197487Y-115159183D01*
X118190572Y-115131576D01*
X118186396Y-115103425D01*
X118185000Y-115075000D01*
X118185000Y-114205000D01*
X118186396Y-114176575D01*
X118190572Y-114148424D01*
X118197487Y-114120817D01*
X118207075Y-114094022D01*
X118219243Y-114068295D01*
X118233874Y-114043885D01*
X118250827Y-114021026D01*
X118269939Y-113999939D01*
X118291026Y-113980827D01*
X118313885Y-113963874D01*
X118338295Y-113949243D01*
X118364022Y-113937075D01*
X118390817Y-113927487D01*
X118418424Y-113920572D01*
X118446575Y-113916396D01*
X118475000Y-113915000D01*
X119845000Y-113915000D01*
X119873425Y-113916396D01*
X119873425Y-113916396D01*
G37*
D32*
X119160000Y-114640000D03*
D10*
G36*
X119873425Y-111116396D02*
X119901576Y-111120572D01*
X119929183Y-111127487D01*
X119955978Y-111137075D01*
X119981705Y-111149243D01*
X120006115Y-111163874D01*
X120028974Y-111180827D01*
X120050061Y-111199939D01*
X120069173Y-111221026D01*
X120086126Y-111243885D01*
X120100757Y-111268295D01*
X120112925Y-111294022D01*
X120122513Y-111320817D01*
X120129428Y-111348424D01*
X120133604Y-111376575D01*
X120135000Y-111405000D01*
X120135000Y-112275000D01*
X120133604Y-112303425D01*
X120129428Y-112331576D01*
X120122513Y-112359183D01*
X120112925Y-112385978D01*
X120100757Y-112411705D01*
X120086126Y-112436115D01*
X120069173Y-112458974D01*
X120050061Y-112480061D01*
X120028974Y-112499173D01*
X120006115Y-112516126D01*
X119981705Y-112530757D01*
X119955978Y-112542925D01*
X119929183Y-112552513D01*
X119901576Y-112559428D01*
X119873425Y-112563604D01*
X119845000Y-112565000D01*
X118475000Y-112565000D01*
X118446575Y-112563604D01*
X118418424Y-112559428D01*
X118390817Y-112552513D01*
X118364022Y-112542925D01*
X118338295Y-112530757D01*
X118313885Y-112516126D01*
X118291026Y-112499173D01*
X118269939Y-112480061D01*
X118250827Y-112458974D01*
X118233874Y-112436115D01*
X118219243Y-112411705D01*
X118207075Y-112385978D01*
X118197487Y-112359183D01*
X118190572Y-112331576D01*
X118186396Y-112303425D01*
X118185000Y-112275000D01*
X118185000Y-111405000D01*
X118186396Y-111376575D01*
X118190572Y-111348424D01*
X118197487Y-111320817D01*
X118207075Y-111294022D01*
X118219243Y-111268295D01*
X118233874Y-111243885D01*
X118250827Y-111221026D01*
X118269939Y-111199939D01*
X118291026Y-111180827D01*
X118313885Y-111163874D01*
X118338295Y-111149243D01*
X118364022Y-111137075D01*
X118390817Y-111127487D01*
X118418424Y-111120572D01*
X118446575Y-111116396D01*
X118475000Y-111115000D01*
X119845000Y-111115000D01*
X119873425Y-111116396D01*
X119873425Y-111116396D01*
G37*
D32*
X119160000Y-111840000D03*
G04 #@! TD*
D24*
G04 #@! TO.C,TP5*
X119530000Y-102090000D03*
G04 #@! TD*
G04 #@! TO.C,TP4*
X108100000Y-92820000D03*
G04 #@! TD*
G04 #@! TO.C,TP3*
X108200000Y-84940000D03*
G04 #@! TD*
G04 #@! TO.C,TP1*
X114120000Y-92820000D03*
G04 #@! TD*
G04 #@! TO.C,TP2*
X114120000Y-84940000D03*
G04 #@! TD*
D10*
G04 #@! TO.C,C6*
G36*
X102872592Y-97181294D02*
X102898681Y-97185164D01*
X102924264Y-97191572D01*
X102949096Y-97200457D01*
X102972938Y-97211734D01*
X102995560Y-97225293D01*
X103016743Y-97241003D01*
X103036285Y-97258715D01*
X103053997Y-97278257D01*
X103069707Y-97299440D01*
X103083266Y-97322062D01*
X103094543Y-97345904D01*
X103103428Y-97370736D01*
X103109836Y-97396319D01*
X103113706Y-97422408D01*
X103115000Y-97448750D01*
X103115000Y-97986250D01*
X103113706Y-98012592D01*
X103109836Y-98038681D01*
X103103428Y-98064264D01*
X103094543Y-98089096D01*
X103083266Y-98112938D01*
X103069707Y-98135560D01*
X103053997Y-98156743D01*
X103036285Y-98176285D01*
X103016743Y-98193997D01*
X102995560Y-98209707D01*
X102972938Y-98223266D01*
X102949096Y-98234543D01*
X102924264Y-98243428D01*
X102898681Y-98249836D01*
X102872592Y-98253706D01*
X102846250Y-98255000D01*
X102233750Y-98255000D01*
X102207408Y-98253706D01*
X102181319Y-98249836D01*
X102155736Y-98243428D01*
X102130904Y-98234543D01*
X102107062Y-98223266D01*
X102084440Y-98209707D01*
X102063257Y-98193997D01*
X102043715Y-98176285D01*
X102026003Y-98156743D01*
X102010293Y-98135560D01*
X101996734Y-98112938D01*
X101985457Y-98089096D01*
X101976572Y-98064264D01*
X101970164Y-98038681D01*
X101966294Y-98012592D01*
X101965000Y-97986250D01*
X101965000Y-97448750D01*
X101966294Y-97422408D01*
X101970164Y-97396319D01*
X101976572Y-97370736D01*
X101985457Y-97345904D01*
X101996734Y-97322062D01*
X102010293Y-97299440D01*
X102026003Y-97278257D01*
X102043715Y-97258715D01*
X102063257Y-97241003D01*
X102084440Y-97225293D01*
X102107062Y-97211734D01*
X102130904Y-97200457D01*
X102155736Y-97191572D01*
X102181319Y-97185164D01*
X102207408Y-97181294D01*
X102233750Y-97180000D01*
X102846250Y-97180000D01*
X102872592Y-97181294D01*
X102872592Y-97181294D01*
G37*
D15*
X102540000Y-97717500D03*
D10*
G36*
X102872592Y-95606294D02*
X102898681Y-95610164D01*
X102924264Y-95616572D01*
X102949096Y-95625457D01*
X102972938Y-95636734D01*
X102995560Y-95650293D01*
X103016743Y-95666003D01*
X103036285Y-95683715D01*
X103053997Y-95703257D01*
X103069707Y-95724440D01*
X103083266Y-95747062D01*
X103094543Y-95770904D01*
X103103428Y-95795736D01*
X103109836Y-95821319D01*
X103113706Y-95847408D01*
X103115000Y-95873750D01*
X103115000Y-96411250D01*
X103113706Y-96437592D01*
X103109836Y-96463681D01*
X103103428Y-96489264D01*
X103094543Y-96514096D01*
X103083266Y-96537938D01*
X103069707Y-96560560D01*
X103053997Y-96581743D01*
X103036285Y-96601285D01*
X103016743Y-96618997D01*
X102995560Y-96634707D01*
X102972938Y-96648266D01*
X102949096Y-96659543D01*
X102924264Y-96668428D01*
X102898681Y-96674836D01*
X102872592Y-96678706D01*
X102846250Y-96680000D01*
X102233750Y-96680000D01*
X102207408Y-96678706D01*
X102181319Y-96674836D01*
X102155736Y-96668428D01*
X102130904Y-96659543D01*
X102107062Y-96648266D01*
X102084440Y-96634707D01*
X102063257Y-96618997D01*
X102043715Y-96601285D01*
X102026003Y-96581743D01*
X102010293Y-96560560D01*
X101996734Y-96537938D01*
X101985457Y-96514096D01*
X101976572Y-96489264D01*
X101970164Y-96463681D01*
X101966294Y-96437592D01*
X101965000Y-96411250D01*
X101965000Y-95873750D01*
X101966294Y-95847408D01*
X101970164Y-95821319D01*
X101976572Y-95795736D01*
X101985457Y-95770904D01*
X101996734Y-95747062D01*
X102010293Y-95724440D01*
X102026003Y-95703257D01*
X102043715Y-95683715D01*
X102063257Y-95666003D01*
X102084440Y-95650293D01*
X102107062Y-95636734D01*
X102130904Y-95625457D01*
X102155736Y-95616572D01*
X102181319Y-95610164D01*
X102207408Y-95606294D01*
X102233750Y-95605000D01*
X102846250Y-95605000D01*
X102872592Y-95606294D01*
X102872592Y-95606294D01*
G37*
D15*
X102540000Y-96142500D03*
G04 #@! TD*
D10*
G04 #@! TO.C,R7*
G36*
X100692592Y-101126294D02*
X100718681Y-101130164D01*
X100744264Y-101136572D01*
X100769096Y-101145457D01*
X100792938Y-101156734D01*
X100815560Y-101170293D01*
X100836743Y-101186003D01*
X100856285Y-101203715D01*
X100873997Y-101223257D01*
X100889707Y-101244440D01*
X100903266Y-101267062D01*
X100914543Y-101290904D01*
X100923428Y-101315736D01*
X100929836Y-101341319D01*
X100933706Y-101367408D01*
X100935000Y-101393750D01*
X100935000Y-101931250D01*
X100933706Y-101957592D01*
X100929836Y-101983681D01*
X100923428Y-102009264D01*
X100914543Y-102034096D01*
X100903266Y-102057938D01*
X100889707Y-102080560D01*
X100873997Y-102101743D01*
X100856285Y-102121285D01*
X100836743Y-102138997D01*
X100815560Y-102154707D01*
X100792938Y-102168266D01*
X100769096Y-102179543D01*
X100744264Y-102188428D01*
X100718681Y-102194836D01*
X100692592Y-102198706D01*
X100666250Y-102200000D01*
X100053750Y-102200000D01*
X100027408Y-102198706D01*
X100001319Y-102194836D01*
X99975736Y-102188428D01*
X99950904Y-102179543D01*
X99927062Y-102168266D01*
X99904440Y-102154707D01*
X99883257Y-102138997D01*
X99863715Y-102121285D01*
X99846003Y-102101743D01*
X99830293Y-102080560D01*
X99816734Y-102057938D01*
X99805457Y-102034096D01*
X99796572Y-102009264D01*
X99790164Y-101983681D01*
X99786294Y-101957592D01*
X99785000Y-101931250D01*
X99785000Y-101393750D01*
X99786294Y-101367408D01*
X99790164Y-101341319D01*
X99796572Y-101315736D01*
X99805457Y-101290904D01*
X99816734Y-101267062D01*
X99830293Y-101244440D01*
X99846003Y-101223257D01*
X99863715Y-101203715D01*
X99883257Y-101186003D01*
X99904440Y-101170293D01*
X99927062Y-101156734D01*
X99950904Y-101145457D01*
X99975736Y-101136572D01*
X100001319Y-101130164D01*
X100027408Y-101126294D01*
X100053750Y-101125000D01*
X100666250Y-101125000D01*
X100692592Y-101126294D01*
X100692592Y-101126294D01*
G37*
D15*
X100360000Y-101662500D03*
D10*
G36*
X100692592Y-102701294D02*
X100718681Y-102705164D01*
X100744264Y-102711572D01*
X100769096Y-102720457D01*
X100792938Y-102731734D01*
X100815560Y-102745293D01*
X100836743Y-102761003D01*
X100856285Y-102778715D01*
X100873997Y-102798257D01*
X100889707Y-102819440D01*
X100903266Y-102842062D01*
X100914543Y-102865904D01*
X100923428Y-102890736D01*
X100929836Y-102916319D01*
X100933706Y-102942408D01*
X100935000Y-102968750D01*
X100935000Y-103506250D01*
X100933706Y-103532592D01*
X100929836Y-103558681D01*
X100923428Y-103584264D01*
X100914543Y-103609096D01*
X100903266Y-103632938D01*
X100889707Y-103655560D01*
X100873997Y-103676743D01*
X100856285Y-103696285D01*
X100836743Y-103713997D01*
X100815560Y-103729707D01*
X100792938Y-103743266D01*
X100769096Y-103754543D01*
X100744264Y-103763428D01*
X100718681Y-103769836D01*
X100692592Y-103773706D01*
X100666250Y-103775000D01*
X100053750Y-103775000D01*
X100027408Y-103773706D01*
X100001319Y-103769836D01*
X99975736Y-103763428D01*
X99950904Y-103754543D01*
X99927062Y-103743266D01*
X99904440Y-103729707D01*
X99883257Y-103713997D01*
X99863715Y-103696285D01*
X99846003Y-103676743D01*
X99830293Y-103655560D01*
X99816734Y-103632938D01*
X99805457Y-103609096D01*
X99796572Y-103584264D01*
X99790164Y-103558681D01*
X99786294Y-103532592D01*
X99785000Y-103506250D01*
X99785000Y-102968750D01*
X99786294Y-102942408D01*
X99790164Y-102916319D01*
X99796572Y-102890736D01*
X99805457Y-102865904D01*
X99816734Y-102842062D01*
X99830293Y-102819440D01*
X99846003Y-102798257D01*
X99863715Y-102778715D01*
X99883257Y-102761003D01*
X99904440Y-102745293D01*
X99927062Y-102731734D01*
X99950904Y-102720457D01*
X99975736Y-102711572D01*
X100001319Y-102705164D01*
X100027408Y-102701294D01*
X100053750Y-102700000D01*
X100666250Y-102700000D01*
X100692592Y-102701294D01*
X100692592Y-102701294D01*
G37*
D15*
X100360000Y-103237500D03*
G04 #@! TD*
D10*
G04 #@! TO.C,R6*
G36*
X105922592Y-91321294D02*
X105948681Y-91325164D01*
X105974264Y-91331572D01*
X105999096Y-91340457D01*
X106022938Y-91351734D01*
X106045560Y-91365293D01*
X106066743Y-91381003D01*
X106086285Y-91398715D01*
X106103997Y-91418257D01*
X106119707Y-91439440D01*
X106133266Y-91462062D01*
X106144543Y-91485904D01*
X106153428Y-91510736D01*
X106159836Y-91536319D01*
X106163706Y-91562408D01*
X106165000Y-91588750D01*
X106165000Y-92126250D01*
X106163706Y-92152592D01*
X106159836Y-92178681D01*
X106153428Y-92204264D01*
X106144543Y-92229096D01*
X106133266Y-92252938D01*
X106119707Y-92275560D01*
X106103997Y-92296743D01*
X106086285Y-92316285D01*
X106066743Y-92333997D01*
X106045560Y-92349707D01*
X106022938Y-92363266D01*
X105999096Y-92374543D01*
X105974264Y-92383428D01*
X105948681Y-92389836D01*
X105922592Y-92393706D01*
X105896250Y-92395000D01*
X105283750Y-92395000D01*
X105257408Y-92393706D01*
X105231319Y-92389836D01*
X105205736Y-92383428D01*
X105180904Y-92374543D01*
X105157062Y-92363266D01*
X105134440Y-92349707D01*
X105113257Y-92333997D01*
X105093715Y-92316285D01*
X105076003Y-92296743D01*
X105060293Y-92275560D01*
X105046734Y-92252938D01*
X105035457Y-92229096D01*
X105026572Y-92204264D01*
X105020164Y-92178681D01*
X105016294Y-92152592D01*
X105015000Y-92126250D01*
X105015000Y-91588750D01*
X105016294Y-91562408D01*
X105020164Y-91536319D01*
X105026572Y-91510736D01*
X105035457Y-91485904D01*
X105046734Y-91462062D01*
X105060293Y-91439440D01*
X105076003Y-91418257D01*
X105093715Y-91398715D01*
X105113257Y-91381003D01*
X105134440Y-91365293D01*
X105157062Y-91351734D01*
X105180904Y-91340457D01*
X105205736Y-91331572D01*
X105231319Y-91325164D01*
X105257408Y-91321294D01*
X105283750Y-91320000D01*
X105896250Y-91320000D01*
X105922592Y-91321294D01*
X105922592Y-91321294D01*
G37*
D15*
X105590000Y-91857500D03*
D10*
G36*
X105922592Y-89746294D02*
X105948681Y-89750164D01*
X105974264Y-89756572D01*
X105999096Y-89765457D01*
X106022938Y-89776734D01*
X106045560Y-89790293D01*
X106066743Y-89806003D01*
X106086285Y-89823715D01*
X106103997Y-89843257D01*
X106119707Y-89864440D01*
X106133266Y-89887062D01*
X106144543Y-89910904D01*
X106153428Y-89935736D01*
X106159836Y-89961319D01*
X106163706Y-89987408D01*
X106165000Y-90013750D01*
X106165000Y-90551250D01*
X106163706Y-90577592D01*
X106159836Y-90603681D01*
X106153428Y-90629264D01*
X106144543Y-90654096D01*
X106133266Y-90677938D01*
X106119707Y-90700560D01*
X106103997Y-90721743D01*
X106086285Y-90741285D01*
X106066743Y-90758997D01*
X106045560Y-90774707D01*
X106022938Y-90788266D01*
X105999096Y-90799543D01*
X105974264Y-90808428D01*
X105948681Y-90814836D01*
X105922592Y-90818706D01*
X105896250Y-90820000D01*
X105283750Y-90820000D01*
X105257408Y-90818706D01*
X105231319Y-90814836D01*
X105205736Y-90808428D01*
X105180904Y-90799543D01*
X105157062Y-90788266D01*
X105134440Y-90774707D01*
X105113257Y-90758997D01*
X105093715Y-90741285D01*
X105076003Y-90721743D01*
X105060293Y-90700560D01*
X105046734Y-90677938D01*
X105035457Y-90654096D01*
X105026572Y-90629264D01*
X105020164Y-90603681D01*
X105016294Y-90577592D01*
X105015000Y-90551250D01*
X105015000Y-90013750D01*
X105016294Y-89987408D01*
X105020164Y-89961319D01*
X105026572Y-89935736D01*
X105035457Y-89910904D01*
X105046734Y-89887062D01*
X105060293Y-89864440D01*
X105076003Y-89843257D01*
X105093715Y-89823715D01*
X105113257Y-89806003D01*
X105134440Y-89790293D01*
X105157062Y-89776734D01*
X105180904Y-89765457D01*
X105205736Y-89756572D01*
X105231319Y-89750164D01*
X105257408Y-89746294D01*
X105283750Y-89745000D01*
X105896250Y-89745000D01*
X105922592Y-89746294D01*
X105922592Y-89746294D01*
G37*
D15*
X105590000Y-90282500D03*
G04 #@! TD*
D10*
G04 #@! TO.C,R9*
G36*
X98522592Y-102711294D02*
X98548681Y-102715164D01*
X98574264Y-102721572D01*
X98599096Y-102730457D01*
X98622938Y-102741734D01*
X98645560Y-102755293D01*
X98666743Y-102771003D01*
X98686285Y-102788715D01*
X98703997Y-102808257D01*
X98719707Y-102829440D01*
X98733266Y-102852062D01*
X98744543Y-102875904D01*
X98753428Y-102900736D01*
X98759836Y-102926319D01*
X98763706Y-102952408D01*
X98765000Y-102978750D01*
X98765000Y-103516250D01*
X98763706Y-103542592D01*
X98759836Y-103568681D01*
X98753428Y-103594264D01*
X98744543Y-103619096D01*
X98733266Y-103642938D01*
X98719707Y-103665560D01*
X98703997Y-103686743D01*
X98686285Y-103706285D01*
X98666743Y-103723997D01*
X98645560Y-103739707D01*
X98622938Y-103753266D01*
X98599096Y-103764543D01*
X98574264Y-103773428D01*
X98548681Y-103779836D01*
X98522592Y-103783706D01*
X98496250Y-103785000D01*
X97883750Y-103785000D01*
X97857408Y-103783706D01*
X97831319Y-103779836D01*
X97805736Y-103773428D01*
X97780904Y-103764543D01*
X97757062Y-103753266D01*
X97734440Y-103739707D01*
X97713257Y-103723997D01*
X97693715Y-103706285D01*
X97676003Y-103686743D01*
X97660293Y-103665560D01*
X97646734Y-103642938D01*
X97635457Y-103619096D01*
X97626572Y-103594264D01*
X97620164Y-103568681D01*
X97616294Y-103542592D01*
X97615000Y-103516250D01*
X97615000Y-102978750D01*
X97616294Y-102952408D01*
X97620164Y-102926319D01*
X97626572Y-102900736D01*
X97635457Y-102875904D01*
X97646734Y-102852062D01*
X97660293Y-102829440D01*
X97676003Y-102808257D01*
X97693715Y-102788715D01*
X97713257Y-102771003D01*
X97734440Y-102755293D01*
X97757062Y-102741734D01*
X97780904Y-102730457D01*
X97805736Y-102721572D01*
X97831319Y-102715164D01*
X97857408Y-102711294D01*
X97883750Y-102710000D01*
X98496250Y-102710000D01*
X98522592Y-102711294D01*
X98522592Y-102711294D01*
G37*
D15*
X98190000Y-103247500D03*
D10*
G36*
X98522592Y-101136294D02*
X98548681Y-101140164D01*
X98574264Y-101146572D01*
X98599096Y-101155457D01*
X98622938Y-101166734D01*
X98645560Y-101180293D01*
X98666743Y-101196003D01*
X98686285Y-101213715D01*
X98703997Y-101233257D01*
X98719707Y-101254440D01*
X98733266Y-101277062D01*
X98744543Y-101300904D01*
X98753428Y-101325736D01*
X98759836Y-101351319D01*
X98763706Y-101377408D01*
X98765000Y-101403750D01*
X98765000Y-101941250D01*
X98763706Y-101967592D01*
X98759836Y-101993681D01*
X98753428Y-102019264D01*
X98744543Y-102044096D01*
X98733266Y-102067938D01*
X98719707Y-102090560D01*
X98703997Y-102111743D01*
X98686285Y-102131285D01*
X98666743Y-102148997D01*
X98645560Y-102164707D01*
X98622938Y-102178266D01*
X98599096Y-102189543D01*
X98574264Y-102198428D01*
X98548681Y-102204836D01*
X98522592Y-102208706D01*
X98496250Y-102210000D01*
X97883750Y-102210000D01*
X97857408Y-102208706D01*
X97831319Y-102204836D01*
X97805736Y-102198428D01*
X97780904Y-102189543D01*
X97757062Y-102178266D01*
X97734440Y-102164707D01*
X97713257Y-102148997D01*
X97693715Y-102131285D01*
X97676003Y-102111743D01*
X97660293Y-102090560D01*
X97646734Y-102067938D01*
X97635457Y-102044096D01*
X97626572Y-102019264D01*
X97620164Y-101993681D01*
X97616294Y-101967592D01*
X97615000Y-101941250D01*
X97615000Y-101403750D01*
X97616294Y-101377408D01*
X97620164Y-101351319D01*
X97626572Y-101325736D01*
X97635457Y-101300904D01*
X97646734Y-101277062D01*
X97660293Y-101254440D01*
X97676003Y-101233257D01*
X97693715Y-101213715D01*
X97713257Y-101196003D01*
X97734440Y-101180293D01*
X97757062Y-101166734D01*
X97780904Y-101155457D01*
X97805736Y-101146572D01*
X97831319Y-101140164D01*
X97857408Y-101136294D01*
X97883750Y-101135000D01*
X98496250Y-101135000D01*
X98522592Y-101136294D01*
X98522592Y-101136294D01*
G37*
D15*
X98190000Y-101672500D03*
G04 #@! TD*
D10*
G04 #@! TO.C,R2*
G36*
X116982592Y-89336294D02*
X117008681Y-89340164D01*
X117034264Y-89346572D01*
X117059096Y-89355457D01*
X117082938Y-89366734D01*
X117105560Y-89380293D01*
X117126743Y-89396003D01*
X117146285Y-89413715D01*
X117163997Y-89433257D01*
X117179707Y-89454440D01*
X117193266Y-89477062D01*
X117204543Y-89500904D01*
X117213428Y-89525736D01*
X117219836Y-89551319D01*
X117223706Y-89577408D01*
X117225000Y-89603750D01*
X117225000Y-90141250D01*
X117223706Y-90167592D01*
X117219836Y-90193681D01*
X117213428Y-90219264D01*
X117204543Y-90244096D01*
X117193266Y-90267938D01*
X117179707Y-90290560D01*
X117163997Y-90311743D01*
X117146285Y-90331285D01*
X117126743Y-90348997D01*
X117105560Y-90364707D01*
X117082938Y-90378266D01*
X117059096Y-90389543D01*
X117034264Y-90398428D01*
X117008681Y-90404836D01*
X116982592Y-90408706D01*
X116956250Y-90410000D01*
X116343750Y-90410000D01*
X116317408Y-90408706D01*
X116291319Y-90404836D01*
X116265736Y-90398428D01*
X116240904Y-90389543D01*
X116217062Y-90378266D01*
X116194440Y-90364707D01*
X116173257Y-90348997D01*
X116153715Y-90331285D01*
X116136003Y-90311743D01*
X116120293Y-90290560D01*
X116106734Y-90267938D01*
X116095457Y-90244096D01*
X116086572Y-90219264D01*
X116080164Y-90193681D01*
X116076294Y-90167592D01*
X116075000Y-90141250D01*
X116075000Y-89603750D01*
X116076294Y-89577408D01*
X116080164Y-89551319D01*
X116086572Y-89525736D01*
X116095457Y-89500904D01*
X116106734Y-89477062D01*
X116120293Y-89454440D01*
X116136003Y-89433257D01*
X116153715Y-89413715D01*
X116173257Y-89396003D01*
X116194440Y-89380293D01*
X116217062Y-89366734D01*
X116240904Y-89355457D01*
X116265736Y-89346572D01*
X116291319Y-89340164D01*
X116317408Y-89336294D01*
X116343750Y-89335000D01*
X116956250Y-89335000D01*
X116982592Y-89336294D01*
X116982592Y-89336294D01*
G37*
D15*
X116650000Y-89872500D03*
D10*
G36*
X116982592Y-90911294D02*
X117008681Y-90915164D01*
X117034264Y-90921572D01*
X117059096Y-90930457D01*
X117082938Y-90941734D01*
X117105560Y-90955293D01*
X117126743Y-90971003D01*
X117146285Y-90988715D01*
X117163997Y-91008257D01*
X117179707Y-91029440D01*
X117193266Y-91052062D01*
X117204543Y-91075904D01*
X117213428Y-91100736D01*
X117219836Y-91126319D01*
X117223706Y-91152408D01*
X117225000Y-91178750D01*
X117225000Y-91716250D01*
X117223706Y-91742592D01*
X117219836Y-91768681D01*
X117213428Y-91794264D01*
X117204543Y-91819096D01*
X117193266Y-91842938D01*
X117179707Y-91865560D01*
X117163997Y-91886743D01*
X117146285Y-91906285D01*
X117126743Y-91923997D01*
X117105560Y-91939707D01*
X117082938Y-91953266D01*
X117059096Y-91964543D01*
X117034264Y-91973428D01*
X117008681Y-91979836D01*
X116982592Y-91983706D01*
X116956250Y-91985000D01*
X116343750Y-91985000D01*
X116317408Y-91983706D01*
X116291319Y-91979836D01*
X116265736Y-91973428D01*
X116240904Y-91964543D01*
X116217062Y-91953266D01*
X116194440Y-91939707D01*
X116173257Y-91923997D01*
X116153715Y-91906285D01*
X116136003Y-91886743D01*
X116120293Y-91865560D01*
X116106734Y-91842938D01*
X116095457Y-91819096D01*
X116086572Y-91794264D01*
X116080164Y-91768681D01*
X116076294Y-91742592D01*
X116075000Y-91716250D01*
X116075000Y-91178750D01*
X116076294Y-91152408D01*
X116080164Y-91126319D01*
X116086572Y-91100736D01*
X116095457Y-91075904D01*
X116106734Y-91052062D01*
X116120293Y-91029440D01*
X116136003Y-91008257D01*
X116153715Y-90988715D01*
X116173257Y-90971003D01*
X116194440Y-90955293D01*
X116217062Y-90941734D01*
X116240904Y-90930457D01*
X116265736Y-90921572D01*
X116291319Y-90915164D01*
X116317408Y-90911294D01*
X116343750Y-90910000D01*
X116956250Y-90910000D01*
X116982592Y-90911294D01*
X116982592Y-90911294D01*
G37*
D15*
X116650000Y-91447500D03*
G04 #@! TD*
D10*
G04 #@! TO.C,R3*
G36*
X121292592Y-75511294D02*
X121318681Y-75515164D01*
X121344264Y-75521572D01*
X121369096Y-75530457D01*
X121392938Y-75541734D01*
X121415560Y-75555293D01*
X121436743Y-75571003D01*
X121456285Y-75588715D01*
X121473997Y-75608257D01*
X121489707Y-75629440D01*
X121503266Y-75652062D01*
X121514543Y-75675904D01*
X121523428Y-75700736D01*
X121529836Y-75726319D01*
X121533706Y-75752408D01*
X121535000Y-75778750D01*
X121535000Y-76316250D01*
X121533706Y-76342592D01*
X121529836Y-76368681D01*
X121523428Y-76394264D01*
X121514543Y-76419096D01*
X121503266Y-76442938D01*
X121489707Y-76465560D01*
X121473997Y-76486743D01*
X121456285Y-76506285D01*
X121436743Y-76523997D01*
X121415560Y-76539707D01*
X121392938Y-76553266D01*
X121369096Y-76564543D01*
X121344264Y-76573428D01*
X121318681Y-76579836D01*
X121292592Y-76583706D01*
X121266250Y-76585000D01*
X120653750Y-76585000D01*
X120627408Y-76583706D01*
X120601319Y-76579836D01*
X120575736Y-76573428D01*
X120550904Y-76564543D01*
X120527062Y-76553266D01*
X120504440Y-76539707D01*
X120483257Y-76523997D01*
X120463715Y-76506285D01*
X120446003Y-76486743D01*
X120430293Y-76465560D01*
X120416734Y-76442938D01*
X120405457Y-76419096D01*
X120396572Y-76394264D01*
X120390164Y-76368681D01*
X120386294Y-76342592D01*
X120385000Y-76316250D01*
X120385000Y-75778750D01*
X120386294Y-75752408D01*
X120390164Y-75726319D01*
X120396572Y-75700736D01*
X120405457Y-75675904D01*
X120416734Y-75652062D01*
X120430293Y-75629440D01*
X120446003Y-75608257D01*
X120463715Y-75588715D01*
X120483257Y-75571003D01*
X120504440Y-75555293D01*
X120527062Y-75541734D01*
X120550904Y-75530457D01*
X120575736Y-75521572D01*
X120601319Y-75515164D01*
X120627408Y-75511294D01*
X120653750Y-75510000D01*
X121266250Y-75510000D01*
X121292592Y-75511294D01*
X121292592Y-75511294D01*
G37*
D15*
X120960000Y-76047500D03*
D10*
G36*
X121292592Y-73936294D02*
X121318681Y-73940164D01*
X121344264Y-73946572D01*
X121369096Y-73955457D01*
X121392938Y-73966734D01*
X121415560Y-73980293D01*
X121436743Y-73996003D01*
X121456285Y-74013715D01*
X121473997Y-74033257D01*
X121489707Y-74054440D01*
X121503266Y-74077062D01*
X121514543Y-74100904D01*
X121523428Y-74125736D01*
X121529836Y-74151319D01*
X121533706Y-74177408D01*
X121535000Y-74203750D01*
X121535000Y-74741250D01*
X121533706Y-74767592D01*
X121529836Y-74793681D01*
X121523428Y-74819264D01*
X121514543Y-74844096D01*
X121503266Y-74867938D01*
X121489707Y-74890560D01*
X121473997Y-74911743D01*
X121456285Y-74931285D01*
X121436743Y-74948997D01*
X121415560Y-74964707D01*
X121392938Y-74978266D01*
X121369096Y-74989543D01*
X121344264Y-74998428D01*
X121318681Y-75004836D01*
X121292592Y-75008706D01*
X121266250Y-75010000D01*
X120653750Y-75010000D01*
X120627408Y-75008706D01*
X120601319Y-75004836D01*
X120575736Y-74998428D01*
X120550904Y-74989543D01*
X120527062Y-74978266D01*
X120504440Y-74964707D01*
X120483257Y-74948997D01*
X120463715Y-74931285D01*
X120446003Y-74911743D01*
X120430293Y-74890560D01*
X120416734Y-74867938D01*
X120405457Y-74844096D01*
X120396572Y-74819264D01*
X120390164Y-74793681D01*
X120386294Y-74767592D01*
X120385000Y-74741250D01*
X120385000Y-74203750D01*
X120386294Y-74177408D01*
X120390164Y-74151319D01*
X120396572Y-74125736D01*
X120405457Y-74100904D01*
X120416734Y-74077062D01*
X120430293Y-74054440D01*
X120446003Y-74033257D01*
X120463715Y-74013715D01*
X120483257Y-73996003D01*
X120504440Y-73980293D01*
X120527062Y-73966734D01*
X120550904Y-73955457D01*
X120575736Y-73946572D01*
X120601319Y-73940164D01*
X120627408Y-73936294D01*
X120653750Y-73935000D01*
X121266250Y-73935000D01*
X121292592Y-73936294D01*
X121292592Y-73936294D01*
G37*
D15*
X120960000Y-74472500D03*
G04 #@! TD*
D10*
G04 #@! TO.C,R4*
G36*
X118792592Y-75601294D02*
X118818681Y-75605164D01*
X118844264Y-75611572D01*
X118869096Y-75620457D01*
X118892938Y-75631734D01*
X118915560Y-75645293D01*
X118936743Y-75661003D01*
X118956285Y-75678715D01*
X118973997Y-75698257D01*
X118989707Y-75719440D01*
X119003266Y-75742062D01*
X119014543Y-75765904D01*
X119023428Y-75790736D01*
X119029836Y-75816319D01*
X119033706Y-75842408D01*
X119035000Y-75868750D01*
X119035000Y-76406250D01*
X119033706Y-76432592D01*
X119029836Y-76458681D01*
X119023428Y-76484264D01*
X119014543Y-76509096D01*
X119003266Y-76532938D01*
X118989707Y-76555560D01*
X118973997Y-76576743D01*
X118956285Y-76596285D01*
X118936743Y-76613997D01*
X118915560Y-76629707D01*
X118892938Y-76643266D01*
X118869096Y-76654543D01*
X118844264Y-76663428D01*
X118818681Y-76669836D01*
X118792592Y-76673706D01*
X118766250Y-76675000D01*
X118153750Y-76675000D01*
X118127408Y-76673706D01*
X118101319Y-76669836D01*
X118075736Y-76663428D01*
X118050904Y-76654543D01*
X118027062Y-76643266D01*
X118004440Y-76629707D01*
X117983257Y-76613997D01*
X117963715Y-76596285D01*
X117946003Y-76576743D01*
X117930293Y-76555560D01*
X117916734Y-76532938D01*
X117905457Y-76509096D01*
X117896572Y-76484264D01*
X117890164Y-76458681D01*
X117886294Y-76432592D01*
X117885000Y-76406250D01*
X117885000Y-75868750D01*
X117886294Y-75842408D01*
X117890164Y-75816319D01*
X117896572Y-75790736D01*
X117905457Y-75765904D01*
X117916734Y-75742062D01*
X117930293Y-75719440D01*
X117946003Y-75698257D01*
X117963715Y-75678715D01*
X117983257Y-75661003D01*
X118004440Y-75645293D01*
X118027062Y-75631734D01*
X118050904Y-75620457D01*
X118075736Y-75611572D01*
X118101319Y-75605164D01*
X118127408Y-75601294D01*
X118153750Y-75600000D01*
X118766250Y-75600000D01*
X118792592Y-75601294D01*
X118792592Y-75601294D01*
G37*
D15*
X118460000Y-76137500D03*
D10*
G36*
X118792592Y-74026294D02*
X118818681Y-74030164D01*
X118844264Y-74036572D01*
X118869096Y-74045457D01*
X118892938Y-74056734D01*
X118915560Y-74070293D01*
X118936743Y-74086003D01*
X118956285Y-74103715D01*
X118973997Y-74123257D01*
X118989707Y-74144440D01*
X119003266Y-74167062D01*
X119014543Y-74190904D01*
X119023428Y-74215736D01*
X119029836Y-74241319D01*
X119033706Y-74267408D01*
X119035000Y-74293750D01*
X119035000Y-74831250D01*
X119033706Y-74857592D01*
X119029836Y-74883681D01*
X119023428Y-74909264D01*
X119014543Y-74934096D01*
X119003266Y-74957938D01*
X118989707Y-74980560D01*
X118973997Y-75001743D01*
X118956285Y-75021285D01*
X118936743Y-75038997D01*
X118915560Y-75054707D01*
X118892938Y-75068266D01*
X118869096Y-75079543D01*
X118844264Y-75088428D01*
X118818681Y-75094836D01*
X118792592Y-75098706D01*
X118766250Y-75100000D01*
X118153750Y-75100000D01*
X118127408Y-75098706D01*
X118101319Y-75094836D01*
X118075736Y-75088428D01*
X118050904Y-75079543D01*
X118027062Y-75068266D01*
X118004440Y-75054707D01*
X117983257Y-75038997D01*
X117963715Y-75021285D01*
X117946003Y-75001743D01*
X117930293Y-74980560D01*
X117916734Y-74957938D01*
X117905457Y-74934096D01*
X117896572Y-74909264D01*
X117890164Y-74883681D01*
X117886294Y-74857592D01*
X117885000Y-74831250D01*
X117885000Y-74293750D01*
X117886294Y-74267408D01*
X117890164Y-74241319D01*
X117896572Y-74215736D01*
X117905457Y-74190904D01*
X117916734Y-74167062D01*
X117930293Y-74144440D01*
X117946003Y-74123257D01*
X117963715Y-74103715D01*
X117983257Y-74086003D01*
X118004440Y-74070293D01*
X118027062Y-74056734D01*
X118050904Y-74045457D01*
X118075736Y-74036572D01*
X118101319Y-74030164D01*
X118127408Y-74026294D01*
X118153750Y-74025000D01*
X118766250Y-74025000D01*
X118792592Y-74026294D01*
X118792592Y-74026294D01*
G37*
D15*
X118460000Y-74562500D03*
G04 #@! TD*
D10*
G04 #@! TO.C,C3*
G36*
X105862592Y-85688794D02*
X105888681Y-85692664D01*
X105914264Y-85699072D01*
X105939096Y-85707957D01*
X105962938Y-85719234D01*
X105985560Y-85732793D01*
X106006743Y-85748503D01*
X106026285Y-85766215D01*
X106043997Y-85785757D01*
X106059707Y-85806940D01*
X106073266Y-85829562D01*
X106084543Y-85853404D01*
X106093428Y-85878236D01*
X106099836Y-85903819D01*
X106103706Y-85929908D01*
X106105000Y-85956250D01*
X106105000Y-86493750D01*
X106103706Y-86520092D01*
X106099836Y-86546181D01*
X106093428Y-86571764D01*
X106084543Y-86596596D01*
X106073266Y-86620438D01*
X106059707Y-86643060D01*
X106043997Y-86664243D01*
X106026285Y-86683785D01*
X106006743Y-86701497D01*
X105985560Y-86717207D01*
X105962938Y-86730766D01*
X105939096Y-86742043D01*
X105914264Y-86750928D01*
X105888681Y-86757336D01*
X105862592Y-86761206D01*
X105836250Y-86762500D01*
X105223750Y-86762500D01*
X105197408Y-86761206D01*
X105171319Y-86757336D01*
X105145736Y-86750928D01*
X105120904Y-86742043D01*
X105097062Y-86730766D01*
X105074440Y-86717207D01*
X105053257Y-86701497D01*
X105033715Y-86683785D01*
X105016003Y-86664243D01*
X105000293Y-86643060D01*
X104986734Y-86620438D01*
X104975457Y-86596596D01*
X104966572Y-86571764D01*
X104960164Y-86546181D01*
X104956294Y-86520092D01*
X104955000Y-86493750D01*
X104955000Y-85956250D01*
X104956294Y-85929908D01*
X104960164Y-85903819D01*
X104966572Y-85878236D01*
X104975457Y-85853404D01*
X104986734Y-85829562D01*
X105000293Y-85806940D01*
X105016003Y-85785757D01*
X105033715Y-85766215D01*
X105053257Y-85748503D01*
X105074440Y-85732793D01*
X105097062Y-85719234D01*
X105120904Y-85707957D01*
X105145736Y-85699072D01*
X105171319Y-85692664D01*
X105197408Y-85688794D01*
X105223750Y-85687500D01*
X105836250Y-85687500D01*
X105862592Y-85688794D01*
X105862592Y-85688794D01*
G37*
D15*
X105530000Y-86225000D03*
D10*
G36*
X105862592Y-87263794D02*
X105888681Y-87267664D01*
X105914264Y-87274072D01*
X105939096Y-87282957D01*
X105962938Y-87294234D01*
X105985560Y-87307793D01*
X106006743Y-87323503D01*
X106026285Y-87341215D01*
X106043997Y-87360757D01*
X106059707Y-87381940D01*
X106073266Y-87404562D01*
X106084543Y-87428404D01*
X106093428Y-87453236D01*
X106099836Y-87478819D01*
X106103706Y-87504908D01*
X106105000Y-87531250D01*
X106105000Y-88068750D01*
X106103706Y-88095092D01*
X106099836Y-88121181D01*
X106093428Y-88146764D01*
X106084543Y-88171596D01*
X106073266Y-88195438D01*
X106059707Y-88218060D01*
X106043997Y-88239243D01*
X106026285Y-88258785D01*
X106006743Y-88276497D01*
X105985560Y-88292207D01*
X105962938Y-88305766D01*
X105939096Y-88317043D01*
X105914264Y-88325928D01*
X105888681Y-88332336D01*
X105862592Y-88336206D01*
X105836250Y-88337500D01*
X105223750Y-88337500D01*
X105197408Y-88336206D01*
X105171319Y-88332336D01*
X105145736Y-88325928D01*
X105120904Y-88317043D01*
X105097062Y-88305766D01*
X105074440Y-88292207D01*
X105053257Y-88276497D01*
X105033715Y-88258785D01*
X105016003Y-88239243D01*
X105000293Y-88218060D01*
X104986734Y-88195438D01*
X104975457Y-88171596D01*
X104966572Y-88146764D01*
X104960164Y-88121181D01*
X104956294Y-88095092D01*
X104955000Y-88068750D01*
X104955000Y-87531250D01*
X104956294Y-87504908D01*
X104960164Y-87478819D01*
X104966572Y-87453236D01*
X104975457Y-87428404D01*
X104986734Y-87404562D01*
X105000293Y-87381940D01*
X105016003Y-87360757D01*
X105033715Y-87341215D01*
X105053257Y-87323503D01*
X105074440Y-87307793D01*
X105097062Y-87294234D01*
X105120904Y-87282957D01*
X105145736Y-87274072D01*
X105171319Y-87267664D01*
X105197408Y-87263794D01*
X105223750Y-87262500D01*
X105836250Y-87262500D01*
X105862592Y-87263794D01*
X105862592Y-87263794D01*
G37*
D15*
X105530000Y-87800000D03*
G04 #@! TD*
D10*
G04 #@! TO.C,R1*
G36*
X119062592Y-90918794D02*
X119088681Y-90922664D01*
X119114264Y-90929072D01*
X119139096Y-90937957D01*
X119162938Y-90949234D01*
X119185560Y-90962793D01*
X119206743Y-90978503D01*
X119226285Y-90996215D01*
X119243997Y-91015757D01*
X119259707Y-91036940D01*
X119273266Y-91059562D01*
X119284543Y-91083404D01*
X119293428Y-91108236D01*
X119299836Y-91133819D01*
X119303706Y-91159908D01*
X119305000Y-91186250D01*
X119305000Y-91723750D01*
X119303706Y-91750092D01*
X119299836Y-91776181D01*
X119293428Y-91801764D01*
X119284543Y-91826596D01*
X119273266Y-91850438D01*
X119259707Y-91873060D01*
X119243997Y-91894243D01*
X119226285Y-91913785D01*
X119206743Y-91931497D01*
X119185560Y-91947207D01*
X119162938Y-91960766D01*
X119139096Y-91972043D01*
X119114264Y-91980928D01*
X119088681Y-91987336D01*
X119062592Y-91991206D01*
X119036250Y-91992500D01*
X118423750Y-91992500D01*
X118397408Y-91991206D01*
X118371319Y-91987336D01*
X118345736Y-91980928D01*
X118320904Y-91972043D01*
X118297062Y-91960766D01*
X118274440Y-91947207D01*
X118253257Y-91931497D01*
X118233715Y-91913785D01*
X118216003Y-91894243D01*
X118200293Y-91873060D01*
X118186734Y-91850438D01*
X118175457Y-91826596D01*
X118166572Y-91801764D01*
X118160164Y-91776181D01*
X118156294Y-91750092D01*
X118155000Y-91723750D01*
X118155000Y-91186250D01*
X118156294Y-91159908D01*
X118160164Y-91133819D01*
X118166572Y-91108236D01*
X118175457Y-91083404D01*
X118186734Y-91059562D01*
X118200293Y-91036940D01*
X118216003Y-91015757D01*
X118233715Y-90996215D01*
X118253257Y-90978503D01*
X118274440Y-90962793D01*
X118297062Y-90949234D01*
X118320904Y-90937957D01*
X118345736Y-90929072D01*
X118371319Y-90922664D01*
X118397408Y-90918794D01*
X118423750Y-90917500D01*
X119036250Y-90917500D01*
X119062592Y-90918794D01*
X119062592Y-90918794D01*
G37*
D15*
X118730000Y-91455000D03*
D10*
G36*
X119062592Y-89343794D02*
X119088681Y-89347664D01*
X119114264Y-89354072D01*
X119139096Y-89362957D01*
X119162938Y-89374234D01*
X119185560Y-89387793D01*
X119206743Y-89403503D01*
X119226285Y-89421215D01*
X119243997Y-89440757D01*
X119259707Y-89461940D01*
X119273266Y-89484562D01*
X119284543Y-89508404D01*
X119293428Y-89533236D01*
X119299836Y-89558819D01*
X119303706Y-89584908D01*
X119305000Y-89611250D01*
X119305000Y-90148750D01*
X119303706Y-90175092D01*
X119299836Y-90201181D01*
X119293428Y-90226764D01*
X119284543Y-90251596D01*
X119273266Y-90275438D01*
X119259707Y-90298060D01*
X119243997Y-90319243D01*
X119226285Y-90338785D01*
X119206743Y-90356497D01*
X119185560Y-90372207D01*
X119162938Y-90385766D01*
X119139096Y-90397043D01*
X119114264Y-90405928D01*
X119088681Y-90412336D01*
X119062592Y-90416206D01*
X119036250Y-90417500D01*
X118423750Y-90417500D01*
X118397408Y-90416206D01*
X118371319Y-90412336D01*
X118345736Y-90405928D01*
X118320904Y-90397043D01*
X118297062Y-90385766D01*
X118274440Y-90372207D01*
X118253257Y-90356497D01*
X118233715Y-90338785D01*
X118216003Y-90319243D01*
X118200293Y-90298060D01*
X118186734Y-90275438D01*
X118175457Y-90251596D01*
X118166572Y-90226764D01*
X118160164Y-90201181D01*
X118156294Y-90175092D01*
X118155000Y-90148750D01*
X118155000Y-89611250D01*
X118156294Y-89584908D01*
X118160164Y-89558819D01*
X118166572Y-89533236D01*
X118175457Y-89508404D01*
X118186734Y-89484562D01*
X118200293Y-89461940D01*
X118216003Y-89440757D01*
X118233715Y-89421215D01*
X118253257Y-89403503D01*
X118274440Y-89387793D01*
X118297062Y-89374234D01*
X118320904Y-89362957D01*
X118345736Y-89354072D01*
X118371319Y-89347664D01*
X118397408Y-89343794D01*
X118423750Y-89342500D01*
X119036250Y-89342500D01*
X119062592Y-89343794D01*
X119062592Y-89343794D01*
G37*
D15*
X118730000Y-89880000D03*
G04 #@! TD*
D10*
G04 #@! TO.C,C2*
G36*
X106472592Y-70983794D02*
X106498681Y-70987664D01*
X106524264Y-70994072D01*
X106549096Y-71002957D01*
X106572938Y-71014234D01*
X106595560Y-71027793D01*
X106616743Y-71043503D01*
X106636285Y-71061215D01*
X106653997Y-71080757D01*
X106669707Y-71101940D01*
X106683266Y-71124562D01*
X106694543Y-71148404D01*
X106703428Y-71173236D01*
X106709836Y-71198819D01*
X106713706Y-71224908D01*
X106715000Y-71251250D01*
X106715000Y-71788750D01*
X106713706Y-71815092D01*
X106709836Y-71841181D01*
X106703428Y-71866764D01*
X106694543Y-71891596D01*
X106683266Y-71915438D01*
X106669707Y-71938060D01*
X106653997Y-71959243D01*
X106636285Y-71978785D01*
X106616743Y-71996497D01*
X106595560Y-72012207D01*
X106572938Y-72025766D01*
X106549096Y-72037043D01*
X106524264Y-72045928D01*
X106498681Y-72052336D01*
X106472592Y-72056206D01*
X106446250Y-72057500D01*
X105833750Y-72057500D01*
X105807408Y-72056206D01*
X105781319Y-72052336D01*
X105755736Y-72045928D01*
X105730904Y-72037043D01*
X105707062Y-72025766D01*
X105684440Y-72012207D01*
X105663257Y-71996497D01*
X105643715Y-71978785D01*
X105626003Y-71959243D01*
X105610293Y-71938060D01*
X105596734Y-71915438D01*
X105585457Y-71891596D01*
X105576572Y-71866764D01*
X105570164Y-71841181D01*
X105566294Y-71815092D01*
X105565000Y-71788750D01*
X105565000Y-71251250D01*
X105566294Y-71224908D01*
X105570164Y-71198819D01*
X105576572Y-71173236D01*
X105585457Y-71148404D01*
X105596734Y-71124562D01*
X105610293Y-71101940D01*
X105626003Y-71080757D01*
X105643715Y-71061215D01*
X105663257Y-71043503D01*
X105684440Y-71027793D01*
X105707062Y-71014234D01*
X105730904Y-71002957D01*
X105755736Y-70994072D01*
X105781319Y-70987664D01*
X105807408Y-70983794D01*
X105833750Y-70982500D01*
X106446250Y-70982500D01*
X106472592Y-70983794D01*
X106472592Y-70983794D01*
G37*
D15*
X106140000Y-71520000D03*
D10*
G36*
X106472592Y-69408794D02*
X106498681Y-69412664D01*
X106524264Y-69419072D01*
X106549096Y-69427957D01*
X106572938Y-69439234D01*
X106595560Y-69452793D01*
X106616743Y-69468503D01*
X106636285Y-69486215D01*
X106653997Y-69505757D01*
X106669707Y-69526940D01*
X106683266Y-69549562D01*
X106694543Y-69573404D01*
X106703428Y-69598236D01*
X106709836Y-69623819D01*
X106713706Y-69649908D01*
X106715000Y-69676250D01*
X106715000Y-70213750D01*
X106713706Y-70240092D01*
X106709836Y-70266181D01*
X106703428Y-70291764D01*
X106694543Y-70316596D01*
X106683266Y-70340438D01*
X106669707Y-70363060D01*
X106653997Y-70384243D01*
X106636285Y-70403785D01*
X106616743Y-70421497D01*
X106595560Y-70437207D01*
X106572938Y-70450766D01*
X106549096Y-70462043D01*
X106524264Y-70470928D01*
X106498681Y-70477336D01*
X106472592Y-70481206D01*
X106446250Y-70482500D01*
X105833750Y-70482500D01*
X105807408Y-70481206D01*
X105781319Y-70477336D01*
X105755736Y-70470928D01*
X105730904Y-70462043D01*
X105707062Y-70450766D01*
X105684440Y-70437207D01*
X105663257Y-70421497D01*
X105643715Y-70403785D01*
X105626003Y-70384243D01*
X105610293Y-70363060D01*
X105596734Y-70340438D01*
X105585457Y-70316596D01*
X105576572Y-70291764D01*
X105570164Y-70266181D01*
X105566294Y-70240092D01*
X105565000Y-70213750D01*
X105565000Y-69676250D01*
X105566294Y-69649908D01*
X105570164Y-69623819D01*
X105576572Y-69598236D01*
X105585457Y-69573404D01*
X105596734Y-69549562D01*
X105610293Y-69526940D01*
X105626003Y-69505757D01*
X105643715Y-69486215D01*
X105663257Y-69468503D01*
X105684440Y-69452793D01*
X105707062Y-69439234D01*
X105730904Y-69427957D01*
X105755736Y-69419072D01*
X105781319Y-69412664D01*
X105807408Y-69408794D01*
X105833750Y-69407500D01*
X106446250Y-69407500D01*
X106472592Y-69408794D01*
X106472592Y-69408794D01*
G37*
D15*
X106140000Y-69945000D03*
G04 #@! TD*
D10*
G04 #@! TO.C,C1*
G36*
X104296852Y-71014594D02*
X104322941Y-71018464D01*
X104348524Y-71024872D01*
X104373356Y-71033757D01*
X104397198Y-71045034D01*
X104419820Y-71058593D01*
X104441003Y-71074303D01*
X104460545Y-71092015D01*
X104478257Y-71111557D01*
X104493967Y-71132740D01*
X104507526Y-71155362D01*
X104518803Y-71179204D01*
X104527688Y-71204036D01*
X104534096Y-71229619D01*
X104537966Y-71255708D01*
X104539260Y-71282050D01*
X104539260Y-71819550D01*
X104537966Y-71845892D01*
X104534096Y-71871981D01*
X104527688Y-71897564D01*
X104518803Y-71922396D01*
X104507526Y-71946238D01*
X104493967Y-71968860D01*
X104478257Y-71990043D01*
X104460545Y-72009585D01*
X104441003Y-72027297D01*
X104419820Y-72043007D01*
X104397198Y-72056566D01*
X104373356Y-72067843D01*
X104348524Y-72076728D01*
X104322941Y-72083136D01*
X104296852Y-72087006D01*
X104270510Y-72088300D01*
X103658010Y-72088300D01*
X103631668Y-72087006D01*
X103605579Y-72083136D01*
X103579996Y-72076728D01*
X103555164Y-72067843D01*
X103531322Y-72056566D01*
X103508700Y-72043007D01*
X103487517Y-72027297D01*
X103467975Y-72009585D01*
X103450263Y-71990043D01*
X103434553Y-71968860D01*
X103420994Y-71946238D01*
X103409717Y-71922396D01*
X103400832Y-71897564D01*
X103394424Y-71871981D01*
X103390554Y-71845892D01*
X103389260Y-71819550D01*
X103389260Y-71282050D01*
X103390554Y-71255708D01*
X103394424Y-71229619D01*
X103400832Y-71204036D01*
X103409717Y-71179204D01*
X103420994Y-71155362D01*
X103434553Y-71132740D01*
X103450263Y-71111557D01*
X103467975Y-71092015D01*
X103487517Y-71074303D01*
X103508700Y-71058593D01*
X103531322Y-71045034D01*
X103555164Y-71033757D01*
X103579996Y-71024872D01*
X103605579Y-71018464D01*
X103631668Y-71014594D01*
X103658010Y-71013300D01*
X104270510Y-71013300D01*
X104296852Y-71014594D01*
X104296852Y-71014594D01*
G37*
D15*
X103964260Y-71550800D03*
D10*
G36*
X104296852Y-69439594D02*
X104322941Y-69443464D01*
X104348524Y-69449872D01*
X104373356Y-69458757D01*
X104397198Y-69470034D01*
X104419820Y-69483593D01*
X104441003Y-69499303D01*
X104460545Y-69517015D01*
X104478257Y-69536557D01*
X104493967Y-69557740D01*
X104507526Y-69580362D01*
X104518803Y-69604204D01*
X104527688Y-69629036D01*
X104534096Y-69654619D01*
X104537966Y-69680708D01*
X104539260Y-69707050D01*
X104539260Y-70244550D01*
X104537966Y-70270892D01*
X104534096Y-70296981D01*
X104527688Y-70322564D01*
X104518803Y-70347396D01*
X104507526Y-70371238D01*
X104493967Y-70393860D01*
X104478257Y-70415043D01*
X104460545Y-70434585D01*
X104441003Y-70452297D01*
X104419820Y-70468007D01*
X104397198Y-70481566D01*
X104373356Y-70492843D01*
X104348524Y-70501728D01*
X104322941Y-70508136D01*
X104296852Y-70512006D01*
X104270510Y-70513300D01*
X103658010Y-70513300D01*
X103631668Y-70512006D01*
X103605579Y-70508136D01*
X103579996Y-70501728D01*
X103555164Y-70492843D01*
X103531322Y-70481566D01*
X103508700Y-70468007D01*
X103487517Y-70452297D01*
X103467975Y-70434585D01*
X103450263Y-70415043D01*
X103434553Y-70393860D01*
X103420994Y-70371238D01*
X103409717Y-70347396D01*
X103400832Y-70322564D01*
X103394424Y-70296981D01*
X103390554Y-70270892D01*
X103389260Y-70244550D01*
X103389260Y-69707050D01*
X103390554Y-69680708D01*
X103394424Y-69654619D01*
X103400832Y-69629036D01*
X103409717Y-69604204D01*
X103420994Y-69580362D01*
X103434553Y-69557740D01*
X103450263Y-69536557D01*
X103467975Y-69517015D01*
X103487517Y-69499303D01*
X103508700Y-69483593D01*
X103531322Y-69470034D01*
X103555164Y-69458757D01*
X103579996Y-69449872D01*
X103605579Y-69443464D01*
X103631668Y-69439594D01*
X103658010Y-69438300D01*
X104270510Y-69438300D01*
X104296852Y-69439594D01*
X104296852Y-69439594D01*
G37*
D15*
X103964260Y-69975800D03*
G04 #@! TD*
D30*
G04 #@! TO.C,U1*
X108900000Y-70640000D03*
X108900000Y-71140000D03*
X108900000Y-71640000D03*
X108900000Y-72140000D03*
X108900000Y-72640000D03*
X113300000Y-72640000D03*
X113300000Y-72140000D03*
X113300000Y-71640000D03*
X113300000Y-71140000D03*
X113300000Y-70640000D03*
G04 #@! TD*
D33*
G04 #@! TO.C,H1*
X82040000Y-64310000D03*
G04 #@! TD*
G04 #@! TO.C,H2*
X140040000Y-64330000D03*
G04 #@! TD*
G04 #@! TO.C,H3*
X82040000Y-113320000D03*
G04 #@! TD*
G04 #@! TO.C,H4*
X140030000Y-113310000D03*
G04 #@! TD*
M02*
