M48
;DRILL file {KiCad 5.0.0-fee4fd1~66~ubuntu18.04.1} date Sat Nov  3 07:12:03 2018
;FORMAT={-:-/ absolute / inch / decimal}
FMAT,2
INCH,TZ
T1C0.0118
T2C0.0256
T3C0.0276
T4C0.0394
%
G90
G05
M72
T1
X3.2181Y-2.7059
X3.3098Y-2.7606
X3.3799Y-4.1189
X3.38Y-3.85
X3.3808Y-3.7208
X3.381Y-3.981
X3.5299Y-4.2831
X3.5571Y-2.7417
X3.611Y-2.7563
X3.6441Y-4.2827
X3.6476Y-2.6732
X3.674Y-2.7406
X3.8079Y-2.7516
X3.8496Y-2.7055
X3.9524Y-3.9169
X3.961Y-3.2646
X4.0358Y-4.1496
X4.037Y-3.7547
X4.0614Y-2.7551
X4.0858Y-3.6886
X4.0882Y-4.0028
X4.1063Y-3.0039
X4.1063Y-3.0276
X4.1063Y-3.0512
X4.1063Y-3.0748
X4.1063Y-3.0984
X4.1176Y-3.6164
X4.1181Y-3.7972
X4.1181Y-4.2461
X4.1248Y-4.422
X4.1299Y-3.0039
X4.1437Y-3.9959
X4.1439Y-4.0959
X4.1535Y-3.0039
X4.1783Y-2.7055
X4.1811Y-3.0039
X4.2047Y-3.0039
X4.2075Y-4.3551
X4.2417Y-3.1657
X4.2443Y-3.1902
X4.2445Y-2.8402
X4.2457Y-3.1185
X4.2457Y-3.139
X4.2602Y-3.2831
X4.3098Y-3.4728
X4.3504Y-2.7055
X4.3504Y-3.6886
X4.4177Y-3.0988
X4.4512Y-3.4472
X4.4594Y-3.0287
X4.4629Y-3.2769
X4.5083Y-2.8008
X4.5083Y-3.1189
X4.5161Y-2.8402
X4.5343Y-3.1772
X4.5398Y-2.8606
X4.5417Y-4.3547
X4.5429Y-3.5882
X4.5909Y-3.1764
X4.6319Y-3.8457
X4.6319Y-3.8961
X4.6319Y-3.9453
X4.6319Y-4.0459
X4.6638Y-2.6732
X4.6744Y-3.6343
X4.713Y-3.3799
X4.7492Y-4.4031
X4.7614Y-3.6339
X4.7622Y-2.7055
X4.7937Y-3.7933
X4.8024Y-4.2469
X4.8469Y-2.6728
X4.9598Y-4.2083
X4.9598Y-4.2457
X5.0815Y-2.6425
X5.1567Y-4.2657
X4.3157Y-3.8831
X4.3157Y-3.9224
X4.3157Y-3.9618
X4.3157Y-4.0012
X4.3157Y-4.0406
X4.3157Y-4.076
X4.3157Y-4.1154
X4.3157Y-4.1587
X4.3551Y-3.8831
X4.3551Y-3.9224
X4.3551Y-3.9618
X4.3551Y-4.0012
X4.3551Y-4.0406
X4.3551Y-4.076
X4.3551Y-4.1154
X4.3551Y-4.1587
X4.3945Y-3.8831
X4.3945Y-3.9224
X4.3945Y-3.9618
X4.3945Y-4.0012
X4.3945Y-4.0406
X4.3945Y-4.076
X4.3945Y-4.1154
X4.3945Y-4.1587
X4.4339Y-3.8831
X4.4339Y-3.9224
X4.4339Y-3.9618
X4.4339Y-4.0012
X4.4339Y-4.0406
X4.4339Y-4.076
X4.4339Y-4.1154
X4.4339Y-4.1587
T2
X3.8303Y-3.5917
X3.8303Y-3.6417
X4.9756Y-4.4551
X4.9756Y-4.5051
X5.222Y-4.4555
X5.222Y-4.5055
T3
X3.2146Y-2.9945
X3.2146Y-3.2945
X3.5146Y-2.9945
X3.7146Y-2.9945
X3.8146Y-2.9945
X3.8146Y-3.2945
T4
X3.4209Y-2.4831
X3.4209Y-2.5831
X3.5209Y-2.4831
X3.5209Y-2.5831
X3.6209Y-2.4831
X3.6209Y-2.5831
X3.7209Y-2.4831
X3.7209Y-2.5831
X3.8209Y-2.4831
X3.8209Y-2.5831
X3.9209Y-2.4831
X3.9209Y-2.5831
X4.0209Y-2.4831
X4.0209Y-2.5831
X4.1209Y-2.4831
X4.1209Y-2.5831
X4.2209Y-2.4831
X4.2209Y-2.5831
X4.3209Y-2.4831
X4.3209Y-2.5831
X4.4209Y-2.4831
X4.4209Y-2.5831
X4.5209Y-2.4831
X4.5209Y-2.5831
X4.6209Y-2.4831
X4.6209Y-2.5831
X4.7209Y-2.4831
X4.7209Y-2.5831
X4.8209Y-2.4831
X4.8209Y-2.5831
X4.9209Y-2.4831
X4.9209Y-2.5831
X5.0209Y-2.4831
X5.0209Y-2.5831
X5.1209Y-2.4831
X5.1209Y-2.5831
X5.2209Y-2.4831
X5.2209Y-2.5831
X5.3209Y-2.4831
X5.3209Y-2.5831
T0
M30
